<svg xmlns="http://www.w3.org/2000/svg" xmlns:xlink="http://www.w3.org/1999/xlink" contentStyleType="text/css" data-diagram-type="CLASS" height="322px" preserveAspectRatio="none" style="width:6196px;height:322px;background:#FFFFFF;" version="1.1" viewBox="0 0 6196 322" width="6196px" zoomAndPan="magnify"><defs/><g><!--entity Feature_User--><g id="elem_Feature_User"><ellipse cx="3149.6685" cy="14" fill="#F1F1F1" rx="8" ry="8" style="stroke:#181818;stroke-width:0.5;"/><path d="M3149.6685,22 L3149.6685,49 M3136.6685,30 L3162.6685,30 M3149.6685,49 L3136.6685,64 M3149.6685,49 L3162.6685,64 " fill="transparent" style="stroke:#181818;stroke-width:0.5;"/><text fill="#000000" font-family="sans-serif" font-size="14" lengthAdjust="spacing" textLength="90.3369" x="3104.5" y="78.4951">Feature User</text></g><!--class logic_arc_int__baselibs__task--><g id="elem_logic_arc_int__baselibs__task"><rect fill="#F1F1F1" height="40" id="logic_arc_int__baselibs__task" rx="2.5" ry="2.5" style="stroke:#181818;stroke-width:0.5;" width="234.0156" x="4617.5" y="158.5"/><ellipse cx="4632.5" cy="174.5" fill="#ADD1B2" rx="11" ry="11" style="stroke:#181818;stroke-width:1;"/><path d="M4635.4688,180.1406 Q4634.8906,180.4375 4634.25,180.5781 Q4633.6094,180.7344 4632.9063,180.7344 Q4630.4063,180.7344 4629.0781,179.0938 Q4627.7656,177.4375 4627.7656,174.3125 Q4627.7656,171.1875 4629.0781,169.5313 Q4630.4063,167.875 4632.9063,167.875 Q4633.6094,167.875 4634.25,168.0313 Q4634.9063,168.1875 4635.4688,168.4844 L4635.4688,171.2031 Q4634.8438,170.625 4634.25,170.3594 Q4633.6563,170.0781 4633.0313,170.0781 Q4631.6875,170.0781 4631,171.1563 Q4630.3125,172.2188 4630.3125,174.3125 Q4630.3125,176.4063 4631,177.4844 Q4631.6875,178.5469 4633.0313,178.5469 Q4633.6563,178.5469 4634.25,178.2813 Q4634.8438,178 4635.4688,177.4219 L4635.4688,180.1406 Z " fill="#000000"/><text fill="#000000" font-family="sans-serif" font-size="14" lengthAdjust="spacing" textLength="202.0156" x="4646.5" y="179.3467">logic_arc_int__baselibs__task</text><line style="stroke:#181818;stroke-width:0.5;" x1="4618.5" x2="4850.5156" y1="190.5" y2="190.5"/></g><!--class comp_arc_sta__baselibs__concurrency--><g id="elem_comp_arc_sta__baselibs__concurrency"><rect fill="#F1F1F1" height="40" id="comp_arc_sta__baselibs__concurrency" rx="2.5" ry="2.5" style="stroke:#181818;stroke-width:0.5;" width="300.2012" x="4092.5" y="275.5"/><ellipse cx="4107.5" cy="291.5" fill="#ADD1B2" rx="11" ry="11" style="stroke:#181818;stroke-width:1;"/><path d="M4110.4688,297.1406 Q4109.8906,297.4375 4109.25,297.5781 Q4108.6094,297.7344 4107.9063,297.7344 Q4105.4063,297.7344 4104.0781,296.0938 Q4102.7656,294.4375 4102.7656,291.3125 Q4102.7656,288.1875 4104.0781,286.5313 Q4105.4063,284.875 4107.9063,284.875 Q4108.6094,284.875 4109.25,285.0313 Q4109.9063,285.1875 4110.4688,285.4844 L4110.4688,288.2031 Q4109.8438,287.625 4109.25,287.3594 Q4108.6563,287.0781 4108.0313,287.0781 Q4106.6875,287.0781 4106,288.1563 Q4105.3125,289.2188 4105.3125,291.3125 Q4105.3125,293.4063 4106,294.4844 Q4106.6875,295.5469 4108.0313,295.5469 Q4108.6563,295.5469 4109.25,295.2813 Q4109.8438,295 4110.4688,294.4219 L4110.4688,297.1406 Z " fill="#000000"/><text fill="#000000" font-family="sans-serif" font-size="14" lengthAdjust="spacing" textLength="268.2012" x="4121.5" y="296.3467">comp_arc_sta__baselibs__concurrency</text><line style="stroke:#181818;stroke-width:0.5;" x1="4093.5" x2="4391.7012" y1="307.5" y2="307.5"/></g><!--class logic_arc_int__baselibs__future--><g id="elem_logic_arc_int__baselibs__future"><rect fill="#F1F1F1" height="40" id="logic_arc_int__baselibs__future" rx="2.5" ry="2.5" style="stroke:#181818;stroke-width:0.5;" width="247.0791" x="4887" y="158.5"/><ellipse cx="4902" cy="174.5" fill="#ADD1B2" rx="11" ry="11" style="stroke:#181818;stroke-width:1;"/><path d="M4904.9688,180.1406 Q4904.3906,180.4375 4903.75,180.5781 Q4903.1094,180.7344 4902.4063,180.7344 Q4899.9063,180.7344 4898.5781,179.0938 Q4897.2656,177.4375 4897.2656,174.3125 Q4897.2656,171.1875 4898.5781,169.5313 Q4899.9063,167.875 4902.4063,167.875 Q4903.1094,167.875 4903.75,168.0313 Q4904.4063,168.1875 4904.9688,168.4844 L4904.9688,171.2031 Q4904.3438,170.625 4903.75,170.3594 Q4903.1563,170.0781 4902.5313,170.0781 Q4901.1875,170.0781 4900.5,171.1563 Q4899.8125,172.2188 4899.8125,174.3125 Q4899.8125,176.4063 4900.5,177.4844 Q4901.1875,178.5469 4902.5313,178.5469 Q4903.1563,178.5469 4903.75,178.2813 Q4904.3438,178 4904.9688,177.4219 L4904.9688,180.1406 Z " fill="#000000"/><text fill="#000000" font-family="sans-serif" font-size="14" lengthAdjust="spacing" textLength="215.0791" x="4916" y="179.3467">logic_arc_int__baselibs__future</text><line style="stroke:#181818;stroke-width:0.5;" x1="4888" x2="5133.0791" y1="190.5" y2="190.5"/></g><!--class logic_arc_int__baselibs__dynamic_array--><g id="elem_logic_arc_int__baselibs__dynamic_array"><rect fill="#F1F1F1" height="40" id="logic_arc_int__baselibs__dynamic_array" rx="2.5" ry="2.5" style="stroke:#181818;stroke-width:0.5;" width="308.3496" x="5881.5" y="158.5"/><ellipse cx="5896.5" cy="174.5" fill="#ADD1B2" rx="11" ry="11" style="stroke:#181818;stroke-width:1;"/><path d="M5899.4688,180.1406 Q5898.8906,180.4375 5898.25,180.5781 Q5897.6094,180.7344 5896.9063,180.7344 Q5894.4063,180.7344 5893.0781,179.0938 Q5891.7656,177.4375 5891.7656,174.3125 Q5891.7656,171.1875 5893.0781,169.5313 Q5894.4063,167.875 5896.9063,167.875 Q5897.6094,167.875 5898.25,168.0313 Q5898.9063,168.1875 5899.4688,168.4844 L5899.4688,171.2031 Q5898.8438,170.625 5898.25,170.3594 Q5897.6563,170.0781 5897.0313,170.0781 Q5895.6875,170.0781 5895,171.1563 Q5894.3125,172.2188 5894.3125,174.3125 Q5894.3125,176.4063 5895,177.4844 Q5895.6875,178.5469 5897.0313,178.5469 Q5897.6563,178.5469 5898.25,178.2813 Q5898.8438,178 5899.4688,177.4219 L5899.4688,180.1406 Z " fill="#000000"/><text fill="#000000" font-family="sans-serif" font-size="14" lengthAdjust="spacing" textLength="276.3496" x="5910.5" y="179.3467">logic_arc_int__baselibs__dynamic_array</text><line style="stroke:#181818;stroke-width:0.5;" x1="5882.5" x2="6188.8496" y1="190.5" y2="190.5"/></g><!--class logic_arc_int__baselibs__task_result--><g id="elem_logic_arc_int__baselibs__task_result"><rect fill="#F1F1F1" height="40" id="logic_arc_int__baselibs__task_result" rx="2.5" ry="2.5" style="stroke:#181818;stroke-width:0.5;" width="280.9307" x="4301" y="158.5"/><ellipse cx="4316" cy="174.5" fill="#ADD1B2" rx="11" ry="11" style="stroke:#181818;stroke-width:1;"/><path d="M4318.9688,180.1406 Q4318.3906,180.4375 4317.75,180.5781 Q4317.1094,180.7344 4316.4063,180.7344 Q4313.9063,180.7344 4312.5781,179.0938 Q4311.2656,177.4375 4311.2656,174.3125 Q4311.2656,171.1875 4312.5781,169.5313 Q4313.9063,167.875 4316.4063,167.875 Q4317.1094,167.875 4317.75,168.0313 Q4318.4063,168.1875 4318.9688,168.4844 L4318.9688,171.2031 Q4318.3438,170.625 4317.75,170.3594 Q4317.1563,170.0781 4316.5313,170.0781 Q4315.1875,170.0781 4314.5,171.1563 Q4313.8125,172.2188 4313.8125,174.3125 Q4313.8125,176.4063 4314.5,177.4844 Q4315.1875,178.5469 4316.5313,178.5469 Q4317.1563,178.5469 4317.75,178.2813 Q4318.3438,178 4318.9688,177.4219 L4318.9688,180.1406 Z " fill="#000000"/><text fill="#000000" font-family="sans-serif" font-size="14" lengthAdjust="spacing" textLength="248.9307" x="4330" y="179.3467">logic_arc_int__baselibs__task_result</text><line style="stroke:#181818;stroke-width:0.5;" x1="4302" x2="4580.9307" y1="190.5" y2="190.5"/></g><!--class comp_arc_sta__baselibs__containers--><g id="elem_comp_arc_sta__baselibs__containers"><rect fill="#F1F1F1" height="40" id="comp_arc_sta__baselibs__containers" rx="2.5" ry="2.5" style="stroke:#181818;stroke-width:0.5;" width="287.1445" x="5724" y="275.5"/><ellipse cx="5739" cy="291.5" fill="#ADD1B2" rx="11" ry="11" style="stroke:#181818;stroke-width:1;"/><path d="M5741.9688,297.1406 Q5741.3906,297.4375 5740.75,297.5781 Q5740.1094,297.7344 5739.4063,297.7344 Q5736.9063,297.7344 5735.5781,296.0938 Q5734.2656,294.4375 5734.2656,291.3125 Q5734.2656,288.1875 5735.5781,286.5313 Q5736.9063,284.875 5739.4063,284.875 Q5740.1094,284.875 5740.75,285.0313 Q5741.4063,285.1875 5741.9688,285.4844 L5741.9688,288.2031 Q5741.3438,287.625 5740.75,287.3594 Q5740.1563,287.0781 5739.5313,287.0781 Q5738.1875,287.0781 5737.5,288.1563 Q5736.8125,289.2188 5736.8125,291.3125 Q5736.8125,293.4063 5737.5,294.4844 Q5738.1875,295.5469 5739.5313,295.5469 Q5740.1563,295.5469 5740.75,295.2813 Q5741.3438,295 5741.9688,294.4219 L5741.9688,297.1406 Z " fill="#000000"/><text fill="#000000" font-family="sans-serif" font-size="14" lengthAdjust="spacing" textLength="255.1445" x="5753" y="296.3467">comp_arc_sta__baselibs__containers</text><line style="stroke:#181818;stroke-width:0.5;" x1="5725" x2="6010.1445" y1="307.5" y2="307.5"/></g><!--class logic_arc_int__baselibs__intrusive_list--><g id="elem_logic_arc_int__baselibs__intrusive_list"><rect fill="#F1F1F1" height="40" id="logic_arc_int__baselibs__intrusive_list" rx="2.5" ry="2.5" style="stroke:#181818;stroke-width:0.5;" width="293.0713" x="5553" y="158.5"/><ellipse cx="5568" cy="174.5" fill="#ADD1B2" rx="11" ry="11" style="stroke:#181818;stroke-width:1;"/><path d="M5570.9688,180.1406 Q5570.3906,180.4375 5569.75,180.5781 Q5569.1094,180.7344 5568.4063,180.7344 Q5565.9063,180.7344 5564.5781,179.0938 Q5563.2656,177.4375 5563.2656,174.3125 Q5563.2656,171.1875 5564.5781,169.5313 Q5565.9063,167.875 5568.4063,167.875 Q5569.1094,167.875 5569.75,168.0313 Q5570.4063,168.1875 5570.9688,168.4844 L5570.9688,171.2031 Q5570.3438,170.625 5569.75,170.3594 Q5569.1563,170.0781 5568.5313,170.0781 Q5567.1875,170.0781 5566.5,171.1563 Q5565.8125,172.2188 5565.8125,174.3125 Q5565.8125,176.4063 5566.5,177.4844 Q5567.1875,178.5469 5568.5313,178.5469 Q5569.1563,178.5469 5569.75,178.2813 Q5570.3438,178 5570.9688,177.4219 L5570.9688,180.1406 Z " fill="#000000"/><text fill="#000000" font-family="sans-serif" font-size="14" lengthAdjust="spacing" textLength="261.0713" x="5582" y="179.3467">logic_arc_int__baselibs__intrusive_list</text><line style="stroke:#181818;stroke-width:0.5;" x1="5554" x2="5845.0713" y1="190.5" y2="190.5"/></g><!--class logic_arc_int__baselibs__bit_mask_operator--><g id="elem_logic_arc_int__baselibs__bit_mask_operator"><rect fill="#F1F1F1" height="40" id="logic_arc_int__baselibs__bit_mask_operator" rx="2.5" ry="2.5" style="stroke:#181818;stroke-width:0.5;" width="334.6406" x="650" y="158.5"/><ellipse cx="665" cy="174.5" fill="#ADD1B2" rx="11" ry="11" style="stroke:#181818;stroke-width:1;"/><path d="M667.9688,180.1406 Q667.3906,180.4375 666.75,180.5781 Q666.1094,180.7344 665.4063,180.7344 Q662.9063,180.7344 661.5781,179.0938 Q660.2656,177.4375 660.2656,174.3125 Q660.2656,171.1875 661.5781,169.5313 Q662.9063,167.875 665.4063,167.875 Q666.1094,167.875 666.75,168.0313 Q667.4063,168.1875 667.9688,168.4844 L667.9688,171.2031 Q667.3438,170.625 666.75,170.3594 Q666.1563,170.0781 665.5313,170.0781 Q664.1875,170.0781 663.5,171.1563 Q662.8125,172.2188 662.8125,174.3125 Q662.8125,176.4063 663.5,177.4844 Q664.1875,178.5469 665.5313,178.5469 Q666.1563,178.5469 666.75,178.2813 Q667.3438,178 667.9688,177.4219 L667.9688,180.1406 Z " fill="#000000"/><text fill="#000000" font-family="sans-serif" font-size="14" lengthAdjust="spacing" textLength="302.6406" x="679" y="179.3467">logic_arc_int__baselibs__bit_mask_operator</text><line style="stroke:#181818;stroke-width:0.5;" x1="651" x2="983.6406" y1="190.5" y2="190.5"/></g><!--class logic_arc_int__baselibs__utils_scoped_op--><g id="elem_logic_arc_int__baselibs__utils_scoped_op"><rect fill="#F1F1F1" height="40" id="logic_arc_int__baselibs__utils_scoped_op" rx="2.5" ry="2.5" style="stroke:#181818;stroke-width:0.5;" width="315.377" x="1741" y="158.5"/><ellipse cx="1756" cy="174.5" fill="#ADD1B2" rx="11" ry="11" style="stroke:#181818;stroke-width:1;"/><path d="M1758.9688,180.1406 Q1758.3906,180.4375 1757.75,180.5781 Q1757.1094,180.7344 1756.4063,180.7344 Q1753.9063,180.7344 1752.5781,179.0938 Q1751.2656,177.4375 1751.2656,174.3125 Q1751.2656,171.1875 1752.5781,169.5313 Q1753.9063,167.875 1756.4063,167.875 Q1757.1094,167.875 1757.75,168.0313 Q1758.4063,168.1875 1758.9688,168.4844 L1758.9688,171.2031 Q1758.3438,170.625 1757.75,170.3594 Q1757.1563,170.0781 1756.5313,170.0781 Q1755.1875,170.0781 1754.5,171.1563 Q1753.8125,172.2188 1753.8125,174.3125 Q1753.8125,176.4063 1754.5,177.4844 Q1755.1875,178.5469 1756.5313,178.5469 Q1757.1563,178.5469 1757.75,178.2813 Q1758.3438,178 1758.9688,177.4219 L1758.9688,180.1406 Z " fill="#000000"/><text fill="#000000" font-family="sans-serif" font-size="14" lengthAdjust="spacing" textLength="283.377" x="1770" y="179.3467">logic_arc_int__baselibs__utils_scoped_op</text><line style="stroke:#181818;stroke-width:0.5;" x1="1742" x2="2055.377" y1="190.5" y2="190.5"/></g><!--class logic_arc_int__baselibs__condition_variable--><g id="elem_logic_arc_int__baselibs__condition_variable"><rect fill="#F1F1F1" height="40" id="logic_arc_int__baselibs__condition_variable" rx="2.5" ry="2.5" style="stroke:#181818;stroke-width:0.5;" width="332.7539" x="3933" y="158.5"/><ellipse cx="3948" cy="174.5" fill="#ADD1B2" rx="11" ry="11" style="stroke:#181818;stroke-width:1;"/><path d="M3950.9688,180.1406 Q3950.3906,180.4375 3949.75,180.5781 Q3949.1094,180.7344 3948.4063,180.7344 Q3945.9063,180.7344 3944.5781,179.0938 Q3943.2656,177.4375 3943.2656,174.3125 Q3943.2656,171.1875 3944.5781,169.5313 Q3945.9063,167.875 3948.4063,167.875 Q3949.1094,167.875 3949.75,168.0313 Q3950.4063,168.1875 3950.9688,168.4844 L3950.9688,171.2031 Q3950.3438,170.625 3949.75,170.3594 Q3949.1563,170.0781 3948.5313,170.0781 Q3947.1875,170.0781 3946.5,171.1563 Q3945.8125,172.2188 3945.8125,174.3125 Q3945.8125,176.4063 3946.5,177.4844 Q3947.1875,178.5469 3948.5313,178.5469 Q3949.1563,178.5469 3949.75,178.2813 Q3950.3438,178 3950.9688,177.4219 L3950.9688,180.1406 Z " fill="#000000"/><text fill="#000000" font-family="sans-serif" font-size="14" lengthAdjust="spacing" textLength="300.7539" x="3962" y="179.3467">logic_arc_int__baselibs__condition_variable</text><line style="stroke:#181818;stroke-width:0.5;" x1="3934" x2="4264.7539" y1="190.5" y2="190.5"/></g><!--class logic_arc_int__baselibs__promise--><g id="elem_logic_arc_int__baselibs__promise"><rect fill="#F1F1F1" height="40" id="logic_arc_int__baselibs__promise" rx="2.5" ry="2.5" style="stroke:#181818;stroke-width:0.5;" width="261.1885" x="3637" y="158.5"/><ellipse cx="3652" cy="174.5" fill="#ADD1B2" rx="11" ry="11" style="stroke:#181818;stroke-width:1;"/><path d="M3654.9688,180.1406 Q3654.3906,180.4375 3653.75,180.5781 Q3653.1094,180.7344 3652.4063,180.7344 Q3649.9063,180.7344 3648.5781,179.0938 Q3647.2656,177.4375 3647.2656,174.3125 Q3647.2656,171.1875 3648.5781,169.5313 Q3649.9063,167.875 3652.4063,167.875 Q3653.1094,167.875 3653.75,168.0313 Q3654.4063,168.1875 3654.9688,168.4844 L3654.9688,171.2031 Q3654.3438,170.625 3653.75,170.3594 Q3653.1563,170.0781 3652.5313,170.0781 Q3651.1875,170.0781 3650.5,171.1563 Q3649.8125,172.2188 3649.8125,174.3125 Q3649.8125,176.4063 3650.5,177.4844 Q3651.1875,178.5469 3652.5313,178.5469 Q3653.1563,178.5469 3653.75,178.2813 Q3654.3438,178 3654.9688,177.4219 L3654.9688,180.1406 Z " fill="#000000"/><text fill="#000000" font-family="sans-serif" font-size="14" lengthAdjust="spacing" textLength="229.1885" x="3666" y="179.3467">logic_arc_int__baselibs__promise</text><line style="stroke:#181818;stroke-width:0.5;" x1="3638" x2="3897.1885" y1="190.5" y2="190.5"/></g><!--class logic_arc_int__baselibs__message_passing--><g id="elem_logic_arc_int__baselibs__message_passing"><rect fill="#F1F1F1" height="40" id="logic_arc_int__baselibs__message_passing" rx="2.5" ry="2.5" style="stroke:#181818;stroke-width:0.5;" width="328.167" x="1377.5" y="158.5"/><ellipse cx="1392.5" cy="174.5" fill="#ADD1B2" rx="11" ry="11" style="stroke:#181818;stroke-width:1;"/><path d="M1395.4688,180.1406 Q1394.8906,180.4375 1394.25,180.5781 Q1393.6094,180.7344 1392.9063,180.7344 Q1390.4063,180.7344 1389.0781,179.0938 Q1387.7656,177.4375 1387.7656,174.3125 Q1387.7656,171.1875 1389.0781,169.5313 Q1390.4063,167.875 1392.9063,167.875 Q1393.6094,167.875 1394.25,168.0313 Q1394.9063,168.1875 1395.4688,168.4844 L1395.4688,171.2031 Q1394.8438,170.625 1394.25,170.3594 Q1393.6563,170.0781 1393.0313,170.0781 Q1391.6875,170.0781 1391,171.1563 Q1390.3125,172.2188 1390.3125,174.3125 Q1390.3125,176.4063 1391,177.4844 Q1391.6875,178.5469 1393.0313,178.5469 Q1393.6563,178.5469 1394.25,178.2813 Q1394.8438,178 1395.4688,177.4219 L1395.4688,180.1406 Z " fill="#000000"/><text fill="#000000" font-family="sans-serif" font-size="14" lengthAdjust="spacing" textLength="296.167" x="1406.5" y="179.3467">logic_arc_int__baselibs__message_passing</text><line style="stroke:#181818;stroke-width:0.5;" x1="1378.5" x2="1704.667" y1="190.5" y2="190.5"/></g><!--class logic_arc_int__baselibs__executor--><g id="elem_logic_arc_int__baselibs__executor"><rect fill="#F1F1F1" height="40" id="logic_arc_int__baselibs__executor" rx="2.5" ry="2.5" style="stroke:#181818;stroke-width:0.5;" width="266.4385" x="3335.5" y="158.5"/><ellipse cx="3350.5" cy="174.5" fill="#ADD1B2" rx="11" ry="11" style="stroke:#181818;stroke-width:1;"/><path d="M3353.4688,180.1406 Q3352.8906,180.4375 3352.25,180.5781 Q3351.6094,180.7344 3350.9063,180.7344 Q3348.4063,180.7344 3347.0781,179.0938 Q3345.7656,177.4375 3345.7656,174.3125 Q3345.7656,171.1875 3347.0781,169.5313 Q3348.4063,167.875 3350.9063,167.875 Q3351.6094,167.875 3352.25,168.0313 Q3352.9063,168.1875 3353.4688,168.4844 L3353.4688,171.2031 Q3352.8438,170.625 3352.25,170.3594 Q3351.6563,170.0781 3351.0313,170.0781 Q3349.6875,170.0781 3349,171.1563 Q3348.3125,172.2188 3348.3125,174.3125 Q3348.3125,176.4063 3349,177.4844 Q3349.6875,178.5469 3351.0313,178.5469 Q3351.6563,178.5469 3352.25,178.2813 Q3352.8438,178 3353.4688,177.4219 L3353.4688,180.1406 Z " fill="#000000"/><text fill="#000000" font-family="sans-serif" font-size="14" lengthAdjust="spacing" textLength="234.4385" x="3364.5" y="179.3467">logic_arc_int__baselibs__executor</text><line style="stroke:#181818;stroke-width:0.5;" x1="3336.5" x2="3600.9385" y1="190.5" y2="190.5"/></g><!--class logic_arc_int__baselibs__result--><g id="elem_logic_arc_int__baselibs__result"><rect fill="#F1F1F1" height="40" id="logic_arc_int__baselibs__result" rx="2.5" ry="2.5" style="stroke:#181818;stroke-width:0.5;" width="244.4609" x="15.5" y="158.5"/><ellipse cx="30.5" cy="174.5" fill="#ADD1B2" rx="11" ry="11" style="stroke:#181818;stroke-width:1;"/><path d="M33.4688,180.1406 Q32.8906,180.4375 32.25,180.5781 Q31.6094,180.7344 30.9063,180.7344 Q28.4063,180.7344 27.0781,179.0938 Q25.7656,177.4375 25.7656,174.3125 Q25.7656,171.1875 27.0781,169.5313 Q28.4063,167.875 30.9063,167.875 Q31.6094,167.875 32.25,168.0313 Q32.9063,168.1875 33.4688,168.4844 L33.4688,171.2031 Q32.8438,170.625 32.25,170.3594 Q31.6563,170.0781 31.0313,170.0781 Q29.6875,170.0781 29,171.1563 Q28.3125,172.2188 28.3125,174.3125 Q28.3125,176.4063 29,177.4844 Q29.6875,178.5469 31.0313,178.5469 Q31.6563,178.5469 32.25,178.2813 Q32.8438,178 33.4688,177.4219 L33.4688,180.1406 Z " fill="#000000"/><text fill="#000000" font-family="sans-serif" font-size="14" lengthAdjust="spacing" textLength="212.4609" x="44.5" y="179.3467">logic_arc_int__baselibs__result</text><line style="stroke:#181818;stroke-width:0.5;" x1="16.5" x2="258.9609" y1="190.5" y2="190.5"/></g><!--class comp_arc_sta__baselibs__utils--><g id="elem_comp_arc_sta__baselibs__utils"><rect fill="#F1F1F1" height="40" id="comp_arc_sta__baselibs__utils" rx="2.5" ry="2.5" style="stroke:#181818;stroke-width:0.5;" width="242.9502" x="1946" y="275.5"/><ellipse cx="1961" cy="291.5" fill="#ADD1B2" rx="11" ry="11" style="stroke:#181818;stroke-width:1;"/><path d="M1963.9688,297.1406 Q1963.3906,297.4375 1962.75,297.5781 Q1962.1094,297.7344 1961.4063,297.7344 Q1958.9063,297.7344 1957.5781,296.0938 Q1956.2656,294.4375 1956.2656,291.3125 Q1956.2656,288.1875 1957.5781,286.5313 Q1958.9063,284.875 1961.4063,284.875 Q1962.1094,284.875 1962.75,285.0313 Q1963.4063,285.1875 1963.9688,285.4844 L1963.9688,288.2031 Q1963.3438,287.625 1962.75,287.3594 Q1962.1563,287.0781 1961.5313,287.0781 Q1960.1875,287.0781 1959.5,288.1563 Q1958.8125,289.2188 1958.8125,291.3125 Q1958.8125,293.4063 1959.5,294.4844 Q1960.1875,295.5469 1961.5313,295.5469 Q1962.1563,295.5469 1962.75,295.2813 Q1963.3438,295 1963.9688,294.4219 L1963.9688,297.1406 Z " fill="#000000"/><text fill="#000000" font-family="sans-serif" font-size="14" lengthAdjust="spacing" textLength="210.9502" x="1975" y="296.3467">comp_arc_sta__baselibs__utils</text><line style="stroke:#181818;stroke-width:0.5;" x1="1947" x2="2187.9502" y1="307.5" y2="307.5"/></g><!--class logic_arc_int__baselibs__utils_base64--><g id="elem_logic_arc_int__baselibs__utils_base64"><rect fill="#F1F1F1" height="40" id="logic_arc_int__baselibs__utils_base64" rx="2.5" ry="2.5" style="stroke:#181818;stroke-width:0.5;" width="292.1689" x="2091.5" y="158.5"/><ellipse cx="2106.5" cy="174.5" fill="#ADD1B2" rx="11" ry="11" style="stroke:#181818;stroke-width:1;"/><path d="M2109.4688,180.1406 Q2108.8906,180.4375 2108.25,180.5781 Q2107.6094,180.7344 2106.9063,180.7344 Q2104.4063,180.7344 2103.0781,179.0938 Q2101.7656,177.4375 2101.7656,174.3125 Q2101.7656,171.1875 2103.0781,169.5313 Q2104.4063,167.875 2106.9063,167.875 Q2107.6094,167.875 2108.25,168.0313 Q2108.9063,168.1875 2109.4688,168.4844 L2109.4688,171.2031 Q2108.8438,170.625 2108.25,170.3594 Q2107.6563,170.0781 2107.0313,170.0781 Q2105.6875,170.0781 2105,171.1563 Q2104.3125,172.2188 2104.3125,174.3125 Q2104.3125,176.4063 2105,177.4844 Q2105.6875,178.5469 2107.0313,178.5469 Q2107.6563,178.5469 2108.25,178.2813 Q2108.8438,178 2109.4688,177.4219 L2109.4688,180.1406 Z " fill="#000000"/><text fill="#000000" font-family="sans-serif" font-size="14" lengthAdjust="spacing" textLength="260.1689" x="2120.5" y="179.3467">logic_arc_int__baselibs__utils_base64</text><line style="stroke:#181818;stroke-width:0.5;" x1="2092.5" x2="2382.6689" y1="190.5" y2="190.5"/></g><!--class comp_arc_sta__baselibs__bit_manipulation--><g id="elem_comp_arc_sta__baselibs__bit_manipulation"><rect fill="#F1F1F1" height="40" id="comp_arc_sta__baselibs__bit_manipulation" rx="2.5" ry="2.5" style="stroke:#181818;stroke-width:0.5;" width="330.8057" x="832" y="275.5"/><ellipse cx="847" cy="291.5" fill="#ADD1B2" rx="11" ry="11" style="stroke:#181818;stroke-width:1;"/><path d="M849.9688,297.1406 Q849.3906,297.4375 848.75,297.5781 Q848.1094,297.7344 847.4063,297.7344 Q844.9063,297.7344 843.5781,296.0938 Q842.2656,294.4375 842.2656,291.3125 Q842.2656,288.1875 843.5781,286.5313 Q844.9063,284.875 847.4063,284.875 Q848.1094,284.875 848.75,285.0313 Q849.4063,285.1875 849.9688,285.4844 L849.9688,288.2031 Q849.3438,287.625 848.75,287.3594 Q848.1563,287.0781 847.5313,287.0781 Q846.1875,287.0781 845.5,288.1563 Q844.8125,289.2188 844.8125,291.3125 Q844.8125,293.4063 845.5,294.4844 Q846.1875,295.5469 847.5313,295.5469 Q848.1563,295.5469 848.75,295.2813 Q849.3438,295 849.9688,294.4219 L849.9688,297.1406 Z " fill="#000000"/><text fill="#000000" font-family="sans-serif" font-size="14" lengthAdjust="spacing" textLength="298.8057" x="861" y="296.3467">comp_arc_sta__baselibs__bit_manipulation</text><line style="stroke:#181818;stroke-width:0.5;" x1="833" x2="1161.8057" y1="307.5" y2="307.5"/></g><!--class logic_arc_int__baselibs__bit_manipulation--><g id="elem_logic_arc_int__baselibs__bit_manipulation"><rect fill="#F1F1F1" height="40" id="logic_arc_int__baselibs__bit_manipulation" rx="2.5" ry="2.5" style="stroke:#181818;stroke-width:0.5;" width="321.8369" x="1020.5" y="158.5"/><ellipse cx="1035.5" cy="174.5" fill="#ADD1B2" rx="11" ry="11" style="stroke:#181818;stroke-width:1;"/><path d="M1038.4688,180.1406 Q1037.8906,180.4375 1037.25,180.5781 Q1036.6094,180.7344 1035.9063,180.7344 Q1033.4063,180.7344 1032.0781,179.0938 Q1030.7656,177.4375 1030.7656,174.3125 Q1030.7656,171.1875 1032.0781,169.5313 Q1033.4063,167.875 1035.9063,167.875 Q1036.6094,167.875 1037.25,168.0313 Q1037.9063,168.1875 1038.4688,168.4844 L1038.4688,171.2031 Q1037.8438,170.625 1037.25,170.3594 Q1036.6563,170.0781 1036.0313,170.0781 Q1034.6875,170.0781 1034,171.1563 Q1033.3125,172.2188 1033.3125,174.3125 Q1033.3125,176.4063 1034,177.4844 Q1034.6875,178.5469 1036.0313,178.5469 Q1036.6563,178.5469 1037.25,178.2813 Q1037.8438,178 1038.4688,177.4219 L1038.4688,180.1406 Z " fill="#000000"/><text fill="#000000" font-family="sans-serif" font-size="14" lengthAdjust="spacing" textLength="289.8369" x="1049.5" y="179.3467">logic_arc_int__baselibs__bit_manipulation</text><line style="stroke:#181818;stroke-width:0.5;" x1="1021.5" x2="1341.3369" y1="190.5" y2="190.5"/></g><!--class logic_arc_int__baselibs__memory_shared--><g id="elem_logic_arc_int__baselibs__memory_shared"><rect fill="#F1F1F1" height="40" id="logic_arc_int__baselibs__memory_shared" rx="2.5" ry="2.5" style="stroke:#181818;stroke-width:0.5;" width="318.043" x="296.5" y="158.5"/><ellipse cx="311.5" cy="174.5" fill="#ADD1B2" rx="11" ry="11" style="stroke:#181818;stroke-width:1;"/><path d="M314.4688,180.1406 Q313.8906,180.4375 313.25,180.5781 Q312.6094,180.7344 311.9063,180.7344 Q309.4063,180.7344 308.0781,179.0938 Q306.7656,177.4375 306.7656,174.3125 Q306.7656,171.1875 308.0781,169.5313 Q309.4063,167.875 311.9063,167.875 Q312.6094,167.875 313.25,168.0313 Q313.9063,168.1875 314.4688,168.4844 L314.4688,171.2031 Q313.8438,170.625 313.25,170.3594 Q312.6563,170.0781 312.0313,170.0781 Q310.6875,170.0781 310,171.1563 Q309.3125,172.2188 309.3125,174.3125 Q309.3125,176.4063 310,177.4844 Q310.6875,178.5469 312.0313,178.5469 Q312.6563,178.5469 313.25,178.2813 Q313.8438,178 314.4688,177.4219 L314.4688,180.1406 Z " fill="#000000"/><text fill="#000000" font-family="sans-serif" font-size="14" lengthAdjust="spacing" textLength="286.043" x="325.5" y="179.3467">logic_arc_int__baselibs__memory_shared</text><line style="stroke:#181818;stroke-width:0.5;" x1="297.5" x2="613.543" y1="190.5" y2="190.5"/></g><!--class logic_arc_int__baselibs__synchronized_queue--><g id="elem_logic_arc_int__baselibs__synchronized_queue"><rect fill="#F1F1F1" height="40" id="logic_arc_int__baselibs__synchronized_queue" rx="2.5" ry="2.5" style="stroke:#181818;stroke-width:0.5;" width="348.3604" x="5169.5" y="158.5"/><ellipse cx="5184.5" cy="174.5" fill="#ADD1B2" rx="11" ry="11" style="stroke:#181818;stroke-width:1;"/><path d="M5187.4688,180.1406 Q5186.8906,180.4375 5186.25,180.5781 Q5185.6094,180.7344 5184.9063,180.7344 Q5182.4063,180.7344 5181.0781,179.0938 Q5179.7656,177.4375 5179.7656,174.3125 Q5179.7656,171.1875 5181.0781,169.5313 Q5182.4063,167.875 5184.9063,167.875 Q5185.6094,167.875 5186.25,168.0313 Q5186.9063,168.1875 5187.4688,168.4844 L5187.4688,171.2031 Q5186.8438,170.625 5186.25,170.3594 Q5185.6563,170.0781 5185.0313,170.0781 Q5183.6875,170.0781 5183,171.1563 Q5182.3125,172.2188 5182.3125,174.3125 Q5182.3125,176.4063 5183,177.4844 Q5183.6875,178.5469 5185.0313,178.5469 Q5185.6563,178.5469 5186.25,178.2813 Q5186.8438,178 5187.4688,177.4219 L5187.4688,180.1406 Z " fill="#000000"/><text fill="#000000" font-family="sans-serif" font-size="14" lengthAdjust="spacing" textLength="316.3604" x="5198.5" y="179.3467">logic_arc_int__baselibs__synchronized_queue</text><line style="stroke:#181818;stroke-width:0.5;" x1="5170.5" x2="5516.8604" y1="190.5" y2="190.5"/></g><!--class comp_arc_sta__baselibs__json--><g id="elem_comp_arc_sta__baselibs__json"><rect fill="#F1F1F1" height="40" id="comp_arc_sta__baselibs__json" rx="2.5" ry="2.5" style="stroke:#181818;stroke-width:0.5;" width="242.1367" x="2729.5" y="275.5"/><ellipse cx="2744.5" cy="291.5" fill="#ADD1B2" rx="11" ry="11" style="stroke:#181818;stroke-width:1;"/><path d="M2747.4688,297.1406 Q2746.8906,297.4375 2746.25,297.5781 Q2745.6094,297.7344 2744.9063,297.7344 Q2742.4063,297.7344 2741.0781,296.0938 Q2739.7656,294.4375 2739.7656,291.3125 Q2739.7656,288.1875 2741.0781,286.5313 Q2742.4063,284.875 2744.9063,284.875 Q2745.6094,284.875 2746.25,285.0313 Q2746.9063,285.1875 2747.4688,285.4844 L2747.4688,288.2031 Q2746.8438,287.625 2746.25,287.3594 Q2745.6563,287.0781 2745.0313,287.0781 Q2743.6875,287.0781 2743,288.1563 Q2742.3125,289.2188 2742.3125,291.3125 Q2742.3125,293.4063 2743,294.4844 Q2743.6875,295.5469 2745.0313,295.5469 Q2745.6563,295.5469 2746.25,295.2813 Q2746.8438,295 2747.4688,294.4219 L2747.4688,297.1406 Z " fill="#000000"/><text fill="#000000" font-family="sans-serif" font-size="14" lengthAdjust="spacing" textLength="210.1367" x="2758.5" y="296.3467">comp_arc_sta__baselibs__json</text><line style="stroke:#181818;stroke-width:0.5;" x1="2730.5" x2="2970.6367" y1="307.5" y2="307.5"/></g><!--class logic_arc_int__baselibs__json--><g id="elem_logic_arc_int__baselibs__json"><rect fill="#F1F1F1" height="40" id="logic_arc_int__baselibs__json" rx="2.5" ry="2.5" style="stroke:#181818;stroke-width:0.5;" width="233.168" x="2730" y="158.5"/><ellipse cx="2745" cy="174.5" fill="#ADD1B2" rx="11" ry="11" style="stroke:#181818;stroke-width:1;"/><path d="M2747.9688,180.1406 Q2747.3906,180.4375 2746.75,180.5781 Q2746.1094,180.7344 2745.4063,180.7344 Q2742.9063,180.7344 2741.5781,179.0938 Q2740.2656,177.4375 2740.2656,174.3125 Q2740.2656,171.1875 2741.5781,169.5313 Q2742.9063,167.875 2745.4063,167.875 Q2746.1094,167.875 2746.75,168.0313 Q2747.4063,168.1875 2747.9688,168.4844 L2747.9688,171.2031 Q2747.3438,170.625 2746.75,170.3594 Q2746.1563,170.0781 2745.5313,170.0781 Q2744.1875,170.0781 2743.5,171.1563 Q2742.8125,172.2188 2742.8125,174.3125 Q2742.8125,176.4063 2743.5,177.4844 Q2744.1875,178.5469 2745.5313,178.5469 Q2746.1563,178.5469 2746.75,178.2813 Q2747.3438,178 2747.9688,177.4219 L2747.9688,180.1406 Z " fill="#000000"/><text fill="#000000" font-family="sans-serif" font-size="14" lengthAdjust="spacing" textLength="201.168" x="2759" y="179.3467">logic_arc_int__baselibs__json</text><line style="stroke:#181818;stroke-width:0.5;" x1="2731" x2="2962.168" y1="190.5" y2="190.5"/></g><!--class comp_arc_sta__baselibs__filesystem--><g id="elem_comp_arc_sta__baselibs__filesystem"><rect fill="#F1F1F1" height="40" id="comp_arc_sta__baselibs__filesystem" rx="2.5" ry="2.5" style="stroke:#181818;stroke-width:0.5;" width="285.4492" x="2409" y="275.5"/><ellipse cx="2424" cy="291.5" fill="#ADD1B2" rx="11" ry="11" style="stroke:#181818;stroke-width:1;"/><path d="M2426.9688,297.1406 Q2426.3906,297.4375 2425.75,297.5781 Q2425.1094,297.7344 2424.4063,297.7344 Q2421.9063,297.7344 2420.5781,296.0938 Q2419.2656,294.4375 2419.2656,291.3125 Q2419.2656,288.1875 2420.5781,286.5313 Q2421.9063,284.875 2424.4063,284.875 Q2425.1094,284.875 2425.75,285.0313 Q2426.4063,285.1875 2426.9688,285.4844 L2426.9688,288.2031 Q2426.3438,287.625 2425.75,287.3594 Q2425.1563,287.0781 2424.5313,287.0781 Q2423.1875,287.0781 2422.5,288.1563 Q2421.8125,289.2188 2421.8125,291.3125 Q2421.8125,293.4063 2422.5,294.4844 Q2423.1875,295.5469 2424.5313,295.5469 Q2425.1563,295.5469 2425.75,295.2813 Q2426.3438,295 2426.9688,294.4219 L2426.9688,297.1406 Z " fill="#000000"/><text fill="#000000" font-family="sans-serif" font-size="14" lengthAdjust="spacing" textLength="253.4492" x="2438" y="296.3467">comp_arc_sta__baselibs__filesystem</text><line style="stroke:#181818;stroke-width:0.5;" x1="2410" x2="2693.4492" y1="307.5" y2="307.5"/></g><!--class logic_arc_int__baselibs__filesystem--><g id="elem_logic_arc_int__baselibs__filesystem"><rect fill="#F1F1F1" height="40" id="logic_arc_int__baselibs__filesystem" rx="2.5" ry="2.5" style="stroke:#181818;stroke-width:0.5;" width="276.4805" x="2418.5" y="158.5"/><ellipse cx="2433.5" cy="174.5" fill="#ADD1B2" rx="11" ry="11" style="stroke:#181818;stroke-width:1;"/><path d="M2436.4688,180.1406 Q2435.8906,180.4375 2435.25,180.5781 Q2434.6094,180.7344 2433.9063,180.7344 Q2431.4063,180.7344 2430.0781,179.0938 Q2428.7656,177.4375 2428.7656,174.3125 Q2428.7656,171.1875 2430.0781,169.5313 Q2431.4063,167.875 2433.9063,167.875 Q2434.6094,167.875 2435.25,168.0313 Q2435.9063,168.1875 2436.4688,168.4844 L2436.4688,171.2031 Q2435.8438,170.625 2435.25,170.3594 Q2434.6563,170.0781 2434.0313,170.0781 Q2432.6875,170.0781 2432,171.1563 Q2431.3125,172.2188 2431.3125,174.3125 Q2431.3125,176.4063 2432,177.4844 Q2432.6875,178.5469 2434.0313,178.5469 Q2434.6563,178.5469 2435.25,178.2813 Q2435.8438,178 2436.4688,177.4219 L2436.4688,180.1406 Z " fill="#000000"/><text fill="#000000" font-family="sans-serif" font-size="14" lengthAdjust="spacing" textLength="244.4805" x="2447.5" y="179.3467">logic_arc_int__baselibs__filesystem</text><line style="stroke:#181818;stroke-width:0.5;" x1="2419.5" x2="2693.9805" y1="190.5" y2="190.5"/></g><!--class comp_arc_sta__baselibs__message_passing--><g id="elem_comp_arc_sta__baselibs__message_passing"><rect fill="#F1F1F1" height="40" id="comp_arc_sta__baselibs__message_passing" rx="2.5" ry="2.5" style="stroke:#181818;stroke-width:0.5;" width="337.1357" x="1373" y="275.5"/><ellipse cx="1388" cy="291.5" fill="#ADD1B2" rx="11" ry="11" style="stroke:#181818;stroke-width:1;"/><path d="M1390.9688,297.1406 Q1390.3906,297.4375 1389.75,297.5781 Q1389.1094,297.7344 1388.4063,297.7344 Q1385.9063,297.7344 1384.5781,296.0938 Q1383.2656,294.4375 1383.2656,291.3125 Q1383.2656,288.1875 1384.5781,286.5313 Q1385.9063,284.875 1388.4063,284.875 Q1389.1094,284.875 1389.75,285.0313 Q1390.4063,285.1875 1390.9688,285.4844 L1390.9688,288.2031 Q1390.3438,287.625 1389.75,287.3594 Q1389.1563,287.0781 1388.5313,287.0781 Q1387.1875,287.0781 1386.5,288.1563 Q1385.8125,289.2188 1385.8125,291.3125 Q1385.8125,293.4063 1386.5,294.4844 Q1387.1875,295.5469 1388.5313,295.5469 Q1389.1563,295.5469 1389.75,295.2813 Q1390.3438,295 1390.9688,294.4219 L1390.9688,297.1406 Z " fill="#000000"/><text fill="#000000" font-family="sans-serif" font-size="14" lengthAdjust="spacing" textLength="305.1357" x="1402" y="296.3467">comp_arc_sta__baselibs__message_passing</text><line style="stroke:#181818;stroke-width:0.5;" x1="1374" x2="1709.1357" y1="307.5" y2="307.5"/></g><!--class comp_arc_sta__baselibs__memory_shared--><g id="elem_comp_arc_sta__baselibs__memory_shared"><rect fill="#F1F1F1" height="40" id="comp_arc_sta__baselibs__memory_shared" rx="2.5" ry="2.5" style="stroke:#181818;stroke-width:0.5;" width="327.0117" x="295" y="275.5"/><ellipse cx="310" cy="291.5" fill="#ADD1B2" rx="11" ry="11" style="stroke:#181818;stroke-width:1;"/><path d="M312.9688,297.1406 Q312.3906,297.4375 311.75,297.5781 Q311.1094,297.7344 310.4063,297.7344 Q307.9063,297.7344 306.5781,296.0938 Q305.2656,294.4375 305.2656,291.3125 Q305.2656,288.1875 306.5781,286.5313 Q307.9063,284.875 310.4063,284.875 Q311.1094,284.875 311.75,285.0313 Q312.4063,285.1875 312.9688,285.4844 L312.9688,288.2031 Q312.3438,287.625 311.75,287.3594 Q311.1563,287.0781 310.5313,287.0781 Q309.1875,287.0781 308.5,288.1563 Q307.8125,289.2188 307.8125,291.3125 Q307.8125,293.4063 308.5,294.4844 Q309.1875,295.5469 310.5313,295.5469 Q311.1563,295.5469 311.75,295.2813 Q312.3438,295 312.9688,294.4219 L312.9688,297.1406 Z " fill="#000000"/><text fill="#000000" font-family="sans-serif" font-size="14" lengthAdjust="spacing" textLength="295.0117" x="324" y="296.3467">comp_arc_sta__baselibs__memory_shared</text><line style="stroke:#181818;stroke-width:0.5;" x1="296" x2="621.0117" y1="307.5" y2="307.5"/></g><!--class logic_arc_int__baselibs__shared_future--><g id="elem_logic_arc_int__baselibs__shared_future"><rect fill="#F1F1F1" height="40" id="logic_arc_int__baselibs__shared_future" rx="2.5" ry="2.5" style="stroke:#181818;stroke-width:0.5;" width="302.0811" x="2998.5" y="158.5"/><ellipse cx="3013.5" cy="174.5" fill="#ADD1B2" rx="11" ry="11" style="stroke:#181818;stroke-width:1;"/><path d="M3016.4688,180.1406 Q3015.8906,180.4375 3015.25,180.5781 Q3014.6094,180.7344 3013.9063,180.7344 Q3011.4063,180.7344 3010.0781,179.0938 Q3008.7656,177.4375 3008.7656,174.3125 Q3008.7656,171.1875 3010.0781,169.5313 Q3011.4063,167.875 3013.9063,167.875 Q3014.6094,167.875 3015.25,168.0313 Q3015.9063,168.1875 3016.4688,168.4844 L3016.4688,171.2031 Q3015.8438,170.625 3015.25,170.3594 Q3014.6563,170.0781 3014.0313,170.0781 Q3012.6875,170.0781 3012,171.1563 Q3011.3125,172.2188 3011.3125,174.3125 Q3011.3125,176.4063 3012,177.4844 Q3012.6875,178.5469 3014.0313,178.5469 Q3014.6563,178.5469 3015.25,178.2813 Q3015.8438,178 3016.4688,177.4219 L3016.4688,180.1406 Z " fill="#000000"/><text fill="#000000" font-family="sans-serif" font-size="14" lengthAdjust="spacing" textLength="270.0811" x="3027.5" y="179.3467">logic_arc_int__baselibs__shared_future</text><line style="stroke:#181818;stroke-width:0.5;" x1="2999.5" x2="3299.5811" y1="190.5" y2="190.5"/></g><!--class comp_arc_sta__baselibs__result--><g id="elem_comp_arc_sta__baselibs__result"><rect fill="#F1F1F1" height="40" id="comp_arc_sta__baselibs__result" rx="2.5" ry="2.5" style="stroke:#181818;stroke-width:0.5;" width="253.4297" x="7" y="275.5"/><ellipse cx="22" cy="291.5" fill="#ADD1B2" rx="11" ry="11" style="stroke:#181818;stroke-width:1;"/><path d="M24.9688,297.1406 Q24.3906,297.4375 23.75,297.5781 Q23.1094,297.7344 22.4063,297.7344 Q19.9063,297.7344 18.5781,296.0938 Q17.2656,294.4375 17.2656,291.3125 Q17.2656,288.1875 18.5781,286.5313 Q19.9063,284.875 22.4063,284.875 Q23.1094,284.875 23.75,285.0313 Q24.4063,285.1875 24.9688,285.4844 L24.9688,288.2031 Q24.3438,287.625 23.75,287.3594 Q23.1563,287.0781 22.5313,287.0781 Q21.1875,287.0781 20.5,288.1563 Q19.8125,289.2188 19.8125,291.3125 Q19.8125,293.4063 20.5,294.4844 Q21.1875,295.5469 22.5313,295.5469 Q23.1563,295.5469 23.75,295.2813 Q24.3438,295 24.9688,294.4219 L24.9688,297.1406 Z " fill="#000000"/><text fill="#000000" font-family="sans-serif" font-size="14" lengthAdjust="spacing" textLength="221.4297" x="36" y="296.3467">comp_arc_sta__baselibs__result</text><line style="stroke:#181818;stroke-width:0.5;" x1="8" x2="259.4297" y1="307.5" y2="307.5"/></g><!--link Feature_User to logic_arc_int__baselibs__task--><g id="link_Feature_User_logic_arc_int__baselibs__task"><path codeLine="15" d="M3194.7,47.03 C3373.33,57.25 4047.29,97.85 4599.5,158.5 C4605.38,159.15 4605.444,159.1251 4611.524,159.8651 " fill="transparent" id="Feature_User-to-logic_arc_int__baselibs__task" style="stroke:#181818;stroke-width:1;"/><polygon fill="#181818" points="4617.48,160.59,4609.0292,155.5319,4612.5166,159.9859,4608.0627,163.4733,4617.48,160.59" style="stroke:#181818;stroke-width:1;"/><text fill="#000000" font-family="sans-serif" font-size="13" lengthAdjust="spacing" textLength="23.0103" x="4283.5" y="124.5669">use</text></g><!--reverse link logic_arc_int__baselibs__future to comp_arc_sta__baselibs__concurrency--><g id="link_logic_arc_int__baselibs__future_comp_arc_sta__baselibs__concurrency"><path codeLine="16" d="M4892.6924,199.5008 C4811.2224,213.1408 4704.09,230.67 4604.5,245.5 C4533.93,256.01 4455.48,266.75 4389.69,275.48 " fill="transparent" id="logic_arc_int__baselibs__future-backto-comp_arc_sta__baselibs__concurrency" style="stroke:#181818;stroke-width:1;"/><polygon fill="#181818" points="4898.61,198.51,4889.073,196.051,4893.6786,199.3356,4890.394,203.9412,4898.61,198.51" style="stroke:#181818;stroke-width:1;"/><text fill="#000000" font-family="sans-serif" font-size="13" lengthAdjust="spacing" textLength="76.9082" x="4706.5" y="241.5669">implements</text></g><!--link Feature_User to logic_arc_int__baselibs__dynamic_array--><g id="link_Feature_User_logic_arc_int__baselibs__dynamic_array"><path codeLine="17" d="M3194.64,45.38 C3413.67,49.78 4387.53,70.81 5184.5,111.5 C5486.61,126.92 5562.21,131.44 5863.5,158.5 C5869.33,159.02 5869.3078,159.0027 5875.3078,159.5827 " fill="transparent" id="Feature_User-to-logic_arc_int__baselibs__dynamic_array" style="stroke:#181818;stroke-width:1;"/><polygon fill="#181818" points="5881.28,160.16,5872.7066,155.3126,5876.3032,159.6789,5871.9369,163.2755,5881.28,160.16" style="stroke:#181818;stroke-width:1;"/><text fill="#000000" font-family="sans-serif" font-size="13" lengthAdjust="spacing" textLength="23.0103" x="5491.5" y="124.5669">use</text></g><!--link Feature_User to logic_arc_int__baselibs__task_result--><g id="link_Feature_User_logic_arc_int__baselibs__task_result"><path codeLine="18" d="M3194.64,48.72 C3347.61,63.08 3860.41,111.8 4283.5,158.5 C4289.13,159.12 4288.9073,159.1018 4294.7073,159.7518 " fill="transparent" id="Feature_User-to-logic_arc_int__baselibs__task_result" style="stroke:#181818;stroke-width:1;"/><polygon fill="#181818" points="4300.67,160.42,4292.1715,155.4425,4295.7011,159.8631,4291.2805,163.3928,4300.67,160.42" style="stroke:#181818;stroke-width:1;"/><text fill="#000000" font-family="sans-serif" font-size="13" lengthAdjust="spacing" textLength="23.0103" x="3973.5" y="124.5669">use</text></g><!--reverse link logic_arc_int__baselibs__intrusive_list to comp_arc_sta__baselibs__containers--><g id="link_logic_arc_int__baselibs__intrusive_list_comp_arc_sta__baselibs__containers"><path codeLine="19" d="M5732.571,202.1393 C5763.671,223.4293 5808.54,254.14 5839.57,275.38 " fill="transparent" id="logic_arc_int__baselibs__intrusive_list-backto-comp_arc_sta__baselibs__containers" style="stroke:#181818;stroke-width:1;"/><polygon fill="#181818" points="5727.62,198.75,5732.787,207.1346,5731.7459,201.5744,5737.3061,200.5333,5727.62,198.75" style="stroke:#181818;stroke-width:1;"/><text fill="#000000" font-family="sans-serif" font-size="13" lengthAdjust="spacing" textLength="76.9082" x="5795.5" y="241.5669">implements</text></g><!--link Feature_User to logic_arc_int__baselibs__bit_mask_operator--><g id="link_Feature_User_logic_arc_int__baselibs__bit_mask_operator"><path codeLine="20" d="M3104.48,45.86 C2878.5,52.88 1845.44,87.57 1002.5,158.5 C996.87,158.97 997.1159,158.9324 991.3359,159.4524 " fill="transparent" id="Feature_User-to-logic_arc_int__baselibs__bit_mask_operator" style="stroke:#181818;stroke-width:1;"/><polygon fill="#181818" points="985.36,159.99,994.6822,163.1675,990.3399,159.542,993.9654,155.1997,985.36,159.99" style="stroke:#181818;stroke-width:1;"/><text fill="#000000" font-family="sans-serif" font-size="13" lengthAdjust="spacing" textLength="23.0103" x="1652.5" y="124.5669">use</text></g><!--reverse link logic_arc_int__baselibs__task_result to comp_arc_sta__baselibs__concurrency--><g id="link_logic_arc_int__baselibs__task_result_comp_arc_sta__baselibs__concurrency"><path codeLine="21" d="M4402.9951,201.7522 C4366.1551,223.0422 4312.34,254.14 4275.59,275.38 " fill="transparent" id="logic_arc_int__baselibs__task_result-backto-comp_arc_sta__baselibs__concurrency" style="stroke:#181818;stroke-width:1;"/><polygon fill="#181818" points="4408.19,198.75,4398.3962,199.79,4403.8609,201.2518,4402.3991,206.7165,4408.19,198.75" style="stroke:#181818;stroke-width:1;"/><text fill="#000000" font-family="sans-serif" font-size="13" lengthAdjust="spacing" textLength="76.9082" x="4355.5" y="241.5669">implements</text></g><!--link Feature_User to logic_arc_int__baselibs__future--><g id="link_Feature_User_logic_arc_int__baselibs__future"><path codeLine="22" d="M3194.78,46.08 C3393.18,53.31 4205.47,86.01 4868.5,158.5 C4874.43,159.15 4874.5421,159.1305 4880.6721,159.8605 " fill="transparent" id="Feature_User-to-logic_arc_int__baselibs__future" style="stroke:#181818;stroke-width:1;"/><polygon fill="#181818" points="4886.63,160.57,4878.1661,155.5338,4881.6651,159.9787,4877.2201,163.4777,4886.63,160.57" style="stroke:#181818;stroke-width:1;"/><text fill="#000000" font-family="sans-serif" font-size="13" lengthAdjust="spacing" textLength="23.0103" x="4541.5" y="124.5669">use</text></g><!--link Feature_User to logic_arc_int__baselibs__utils_scoped_op--><g id="link_Feature_User_logic_arc_int__baselibs__utils_scoped_op"><path codeLine="23" d="M3104.39,49.24 C2956.55,64.77 2473.21,115.63 2073.5,158.5 C2067.88,159.1 2068.1258,159.0801 2062.3458,159.7001 " fill="transparent" id="Feature_User-to-logic_arc_int__baselibs__utils_scoped_op" style="stroke:#181818;stroke-width:1;"/><polygon fill="#181818" points="2056.38,160.34,2065.7553,163.3573,2061.3515,159.8067,2064.902,155.4029,2056.38,160.34" style="stroke:#181818;stroke-width:1;"/><text fill="#000000" font-family="sans-serif" font-size="13" lengthAdjust="spacing" textLength="23.0103" x="2489.5" y="124.5669">use</text></g><!--reverse link logic_arc_int__baselibs__condition_variable to comp_arc_sta__baselibs__concurrency--><g id="link_logic_arc_int__baselibs__condition_variable_comp_arc_sta__baselibs__concurrency"><path codeLine="24" d="M4128.1057,202.51 C4154.5057,223.74 4192.06,253.94 4218.49,275.19 " fill="transparent" id="logic_arc_int__baselibs__condition_variable-backto-comp_arc_sta__baselibs__concurrency" style="stroke:#181818;stroke-width:1;"/><polygon fill="#181818" points="4123.43,198.75,4127.9368,207.5072,4127.3264,201.8834,4132.9502,201.2729,4123.43,198.75" style="stroke:#181818;stroke-width:1;"/><text fill="#000000" font-family="sans-serif" font-size="13" lengthAdjust="spacing" textLength="76.9082" x="4181.5" y="241.5669">implements</text></g><!--link Feature_User to logic_arc_int__baselibs__promise--><g id="link_Feature_User_logic_arc_int__baselibs__promise"><path codeLine="25" d="M3194.69,54.23 C3296.53,76.14 3539.6143,128.4578 3673.3143,157.2278 " fill="transparent" id="Feature_User-to-logic_arc_int__baselibs__promise" style="stroke:#181818;stroke-width:1;"/><polygon fill="#181818" points="3679.18,158.49,3671.2229,152.6862,3674.2919,157.4382,3669.5399,160.5072,3679.18,158.49" style="stroke:#181818;stroke-width:1;"/><text fill="#000000" font-family="sans-serif" font-size="13" lengthAdjust="spacing" textLength="23.0103" x="3533.5" y="124.5669">use</text></g><!--link Feature_User to logic_arc_int__baselibs__message_passing--><g id="link_Feature_User_logic_arc_int__baselibs__message_passing"><path codeLine="26" d="M3104.21,47.72 C2927.4,60.37 2266.66,108.44 1723.5,158.5 C1717.65,159.04 1717.6623,159.0246 1711.6423,159.6046 " fill="transparent" id="Feature_User-to-logic_arc_int__baselibs__message_passing" style="stroke:#181818;stroke-width:1;"/><polygon fill="#181818" points="1705.67,160.18,1715.0121,163.2985,1710.647,159.7005,1714.2449,155.3353,1705.67,160.18" style="stroke:#181818;stroke-width:1;"/><text fill="#000000" font-family="sans-serif" font-size="13" lengthAdjust="spacing" textLength="23.0103" x="2234.5" y="124.5669">use</text></g><!--reverse link logic_arc_int__baselibs__promise to comp_arc_sta__baselibs__concurrency--><g id="link_logic_arc_int__baselibs__promise_comp_arc_sta__baselibs__concurrency"><path codeLine="27" d="M3852.0315,199.9619 C3939.9615,221.2519 4075.65,254.11 4163.64,275.41 " fill="transparent" id="logic_arc_int__baselibs__promise-backto-comp_arc_sta__baselibs__concurrency" style="stroke:#181818;stroke-width:1;"/><polygon fill="#181818" points="3846.2,198.55,3854.006,204.5556,3851.0596,199.7266,3855.8886,196.7803,3846.2,198.55" style="stroke:#181818;stroke-width:1;"/><text fill="#000000" font-family="sans-serif" font-size="13" lengthAdjust="spacing" textLength="76.9082" x="4034.5" y="241.5669">implements</text></g><!--reverse link logic_arc_int__baselibs__executor to comp_arc_sta__baselibs__concurrency--><g id="link_logic_arc_int__baselibs__executor_comp_arc_sta__baselibs__concurrency"><path codeLine="28" d="M3592.8656,199.4417 C3677.6256,212.9117 3788.56,230.29 3891.5,245.5 C3960.89,255.76 4038.08,266.59 4102.37,275.46 " fill="transparent" id="logic_arc_int__baselibs__executor-backto-comp_arc_sta__baselibs__concurrency" style="stroke:#181818;stroke-width:1;"/><polygon fill="#181818" points="3586.94,198.5,3595.2007,203.863,3591.878,199.2847,3596.4563,195.9621,3586.94,198.5" style="stroke:#181818;stroke-width:1;"/><text fill="#000000" font-family="sans-serif" font-size="13" lengthAdjust="spacing" textLength="76.9082" x="3892.5" y="241.5669">implements</text></g><!--link Feature_User to logic_arc_int__baselibs__result--><g id="link_Feature_User_logic_arc_int__baselibs__result"><path codeLine="29" d="M3104.22,45.4 C2879.18,49.97 1858.53,72.01 1023.5,111.5 C692.1,127.17 608.66,125.88 278.5,158.5 C272.35,159.11 272.0328,159.1133 265.6828,159.8233 " fill="transparent" id="Feature_User-to-logic_arc_int__baselibs__result" style="stroke:#181818;stroke-width:1;"/><polygon fill="#181818" points="259.72,160.49,269.1087,163.4652,264.689,159.9344,268.2198,155.5147,259.72,160.49" style="stroke:#181818;stroke-width:1;"/><text fill="#000000" font-family="sans-serif" font-size="13" lengthAdjust="spacing" textLength="23.0103" x="1024.5" y="124.5669">use</text></g><!--reverse link logic_arc_int__baselibs__dynamic_array to comp_arc_sta__baselibs__containers--><g id="link_logic_arc_int__baselibs__dynamic_array_comp_arc_sta__baselibs__containers"><path codeLine="30" d="M6002.429,202.1393 C5971.329,223.4293 5926.46,254.14 5895.43,275.38 " fill="transparent" id="logic_arc_int__baselibs__dynamic_array-backto-comp_arc_sta__baselibs__containers" style="stroke:#181818;stroke-width:1;"/><polygon fill="#181818" points="6007.38,198.75,5997.6939,200.5333,6003.2541,201.5744,6002.213,207.1346,6007.38,198.75" style="stroke:#181818;stroke-width:1;"/><text fill="#000000" font-family="sans-serif" font-size="13" lengthAdjust="spacing" textLength="76.9082" x="5963.5" y="241.5669">implements</text></g><!--reverse link logic_arc_int__baselibs__utils_base64 to comp_arc_sta__baselibs__utils--><g id="link_logic_arc_int__baselibs__utils_base64_comp_arc_sta__baselibs__utils"><path codeLine="31" d="M2204.0799,202.1113 C2172.5999,223.4013 2127.16,254.14 2095.76,275.38 " fill="transparent" id="logic_arc_int__baselibs__utils_base64-backto-comp_arc_sta__baselibs__utils" style="stroke:#181818;stroke-width:1;"/><polygon fill="#181818" points="2209.05,198.75,2199.354,200.4785,2204.9083,201.5511,2203.8357,207.1053,2209.05,198.75" style="stroke:#181818;stroke-width:1;"/><text fill="#000000" font-family="sans-serif" font-size="13" lengthAdjust="spacing" textLength="76.9082" x="2164.5" y="241.5669">implements</text></g><!--reverse link logic_arc_int__baselibs__bit_manipulation to comp_arc_sta__baselibs__bit_manipulation--><g id="link_logic_arc_int__baselibs__bit_manipulation_comp_arc_sta__baselibs__bit_manipulation"><path codeLine="32" d="M1145.6118,201.9296 C1111.5418,223.2196 1062.08,254.14 1028.09,275.38 " fill="transparent" id="logic_arc_int__baselibs__bit_manipulation-backto-comp_arc_sta__baselibs__bit_manipulation" style="stroke:#181818;stroke-width:1;"/><polygon fill="#181818" points="1150.7,198.75,1140.9479,200.1272,1146.4598,201.3997,1145.1874,206.9115,1150.7,198.75" style="stroke:#181818;stroke-width:1;"/><text fill="#000000" font-family="sans-serif" font-size="13" lengthAdjust="spacing" textLength="76.9082" x="1102.5" y="241.5669">implements</text></g><!--link Feature_User to logic_arc_int__baselibs__memory_shared--><g id="link_Feature_User_logic_arc_int__baselibs__memory_shared"><path codeLine="33" d="M3104.38,45.8 C2903.04,51.66 2066.53,76.96 1380.5,111.5 C1047.82,128.25 964.4,130.27 632.5,158.5 C626.65,159 626.665,158.9832 620.655,159.5332 " fill="transparent" id="Feature_User-to-logic_arc_int__baselibs__memory_shared" style="stroke:#181818;stroke-width:1;"/><polygon fill="#181818" points="614.68,160.08,624.0071,163.2432,619.6592,159.6243,623.278,155.2764,614.68,160.08" style="stroke:#181818;stroke-width:1;"/><text fill="#000000" font-family="sans-serif" font-size="13" lengthAdjust="spacing" textLength="23.0103" x="1381.5" y="124.5669">use</text></g><!--reverse link logic_arc_int__baselibs__synchronized_queue to comp_arc_sta__baselibs__concurrency--><g id="link_logic_arc_int__baselibs__synchronized_queue_comp_arc_sta__baselibs__concurrency"><path codeLine="34" d="M5188.6164,199.2749 C5077.6064,213.1649 4928.17,231.23 4791.5,245.5 C4656.71,259.57 4503.03,273.07 4392.62,282.32 " fill="transparent" id="logic_arc_int__baselibs__synchronized_queue-backto-comp_arc_sta__baselibs__concurrency" style="stroke:#181818;stroke-width:1;"/><polygon fill="#181818" points="5194.57,198.53,5185.143,195.6784,5189.6087,199.1508,5186.1363,203.6165,5194.57,198.53" style="stroke:#181818;stroke-width:1;"/><text fill="#000000" font-family="sans-serif" font-size="13" lengthAdjust="spacing" textLength="76.9082" x="4944.5" y="241.5669">implements</text></g><!--reverse link logic_arc_int__baselibs__json to comp_arc_sta__baselibs__json--><g id="link_logic_arc_int__baselibs__json_comp_arc_sta__baselibs__json"><path codeLine="35" d="M2847.379,204.7464 C2848.119,225.9764 2849.09,253.94 2849.83,275.19 " fill="transparent" id="logic_arc_int__baselibs__json-backto-comp_arc_sta__baselibs__json" style="stroke:#181818;stroke-width:1;"/><polygon fill="#181818" points="2847.17,198.75,2843.4859,207.8839,2847.3442,203.747,2851.4811,207.6052,2847.17,198.75" style="stroke:#181818;stroke-width:1;"/><text fill="#000000" font-family="sans-serif" font-size="13" lengthAdjust="spacing" textLength="76.9082" x="2850.5" y="241.5669">implements</text></g><!--reverse link logic_arc_int__baselibs__filesystem to comp_arc_sta__baselibs__filesystem--><g id="link_logic_arc_int__baselibs__filesystem_comp_arc_sta__baselibs__filesystem"><path codeLine="36" d="M2555.4002,204.7444 C2554.4802,225.9744 2553.26,253.94 2552.34,275.19 " fill="transparent" id="logic_arc_int__baselibs__filesystem-backto-comp_arc_sta__baselibs__filesystem" style="stroke:#181818;stroke-width:1;"/><polygon fill="#181818" points="2555.66,198.75,2551.2741,207.5684,2555.4435,203.7453,2559.2666,207.9147,2555.66,198.75" style="stroke:#181818;stroke-width:1;"/><text fill="#000000" font-family="sans-serif" font-size="13" lengthAdjust="spacing" textLength="76.9082" x="2555.5" y="241.5669">implements</text></g><!--reverse link logic_arc_int__baselibs__message_passing to comp_arc_sta__baselibs__message_passing--><g id="link_logic_arc_int__baselibs__message_passing_comp_arc_sta__baselibs__message_passing"><path codeLine="37" d="M1541.5,204.75 C1541.5,225.98 1541.5,253.94 1541.5,275.19 " fill="transparent" id="logic_arc_int__baselibs__message_passing-backto-comp_arc_sta__baselibs__message_passing" style="stroke:#181818;stroke-width:1;"/><polygon fill="#181818" points="1541.5,198.75,1537.5,207.75,1541.5,203.75,1545.5,207.75,1541.5,198.75" style="stroke:#181818;stroke-width:1;"/><text fill="#000000" font-family="sans-serif" font-size="13" lengthAdjust="spacing" textLength="76.9082" x="1542.5" y="241.5669">implements</text></g><!--reverse link logic_arc_int__baselibs__task to comp_arc_sta__baselibs__concurrency--><g id="link_logic_arc_int__baselibs__task_comp_arc_sta__baselibs__concurrency"><path codeLine="38" d="M4647.1375,199.9157 C4556.0575,221.2057 4415.32,254.11 4324.18,275.41 " fill="transparent" id="logic_arc_int__baselibs__task-backto-comp_arc_sta__baselibs__concurrency" style="stroke:#181818;stroke-width:1;"/><polygon fill="#181818" points="4652.98,198.55,4643.3058,196.7035,4648.1112,199.6881,4645.1267,204.4935,4652.98,198.55" style="stroke:#181818;stroke-width:1;"/><text fill="#000000" font-family="sans-serif" font-size="13" lengthAdjust="spacing" textLength="76.9082" x="4519.5" y="241.5669">implements</text></g><!--link Feature_User to logic_arc_int__baselibs__filesystem--><g id="link_Feature_User_logic_arc_int__baselibs__filesystem"><path codeLine="39" d="M3104.44,54.61 C3005.72,76.75 2774.8545,128.5268 2647.2645,157.1468 " fill="transparent" id="Feature_User-to-logic_arc_int__baselibs__filesystem" style="stroke:#181818;stroke-width:1;"/><polygon fill="#181818" points="2641.41,158.46,2651.0673,160.3932,2646.2888,157.3656,2649.3163,152.5871,2641.41,158.46" style="stroke:#181818;stroke-width:1;"/><text fill="#000000" font-family="sans-serif" font-size="13" lengthAdjust="spacing" textLength="23.0103" x="2836.5" y="124.5669">use</text></g><!--reverse link logic_arc_int__baselibs__memory_shared to comp_arc_sta__baselibs__memory_shared--><g id="link_logic_arc_int__baselibs__memory_shared_comp_arc_sta__baselibs__memory_shared"><path codeLine="40" d="M456.1582,204.7479 C456.7182,225.9779 457.44,253.94 458,275.19 " fill="transparent" id="logic_arc_int__baselibs__memory_shared-backto-comp_arc_sta__baselibs__memory_shared" style="stroke:#181818;stroke-width:1;"/><polygon fill="#181818" points="456,198.75,452.2387,207.8523,456.1318,203.7483,460.2359,207.6414,456,198.75" style="stroke:#181818;stroke-width:1;"/><text fill="#000000" font-family="sans-serif" font-size="13" lengthAdjust="spacing" textLength="76.9082" x="458.5" y="241.5669">implements</text></g><!--link Feature_User to logic_arc_int__baselibs__synchronized_queue--><g id="link_Feature_User_logic_arc_int__baselibs__synchronized_queue"><path codeLine="41" d="M3194.72,46.07 C3371.27,52.3 4031.05,76.69 4573.5,111.5 C4830.71,128 4894.8,135.36 5151.5,158.5 C5157.34,159.03 5157.3051,159.0214 5163.2951,159.5714 " fill="transparent" id="Feature_User-to-logic_arc_int__baselibs__synchronized_queue" style="stroke:#181818;stroke-width:1;"/><polygon fill="#181818" points="5169.27,160.12,5160.6734,155.3138,5164.2909,159.6628,5159.942,163.2803,5169.27,160.12" style="stroke:#181818;stroke-width:1;"/><text fill="#000000" font-family="sans-serif" font-size="13" lengthAdjust="spacing" textLength="23.0103" x="4805.5" y="124.5669">use</text></g><!--reverse link logic_arc_int__baselibs__shared_future to comp_arc_sta__baselibs__concurrency--><g id="link_logic_arc_int__baselibs__shared_future_comp_arc_sta__baselibs__concurrency"><path codeLine="42" d="M3304.6838,199.2635 C3415.6738,213.1235 3564.96,231.16 3701.5,245.5 C3833.39,259.36 3983.63,272.77 4092.26,282.06 " fill="transparent" id="logic_arc_int__baselibs__shared_future-backto-comp_arc_sta__baselibs__concurrency" style="stroke:#181818;stroke-width:1;"/><polygon fill="#181818" points="3298.73,198.52,3307.165,203.6044,3303.6915,199.1396,3308.1563,195.6661,3298.73,198.52" style="stroke:#181818;stroke-width:1;"/><text fill="#000000" font-family="sans-serif" font-size="13" lengthAdjust="spacing" textLength="76.9082" x="3702.5" y="241.5669">implements</text></g><!--link Feature_User to logic_arc_int__baselibs__condition_variable--><g id="link_Feature_User_logic_arc_int__baselibs__condition_variable"><path codeLine="43" d="M3194.68,50.83 C3331.67,70 3740.288,127.2081 3957.488,157.6181 " fill="transparent" id="Feature_User-to-logic_arc_int__baselibs__condition_variable" style="stroke:#181818;stroke-width:1;"/><polygon fill="#181818" points="3963.43,158.45,3955.0716,153.2407,3958.4783,157.7567,3953.9623,161.1635,3963.43,158.45" style="stroke:#181818;stroke-width:1;"/><text fill="#000000" font-family="sans-serif" font-size="13" lengthAdjust="spacing" textLength="23.0103" x="3739.5" y="124.5669">use</text></g><!--link Feature_User to logic_arc_int__baselibs__shared_future--><g id="link_Feature_User_logic_arc_int__baselibs__shared_future"><path codeLine="44" d="M3149.5,81.55 C3149.5,106.45 3149.5,132.26 3149.5,152.26 " fill="transparent" id="Feature_User-to-logic_arc_int__baselibs__shared_future" style="stroke:#181818;stroke-width:1;"/><polygon fill="#181818" points="3149.5,158.26,3153.5,149.26,3149.5,153.26,3145.5,149.26,3149.5,158.26" style="stroke:#181818;stroke-width:1;"/><text fill="#000000" font-family="sans-serif" font-size="13" lengthAdjust="spacing" textLength="23.0103" x="3150.5" y="124.5669">use</text></g><!--link Feature_User to logic_arc_int__baselibs__json--><g id="link_Feature_User_logic_arc_int__baselibs__json"><path codeLine="45" d="M3104.47,64.27 C3046.6,89.67 2952.334,131.0483 2895.314,156.0783 " fill="transparent" id="Feature_User-to-logic_arc_int__baselibs__json" style="stroke:#181818;stroke-width:1;"/><polygon fill="#181818" points="2889.82,158.49,2899.6688,158.5351,2894.3983,156.4803,2896.4532,151.2098,2889.82,158.49" style="stroke:#181818;stroke-width:1;"/><text fill="#000000" font-family="sans-serif" font-size="13" lengthAdjust="spacing" textLength="23.0103" x="2990.5" y="124.5669">use</text></g><!--link Feature_User to logic_arc_int__baselibs__executor--><g id="link_Feature_User_logic_arc_int__baselibs__executor"><path codeLine="46" d="M3194.53,63.27 C3255.07,88.51 3356.5721,130.8309 3417.3921,156.1909 " fill="transparent" id="Feature_User-to-logic_arc_int__baselibs__executor" style="stroke:#181818;stroke-width:1;"/><polygon fill="#181818" points="3422.93,158.5,3416.1626,151.3444,3418.3151,156.5757,3413.0838,158.7282,3422.93,158.5" style="stroke:#181818;stroke-width:1;"/><text fill="#000000" font-family="sans-serif" font-size="13" lengthAdjust="spacing" textLength="23.0103" x="3348.5" y="124.5669">use</text></g><!--reverse link logic_arc_int__baselibs__utils_scoped_op to comp_arc_sta__baselibs__utils--><g id="link_logic_arc_int__baselibs__utils_scoped_op_comp_arc_sta__baselibs__utils"><path codeLine="47" d="M1931.7506,202.1252 C1963.0406,223.4152 2008.19,254.14 2039.4,275.38 " fill="transparent" id="logic_arc_int__baselibs__utils_scoped_op-backto-comp_arc_sta__baselibs__utils" style="stroke:#181818;stroke-width:1;"/><polygon fill="#181818" points="1926.79,198.75,1931.9808,207.1199,1930.9238,201.5627,1936.4811,200.5058,1926.79,198.75" style="stroke:#181818;stroke-width:1;"/><text fill="#000000" font-family="sans-serif" font-size="13" lengthAdjust="spacing" textLength="76.9082" x="1994.5" y="241.5669">implements</text></g><!--reverse link logic_arc_int__baselibs__result to comp_arc_sta__baselibs__result--><g id="link_logic_arc_int__baselibs__result_comp_arc_sta__baselibs__result"><path codeLine="48" d="M136.621,204.7464 C135.881,225.9764 134.91,253.94 134.17,275.19 " fill="transparent" id="logic_arc_int__baselibs__result-backto-comp_arc_sta__baselibs__result" style="stroke:#181818;stroke-width:1;"/><polygon fill="#181818" points="136.83,198.75,132.5189,207.6052,136.6558,203.747,140.5141,207.8839,136.83,198.75" style="stroke:#181818;stroke-width:1;"/><text fill="#000000" font-family="sans-serif" font-size="13" lengthAdjust="spacing" textLength="76.9082" x="137.5" y="241.5669">implements</text></g><!--link Feature_User to logic_arc_int__baselibs__bit_manipulation--><g id="link_Feature_User_logic_arc_int__baselibs__bit_manipulation"><path codeLine="49" d="M3104.48,46.57 C2901.79,56.07 2053.58,97.6 1359.5,158.5 C1353.93,158.99 1354.2335,158.937 1348.5035,159.477 " fill="transparent" id="Feature_User-to-logic_arc_int__baselibs__bit_manipulation" style="stroke:#181818;stroke-width:1;"/><polygon fill="#181818" points="1342.53,160.04,1351.8656,163.1779,1347.5079,159.5709,1351.115,155.2132,1342.53,160.04" style="stroke:#181818;stroke-width:1;"/><text fill="#000000" font-family="sans-serif" font-size="13" lengthAdjust="spacing" textLength="23.0103" x="1951.5" y="124.5669">use</text></g><!--link Feature_User to logic_arc_int__baselibs__intrusive_list--><g id="link_Feature_User_logic_arc_int__baselibs__intrusive_list"><path codeLine="50" d="M3194.52,45.83 C3390.05,51.7 4185.14,76.57 4837.5,111.5 C5147.54,128.1 5225.3,130.29 5534.5,158.5 C5540.53,159.05 5540.7087,159.0535 5546.9187,159.6635 " fill="transparent" id="Feature_User-to-logic_arc_int__baselibs__intrusive_list" style="stroke:#181818;stroke-width:1;"/><polygon fill="#181818" points="5552.89,160.25,5544.3241,155.3893,5547.9139,159.7612,5543.5421,163.351,5552.89,160.25" style="stroke:#181818;stroke-width:1;"/><text fill="#000000" font-family="sans-serif" font-size="13" lengthAdjust="spacing" textLength="23.0103" x="5152.5" y="124.5669">use</text></g><!--link Feature_User to logic_arc_int__baselibs__utils_base64--><g id="link_Feature_User_logic_arc_int__baselibs__utils_base64"><path codeLine="51" d="M3104.27,51.1 C2970.93,70.54 2581.6572,127.3144 2374.0972,157.5744 " fill="transparent" id="Feature_User-to-logic_arc_int__baselibs__utils_base64" style="stroke:#181818;stroke-width:1;"/><polygon fill="#181818" points="2368.16,158.44,2377.6429,161.0998,2373.1077,157.7187,2376.4888,153.1835,2368.16,158.44" style="stroke:#181818;stroke-width:1;"/><text fill="#000000" font-family="sans-serif" font-size="13" lengthAdjust="spacing" textLength="23.0103" x="2667.5" y="124.5669">use</text></g><!--reverse link logic_arc_int__baselibs__bit_mask_operator to comp_arc_sta__baselibs__bit_manipulation--><g id="link_logic_arc_int__baselibs__bit_mask_operator_comp_arc_sta__baselibs__bit_manipulation"><path codeLine="52" d="M852.6865,201.9799 C886.0165,223.2699 934.33,254.14 967.57,275.38 " fill="transparent" id="logic_arc_int__baselibs__bit_mask_operator-backto-comp_arc_sta__baselibs__bit_manipulation" style="stroke:#181818;stroke-width:1;"/><polygon fill="#181818" points="847.63,198.75,853.0614,206.9658,851.8437,201.4416,857.368,200.2239,847.63,198.75" style="stroke:#181818;stroke-width:1;"/><text fill="#000000" font-family="sans-serif" font-size="13" lengthAdjust="spacing" textLength="76.9082" x="919.5" y="241.5669">implements</text></g><!--SRC=[hLOzRzmm3DtrAuJibnP5qI48iXJerB6T1LbcxjZemnMfD6xH_rxPlgJs9JZREe-KAPgFUe-ajZRyKWwVqEy5XqPoa5LW3axM6C4m1YyEM8CaXWY1smO66rp3hTJC4Ql4GEAMkBLm9wureQta7_4LFNmEDaGPeUwjRmSq3nw8v8Vhz-Alk7rtl2EquUntzGKqfmZoEq6yafhayK1r1rA8YRchTtVIXZqQfQDHw5cfIXDOh4WfrlHm8nE152QufdSXrcCN4xn9CO8thTobSy7kK_VR6uckiU30CyarkTIjrwx_57LxJ6eb51M1akLvHAnpeIFD0CfcJ8IFe2mI5mEha9NhiWiDH9sVSBEAJp0NPlVyQclhdHWjAJ8PL9sHROOfUzROAKezweYwikMCQc9mI0NON5QVteDgD57M_6RONX8Q0xeyB3o1IJsl2WkrhMnEXBm4Qq-ccR03uJhxqyTbKGVXUMoIrHsZPdvmwbvSJWSkn5RHGUUUlXbvgFNc48F7trbmFnEaXJpwGRF8EvTbmUxH0hLvpBcvOV3Yk2pmYUHcehyIwBQ26iPYQKCT8J_xz1EQp0AUKAemjRSej1Kx-ymktG7UQlvhc_T99ckl3rfOU-j_2pvRp-LzRZHObt1xwE0paI_S55xtnxLLEbseodQEvn5mjj95lN-oeushz0y0]--></g></svg>