<svg xmlns="http://www.w3.org/2000/svg" xmlns:xlink="http://www.w3.org/1999/xlink" contentStyleType="text/css" data-diagram-type="CLASS" height="322px" preserveAspectRatio="none" style="width:6200px;height:322px;background:#FFFFFF;" version="1.1" viewBox="0 0 6200 322" width="6200px" zoomAndPan="magnify"><defs/><g><!--entity Feature_User--><g id="elem_Feature_User"><ellipse cx="3155.6685" cy="14" fill="#F1F1F1" rx="8" ry="8" style="stroke:#181818;stroke-width:0.5;"/><path d="M3155.6685,22 L3155.6685,49 M3142.6685,30 L3168.6685,30 M3155.6685,49 L3142.6685,64 M3155.6685,49 L3168.6685,64 " fill="transparent" style="stroke:#181818;stroke-width:0.5;"/><text fill="#000000" font-family="sans-serif" font-size="14" lengthAdjust="spacing" textLength="90.3369" x="3110.5" y="78.4951">Feature User</text></g><!--class logic_arc_int__baselibs__dynamic_array--><g id="elem_logic_arc_int__baselibs__dynamic_array"><rect fill="#F1F1F1" height="40" id="logic_arc_int__baselibs__dynamic_array" rx="2.5" ry="2.5" style="stroke:#181818;stroke-width:0.5;" width="308.3496" x="733.5" y="158.5"/><ellipse cx="748.5" cy="174.5" fill="#ADD1B2" rx="11" ry="11" style="stroke:#181818;stroke-width:1;"/><path d="M751.4688,180.1406 Q750.8906,180.4375 750.25,180.5781 Q749.6094,180.7344 748.9063,180.7344 Q746.4063,180.7344 745.0781,179.0938 Q743.7656,177.4375 743.7656,174.3125 Q743.7656,171.1875 745.0781,169.5313 Q746.4063,167.875 748.9063,167.875 Q749.6094,167.875 750.25,168.0313 Q750.9063,168.1875 751.4688,168.4844 L751.4688,171.2031 Q750.8438,170.625 750.25,170.3594 Q749.6563,170.0781 749.0313,170.0781 Q747.6875,170.0781 747,171.1563 Q746.3125,172.2188 746.3125,174.3125 Q746.3125,176.4063 747,177.4844 Q747.6875,178.5469 749.0313,178.5469 Q749.6563,178.5469 750.25,178.2813 Q750.8438,178 751.4688,177.4219 L751.4688,180.1406 Z " fill="#000000"/><text fill="#000000" font-family="sans-serif" font-size="14" lengthAdjust="spacing" textLength="276.3496" x="762.5" y="179.3467">logic_arc_int__baselibs__dynamic_array</text><line style="stroke:#181818;stroke-width:0.5;" x1="734.5" x2="1040.8496" y1="190.5" y2="190.5"/></g><!--class logic_arc_int__baselibs__message_passing--><g id="elem_logic_arc_int__baselibs__message_passing"><rect fill="#F1F1F1" height="40" id="logic_arc_int__baselibs__message_passing" rx="2.5" ry="2.5" style="stroke:#181818;stroke-width:0.5;" width="328.167" x="15.5" y="158.5"/><ellipse cx="30.5" cy="174.5" fill="#ADD1B2" rx="11" ry="11" style="stroke:#181818;stroke-width:1;"/><path d="M33.4688,180.1406 Q32.8906,180.4375 32.25,180.5781 Q31.6094,180.7344 30.9063,180.7344 Q28.4063,180.7344 27.0781,179.0938 Q25.7656,177.4375 25.7656,174.3125 Q25.7656,171.1875 27.0781,169.5313 Q28.4063,167.875 30.9063,167.875 Q31.6094,167.875 32.25,168.0313 Q32.9063,168.1875 33.4688,168.4844 L33.4688,171.2031 Q32.8438,170.625 32.25,170.3594 Q31.6563,170.0781 31.0313,170.0781 Q29.6875,170.0781 29,171.1563 Q28.3125,172.2188 28.3125,174.3125 Q28.3125,176.4063 29,177.4844 Q29.6875,178.5469 31.0313,178.5469 Q31.6563,178.5469 32.25,178.2813 Q32.8438,178 33.4688,177.4219 L33.4688,180.1406 Z " fill="#000000"/><text fill="#000000" font-family="sans-serif" font-size="14" lengthAdjust="spacing" textLength="296.167" x="44.5" y="179.3467">logic_arc_int__baselibs__message_passing</text><line style="stroke:#181818;stroke-width:0.5;" x1="16.5" x2="342.667" y1="190.5" y2="190.5"/></g><!--class comp_arc_sta__baselibs__json--><g id="elem_comp_arc_sta__baselibs__json"><rect fill="#F1F1F1" height="40" id="comp_arc_sta__baselibs__json" rx="2.5" ry="2.5" style="stroke:#181818;stroke-width:0.5;" width="242.1367" x="5951.5" y="275.5"/><ellipse cx="5966.5" cy="291.5" fill="#ADD1B2" rx="11" ry="11" style="stroke:#181818;stroke-width:1;"/><path d="M5969.4688,297.1406 Q5968.8906,297.4375 5968.25,297.5781 Q5967.6094,297.7344 5966.9063,297.7344 Q5964.4063,297.7344 5963.0781,296.0938 Q5961.7656,294.4375 5961.7656,291.3125 Q5961.7656,288.1875 5963.0781,286.5313 Q5964.4063,284.875 5966.9063,284.875 Q5967.6094,284.875 5968.25,285.0313 Q5968.9063,285.1875 5969.4688,285.4844 L5969.4688,288.2031 Q5968.8438,287.625 5968.25,287.3594 Q5967.6563,287.0781 5967.0313,287.0781 Q5965.6875,287.0781 5965,288.1563 Q5964.3125,289.2188 5964.3125,291.3125 Q5964.3125,293.4063 5965,294.4844 Q5965.6875,295.5469 5967.0313,295.5469 Q5967.6563,295.5469 5968.25,295.2813 Q5968.8438,295 5969.4688,294.4219 L5969.4688,297.1406 Z " fill="#000000"/><text fill="#000000" font-family="sans-serif" font-size="14" lengthAdjust="spacing" textLength="210.1367" x="5980.5" y="296.3467">comp_arc_sta__baselibs__json</text><line style="stroke:#181818;stroke-width:0.5;" x1="5952.5" x2="6192.6367" y1="307.5" y2="307.5"/></g><!--class logic_arc_int__baselibs__json--><g id="elem_logic_arc_int__baselibs__json"><rect fill="#F1F1F1" height="40" id="logic_arc_int__baselibs__json" rx="2.5" ry="2.5" style="stroke:#181818;stroke-width:0.5;" width="233.168" x="5956" y="158.5"/><ellipse cx="5971" cy="174.5" fill="#ADD1B2" rx="11" ry="11" style="stroke:#181818;stroke-width:1;"/><path d="M5973.9688,180.1406 Q5973.3906,180.4375 5972.75,180.5781 Q5972.1094,180.7344 5971.4063,180.7344 Q5968.9063,180.7344 5967.5781,179.0938 Q5966.2656,177.4375 5966.2656,174.3125 Q5966.2656,171.1875 5967.5781,169.5313 Q5968.9063,167.875 5971.4063,167.875 Q5972.1094,167.875 5972.75,168.0313 Q5973.4063,168.1875 5973.9688,168.4844 L5973.9688,171.2031 Q5973.3438,170.625 5972.75,170.3594 Q5972.1563,170.0781 5971.5313,170.0781 Q5970.1875,170.0781 5969.5,171.1563 Q5968.8125,172.2188 5968.8125,174.3125 Q5968.8125,176.4063 5969.5,177.4844 Q5970.1875,178.5469 5971.5313,178.5469 Q5972.1563,178.5469 5972.75,178.2813 Q5973.3438,178 5973.9688,177.4219 L5973.9688,180.1406 Z " fill="#000000"/><text fill="#000000" font-family="sans-serif" font-size="14" lengthAdjust="spacing" textLength="201.168" x="5985" y="179.3467">logic_arc_int__baselibs__json</text><line style="stroke:#181818;stroke-width:0.5;" x1="5957" x2="6188.168" y1="190.5" y2="190.5"/></g><!--class logic_arc_int__baselibs__filesystem--><g id="elem_logic_arc_int__baselibs__filesystem"><rect fill="#F1F1F1" height="40" id="logic_arc_int__baselibs__filesystem" rx="2.5" ry="2.5" style="stroke:#181818;stroke-width:0.5;" width="276.4805" x="1405.5" y="158.5"/><ellipse cx="1420.5" cy="174.5" fill="#ADD1B2" rx="11" ry="11" style="stroke:#181818;stroke-width:1;"/><path d="M1423.4688,180.1406 Q1422.8906,180.4375 1422.25,180.5781 Q1421.6094,180.7344 1420.9063,180.7344 Q1418.4063,180.7344 1417.0781,179.0938 Q1415.7656,177.4375 1415.7656,174.3125 Q1415.7656,171.1875 1417.0781,169.5313 Q1418.4063,167.875 1420.9063,167.875 Q1421.6094,167.875 1422.25,168.0313 Q1422.9063,168.1875 1423.4688,168.4844 L1423.4688,171.2031 Q1422.8438,170.625 1422.25,170.3594 Q1421.6563,170.0781 1421.0313,170.0781 Q1419.6875,170.0781 1419,171.1563 Q1418.3125,172.2188 1418.3125,174.3125 Q1418.3125,176.4063 1419,177.4844 Q1419.6875,178.5469 1421.0313,178.5469 Q1421.6563,178.5469 1422.25,178.2813 Q1422.8438,178 1423.4688,177.4219 L1423.4688,180.1406 Z " fill="#000000"/><text fill="#000000" font-family="sans-serif" font-size="14" lengthAdjust="spacing" textLength="244.4805" x="1434.5" y="179.3467">logic_arc_int__baselibs__filesystem</text><line style="stroke:#181818;stroke-width:0.5;" x1="1406.5" x2="1680.9805" y1="190.5" y2="190.5"/></g><!--class logic_arc_int__baselibs__executor--><g id="elem_logic_arc_int__baselibs__executor"><rect fill="#F1F1F1" height="40" id="logic_arc_int__baselibs__executor" rx="2.5" ry="2.5" style="stroke:#181818;stroke-width:0.5;" width="266.4385" x="2444.5" y="158.5"/><ellipse cx="2459.5" cy="174.5" fill="#ADD1B2" rx="11" ry="11" style="stroke:#181818;stroke-width:1;"/><path d="M2462.4688,180.1406 Q2461.8906,180.4375 2461.25,180.5781 Q2460.6094,180.7344 2459.9063,180.7344 Q2457.4063,180.7344 2456.0781,179.0938 Q2454.7656,177.4375 2454.7656,174.3125 Q2454.7656,171.1875 2456.0781,169.5313 Q2457.4063,167.875 2459.9063,167.875 Q2460.6094,167.875 2461.25,168.0313 Q2461.9063,168.1875 2462.4688,168.4844 L2462.4688,171.2031 Q2461.8438,170.625 2461.25,170.3594 Q2460.6563,170.0781 2460.0313,170.0781 Q2458.6875,170.0781 2458,171.1563 Q2457.3125,172.2188 2457.3125,174.3125 Q2457.3125,176.4063 2458,177.4844 Q2458.6875,178.5469 2460.0313,178.5469 Q2460.6563,178.5469 2461.25,178.2813 Q2461.8438,178 2462.4688,177.4219 L2462.4688,180.1406 Z " fill="#000000"/><text fill="#000000" font-family="sans-serif" font-size="14" lengthAdjust="spacing" textLength="234.4385" x="2473.5" y="179.3467">logic_arc_int__baselibs__executor</text><line style="stroke:#181818;stroke-width:0.5;" x1="2445.5" x2="2709.9385" y1="190.5" y2="190.5"/></g><!--class logic_arc_int__baselibs__bit_mask_operator--><g id="elem_logic_arc_int__baselibs__bit_mask_operator"><rect fill="#F1F1F1" height="40" id="logic_arc_int__baselibs__bit_mask_operator" rx="2.5" ry="2.5" style="stroke:#181818;stroke-width:0.5;" width="334.6406" x="2074" y="158.5"/><ellipse cx="2089" cy="174.5" fill="#ADD1B2" rx="11" ry="11" style="stroke:#181818;stroke-width:1;"/><path d="M2091.9688,180.1406 Q2091.3906,180.4375 2090.75,180.5781 Q2090.1094,180.7344 2089.4063,180.7344 Q2086.9063,180.7344 2085.5781,179.0938 Q2084.2656,177.4375 2084.2656,174.3125 Q2084.2656,171.1875 2085.5781,169.5313 Q2086.9063,167.875 2089.4063,167.875 Q2090.1094,167.875 2090.75,168.0313 Q2091.4063,168.1875 2091.9688,168.4844 L2091.9688,171.2031 Q2091.3438,170.625 2090.75,170.3594 Q2090.1563,170.0781 2089.5313,170.0781 Q2088.1875,170.0781 2087.5,171.1563 Q2086.8125,172.2188 2086.8125,174.3125 Q2086.8125,176.4063 2087.5,177.4844 Q2088.1875,178.5469 2089.5313,178.5469 Q2090.1563,178.5469 2090.75,178.2813 Q2091.3438,178 2091.9688,177.4219 L2091.9688,180.1406 Z " fill="#000000"/><text fill="#000000" font-family="sans-serif" font-size="14" lengthAdjust="spacing" textLength="302.6406" x="2103" y="179.3467">logic_arc_int__baselibs__bit_mask_operator</text><line style="stroke:#181818;stroke-width:0.5;" x1="2075" x2="2407.6406" y1="190.5" y2="190.5"/></g><!--class logic_arc_int__baselibs__utils_scoped_op--><g id="elem_logic_arc_int__baselibs__utils_scoped_op"><rect fill="#F1F1F1" height="40" id="logic_arc_int__baselibs__utils_scoped_op" rx="2.5" ry="2.5" style="stroke:#181818;stroke-width:0.5;" width="315.377" x="5606" y="158.5"/><ellipse cx="5621" cy="174.5" fill="#ADD1B2" rx="11" ry="11" style="stroke:#181818;stroke-width:1;"/><path d="M5623.9688,180.1406 Q5623.3906,180.4375 5622.75,180.5781 Q5622.1094,180.7344 5621.4063,180.7344 Q5618.9063,180.7344 5617.5781,179.0938 Q5616.2656,177.4375 5616.2656,174.3125 Q5616.2656,171.1875 5617.5781,169.5313 Q5618.9063,167.875 5621.4063,167.875 Q5622.1094,167.875 5622.75,168.0313 Q5623.4063,168.1875 5623.9688,168.4844 L5623.9688,171.2031 Q5623.3438,170.625 5622.75,170.3594 Q5622.1563,170.0781 5621.5313,170.0781 Q5620.1875,170.0781 5619.5,171.1563 Q5618.8125,172.2188 5618.8125,174.3125 Q5618.8125,176.4063 5619.5,177.4844 Q5620.1875,178.5469 5621.5313,178.5469 Q5622.1563,178.5469 5622.75,178.2813 Q5623.3438,178 5623.9688,177.4219 L5623.9688,180.1406 Z " fill="#000000"/><text fill="#000000" font-family="sans-serif" font-size="14" lengthAdjust="spacing" textLength="283.377" x="5635" y="179.3467">logic_arc_int__baselibs__utils_scoped_op</text><line style="stroke:#181818;stroke-width:0.5;" x1="5607" x2="5920.377" y1="190.5" y2="190.5"/></g><!--class comp_arc_sta__baselibs__utils--><g id="elem_comp_arc_sta__baselibs__utils"><rect fill="#F1F1F1" height="40" id="comp_arc_sta__baselibs__utils" rx="2.5" ry="2.5" style="stroke:#181818;stroke-width:0.5;" width="242.9502" x="5472" y="275.5"/><ellipse cx="5487" cy="291.5" fill="#ADD1B2" rx="11" ry="11" style="stroke:#181818;stroke-width:1;"/><path d="M5489.9688,297.1406 Q5489.3906,297.4375 5488.75,297.5781 Q5488.1094,297.7344 5487.4063,297.7344 Q5484.9063,297.7344 5483.5781,296.0938 Q5482.2656,294.4375 5482.2656,291.3125 Q5482.2656,288.1875 5483.5781,286.5313 Q5484.9063,284.875 5487.4063,284.875 Q5488.1094,284.875 5488.75,285.0313 Q5489.4063,285.1875 5489.9688,285.4844 L5489.9688,288.2031 Q5489.3438,287.625 5488.75,287.3594 Q5488.1563,287.0781 5487.5313,287.0781 Q5486.1875,287.0781 5485.5,288.1563 Q5484.8125,289.2188 5484.8125,291.3125 Q5484.8125,293.4063 5485.5,294.4844 Q5486.1875,295.5469 5487.5313,295.5469 Q5488.1563,295.5469 5488.75,295.2813 Q5489.3438,295 5489.9688,294.4219 L5489.9688,297.1406 Z " fill="#000000"/><text fill="#000000" font-family="sans-serif" font-size="14" lengthAdjust="spacing" textLength="210.9502" x="5501" y="296.3467">comp_arc_sta__baselibs__utils</text><line style="stroke:#181818;stroke-width:0.5;" x1="5473" x2="5713.9502" y1="307.5" y2="307.5"/></g><!--class logic_arc_int__baselibs__utils_base64--><g id="elem_logic_arc_int__baselibs__utils_base64"><rect fill="#F1F1F1" height="40" id="logic_arc_int__baselibs__utils_base64" rx="2.5" ry="2.5" style="stroke:#181818;stroke-width:0.5;" width="292.1689" x="5278.5" y="158.5"/><ellipse cx="5293.5" cy="174.5" fill="#ADD1B2" rx="11" ry="11" style="stroke:#181818;stroke-width:1;"/><path d="M5296.4688,180.1406 Q5295.8906,180.4375 5295.25,180.5781 Q5294.6094,180.7344 5293.9063,180.7344 Q5291.4063,180.7344 5290.0781,179.0938 Q5288.7656,177.4375 5288.7656,174.3125 Q5288.7656,171.1875 5290.0781,169.5313 Q5291.4063,167.875 5293.9063,167.875 Q5294.6094,167.875 5295.25,168.0313 Q5295.9063,168.1875 5296.4688,168.4844 L5296.4688,171.2031 Q5295.8438,170.625 5295.25,170.3594 Q5294.6563,170.0781 5294.0313,170.0781 Q5292.6875,170.0781 5292,171.1563 Q5291.3125,172.2188 5291.3125,174.3125 Q5291.3125,176.4063 5292,177.4844 Q5292.6875,178.5469 5294.0313,178.5469 Q5294.6563,178.5469 5295.25,178.2813 Q5295.8438,178 5296.4688,177.4219 L5296.4688,180.1406 Z " fill="#000000"/><text fill="#000000" font-family="sans-serif" font-size="14" lengthAdjust="spacing" textLength="260.1689" x="5307.5" y="179.3467">logic_arc_int__baselibs__utils_base64</text><line style="stroke:#181818;stroke-width:0.5;" x1="5279.5" x2="5569.6689" y1="190.5" y2="190.5"/></g><!--class logic_arc_int__baselibs__task--><g id="elem_logic_arc_int__baselibs__task"><rect fill="#F1F1F1" height="40" id="logic_arc_int__baselibs__task" rx="2.5" ry="2.5" style="stroke:#181818;stroke-width:0.5;" width="234.0156" x="2745.5" y="158.5"/><ellipse cx="2760.5" cy="174.5" fill="#ADD1B2" rx="11" ry="11" style="stroke:#181818;stroke-width:1;"/><path d="M2763.4688,180.1406 Q2762.8906,180.4375 2762.25,180.5781 Q2761.6094,180.7344 2760.9063,180.7344 Q2758.4063,180.7344 2757.0781,179.0938 Q2755.7656,177.4375 2755.7656,174.3125 Q2755.7656,171.1875 2757.0781,169.5313 Q2758.4063,167.875 2760.9063,167.875 Q2761.6094,167.875 2762.25,168.0313 Q2762.9063,168.1875 2763.4688,168.4844 L2763.4688,171.2031 Q2762.8438,170.625 2762.25,170.3594 Q2761.6563,170.0781 2761.0313,170.0781 Q2759.6875,170.0781 2759,171.1563 Q2758.3125,172.2188 2758.3125,174.3125 Q2758.3125,176.4063 2759,177.4844 Q2759.6875,178.5469 2761.0313,178.5469 Q2761.6563,178.5469 2762.25,178.2813 Q2762.8438,178 2763.4688,177.4219 L2763.4688,180.1406 Z " fill="#000000"/><text fill="#000000" font-family="sans-serif" font-size="14" lengthAdjust="spacing" textLength="202.0156" x="2774.5" y="179.3467">logic_arc_int__baselibs__task</text><line style="stroke:#181818;stroke-width:0.5;" x1="2746.5" x2="2978.5156" y1="190.5" y2="190.5"/></g><!--class comp_arc_sta__baselibs__concurrency--><g id="elem_comp_arc_sta__baselibs__concurrency"><rect fill="#F1F1F1" height="40" id="comp_arc_sta__baselibs__concurrency" rx="2.5" ry="2.5" style="stroke:#181818;stroke-width:0.5;" width="300.2012" x="3439.5" y="275.5"/><ellipse cx="3454.5" cy="291.5" fill="#ADD1B2" rx="11" ry="11" style="stroke:#181818;stroke-width:1;"/><path d="M3457.4688,297.1406 Q3456.8906,297.4375 3456.25,297.5781 Q3455.6094,297.7344 3454.9063,297.7344 Q3452.4063,297.7344 3451.0781,296.0938 Q3449.7656,294.4375 3449.7656,291.3125 Q3449.7656,288.1875 3451.0781,286.5313 Q3452.4063,284.875 3454.9063,284.875 Q3455.6094,284.875 3456.25,285.0313 Q3456.9063,285.1875 3457.4688,285.4844 L3457.4688,288.2031 Q3456.8438,287.625 3456.25,287.3594 Q3455.6563,287.0781 3455.0313,287.0781 Q3453.6875,287.0781 3453,288.1563 Q3452.3125,289.2188 3452.3125,291.3125 Q3452.3125,293.4063 3453,294.4844 Q3453.6875,295.5469 3455.0313,295.5469 Q3455.6563,295.5469 3456.25,295.2813 Q3456.8438,295 3457.4688,294.4219 L3457.4688,297.1406 Z " fill="#000000"/><text fill="#000000" font-family="sans-serif" font-size="14" lengthAdjust="spacing" textLength="268.2012" x="3468.5" y="296.3467">comp_arc_sta__baselibs__concurrency</text><line style="stroke:#181818;stroke-width:0.5;" x1="3440.5" x2="3738.7012" y1="307.5" y2="307.5"/></g><!--class logic_arc_int__baselibs__promise--><g id="elem_logic_arc_int__baselibs__promise"><rect fill="#F1F1F1" height="40" id="logic_arc_int__baselibs__promise" rx="2.5" ry="2.5" style="stroke:#181818;stroke-width:0.5;" width="261.1885" x="4335" y="158.5"/><ellipse cx="4350" cy="174.5" fill="#ADD1B2" rx="11" ry="11" style="stroke:#181818;stroke-width:1;"/><path d="M4352.9688,180.1406 Q4352.3906,180.4375 4351.75,180.5781 Q4351.1094,180.7344 4350.4063,180.7344 Q4347.9063,180.7344 4346.5781,179.0938 Q4345.2656,177.4375 4345.2656,174.3125 Q4345.2656,171.1875 4346.5781,169.5313 Q4347.9063,167.875 4350.4063,167.875 Q4351.1094,167.875 4351.75,168.0313 Q4352.4063,168.1875 4352.9688,168.4844 L4352.9688,171.2031 Q4352.3438,170.625 4351.75,170.3594 Q4351.1563,170.0781 4350.5313,170.0781 Q4349.1875,170.0781 4348.5,171.1563 Q4347.8125,172.2188 4347.8125,174.3125 Q4347.8125,176.4063 4348.5,177.4844 Q4349.1875,178.5469 4350.5313,178.5469 Q4351.1563,178.5469 4351.75,178.2813 Q4352.3438,178 4352.9688,177.4219 L4352.9688,180.1406 Z " fill="#000000"/><text fill="#000000" font-family="sans-serif" font-size="14" lengthAdjust="spacing" textLength="229.1885" x="4364" y="179.3467">logic_arc_int__baselibs__promise</text><line style="stroke:#181818;stroke-width:0.5;" x1="4336" x2="4595.1885" y1="190.5" y2="190.5"/></g><!--class comp_arc_sta__baselibs__result--><g id="elem_comp_arc_sta__baselibs__result"><rect fill="#F1F1F1" height="40" id="comp_arc_sta__baselibs__result" rx="2.5" ry="2.5" style="stroke:#181818;stroke-width:0.5;" width="253.4297" x="4995" y="275.5"/><ellipse cx="5010" cy="291.5" fill="#ADD1B2" rx="11" ry="11" style="stroke:#181818;stroke-width:1;"/><path d="M5012.9688,297.1406 Q5012.3906,297.4375 5011.75,297.5781 Q5011.1094,297.7344 5010.4063,297.7344 Q5007.9063,297.7344 5006.5781,296.0938 Q5005.2656,294.4375 5005.2656,291.3125 Q5005.2656,288.1875 5006.5781,286.5313 Q5007.9063,284.875 5010.4063,284.875 Q5011.1094,284.875 5011.75,285.0313 Q5012.4063,285.1875 5012.9688,285.4844 L5012.9688,288.2031 Q5012.3438,287.625 5011.75,287.3594 Q5011.1563,287.0781 5010.5313,287.0781 Q5009.1875,287.0781 5008.5,288.1563 Q5007.8125,289.2188 5007.8125,291.3125 Q5007.8125,293.4063 5008.5,294.4844 Q5009.1875,295.5469 5010.5313,295.5469 Q5011.1563,295.5469 5011.75,295.2813 Q5012.3438,295 5012.9688,294.4219 L5012.9688,297.1406 Z " fill="#000000"/><text fill="#000000" font-family="sans-serif" font-size="14" lengthAdjust="spacing" textLength="221.4297" x="5024" y="296.3467">comp_arc_sta__baselibs__result</text><line style="stroke:#181818;stroke-width:0.5;" x1="4996" x2="5247.4297" y1="307.5" y2="307.5"/></g><!--class logic_arc_int__baselibs__result--><g id="elem_logic_arc_int__baselibs__result"><rect fill="#F1F1F1" height="40" id="logic_arc_int__baselibs__result" rx="2.5" ry="2.5" style="stroke:#181818;stroke-width:0.5;" width="244.4609" x="4999.5" y="158.5"/><ellipse cx="5014.5" cy="174.5" fill="#ADD1B2" rx="11" ry="11" style="stroke:#181818;stroke-width:1;"/><path d="M5017.4688,180.1406 Q5016.8906,180.4375 5016.25,180.5781 Q5015.6094,180.7344 5014.9063,180.7344 Q5012.4063,180.7344 5011.0781,179.0938 Q5009.7656,177.4375 5009.7656,174.3125 Q5009.7656,171.1875 5011.0781,169.5313 Q5012.4063,167.875 5014.9063,167.875 Q5015.6094,167.875 5016.25,168.0313 Q5016.9063,168.1875 5017.4688,168.4844 L5017.4688,171.2031 Q5016.8438,170.625 5016.25,170.3594 Q5015.6563,170.0781 5015.0313,170.0781 Q5013.6875,170.0781 5013,171.1563 Q5012.3125,172.2188 5012.3125,174.3125 Q5012.3125,176.4063 5013,177.4844 Q5013.6875,178.5469 5015.0313,178.5469 Q5015.6563,178.5469 5016.25,178.2813 Q5016.8438,178 5017.4688,177.4219 L5017.4688,180.1406 Z " fill="#000000"/><text fill="#000000" font-family="sans-serif" font-size="14" lengthAdjust="spacing" textLength="212.4609" x="5028.5" y="179.3467">logic_arc_int__baselibs__result</text><line style="stroke:#181818;stroke-width:0.5;" x1="5000.5" x2="5242.9609" y1="190.5" y2="190.5"/></g><!--class logic_arc_int__baselibs__shared_future--><g id="elem_logic_arc_int__baselibs__shared_future"><rect fill="#F1F1F1" height="40" id="logic_arc_int__baselibs__shared_future" rx="2.5" ry="2.5" style="stroke:#181818;stroke-width:0.5;" width="302.0811" x="3331.5" y="158.5"/><ellipse cx="3346.5" cy="174.5" fill="#ADD1B2" rx="11" ry="11" style="stroke:#181818;stroke-width:1;"/><path d="M3349.4688,180.1406 Q3348.8906,180.4375 3348.25,180.5781 Q3347.6094,180.7344 3346.9063,180.7344 Q3344.4063,180.7344 3343.0781,179.0938 Q3341.7656,177.4375 3341.7656,174.3125 Q3341.7656,171.1875 3343.0781,169.5313 Q3344.4063,167.875 3346.9063,167.875 Q3347.6094,167.875 3348.25,168.0313 Q3348.9063,168.1875 3349.4688,168.4844 L3349.4688,171.2031 Q3348.8438,170.625 3348.25,170.3594 Q3347.6563,170.0781 3347.0313,170.0781 Q3345.6875,170.0781 3345,171.1563 Q3344.3125,172.2188 3344.3125,174.3125 Q3344.3125,176.4063 3345,177.4844 Q3345.6875,178.5469 3347.0313,178.5469 Q3347.6563,178.5469 3348.25,178.2813 Q3348.8438,178 3349.4688,177.4219 L3349.4688,180.1406 Z " fill="#000000"/><text fill="#000000" font-family="sans-serif" font-size="14" lengthAdjust="spacing" textLength="270.0811" x="3360.5" y="179.3467">logic_arc_int__baselibs__shared_future</text><line style="stroke:#181818;stroke-width:0.5;" x1="3332.5" x2="3632.5811" y1="190.5" y2="190.5"/></g><!--class logic_arc_int__baselibs__task_result--><g id="elem_logic_arc_int__baselibs__task_result"><rect fill="#F1F1F1" height="40" id="logic_arc_int__baselibs__task_result" rx="2.5" ry="2.5" style="stroke:#181818;stroke-width:0.5;" width="280.9307" x="3015" y="158.5"/><ellipse cx="3030" cy="174.5" fill="#ADD1B2" rx="11" ry="11" style="stroke:#181818;stroke-width:1;"/><path d="M3032.9688,180.1406 Q3032.3906,180.4375 3031.75,180.5781 Q3031.1094,180.7344 3030.4063,180.7344 Q3027.9063,180.7344 3026.5781,179.0938 Q3025.2656,177.4375 3025.2656,174.3125 Q3025.2656,171.1875 3026.5781,169.5313 Q3027.9063,167.875 3030.4063,167.875 Q3031.1094,167.875 3031.75,168.0313 Q3032.4063,168.1875 3032.9688,168.4844 L3032.9688,171.2031 Q3032.3438,170.625 3031.75,170.3594 Q3031.1563,170.0781 3030.5313,170.0781 Q3029.1875,170.0781 3028.5,171.1563 Q3027.8125,172.2188 3027.8125,174.3125 Q3027.8125,176.4063 3028.5,177.4844 Q3029.1875,178.5469 3030.5313,178.5469 Q3031.1563,178.5469 3031.75,178.2813 Q3032.3438,178 3032.9688,177.4219 L3032.9688,180.1406 Z " fill="#000000"/><text fill="#000000" font-family="sans-serif" font-size="14" lengthAdjust="spacing" textLength="248.9307" x="3044" y="179.3467">logic_arc_int__baselibs__task_result</text><line style="stroke:#181818;stroke-width:0.5;" x1="3016" x2="3294.9307" y1="190.5" y2="190.5"/></g><!--class logic_arc_int__baselibs__synchronized_queue--><g id="elem_logic_arc_int__baselibs__synchronized_queue"><rect fill="#F1F1F1" height="40" id="logic_arc_int__baselibs__synchronized_queue" rx="2.5" ry="2.5" style="stroke:#181818;stroke-width:0.5;" width="348.3604" x="3951.5" y="158.5"/><ellipse cx="3966.5" cy="174.5" fill="#ADD1B2" rx="11" ry="11" style="stroke:#181818;stroke-width:1;"/><path d="M3969.4688,180.1406 Q3968.8906,180.4375 3968.25,180.5781 Q3967.6094,180.7344 3966.9063,180.7344 Q3964.4063,180.7344 3963.0781,179.0938 Q3961.7656,177.4375 3961.7656,174.3125 Q3961.7656,171.1875 3963.0781,169.5313 Q3964.4063,167.875 3966.9063,167.875 Q3967.6094,167.875 3968.25,168.0313 Q3968.9063,168.1875 3969.4688,168.4844 L3969.4688,171.2031 Q3968.8438,170.625 3968.25,170.3594 Q3967.6563,170.0781 3967.0313,170.0781 Q3965.6875,170.0781 3965,171.1563 Q3964.3125,172.2188 3964.3125,174.3125 Q3964.3125,176.4063 3965,177.4844 Q3965.6875,178.5469 3967.0313,178.5469 Q3967.6563,178.5469 3968.25,178.2813 Q3968.8438,178 3969.4688,177.4219 L3969.4688,180.1406 Z " fill="#000000"/><text fill="#000000" font-family="sans-serif" font-size="14" lengthAdjust="spacing" textLength="316.3604" x="3980.5" y="179.3467">logic_arc_int__baselibs__synchronized_queue</text><line style="stroke:#181818;stroke-width:0.5;" x1="3952.5" x2="4298.8604" y1="190.5" y2="190.5"/></g><!--class comp_arc_sta__baselibs__bit_manipulation--><g id="elem_comp_arc_sta__baselibs__bit_manipulation"><rect fill="#F1F1F1" height="40" id="comp_arc_sta__baselibs__bit_manipulation" rx="2.5" ry="2.5" style="stroke:#181818;stroke-width:0.5;" width="330.8057" x="1837" y="275.5"/><ellipse cx="1852" cy="291.5" fill="#ADD1B2" rx="11" ry="11" style="stroke:#181818;stroke-width:1;"/><path d="M1854.9688,297.1406 Q1854.3906,297.4375 1853.75,297.5781 Q1853.1094,297.7344 1852.4063,297.7344 Q1849.9063,297.7344 1848.5781,296.0938 Q1847.2656,294.4375 1847.2656,291.3125 Q1847.2656,288.1875 1848.5781,286.5313 Q1849.9063,284.875 1852.4063,284.875 Q1853.1094,284.875 1853.75,285.0313 Q1854.4063,285.1875 1854.9688,285.4844 L1854.9688,288.2031 Q1854.3438,287.625 1853.75,287.3594 Q1853.1563,287.0781 1852.5313,287.0781 Q1851.1875,287.0781 1850.5,288.1563 Q1849.8125,289.2188 1849.8125,291.3125 Q1849.8125,293.4063 1850.5,294.4844 Q1851.1875,295.5469 1852.5313,295.5469 Q1853.1563,295.5469 1853.75,295.2813 Q1854.3438,295 1854.9688,294.4219 L1854.9688,297.1406 Z " fill="#000000"/><text fill="#000000" font-family="sans-serif" font-size="14" lengthAdjust="spacing" textLength="298.8057" x="1866" y="296.3467">comp_arc_sta__baselibs__bit_manipulation</text><line style="stroke:#181818;stroke-width:0.5;" x1="1838" x2="2166.8057" y1="307.5" y2="307.5"/></g><!--class logic_arc_int__baselibs__bit_manipulation--><g id="elem_logic_arc_int__baselibs__bit_manipulation"><rect fill="#F1F1F1" height="40" id="logic_arc_int__baselibs__bit_manipulation" rx="2.5" ry="2.5" style="stroke:#181818;stroke-width:0.5;" width="321.8369" x="1716.5" y="158.5"/><ellipse cx="1731.5" cy="174.5" fill="#ADD1B2" rx="11" ry="11" style="stroke:#181818;stroke-width:1;"/><path d="M1734.4688,180.1406 Q1733.8906,180.4375 1733.25,180.5781 Q1732.6094,180.7344 1731.9063,180.7344 Q1729.4063,180.7344 1728.0781,179.0938 Q1726.7656,177.4375 1726.7656,174.3125 Q1726.7656,171.1875 1728.0781,169.5313 Q1729.4063,167.875 1731.9063,167.875 Q1732.6094,167.875 1733.25,168.0313 Q1733.9063,168.1875 1734.4688,168.4844 L1734.4688,171.2031 Q1733.8438,170.625 1733.25,170.3594 Q1732.6563,170.0781 1732.0313,170.0781 Q1730.6875,170.0781 1730,171.1563 Q1729.3125,172.2188 1729.3125,174.3125 Q1729.3125,176.4063 1730,177.4844 Q1730.6875,178.5469 1732.0313,178.5469 Q1732.6563,178.5469 1733.25,178.2813 Q1733.8438,178 1734.4688,177.4219 L1734.4688,180.1406 Z " fill="#000000"/><text fill="#000000" font-family="sans-serif" font-size="14" lengthAdjust="spacing" textLength="289.8369" x="1745.5" y="179.3467">logic_arc_int__baselibs__bit_manipulation</text><line style="stroke:#181818;stroke-width:0.5;" x1="1717.5" x2="2037.3369" y1="190.5" y2="190.5"/></g><!--class comp_arc_sta__baselibs__filesystem--><g id="elem_comp_arc_sta__baselibs__filesystem"><rect fill="#F1F1F1" height="40" id="comp_arc_sta__baselibs__filesystem" rx="2.5" ry="2.5" style="stroke:#181818;stroke-width:0.5;" width="285.4492" x="1401" y="275.5"/><ellipse cx="1416" cy="291.5" fill="#ADD1B2" rx="11" ry="11" style="stroke:#181818;stroke-width:1;"/><path d="M1418.9688,297.1406 Q1418.3906,297.4375 1417.75,297.5781 Q1417.1094,297.7344 1416.4063,297.7344 Q1413.9063,297.7344 1412.5781,296.0938 Q1411.2656,294.4375 1411.2656,291.3125 Q1411.2656,288.1875 1412.5781,286.5313 Q1413.9063,284.875 1416.4063,284.875 Q1417.1094,284.875 1417.75,285.0313 Q1418.4063,285.1875 1418.9688,285.4844 L1418.9688,288.2031 Q1418.3438,287.625 1417.75,287.3594 Q1417.1563,287.0781 1416.5313,287.0781 Q1415.1875,287.0781 1414.5,288.1563 Q1413.8125,289.2188 1413.8125,291.3125 Q1413.8125,293.4063 1414.5,294.4844 Q1415.1875,295.5469 1416.5313,295.5469 Q1417.1563,295.5469 1417.75,295.2813 Q1418.3438,295 1418.9688,294.4219 L1418.9688,297.1406 Z " fill="#000000"/><text fill="#000000" font-family="sans-serif" font-size="14" lengthAdjust="spacing" textLength="253.4492" x="1430" y="296.3467">comp_arc_sta__baselibs__filesystem</text><line style="stroke:#181818;stroke-width:0.5;" x1="1402" x2="1685.4492" y1="307.5" y2="307.5"/></g><!--class logic_arc_int__baselibs__condition_variable--><g id="elem_logic_arc_int__baselibs__condition_variable"><rect fill="#F1F1F1" height="40" id="logic_arc_int__baselibs__condition_variable" rx="2.5" ry="2.5" style="stroke:#181818;stroke-width:0.5;" width="332.7539" x="4631" y="158.5"/><ellipse cx="4646" cy="174.5" fill="#ADD1B2" rx="11" ry="11" style="stroke:#181818;stroke-width:1;"/><path d="M4648.9688,180.1406 Q4648.3906,180.4375 4647.75,180.5781 Q4647.1094,180.7344 4646.4063,180.7344 Q4643.9063,180.7344 4642.5781,179.0938 Q4641.2656,177.4375 4641.2656,174.3125 Q4641.2656,171.1875 4642.5781,169.5313 Q4643.9063,167.875 4646.4063,167.875 Q4647.1094,167.875 4647.75,168.0313 Q4648.4063,168.1875 4648.9688,168.4844 L4648.9688,171.2031 Q4648.3438,170.625 4647.75,170.3594 Q4647.1563,170.0781 4646.5313,170.0781 Q4645.1875,170.0781 4644.5,171.1563 Q4643.8125,172.2188 4643.8125,174.3125 Q4643.8125,176.4063 4644.5,177.4844 Q4645.1875,178.5469 4646.5313,178.5469 Q4647.1563,178.5469 4647.75,178.2813 Q4648.3438,178 4648.9688,177.4219 L4648.9688,180.1406 Z " fill="#000000"/><text fill="#000000" font-family="sans-serif" font-size="14" lengthAdjust="spacing" textLength="300.7539" x="4660" y="179.3467">logic_arc_int__baselibs__condition_variable</text><line style="stroke:#181818;stroke-width:0.5;" x1="4632" x2="4962.7539" y1="190.5" y2="190.5"/></g><!--class comp_arc_sta__baselibs__containers--><g id="elem_comp_arc_sta__baselibs__containers"><rect fill="#F1F1F1" height="40" id="comp_arc_sta__baselibs__containers" rx="2.5" ry="2.5" style="stroke:#181818;stroke-width:0.5;" width="287.1445" x="912" y="275.5"/><ellipse cx="927" cy="291.5" fill="#ADD1B2" rx="11" ry="11" style="stroke:#181818;stroke-width:1;"/><path d="M929.9688,297.1406 Q929.3906,297.4375 928.75,297.5781 Q928.1094,297.7344 927.4063,297.7344 Q924.9063,297.7344 923.5781,296.0938 Q922.2656,294.4375 922.2656,291.3125 Q922.2656,288.1875 923.5781,286.5313 Q924.9063,284.875 927.4063,284.875 Q928.1094,284.875 928.75,285.0313 Q929.4063,285.1875 929.9688,285.4844 L929.9688,288.2031 Q929.3438,287.625 928.75,287.3594 Q928.1563,287.0781 927.5313,287.0781 Q926.1875,287.0781 925.5,288.1563 Q924.8125,289.2188 924.8125,291.3125 Q924.8125,293.4063 925.5,294.4844 Q926.1875,295.5469 927.5313,295.5469 Q928.1563,295.5469 928.75,295.2813 Q929.3438,295 929.9688,294.4219 L929.9688,297.1406 Z " fill="#000000"/><text fill="#000000" font-family="sans-serif" font-size="14" lengthAdjust="spacing" textLength="255.1445" x="941" y="296.3467">comp_arc_sta__baselibs__containers</text><line style="stroke:#181818;stroke-width:0.5;" x1="913" x2="1198.1445" y1="307.5" y2="307.5"/></g><!--class logic_arc_int__baselibs__intrusive_list--><g id="elem_logic_arc_int__baselibs__intrusive_list"><rect fill="#F1F1F1" height="40" id="logic_arc_int__baselibs__intrusive_list" rx="2.5" ry="2.5" style="stroke:#181818;stroke-width:0.5;" width="293.0713" x="1077" y="158.5"/><ellipse cx="1092" cy="174.5" fill="#ADD1B2" rx="11" ry="11" style="stroke:#181818;stroke-width:1;"/><path d="M1094.9688,180.1406 Q1094.3906,180.4375 1093.75,180.5781 Q1093.1094,180.7344 1092.4063,180.7344 Q1089.9063,180.7344 1088.5781,179.0938 Q1087.2656,177.4375 1087.2656,174.3125 Q1087.2656,171.1875 1088.5781,169.5313 Q1089.9063,167.875 1092.4063,167.875 Q1093.1094,167.875 1093.75,168.0313 Q1094.4063,168.1875 1094.9688,168.4844 L1094.9688,171.2031 Q1094.3438,170.625 1093.75,170.3594 Q1093.1563,170.0781 1092.5313,170.0781 Q1091.1875,170.0781 1090.5,171.1563 Q1089.8125,172.2188 1089.8125,174.3125 Q1089.8125,176.4063 1090.5,177.4844 Q1091.1875,178.5469 1092.5313,178.5469 Q1093.1563,178.5469 1093.75,178.2813 Q1094.3438,178 1094.9688,177.4219 L1094.9688,180.1406 Z " fill="#000000"/><text fill="#000000" font-family="sans-serif" font-size="14" lengthAdjust="spacing" textLength="261.0713" x="1106" y="179.3467">logic_arc_int__baselibs__intrusive_list</text><line style="stroke:#181818;stroke-width:0.5;" x1="1078" x2="1369.0713" y1="190.5" y2="190.5"/></g><!--class comp_arc_sta__baselibs__memory_shared--><g id="elem_comp_arc_sta__baselibs__memory_shared"><rect fill="#F1F1F1" height="40" id="comp_arc_sta__baselibs__memory_shared" rx="2.5" ry="2.5" style="stroke:#181818;stroke-width:0.5;" width="327.0117" x="379" y="275.5"/><ellipse cx="394" cy="291.5" fill="#ADD1B2" rx="11" ry="11" style="stroke:#181818;stroke-width:1;"/><path d="M396.9688,297.1406 Q396.3906,297.4375 395.75,297.5781 Q395.1094,297.7344 394.4063,297.7344 Q391.9063,297.7344 390.5781,296.0938 Q389.2656,294.4375 389.2656,291.3125 Q389.2656,288.1875 390.5781,286.5313 Q391.9063,284.875 394.4063,284.875 Q395.1094,284.875 395.75,285.0313 Q396.4063,285.1875 396.9688,285.4844 L396.9688,288.2031 Q396.3438,287.625 395.75,287.3594 Q395.1563,287.0781 394.5313,287.0781 Q393.1875,287.0781 392.5,288.1563 Q391.8125,289.2188 391.8125,291.3125 Q391.8125,293.4063 392.5,294.4844 Q393.1875,295.5469 394.5313,295.5469 Q395.1563,295.5469 395.75,295.2813 Q396.3438,295 396.9688,294.4219 L396.9688,297.1406 Z " fill="#000000"/><text fill="#000000" font-family="sans-serif" font-size="14" lengthAdjust="spacing" textLength="295.0117" x="408" y="296.3467">comp_arc_sta__baselibs__memory_shared</text><line style="stroke:#181818;stroke-width:0.5;" x1="380" x2="705.0117" y1="307.5" y2="307.5"/></g><!--class logic_arc_int__baselibs__memory_shared--><g id="elem_logic_arc_int__baselibs__memory_shared"><rect fill="#F1F1F1" height="40" id="logic_arc_int__baselibs__memory_shared" rx="2.5" ry="2.5" style="stroke:#181818;stroke-width:0.5;" width="318.043" x="380.5" y="158.5"/><ellipse cx="395.5" cy="174.5" fill="#ADD1B2" rx="11" ry="11" style="stroke:#181818;stroke-width:1;"/><path d="M398.4688,180.1406 Q397.8906,180.4375 397.25,180.5781 Q396.6094,180.7344 395.9063,180.7344 Q393.4063,180.7344 392.0781,179.0938 Q390.7656,177.4375 390.7656,174.3125 Q390.7656,171.1875 392.0781,169.5313 Q393.4063,167.875 395.9063,167.875 Q396.6094,167.875 397.25,168.0313 Q397.9063,168.1875 398.4688,168.4844 L398.4688,171.2031 Q397.8438,170.625 397.25,170.3594 Q396.6563,170.0781 396.0313,170.0781 Q394.6875,170.0781 394,171.1563 Q393.3125,172.2188 393.3125,174.3125 Q393.3125,176.4063 394,177.4844 Q394.6875,178.5469 396.0313,178.5469 Q396.6563,178.5469 397.25,178.2813 Q397.8438,178 398.4688,177.4219 L398.4688,180.1406 Z " fill="#000000"/><text fill="#000000" font-family="sans-serif" font-size="14" lengthAdjust="spacing" textLength="286.043" x="409.5" y="179.3467">logic_arc_int__baselibs__memory_shared</text><line style="stroke:#181818;stroke-width:0.5;" x1="381.5" x2="697.543" y1="190.5" y2="190.5"/></g><!--class logic_arc_int__baselibs__future--><g id="elem_logic_arc_int__baselibs__future"><rect fill="#F1F1F1" height="40" id="logic_arc_int__baselibs__future" rx="2.5" ry="2.5" style="stroke:#181818;stroke-width:0.5;" width="247.0791" x="3669" y="158.5"/><ellipse cx="3684" cy="174.5" fill="#ADD1B2" rx="11" ry="11" style="stroke:#181818;stroke-width:1;"/><path d="M3686.9688,180.1406 Q3686.3906,180.4375 3685.75,180.5781 Q3685.1094,180.7344 3684.4063,180.7344 Q3681.9063,180.7344 3680.5781,179.0938 Q3679.2656,177.4375 3679.2656,174.3125 Q3679.2656,171.1875 3680.5781,169.5313 Q3681.9063,167.875 3684.4063,167.875 Q3685.1094,167.875 3685.75,168.0313 Q3686.4063,168.1875 3686.9688,168.4844 L3686.9688,171.2031 Q3686.3438,170.625 3685.75,170.3594 Q3685.1563,170.0781 3684.5313,170.0781 Q3683.1875,170.0781 3682.5,171.1563 Q3681.8125,172.2188 3681.8125,174.3125 Q3681.8125,176.4063 3682.5,177.4844 Q3683.1875,178.5469 3684.5313,178.5469 Q3685.1563,178.5469 3685.75,178.2813 Q3686.3438,178 3686.9688,177.4219 L3686.9688,180.1406 Z " fill="#000000"/><text fill="#000000" font-family="sans-serif" font-size="14" lengthAdjust="spacing" textLength="215.0791" x="3698" y="179.3467">logic_arc_int__baselibs__future</text><line style="stroke:#181818;stroke-width:0.5;" x1="3670" x2="3915.0791" y1="190.5" y2="190.5"/></g><!--class comp_arc_sta__baselibs__message_passing--><g id="elem_comp_arc_sta__baselibs__message_passing"><rect fill="#F1F1F1" height="40" id="comp_arc_sta__baselibs__message_passing" rx="2.5" ry="2.5" style="stroke:#181818;stroke-width:0.5;" width="337.1357" x="7" y="275.5"/><ellipse cx="22" cy="291.5" fill="#ADD1B2" rx="11" ry="11" style="stroke:#181818;stroke-width:1;"/><path d="M24.9688,297.1406 Q24.3906,297.4375 23.75,297.5781 Q23.1094,297.7344 22.4063,297.7344 Q19.9063,297.7344 18.5781,296.0938 Q17.2656,294.4375 17.2656,291.3125 Q17.2656,288.1875 18.5781,286.5313 Q19.9063,284.875 22.4063,284.875 Q23.1094,284.875 23.75,285.0313 Q24.4063,285.1875 24.9688,285.4844 L24.9688,288.2031 Q24.3438,287.625 23.75,287.3594 Q23.1563,287.0781 22.5313,287.0781 Q21.1875,287.0781 20.5,288.1563 Q19.8125,289.2188 19.8125,291.3125 Q19.8125,293.4063 20.5,294.4844 Q21.1875,295.5469 22.5313,295.5469 Q23.1563,295.5469 23.75,295.2813 Q24.3438,295 24.9688,294.4219 L24.9688,297.1406 Z " fill="#000000"/><text fill="#000000" font-family="sans-serif" font-size="14" lengthAdjust="spacing" textLength="305.1357" x="36" y="296.3467">comp_arc_sta__baselibs__message_passing</text><line style="stroke:#181818;stroke-width:0.5;" x1="8" x2="343.1357" y1="307.5" y2="307.5"/></g><!--link Feature_User to logic_arc_int__baselibs__dynamic_array--><g id="link_Feature_User_logic_arc_int__baselibs__dynamic_array"><path codeLine="15" d="M3110.43,45.78 C2887.52,52.34 1880.72,84.88 1059.5,158.5 C1053.67,159.02 1053.6931,159.0126 1047.6931,159.5826 " fill="transparent" id="Feature_User-to-logic_arc_int__baselibs__dynamic_array" style="stroke:#181818;stroke-width:1;"/><polygon fill="#181818" points="1041.72,160.15,1051.058,163.2809,1046.6976,159.6771,1050.3014,155.3168,1041.72,160.15" style="stroke:#181818;stroke-width:1;"/><text fill="#000000" font-family="sans-serif" font-size="13" lengthAdjust="spacing" textLength="23.0103" x="1635.5" y="124.5669">use</text></g><!--link Feature_User to logic_arc_int__baselibs__message_passing--><g id="link_Feature_User_logic_arc_int__baselibs__message_passing"><path codeLine="16" d="M3110.34,45.42 C2889.13,50.04 1897.76,72.04 1086.5,111.5 C764.43,127.16 683.81,131.4 362.5,158.5 C356.29,159.02 355.9462,159.0461 349.5662,159.6161 " fill="transparent" id="Feature_User-to-logic_arc_int__baselibs__message_passing" style="stroke:#181818;stroke-width:1;"/><polygon fill="#181818" points="343.59,160.15,352.9102,163.3332,348.5702,159.7051,352.1983,155.365,343.59,160.15" style="stroke:#181818;stroke-width:1;"/><text fill="#000000" font-family="sans-serif" font-size="13" lengthAdjust="spacing" textLength="23.0103" x="1087.5" y="124.5669">use</text></g><!--reverse link logic_arc_int__baselibs__json to comp_arc_sta__baselibs__json--><g id="link_logic_arc_int__baselibs__json_comp_arc_sta__baselibs__json"><path codeLine="17" d="M6072.5,204.75 C6072.5,225.98 6072.5,253.94 6072.5,275.19 " fill="transparent" id="logic_arc_int__baselibs__json-backto-comp_arc_sta__baselibs__json" style="stroke:#181818;stroke-width:1;"/><polygon fill="#181818" points="6072.5,198.75,6068.5,207.75,6072.5,203.75,6076.5,207.75,6072.5,198.75" style="stroke:#181818;stroke-width:1;"/><text fill="#000000" font-family="sans-serif" font-size="13" lengthAdjust="spacing" textLength="76.9082" x="6073.5" y="241.5669">implements</text></g><!--link Feature_User to logic_arc_int__baselibs__filesystem--><g id="link_Feature_User_logic_arc_int__baselibs__filesystem"><path codeLine="18" d="M3110.42,47.3 C2931.51,58.58 2254.22,102.73 1698.5,158.5 C1692.97,159.06 1693.2947,158.9901 1687.6047,159.6101 " fill="transparent" id="Feature_User-to-logic_arc_int__baselibs__filesystem" style="stroke:#181818;stroke-width:1;"/><polygon fill="#181818" points="1681.64,160.26,1691.0203,163.2616,1686.6106,159.7184,1690.1538,155.3086,1681.64,160.26" style="stroke:#181818;stroke-width:1;"/><text fill="#000000" font-family="sans-serif" font-size="13" lengthAdjust="spacing" textLength="23.0103" x="2220.5" y="124.5669">use</text></g><!--link Feature_User to logic_arc_int__baselibs__executor--><g id="link_Feature_User_logic_arc_int__baselibs__executor"><path codeLine="19" d="M3110.15,54.94 C3013.07,77.27 2789.8272,128.6447 2666.0872,157.1147 " fill="transparent" id="Feature_User-to-logic_arc_int__baselibs__executor" style="stroke:#181818;stroke-width:1;"/><polygon fill="#181818" points="2660.24,158.46,2669.9077,160.3402,2665.1127,157.3389,2668.114,152.5439,2660.24,158.46" style="stroke:#181818;stroke-width:1;"/><text fill="#000000" font-family="sans-serif" font-size="13" lengthAdjust="spacing" textLength="23.0103" x="2850.5" y="124.5669">use</text></g><!--link Feature_User to logic_arc_int__baselibs__bit_mask_operator--><g id="link_Feature_User_logic_arc_int__baselibs__bit_mask_operator"><path codeLine="20" d="M3110.49,51.05 C2977.09,70.46 2586.1975,127.3461 2378.0975,157.6261 " fill="transparent" id="Feature_User-to-logic_arc_int__baselibs__bit_mask_operator" style="stroke:#181818;stroke-width:1;"/><polygon fill="#181818" points="2372.16,158.49,2381.6422,161.1524,2377.1079,157.77,2380.4902,153.2358,2372.16,158.49" style="stroke:#181818;stroke-width:1;"/><text fill="#000000" font-family="sans-serif" font-size="13" lengthAdjust="spacing" textLength="23.0103" x="2672.5" y="124.5669">use</text></g><!--link Feature_User to logic_arc_int__baselibs__utils_scoped_op--><g id="link_Feature_User_logic_arc_int__baselibs__utils_scoped_op"><path codeLine="21" d="M3200.79,45.56 C3404.71,50.47 4258.11,72.42 4957.5,111.5 C5237.84,127.16 5307.88,132.98 5587.5,158.5 C5593.47,159.04 5593.5775,159.0461 5599.7175,159.6361 " fill="transparent" id="Feature_User-to-logic_arc_int__baselibs__utils_scoped_op" style="stroke:#181818;stroke-width:1;"/><polygon fill="#181818" points="5605.69,160.21,5597.1139,155.3675,5600.7129,159.7317,5596.3487,163.3308,5605.69,160.21" style="stroke:#181818;stroke-width:1;"/><text fill="#000000" font-family="sans-serif" font-size="13" lengthAdjust="spacing" textLength="23.0103" x="5232.5" y="124.5669">use</text></g><!--reverse link logic_arc_int__baselibs__utils_base64 to comp_arc_sta__baselibs__utils--><g id="link_logic_arc_int__baselibs__utils_base64_comp_arc_sta__baselibs__utils"><path codeLine="22" d="M5457.7506,202.1252 C5489.0406,223.4152 5534.19,254.14 5565.4,275.38 " fill="transparent" id="logic_arc_int__baselibs__utils_base64-backto-comp_arc_sta__baselibs__utils" style="stroke:#181818;stroke-width:1;"/><polygon fill="#181818" points="5452.79,198.75,5457.9808,207.1199,5456.9238,201.5627,5462.4811,200.5058,5452.79,198.75" style="stroke:#181818;stroke-width:1;"/><text fill="#000000" font-family="sans-serif" font-size="13" lengthAdjust="spacing" textLength="76.9082" x="5520.5" y="241.5669">implements</text></g><!--link Feature_User to logic_arc_int__baselibs__task--><g id="link_Feature_User_logic_arc_int__baselibs__task"><path codeLine="23" d="M3110.36,64.99 C3054.18,90.49 2964.4431,131.2191 2909.8331,156.0191 " fill="transparent" id="Feature_User-to-logic_arc_int__baselibs__task" style="stroke:#181818;stroke-width:1;"/><polygon fill="#181818" points="2904.37,158.5,2914.2185,158.4206,2908.9225,156.4326,2910.9106,151.1366,2904.37,158.5" style="stroke:#181818;stroke-width:1;"/><text fill="#000000" font-family="sans-serif" font-size="13" lengthAdjust="spacing" textLength="23.0103" x="3001.5" y="124.5669">use</text></g><!--reverse link logic_arc_int__baselibs__promise to comp_arc_sta__baselibs__concurrency--><g id="link_logic_arc_int__baselibs__promise_comp_arc_sta__baselibs__concurrency"><path codeLine="24" d="M4328.8351,198.2514 C4230.3651,211.6914 4097.97,229.61 3976.5,245.5 C3898.44,255.71 3811.47,266.75 3739.78,275.76 " fill="transparent" id="logic_arc_int__baselibs__promise-backto-comp_arc_sta__baselibs__concurrency" style="stroke:#181818;stroke-width:1;"/><polygon fill="#181818" points="4334.78,197.44,4325.3217,194.6939,4329.8259,198.1162,4326.4036,202.6204,4334.78,197.44" style="stroke:#181818;stroke-width:1;"/><text fill="#000000" font-family="sans-serif" font-size="13" lengthAdjust="spacing" textLength="76.9082" x="4098.5" y="241.5669">implements</text></g><!--reverse link logic_arc_int__baselibs__utils_scoped_op to comp_arc_sta__baselibs__utils--><g id="link_logic_arc_int__baselibs__utils_scoped_op_comp_arc_sta__baselibs__utils"><path codeLine="25" d="M5730.0799,202.1113 C5698.5999,223.4013 5653.16,254.14 5621.76,275.38 " fill="transparent" id="logic_arc_int__baselibs__utils_scoped_op-backto-comp_arc_sta__baselibs__utils" style="stroke:#181818;stroke-width:1;"/><polygon fill="#181818" points="5735.05,198.75,5725.354,200.4785,5730.9083,201.5511,5729.8357,207.1053,5735.05,198.75" style="stroke:#181818;stroke-width:1;"/><text fill="#000000" font-family="sans-serif" font-size="13" lengthAdjust="spacing" textLength="76.9082" x="5690.5" y="241.5669">implements</text></g><!--reverse link logic_arc_int__baselibs__result to comp_arc_sta__baselibs__result--><g id="link_logic_arc_int__baselibs__result_comp_arc_sta__baselibs__result"><path codeLine="26" d="M5121.5,204.75 C5121.5,225.98 5121.5,253.94 5121.5,275.19 " fill="transparent" id="logic_arc_int__baselibs__result-backto-comp_arc_sta__baselibs__result" style="stroke:#181818;stroke-width:1;"/><polygon fill="#181818" points="5121.5,198.75,5117.5,207.75,5121.5,203.75,5125.5,207.75,5121.5,198.75" style="stroke:#181818;stroke-width:1;"/><text fill="#000000" font-family="sans-serif" font-size="13" lengthAdjust="spacing" textLength="76.9082" x="5122.5" y="241.5669">implements</text></g><!--reverse link logic_arc_int__baselibs__shared_future to comp_arc_sta__baselibs__concurrency--><g id="link_logic_arc_int__baselibs__shared_future_comp_arc_sta__baselibs__concurrency"><path codeLine="27" d="M3504.4968,203.143 C3524.2468,224.373 3551.76,253.94 3571.53,275.19 " fill="transparent" id="logic_arc_int__baselibs__shared_future-backto-comp_arc_sta__baselibs__concurrency" style="stroke:#181818;stroke-width:1;"/><polygon fill="#181818" points="3500.41,198.75,3503.6115,208.064,3503.8156,202.4108,3509.4688,202.615,3500.41,198.75" style="stroke:#181818;stroke-width:1;"/><text fill="#000000" font-family="sans-serif" font-size="13" lengthAdjust="spacing" textLength="76.9082" x="3543.5" y="241.5669">implements</text></g><!--reverse link logic_arc_int__baselibs__task_result to comp_arc_sta__baselibs__concurrency--><g id="link_logic_arc_int__baselibs__task_result_comp_arc_sta__baselibs__concurrency"><path codeLine="28" d="M3233.4499,200.1567 C3313.8399,221.4567 3437.23,254.15 3517.54,275.43 " fill="transparent" id="logic_arc_int__baselibs__task_result-backto-comp_arc_sta__baselibs__concurrency" style="stroke:#181818;stroke-width:1;"/><polygon fill="#181818" points="3227.65,198.62,3235.3253,204.7917,3232.4832,199.9006,3237.3743,197.0585,3227.65,198.62" style="stroke:#181818;stroke-width:1;"/><text fill="#000000" font-family="sans-serif" font-size="13" lengthAdjust="spacing" textLength="76.9082" x="3399.5" y="241.5669">implements</text></g><!--link Feature_User to logic_arc_int__baselibs__synchronized_queue--><g id="link_Feature_User_logic_arc_int__baselibs__synchronized_queue"><path codeLine="29" d="M3200.66,50.69 C3339.54,69.73 3758.3656,127.1651 3980.6456,157.6351 " fill="transparent" id="Feature_User-to-logic_arc_int__baselibs__synchronized_queue" style="stroke:#181818;stroke-width:1;"/><polygon fill="#181818" points="3986.59,158.45,3978.2166,153.2648,3981.6363,157.771,3977.1301,161.1907,3986.59,158.45" style="stroke:#181818;stroke-width:1;"/><text fill="#000000" font-family="sans-serif" font-size="13" lengthAdjust="spacing" textLength="23.0103" x="3757.5" y="124.5669">use</text></g><!--reverse link logic_arc_int__baselibs__task to comp_arc_sta__baselibs__concurrency--><g id="link_logic_arc_int__baselibs__task_comp_arc_sta__baselibs__concurrency"><path codeLine="30" d="M2980.5568,199.5256 C3060.4868,212.9756 3164.57,230.24 3261.5,245.5 C3326.48,255.73 3398.79,266.59 3458.94,275.47 " fill="transparent" id="logic_arc_int__baselibs__task-backto-comp_arc_sta__baselibs__concurrency" style="stroke:#181818;stroke-width:1;"/><polygon fill="#181818" points="2974.64,198.53,2982.8515,203.968,2979.5707,199.3597,2984.179,196.0789,2974.64,198.53" style="stroke:#181818;stroke-width:1;"/><text fill="#000000" font-family="sans-serif" font-size="13" lengthAdjust="spacing" textLength="76.9082" x="3262.5" y="241.5669">implements</text></g><!--reverse link logic_arc_int__baselibs__bit_manipulation to comp_arc_sta__baselibs__bit_manipulation--><g id="link_logic_arc_int__baselibs__bit_manipulation_comp_arc_sta__baselibs__bit_manipulation"><path codeLine="31" d="M1902.8359,202.812 C1925.9159,224.042 1958.41,253.94 1981.51,275.19 " fill="transparent" id="logic_arc_int__baselibs__bit_manipulation-backto-comp_arc_sta__baselibs__bit_manipulation" style="stroke:#181818;stroke-width:1;"/><polygon fill="#181818" points="1898.42,198.75,1902.3359,207.7869,1902.0999,202.135,1907.7519,201.899,1898.42,198.75" style="stroke:#181818;stroke-width:1;"/><text fill="#000000" font-family="sans-serif" font-size="13" lengthAdjust="spacing" textLength="76.9082" x="1948.5" y="241.5669">implements</text></g><!--reverse link logic_arc_int__baselibs__executor to comp_arc_sta__baselibs__concurrency--><g id="link_logic_arc_int__baselibs__executor_comp_arc_sta__baselibs__concurrency"><path codeLine="32" d="M2716.4531,199.2042 C2817.1131,213.1642 2952.88,231.32 3077.5,245.5 C3199.05,259.33 3337.14,272.39 3439.25,281.55 " fill="transparent" id="logic_arc_int__baselibs__executor-backto-comp_arc_sta__baselibs__concurrency" style="stroke:#181818;stroke-width:1;"/><polygon fill="#181818" points="2710.51,198.38,2718.8752,203.5784,2715.4626,199.0668,2719.9742,195.6543,2710.51,198.38" style="stroke:#181818;stroke-width:1;"/><text fill="#000000" font-family="sans-serif" font-size="13" lengthAdjust="spacing" textLength="76.9082" x="3078.5" y="241.5669">implements</text></g><!--reverse link logic_arc_int__baselibs__bit_mask_operator to comp_arc_sta__baselibs__bit_manipulation--><g id="link_logic_arc_int__baselibs__bit_mask_operator_comp_arc_sta__baselibs__bit_manipulation"><path codeLine="33" d="M2196.3632,201.2213 C2152.1532,222.4913 2086.57,254.05 2042.33,275.34 " fill="transparent" id="logic_arc_int__baselibs__bit_mask_operator-backto-comp_arc_sta__baselibs__bit_manipulation" style="stroke:#181818;stroke-width:1;"/><polygon fill="#181818" points="2201.77,198.62,2191.9256,198.9174,2197.2643,200.7877,2195.394,206.1264,2201.77,198.62" style="stroke:#181818;stroke-width:1;"/><text fill="#000000" font-family="sans-serif" font-size="13" lengthAdjust="spacing" textLength="76.9082" x="2137.5" y="241.5669">implements</text></g><!--link Feature_User to logic_arc_int__baselibs__shared_future--><g id="link_Feature_User_logic_arc_int__baselibs__shared_future"><path codeLine="34" d="M3200.62,62.85 C3262.47,88.01 3367.4724,130.7088 3430.1724,156.2188 " fill="transparent" id="Feature_User-to-logic_arc_int__baselibs__shared_future" style="stroke:#181818;stroke-width:1;"/><polygon fill="#181818" points="3435.73,158.48,3428.901,151.3832,3431.0986,156.5957,3425.8861,158.7933,3435.73,158.48" style="stroke:#181818;stroke-width:1;"/><text fill="#000000" font-family="sans-serif" font-size="13" lengthAdjust="spacing" textLength="23.0103" x="3359.5" y="124.5669">use</text></g><!--reverse link logic_arc_int__baselibs__filesystem to comp_arc_sta__baselibs__filesystem--><g id="link_logic_arc_int__baselibs__filesystem_comp_arc_sta__baselibs__filesystem"><path codeLine="35" d="M1543.5,204.75 C1543.5,225.98 1543.5,253.94 1543.5,275.19 " fill="transparent" id="logic_arc_int__baselibs__filesystem-backto-comp_arc_sta__baselibs__filesystem" style="stroke:#181818;stroke-width:1;"/><polygon fill="#181818" points="1543.5,198.75,1539.5,207.75,1543.5,203.75,1547.5,207.75,1543.5,198.75" style="stroke:#181818;stroke-width:1;"/><text fill="#000000" font-family="sans-serif" font-size="13" lengthAdjust="spacing" textLength="76.9082" x="1544.5" y="241.5669">implements</text></g><!--link Feature_User to logic_arc_int__baselibs__condition_variable--><g id="link_Feature_User_logic_arc_int__baselibs__condition_variable"><path codeLine="36" d="M3200.59,47.5 C3379.56,59.5 4057.08,106 4613.5,158.5 C4619.1,159.03 4618.8184,158.9874 4624.5584,159.5474 " fill="transparent" id="Feature_User-to-logic_arc_int__baselibs__condition_variable" style="stroke:#181818;stroke-width:1;"/><polygon fill="#181818" points="4630.53,160.13,4621.9609,155.275,4625.5536,159.6445,4621.1841,163.2372,4630.53,160.13" style="stroke:#181818;stroke-width:1;"/><text fill="#000000" font-family="sans-serif" font-size="13" lengthAdjust="spacing" textLength="23.0103" x="4255.5" y="124.5669">use</text></g><!--reverse link logic_arc_int__baselibs__intrusive_list to comp_arc_sta__baselibs__containers--><g id="link_logic_arc_int__baselibs__intrusive_list_comp_arc_sta__baselibs__containers"><path codeLine="37" d="M1190.429,202.1393 C1159.329,223.4293 1114.46,254.14 1083.43,275.38 " fill="transparent" id="logic_arc_int__baselibs__intrusive_list-backto-comp_arc_sta__baselibs__containers" style="stroke:#181818;stroke-width:1;"/><polygon fill="#181818" points="1195.38,198.75,1185.6939,200.5333,1191.2541,201.5744,1190.213,207.1346,1195.38,198.75" style="stroke:#181818;stroke-width:1;"/><text fill="#000000" font-family="sans-serif" font-size="13" lengthAdjust="spacing" textLength="76.9082" x="1151.5" y="241.5669">implements</text></g><!--link Feature_User to logic_arc_int__baselibs__utils_base64--><g id="link_Feature_User_logic_arc_int__baselibs__utils_base64"><path codeLine="38" d="M3200.65,45.93 C3383.64,51.85 4087.95,75.79 4666.5,111.5 C4930.82,127.81 4996.92,132.81 5260.5,158.5 C5266.35,159.07 5266.3416,159.0553 5272.3616,159.6753 " fill="transparent" id="Feature_User-to-logic_arc_int__baselibs__utils_base64" style="stroke:#181818;stroke-width:1;"/><polygon fill="#181818" points="5278.33,160.29,5269.7871,155.389,5273.3563,159.7778,5268.9676,163.3469,5278.33,160.29" style="stroke:#181818;stroke-width:1;"/><text fill="#000000" font-family="sans-serif" font-size="13" lengthAdjust="spacing" textLength="23.0103" x="4925.5" y="124.5669">use</text></g><!--reverse link logic_arc_int__baselibs__condition_variable to comp_arc_sta__baselibs__concurrency--><g id="link_logic_arc_int__baselibs__condition_variable_comp_arc_sta__baselibs__concurrency"><path codeLine="39" d="M4625.1973,199.1779 C4501.7373,213.0079 4335.19,231.09 4183.5,245.5 C4032.59,259.83 3859.87,273.81 3739.73,283.14 " fill="transparent" id="logic_arc_int__baselibs__condition_variable-backto-comp_arc_sta__baselibs__concurrency" style="stroke:#181818;stroke-width:1;"/><polygon fill="#181818" points="4631.16,198.51,4621.7706,195.5368,4626.1911,199.0666,4622.6612,203.4871,4631.16,198.51" style="stroke:#181818;stroke-width:1;"/><text fill="#000000" font-family="sans-serif" font-size="13" lengthAdjust="spacing" textLength="76.9082" x="4353.5" y="241.5669">implements</text></g><!--link Feature_User to logic_arc_int__baselibs__bit_manipulation--><g id="link_Feature_User_logic_arc_int__baselibs__bit_manipulation"><path codeLine="40" d="M3110.48,49.13 C2960.74,64.54 2465.71,115.56 2056.5,158.5 C2050.59,159.12 2050.547,159.1219 2044.467,159.7619 " fill="transparent" id="Feature_User-to-logic_arc_int__baselibs__bit_manipulation" style="stroke:#181818;stroke-width:1;"/><polygon fill="#181818" points="2038.5,160.39,2047.8693,163.4259,2043.4725,159.8666,2047.0318,155.4698,2038.5,160.39" style="stroke:#181818;stroke-width:1;"/><text fill="#000000" font-family="sans-serif" font-size="13" lengthAdjust="spacing" textLength="23.0103" x="2480.5" y="124.5669">use</text></g><!--reverse link logic_arc_int__baselibs__dynamic_array to comp_arc_sta__baselibs__containers--><g id="link_logic_arc_int__baselibs__dynamic_array_comp_arc_sta__baselibs__containers"><path codeLine="41" d="M920.571,202.1393 C951.671,223.4293 996.54,254.14 1027.57,275.38 " fill="transparent" id="logic_arc_int__baselibs__dynamic_array-backto-comp_arc_sta__baselibs__containers" style="stroke:#181818;stroke-width:1;"/><polygon fill="#181818" points="915.62,198.75,920.787,207.1346,919.7459,201.5744,925.3061,200.5333,915.62,198.75" style="stroke:#181818;stroke-width:1;"/><text fill="#000000" font-family="sans-serif" font-size="13" lengthAdjust="spacing" textLength="76.9082" x="983.5" y="241.5669">implements</text></g><!--reverse link logic_arc_int__baselibs__memory_shared to comp_arc_sta__baselibs__memory_shared--><g id="link_logic_arc_int__baselibs__memory_shared_comp_arc_sta__baselibs__memory_shared"><path codeLine="42" d="M540.1582,204.7479 C540.7182,225.9779 541.44,253.94 542,275.19 " fill="transparent" id="logic_arc_int__baselibs__memory_shared-backto-comp_arc_sta__baselibs__memory_shared" style="stroke:#181818;stroke-width:1;"/><polygon fill="#181818" points="540,198.75,536.2387,207.8523,540.1318,203.7483,544.2359,207.6414,540,198.75" style="stroke:#181818;stroke-width:1;"/><text fill="#000000" font-family="sans-serif" font-size="13" lengthAdjust="spacing" textLength="76.9082" x="542.5" y="241.5669">implements</text></g><!--link Feature_User to logic_arc_int__baselibs__task_result--><g id="link_Feature_User_logic_arc_int__baselibs__task_result"><path codeLine="43" d="M3155.5,81.55 C3155.5,106.45 3155.5,132.26 3155.5,152.26 " fill="transparent" id="Feature_User-to-logic_arc_int__baselibs__task_result" style="stroke:#181818;stroke-width:1;"/><polygon fill="#181818" points="3155.5,158.26,3159.5,149.26,3155.5,153.26,3151.5,149.26,3155.5,158.26" style="stroke:#181818;stroke-width:1;"/><text fill="#000000" font-family="sans-serif" font-size="13" lengthAdjust="spacing" textLength="23.0103" x="3156.5" y="124.5669">use</text></g><!--link Feature_User to logic_arc_int__baselibs__json--><g id="link_Feature_User_logic_arc_int__baselibs__json"><path codeLine="44" d="M3200.79,45.3 C3424.81,49.41 4436.74,69.51 5264.5,111.5 C5564.4,126.71 5639.88,126.96 5938.5,158.5 C5944.22,159.1 5944.1216,159.0643 5950.0316,159.7643 " fill="transparent" id="Feature_User-to-logic_arc_int__baselibs__json" style="stroke:#181818;stroke-width:1;"/><polygon fill="#181818" points="5955.99,160.47,5947.523,155.4392,5951.0247,159.8819,5946.582,163.3836,5955.99,160.47" style="stroke:#181818;stroke-width:1;"/><text fill="#000000" font-family="sans-serif" font-size="13" lengthAdjust="spacing" textLength="23.0103" x="5592.5" y="124.5669">use</text></g><!--link Feature_User to logic_arc_int__baselibs__result--><g id="link_Feature_User_logic_arc_int__baselibs__result"><path codeLine="45" d="M3200.78,46.03 C3406.51,53.24 4273.65,86.58 4981.5,158.5 C4987.36,159.1 4987.3888,159.069 4993.4288,159.759 " fill="transparent" id="Feature_User-to-logic_arc_int__baselibs__result" style="stroke:#181818;stroke-width:1;"/><polygon fill="#181818" points="4999.39,160.44,4990.9022,155.4443,4994.4223,159.8725,4989.9942,163.3927,4999.39,160.44" style="stroke:#181818;stroke-width:1;"/><text fill="#000000" font-family="sans-serif" font-size="13" lengthAdjust="spacing" textLength="23.0103" x="4634.5" y="124.5669">use</text></g><!--link Feature_User to logic_arc_int__baselibs__future--><g id="link_Feature_User_logic_arc_int__baselibs__future"><path codeLine="46" d="M3200.55,53.91 C3304.53,75.62 3557.0867,128.3435 3695.5767,157.2635 " fill="transparent" id="Feature_User-to-logic_arc_int__baselibs__future" style="stroke:#181818;stroke-width:1;"/><polygon fill="#181818" points="3701.45,158.49,3693.4577,152.7347,3696.5556,157.4679,3691.8224,160.5658,3701.45,158.49" style="stroke:#181818;stroke-width:1;"/><text fill="#000000" font-family="sans-serif" font-size="13" lengthAdjust="spacing" textLength="23.0103" x="3551.5" y="124.5669">use</text></g><!--link Feature_User to logic_arc_int__baselibs__intrusive_list--><g id="link_Feature_User_logic_arc_int__baselibs__intrusive_list"><path codeLine="47" d="M3110.34,46.41 C2908.86,55.15 2071.88,93.68 1387.5,158.5 C1381.79,159.04 1381.949,159.0009 1376.069,159.6009 " fill="transparent" id="Feature_User-to-logic_arc_int__baselibs__intrusive_list" style="stroke:#181818;stroke-width:1;"/><polygon fill="#181818" points="1370.1,160.21,1379.4596,163.2757,1375.0742,159.7024,1378.6475,155.317,1370.1,160.21" style="stroke:#181818;stroke-width:1;"/><text fill="#000000" font-family="sans-serif" font-size="13" lengthAdjust="spacing" textLength="23.0103" x="1922.5" y="124.5669">use</text></g><!--reverse link logic_arc_int__baselibs__synchronized_queue to comp_arc_sta__baselibs__concurrency--><g id="link_logic_arc_int__baselibs__synchronized_queue_comp_arc_sta__baselibs__concurrency"><path codeLine="48" d="M4030.8235,199.8088 C3931.6035,221.0988 3777.77,254.11 3678.48,275.41 " fill="transparent" id="logic_arc_int__baselibs__synchronized_queue-backto-comp_arc_sta__baselibs__concurrency" style="stroke:#181818;stroke-width:1;"/><polygon fill="#181818" points="4036.69,198.55,4027.0511,196.5272,4031.8013,199.599,4028.7295,204.3492,4036.69,198.55" style="stroke:#181818;stroke-width:1;"/><text fill="#000000" font-family="sans-serif" font-size="13" lengthAdjust="spacing" textLength="76.9082" x="3891.5" y="241.5669">implements</text></g><!--link Feature_User to logic_arc_int__baselibs__memory_shared--><g id="link_Feature_User_logic_arc_int__baselibs__memory_shared"><path codeLine="49" d="M3110.42,45.8 C2912,51.6 2096.46,76.46 1427.5,111.5 C1110.8,128.09 1031.44,131.03 715.5,158.5 C709.99,158.98 710.3539,158.9206 704.6939,159.4506 " fill="transparent" id="Feature_User-to-logic_arc_int__baselibs__memory_shared" style="stroke:#181818;stroke-width:1;"/><polygon fill="#181818" points="698.72,160.01,708.0537,163.1535,703.6982,159.5438,707.3079,155.1883,698.72,160.01" style="stroke:#181818;stroke-width:1;"/><text fill="#000000" font-family="sans-serif" font-size="13" lengthAdjust="spacing" textLength="23.0103" x="1428.5" y="124.5669">use</text></g><!--reverse link logic_arc_int__baselibs__message_passing to comp_arc_sta__baselibs__message_passing--><g id="link_logic_arc_int__baselibs__message_passing_comp_arc_sta__baselibs__message_passing"><path codeLine="50" d="M178.621,204.7464 C177.881,225.9764 176.91,253.94 176.17,275.19 " fill="transparent" id="logic_arc_int__baselibs__message_passing-backto-comp_arc_sta__baselibs__message_passing" style="stroke:#181818;stroke-width:1;"/><polygon fill="#181818" points="178.83,198.75,174.5189,207.6052,178.6558,203.747,182.5141,207.8839,178.83,198.75" style="stroke:#181818;stroke-width:1;"/><text fill="#000000" font-family="sans-serif" font-size="13" lengthAdjust="spacing" textLength="76.9082" x="179.5" y="241.5669">implements</text></g><!--link Feature_User to logic_arc_int__baselibs__promise--><g id="link_Feature_User_logic_arc_int__baselibs__promise"><path codeLine="51" d="M3200.64,48.46 C3355.95,62.18 3882.54,109.54 4316.5,158.5 C4322.46,159.17 4322.5907,159.1823 4328.7407,159.9023 " fill="transparent" id="Feature_User-to-logic_arc_int__baselibs__promise" style="stroke:#181818;stroke-width:1;"/><polygon fill="#181818" points="4334.7,160.6,4326.2262,155.5806,4329.7339,160.0186,4325.2959,163.5264,4334.7,160.6" style="stroke:#181818;stroke-width:1;"/><text fill="#000000" font-family="sans-serif" font-size="13" lengthAdjust="spacing" textLength="23.0103" x="4031.5" y="124.5669">use</text></g><!--reverse link logic_arc_int__baselibs__future to comp_arc_sta__baselibs__concurrency--><g id="link_logic_arc_int__baselibs__future_comp_arc_sta__baselibs__concurrency"><path codeLine="52" d="M3753.2995,201.7075 C3715.7195,222.9975 3660.74,254.14 3623.25,275.38 " fill="transparent" id="logic_arc_int__baselibs__future-backto-comp_arc_sta__baselibs__concurrency" style="stroke:#181818;stroke-width:1;"/><polygon fill="#181818" points="3758.52,198.75,3748.7176,199.706,3754.1696,201.2146,3752.661,206.6666,3758.52,198.75" style="stroke:#181818;stroke-width:1;"/><text fill="#000000" font-family="sans-serif" font-size="13" lengthAdjust="spacing" textLength="76.9082" x="3704.5" y="241.5669">implements</text></g><!--SRC=[jLPDRzim3BthLmYzfnk6OOUYw6N0JZrsPq6MsOIhFZoHwkeM- - -Juw2DlI2oNVSeXtnvV7mYfQqDVvJ39_HRmQ6H76GLc8EJDKOmZC6B7TOWYI52uBQ1_WokuLPgveXLOY1nJTnQk16Ncj1MyaNSeeVlmOOe8zJxqzqEpOC78ldbyhFuAwu_7NA4DfpZBdw0vXH1_YI85rAJF7nGtGSfnE2ugJStqeOj6gMZKUXPgKeJMAn8gRhrskr_Yhgzaeb0pabtcQNUWceqKTRc0622Q_RHnFeu-XS5BpVf760NSYNHDHOSUAPPRExH0hMv1Mv-9V049cLrvsTMoCffUb2XWQWNGIH6IufCHgWpJ476VNH1nnwnEt_xkbXFpbKLk9ZWJOeHl6aBZ9eO718CoRo_n2FHfW17e6IvWDm7JGESBW3jTBxXwZvrygyDthNg9EyPxQRMcrqC7fyppTy94gpM_Dv9KqhkRvF79bdTZTK2y3XyRLtVniA7aHzCZgMj6thhRDVUfcI1tl4uNSWh2rrZfuHwr15rPITOYdNUWR5q-_Cn9i97K1PfkUU7St8bjv-gUY6___szZdoZlJ_5t0vSYEt1QWNuGUoxzi_hK9kxK_kNnDoifVysk7apyiOsNic1fqRvmYQCMdcMuEWvM3J9wF6uaE7hos8byKvjw7y0]--></g></svg>