<svg xmlns="http://www.w3.org/2000/svg" xmlns:xlink="http://www.w3.org/1999/xlink" contentStyleType="text/css" data-diagram-type="CLASS" height="322px" preserveAspectRatio="none" style="width:6204px;height:322px;background:#FFFFFF;" version="1.1" viewBox="0 0 6204 322" width="6204px" zoomAndPan="magnify"><defs/><g><!--entity Feature_User--><g id="elem_Feature_User"><ellipse cx="3104.6685" cy="14" fill="#F1F1F1" rx="8" ry="8" style="stroke:#181818;stroke-width:0.5;"/><path d="M3104.6685,22 L3104.6685,49 M3091.6685,30 L3117.6685,30 M3104.6685,49 L3091.6685,64 M3104.6685,49 L3117.6685,64 " fill="transparent" style="stroke:#181818;stroke-width:0.5;"/><text fill="#000000" font-family="sans-serif" font-size="14" lengthAdjust="spacing" textLength="90.3369" x="3059.5" y="78.4951">Feature User</text></g><!--class logic_arc_int__baselibs__json--><g id="elem_logic_arc_int__baselibs__json"><rect fill="#F1F1F1" height="40" id="logic_arc_int__baselibs__json" rx="2.5" ry="2.5" style="stroke:#181818;stroke-width:0.5;" width="233.168" x="5955" y="158.5"/><ellipse cx="5970" cy="174.5" fill="#ADD1B2" rx="11" ry="11" style="stroke:#181818;stroke-width:1;"/><path d="M5972.9688,180.1406 Q5972.3906,180.4375 5971.75,180.5781 Q5971.1094,180.7344 5970.4063,180.7344 Q5967.9063,180.7344 5966.5781,179.0938 Q5965.2656,177.4375 5965.2656,174.3125 Q5965.2656,171.1875 5966.5781,169.5313 Q5967.9063,167.875 5970.4063,167.875 Q5971.1094,167.875 5971.75,168.0313 Q5972.4063,168.1875 5972.9688,168.4844 L5972.9688,171.2031 Q5972.3438,170.625 5971.75,170.3594 Q5971.1563,170.0781 5970.5313,170.0781 Q5969.1875,170.0781 5968.5,171.1563 Q5967.8125,172.2188 5967.8125,174.3125 Q5967.8125,176.4063 5968.5,177.4844 Q5969.1875,178.5469 5970.5313,178.5469 Q5971.1563,178.5469 5971.75,178.2813 Q5972.3438,178 5972.9688,177.4219 L5972.9688,180.1406 Z " fill="#000000"/><text fill="#000000" font-family="sans-serif" font-size="14" lengthAdjust="spacing" textLength="201.168" x="5984" y="179.3467">logic_arc_int__baselibs__json</text><line style="stroke:#181818;stroke-width:0.5;" x1="5956" x2="6187.168" y1="190.5" y2="190.5"/></g><!--class comp_arc_sta__baselibs__concurrency--><g id="elem_comp_arc_sta__baselibs__concurrency"><rect fill="#F1F1F1" height="40" id="comp_arc_sta__baselibs__concurrency" rx="2.5" ry="2.5" style="stroke:#181818;stroke-width:0.5;" width="300.2012" x="3352.5" y="275.5"/><ellipse cx="3367.5" cy="291.5" fill="#ADD1B2" rx="11" ry="11" style="stroke:#181818;stroke-width:1;"/><path d="M3370.4688,297.1406 Q3369.8906,297.4375 3369.25,297.5781 Q3368.6094,297.7344 3367.9063,297.7344 Q3365.4063,297.7344 3364.0781,296.0938 Q3362.7656,294.4375 3362.7656,291.3125 Q3362.7656,288.1875 3364.0781,286.5313 Q3365.4063,284.875 3367.9063,284.875 Q3368.6094,284.875 3369.25,285.0313 Q3369.9063,285.1875 3370.4688,285.4844 L3370.4688,288.2031 Q3369.8438,287.625 3369.25,287.3594 Q3368.6563,287.0781 3368.0313,287.0781 Q3366.6875,287.0781 3366,288.1563 Q3365.3125,289.2188 3365.3125,291.3125 Q3365.3125,293.4063 3366,294.4844 Q3366.6875,295.5469 3368.0313,295.5469 Q3368.6563,295.5469 3369.25,295.2813 Q3369.8438,295 3370.4688,294.4219 L3370.4688,297.1406 Z " fill="#000000"/><text fill="#000000" font-family="sans-serif" font-size="14" lengthAdjust="spacing" textLength="268.2012" x="3381.5" y="296.3467">comp_arc_sta__baselibs__concurrency</text><line style="stroke:#181818;stroke-width:0.5;" x1="3353.5" x2="3651.7012" y1="307.5" y2="307.5"/></g><!--class logic_arc_int__baselibs__task--><g id="elem_logic_arc_int__baselibs__task"><rect fill="#F1F1F1" height="40" id="logic_arc_int__baselibs__task" rx="2.5" ry="2.5" style="stroke:#181818;stroke-width:0.5;" width="234.0156" x="2395.5" y="158.5"/><ellipse cx="2410.5" cy="174.5" fill="#ADD1B2" rx="11" ry="11" style="stroke:#181818;stroke-width:1;"/><path d="M2413.4688,180.1406 Q2412.8906,180.4375 2412.25,180.5781 Q2411.6094,180.7344 2410.9063,180.7344 Q2408.4063,180.7344 2407.0781,179.0938 Q2405.7656,177.4375 2405.7656,174.3125 Q2405.7656,171.1875 2407.0781,169.5313 Q2408.4063,167.875 2410.9063,167.875 Q2411.6094,167.875 2412.25,168.0313 Q2412.9063,168.1875 2413.4688,168.4844 L2413.4688,171.2031 Q2412.8438,170.625 2412.25,170.3594 Q2411.6563,170.0781 2411.0313,170.0781 Q2409.6875,170.0781 2409,171.1563 Q2408.3125,172.2188 2408.3125,174.3125 Q2408.3125,176.4063 2409,177.4844 Q2409.6875,178.5469 2411.0313,178.5469 Q2411.6563,178.5469 2412.25,178.2813 Q2412.8438,178 2413.4688,177.4219 L2413.4688,180.1406 Z " fill="#000000"/><text fill="#000000" font-family="sans-serif" font-size="14" lengthAdjust="spacing" textLength="202.0156" x="2424.5" y="179.3467">logic_arc_int__baselibs__task</text><line style="stroke:#181818;stroke-width:0.5;" x1="2396.5" x2="2628.5156" y1="190.5" y2="190.5"/></g><!--class comp_arc_sta__baselibs__json--><g id="elem_comp_arc_sta__baselibs__json"><rect fill="#F1F1F1" height="40" id="comp_arc_sta__baselibs__json" rx="2.5" ry="2.5" style="stroke:#181818;stroke-width:0.5;" width="242.1367" x="5955.5" y="275.5"/><ellipse cx="5970.5" cy="291.5" fill="#ADD1B2" rx="11" ry="11" style="stroke:#181818;stroke-width:1;"/><path d="M5973.4688,297.1406 Q5972.8906,297.4375 5972.25,297.5781 Q5971.6094,297.7344 5970.9063,297.7344 Q5968.4063,297.7344 5967.0781,296.0938 Q5965.7656,294.4375 5965.7656,291.3125 Q5965.7656,288.1875 5967.0781,286.5313 Q5968.4063,284.875 5970.9063,284.875 Q5971.6094,284.875 5972.25,285.0313 Q5972.9063,285.1875 5973.4688,285.4844 L5973.4688,288.2031 Q5972.8438,287.625 5972.25,287.3594 Q5971.6563,287.0781 5971.0313,287.0781 Q5969.6875,287.0781 5969,288.1563 Q5968.3125,289.2188 5968.3125,291.3125 Q5968.3125,293.4063 5969,294.4844 Q5969.6875,295.5469 5971.0313,295.5469 Q5971.6563,295.5469 5972.25,295.2813 Q5972.8438,295 5973.4688,294.4219 L5973.4688,297.1406 Z " fill="#000000"/><text fill="#000000" font-family="sans-serif" font-size="14" lengthAdjust="spacing" textLength="210.1367" x="5984.5" y="296.3467">comp_arc_sta__baselibs__json</text><line style="stroke:#181818;stroke-width:0.5;" x1="5956.5" x2="6196.6367" y1="307.5" y2="307.5"/></g><!--class logic_arc_int__baselibs__promise--><g id="elem_logic_arc_int__baselibs__promise"><rect fill="#F1F1F1" height="40" id="logic_arc_int__baselibs__promise" rx="2.5" ry="2.5" style="stroke:#181818;stroke-width:0.5;" width="261.1885" x="3263" y="158.5"/><ellipse cx="3278" cy="174.5" fill="#ADD1B2" rx="11" ry="11" style="stroke:#181818;stroke-width:1;"/><path d="M3280.9688,180.1406 Q3280.3906,180.4375 3279.75,180.5781 Q3279.1094,180.7344 3278.4063,180.7344 Q3275.9063,180.7344 3274.5781,179.0938 Q3273.2656,177.4375 3273.2656,174.3125 Q3273.2656,171.1875 3274.5781,169.5313 Q3275.9063,167.875 3278.4063,167.875 Q3279.1094,167.875 3279.75,168.0313 Q3280.4063,168.1875 3280.9688,168.4844 L3280.9688,171.2031 Q3280.3438,170.625 3279.75,170.3594 Q3279.1563,170.0781 3278.5313,170.0781 Q3277.1875,170.0781 3276.5,171.1563 Q3275.8125,172.2188 3275.8125,174.3125 Q3275.8125,176.4063 3276.5,177.4844 Q3277.1875,178.5469 3278.5313,178.5469 Q3279.1563,178.5469 3279.75,178.2813 Q3280.3438,178 3280.9688,177.4219 L3280.9688,180.1406 Z " fill="#000000"/><text fill="#000000" font-family="sans-serif" font-size="14" lengthAdjust="spacing" textLength="229.1885" x="3292" y="179.3467">logic_arc_int__baselibs__promise</text><line style="stroke:#181818;stroke-width:0.5;" x1="3264" x2="3523.1885" y1="190.5" y2="190.5"/></g><!--class logic_arc_int__baselibs__filesystem--><g id="elem_logic_arc_int__baselibs__filesystem"><rect fill="#F1F1F1" height="40" id="logic_arc_int__baselibs__filesystem" rx="2.5" ry="2.5" style="stroke:#181818;stroke-width:0.5;" width="276.4805" x="678.5" y="158.5"/><ellipse cx="693.5" cy="174.5" fill="#ADD1B2" rx="11" ry="11" style="stroke:#181818;stroke-width:1;"/><path d="M696.4688,180.1406 Q695.8906,180.4375 695.25,180.5781 Q694.6094,180.7344 693.9063,180.7344 Q691.4063,180.7344 690.0781,179.0938 Q688.7656,177.4375 688.7656,174.3125 Q688.7656,171.1875 690.0781,169.5313 Q691.4063,167.875 693.9063,167.875 Q694.6094,167.875 695.25,168.0313 Q695.9063,168.1875 696.4688,168.4844 L696.4688,171.2031 Q695.8438,170.625 695.25,170.3594 Q694.6563,170.0781 694.0313,170.0781 Q692.6875,170.0781 692,171.1563 Q691.3125,172.2188 691.3125,174.3125 Q691.3125,176.4063 692,177.4844 Q692.6875,178.5469 694.0313,178.5469 Q694.6563,178.5469 695.25,178.2813 Q695.8438,178 696.4688,177.4219 L696.4688,180.1406 Z " fill="#000000"/><text fill="#000000" font-family="sans-serif" font-size="14" lengthAdjust="spacing" textLength="244.4805" x="707.5" y="179.3467">logic_arc_int__baselibs__filesystem</text><line style="stroke:#181818;stroke-width:0.5;" x1="679.5" x2="953.9805" y1="190.5" y2="190.5"/></g><!--class comp_arc_sta__baselibs__message_passing--><g id="elem_comp_arc_sta__baselibs__message_passing"><rect fill="#F1F1F1" height="40" id="comp_arc_sta__baselibs__message_passing" rx="2.5" ry="2.5" style="stroke:#181818;stroke-width:0.5;" width="337.1357" x="5583" y="275.5"/><ellipse cx="5598" cy="291.5" fill="#ADD1B2" rx="11" ry="11" style="stroke:#181818;stroke-width:1;"/><path d="M5600.9688,297.1406 Q5600.3906,297.4375 5599.75,297.5781 Q5599.1094,297.7344 5598.4063,297.7344 Q5595.9063,297.7344 5594.5781,296.0938 Q5593.2656,294.4375 5593.2656,291.3125 Q5593.2656,288.1875 5594.5781,286.5313 Q5595.9063,284.875 5598.4063,284.875 Q5599.1094,284.875 5599.75,285.0313 Q5600.4063,285.1875 5600.9688,285.4844 L5600.9688,288.2031 Q5600.3438,287.625 5599.75,287.3594 Q5599.1563,287.0781 5598.5313,287.0781 Q5597.1875,287.0781 5596.5,288.1563 Q5595.8125,289.2188 5595.8125,291.3125 Q5595.8125,293.4063 5596.5,294.4844 Q5597.1875,295.5469 5598.5313,295.5469 Q5599.1563,295.5469 5599.75,295.2813 Q5600.3438,295 5600.9688,294.4219 L5600.9688,297.1406 Z " fill="#000000"/><text fill="#000000" font-family="sans-serif" font-size="14" lengthAdjust="spacing" textLength="305.1357" x="5612" y="296.3467">comp_arc_sta__baselibs__message_passing</text><line style="stroke:#181818;stroke-width:0.5;" x1="5584" x2="5919.1357" y1="307.5" y2="307.5"/></g><!--class logic_arc_int__baselibs__message_passing--><g id="elem_logic_arc_int__baselibs__message_passing"><rect fill="#F1F1F1" height="40" id="logic_arc_int__baselibs__message_passing" rx="2.5" ry="2.5" style="stroke:#181818;stroke-width:0.5;" width="328.167" x="5585.5" y="158.5"/><ellipse cx="5600.5" cy="174.5" fill="#ADD1B2" rx="11" ry="11" style="stroke:#181818;stroke-width:1;"/><path d="M5603.4688,180.1406 Q5602.8906,180.4375 5602.25,180.5781 Q5601.6094,180.7344 5600.9063,180.7344 Q5598.4063,180.7344 5597.0781,179.0938 Q5595.7656,177.4375 5595.7656,174.3125 Q5595.7656,171.1875 5597.0781,169.5313 Q5598.4063,167.875 5600.9063,167.875 Q5601.6094,167.875 5602.25,168.0313 Q5602.9063,168.1875 5603.4688,168.4844 L5603.4688,171.2031 Q5602.8438,170.625 5602.25,170.3594 Q5601.6563,170.0781 5601.0313,170.0781 Q5599.6875,170.0781 5599,171.1563 Q5598.3125,172.2188 5598.3125,174.3125 Q5598.3125,176.4063 5599,177.4844 Q5599.6875,178.5469 5601.0313,178.5469 Q5601.6563,178.5469 5602.25,178.2813 Q5602.8438,178 5603.4688,177.4219 L5603.4688,180.1406 Z " fill="#000000"/><text fill="#000000" font-family="sans-serif" font-size="14" lengthAdjust="spacing" textLength="296.167" x="5614.5" y="179.3467">logic_arc_int__baselibs__message_passing</text><line style="stroke:#181818;stroke-width:0.5;" x1="5586.5" x2="5912.667" y1="190.5" y2="190.5"/></g><!--class logic_arc_int__baselibs__intrusive_list--><g id="elem_logic_arc_int__baselibs__intrusive_list"><rect fill="#F1F1F1" height="40" id="logic_arc_int__baselibs__intrusive_list" rx="2.5" ry="2.5" style="stroke:#181818;stroke-width:0.5;" width="293.0713" x="7" y="158.5"/><ellipse cx="22" cy="174.5" fill="#ADD1B2" rx="11" ry="11" style="stroke:#181818;stroke-width:1;"/><path d="M24.9688,180.1406 Q24.3906,180.4375 23.75,180.5781 Q23.1094,180.7344 22.4063,180.7344 Q19.9063,180.7344 18.5781,179.0938 Q17.2656,177.4375 17.2656,174.3125 Q17.2656,171.1875 18.5781,169.5313 Q19.9063,167.875 22.4063,167.875 Q23.1094,167.875 23.75,168.0313 Q24.4063,168.1875 24.9688,168.4844 L24.9688,171.2031 Q24.3438,170.625 23.75,170.3594 Q23.1563,170.0781 22.5313,170.0781 Q21.1875,170.0781 20.5,171.1563 Q19.8125,172.2188 19.8125,174.3125 Q19.8125,176.4063 20.5,177.4844 Q21.1875,178.5469 22.5313,178.5469 Q23.1563,178.5469 23.75,178.2813 Q24.3438,178 24.9688,177.4219 L24.9688,180.1406 Z " fill="#000000"/><text fill="#000000" font-family="sans-serif" font-size="14" lengthAdjust="spacing" textLength="261.0713" x="36" y="179.3467">logic_arc_int__baselibs__intrusive_list</text><line style="stroke:#181818;stroke-width:0.5;" x1="8" x2="299.0713" y1="190.5" y2="190.5"/></g><!--class logic_arc_int__baselibs__bit_mask_operator--><g id="elem_logic_arc_int__baselibs__bit_mask_operator"><rect fill="#F1F1F1" height="40" id="logic_arc_int__baselibs__bit_mask_operator" rx="2.5" ry="2.5" style="stroke:#181818;stroke-width:0.5;" width="334.6406" x="990" y="158.5"/><ellipse cx="1005" cy="174.5" fill="#ADD1B2" rx="11" ry="11" style="stroke:#181818;stroke-width:1;"/><path d="M1007.9688,180.1406 Q1007.3906,180.4375 1006.75,180.5781 Q1006.1094,180.7344 1005.4063,180.7344 Q1002.9063,180.7344 1001.5781,179.0938 Q1000.2656,177.4375 1000.2656,174.3125 Q1000.2656,171.1875 1001.5781,169.5313 Q1002.9063,167.875 1005.4063,167.875 Q1006.1094,167.875 1006.75,168.0313 Q1007.4063,168.1875 1007.9688,168.4844 L1007.9688,171.2031 Q1007.3438,170.625 1006.75,170.3594 Q1006.1563,170.0781 1005.5313,170.0781 Q1004.1875,170.0781 1003.5,171.1563 Q1002.8125,172.2188 1002.8125,174.3125 Q1002.8125,176.4063 1003.5,177.4844 Q1004.1875,178.5469 1005.5313,178.5469 Q1006.1563,178.5469 1006.75,178.2813 Q1007.3438,178 1007.9688,177.4219 L1007.9688,180.1406 Z " fill="#000000"/><text fill="#000000" font-family="sans-serif" font-size="14" lengthAdjust="spacing" textLength="302.6406" x="1019" y="179.3467">logic_arc_int__baselibs__bit_mask_operator</text><line style="stroke:#181818;stroke-width:0.5;" x1="991" x2="1323.6406" y1="190.5" y2="190.5"/></g><!--class logic_arc_int__baselibs__synchronized_queue--><g id="elem_logic_arc_int__baselibs__synchronized_queue"><rect fill="#F1F1F1" height="40" id="logic_arc_int__baselibs__synchronized_queue" rx="2.5" ry="2.5" style="stroke:#181818;stroke-width:0.5;" width="348.3604" x="3896.5" y="158.5"/><ellipse cx="3911.5" cy="174.5" fill="#ADD1B2" rx="11" ry="11" style="stroke:#181818;stroke-width:1;"/><path d="M3914.4688,180.1406 Q3913.8906,180.4375 3913.25,180.5781 Q3912.6094,180.7344 3911.9063,180.7344 Q3909.4063,180.7344 3908.0781,179.0938 Q3906.7656,177.4375 3906.7656,174.3125 Q3906.7656,171.1875 3908.0781,169.5313 Q3909.4063,167.875 3911.9063,167.875 Q3912.6094,167.875 3913.25,168.0313 Q3913.9063,168.1875 3914.4688,168.4844 L3914.4688,171.2031 Q3913.8438,170.625 3913.25,170.3594 Q3912.6563,170.0781 3912.0313,170.0781 Q3910.6875,170.0781 3910,171.1563 Q3909.3125,172.2188 3909.3125,174.3125 Q3909.3125,176.4063 3910,177.4844 Q3910.6875,178.5469 3912.0313,178.5469 Q3912.6563,178.5469 3913.25,178.2813 Q3913.8438,178 3914.4688,177.4219 L3914.4688,180.1406 Z " fill="#000000"/><text fill="#000000" font-family="sans-serif" font-size="14" lengthAdjust="spacing" textLength="316.3604" x="3925.5" y="179.3467">logic_arc_int__baselibs__synchronized_queue</text><line style="stroke:#181818;stroke-width:0.5;" x1="3897.5" x2="4243.8604" y1="190.5" y2="190.5"/></g><!--class comp_arc_sta__baselibs__memory_shared--><g id="elem_comp_arc_sta__baselibs__memory_shared"><rect fill="#F1F1F1" height="40" id="comp_arc_sta__baselibs__memory_shared" rx="2.5" ry="2.5" style="stroke:#181818;stroke-width:0.5;" width="327.0117" x="5221" y="275.5"/><ellipse cx="5236" cy="291.5" fill="#ADD1B2" rx="11" ry="11" style="stroke:#181818;stroke-width:1;"/><path d="M5238.9688,297.1406 Q5238.3906,297.4375 5237.75,297.5781 Q5237.1094,297.7344 5236.4063,297.7344 Q5233.9063,297.7344 5232.5781,296.0938 Q5231.2656,294.4375 5231.2656,291.3125 Q5231.2656,288.1875 5232.5781,286.5313 Q5233.9063,284.875 5236.4063,284.875 Q5237.1094,284.875 5237.75,285.0313 Q5238.4063,285.1875 5238.9688,285.4844 L5238.9688,288.2031 Q5238.3438,287.625 5237.75,287.3594 Q5237.1563,287.0781 5236.5313,287.0781 Q5235.1875,287.0781 5234.5,288.1563 Q5233.8125,289.2188 5233.8125,291.3125 Q5233.8125,293.4063 5234.5,294.4844 Q5235.1875,295.5469 5236.5313,295.5469 Q5237.1563,295.5469 5237.75,295.2813 Q5238.3438,295 5238.9688,294.4219 L5238.9688,297.1406 Z " fill="#000000"/><text fill="#000000" font-family="sans-serif" font-size="14" lengthAdjust="spacing" textLength="295.0117" x="5250" y="296.3467">comp_arc_sta__baselibs__memory_shared</text><line style="stroke:#181818;stroke-width:0.5;" x1="5222" x2="5547.0117" y1="307.5" y2="307.5"/></g><!--class logic_arc_int__baselibs__memory_shared--><g id="elem_logic_arc_int__baselibs__memory_shared"><rect fill="#F1F1F1" height="40" id="logic_arc_int__baselibs__memory_shared" rx="2.5" ry="2.5" style="stroke:#181818;stroke-width:0.5;" width="318.043" x="5228.5" y="158.5"/><ellipse cx="5243.5" cy="174.5" fill="#ADD1B2" rx="11" ry="11" style="stroke:#181818;stroke-width:1;"/><path d="M5246.4688,180.1406 Q5245.8906,180.4375 5245.25,180.5781 Q5244.6094,180.7344 5243.9063,180.7344 Q5241.4063,180.7344 5240.0781,179.0938 Q5238.7656,177.4375 5238.7656,174.3125 Q5238.7656,171.1875 5240.0781,169.5313 Q5241.4063,167.875 5243.9063,167.875 Q5244.6094,167.875 5245.25,168.0313 Q5245.9063,168.1875 5246.4688,168.4844 L5246.4688,171.2031 Q5245.8438,170.625 5245.25,170.3594 Q5244.6563,170.0781 5244.0313,170.0781 Q5242.6875,170.0781 5242,171.1563 Q5241.3125,172.2188 5241.3125,174.3125 Q5241.3125,176.4063 5242,177.4844 Q5242.6875,178.5469 5244.0313,178.5469 Q5244.6563,178.5469 5245.25,178.2813 Q5245.8438,178 5246.4688,177.4219 L5246.4688,180.1406 Z " fill="#000000"/><text fill="#000000" font-family="sans-serif" font-size="14" lengthAdjust="spacing" textLength="286.043" x="5257.5" y="179.3467">logic_arc_int__baselibs__memory_shared</text><line style="stroke:#181818;stroke-width:0.5;" x1="5229.5" x2="5545.543" y1="190.5" y2="190.5"/></g><!--class comp_arc_sta__baselibs__result--><g id="elem_comp_arc_sta__baselibs__result"><rect fill="#F1F1F1" height="40" id="comp_arc_sta__baselibs__result" rx="2.5" ry="2.5" style="stroke:#181818;stroke-width:0.5;" width="253.4297" x="4933" y="275.5"/><ellipse cx="4948" cy="291.5" fill="#ADD1B2" rx="11" ry="11" style="stroke:#181818;stroke-width:1;"/><path d="M4950.9688,297.1406 Q4950.3906,297.4375 4949.75,297.5781 Q4949.1094,297.7344 4948.4063,297.7344 Q4945.9063,297.7344 4944.5781,296.0938 Q4943.2656,294.4375 4943.2656,291.3125 Q4943.2656,288.1875 4944.5781,286.5313 Q4945.9063,284.875 4948.4063,284.875 Q4949.1094,284.875 4949.75,285.0313 Q4950.4063,285.1875 4950.9688,285.4844 L4950.9688,288.2031 Q4950.3438,287.625 4949.75,287.3594 Q4949.1563,287.0781 4948.5313,287.0781 Q4947.1875,287.0781 4946.5,288.1563 Q4945.8125,289.2188 4945.8125,291.3125 Q4945.8125,293.4063 4946.5,294.4844 Q4947.1875,295.5469 4948.5313,295.5469 Q4949.1563,295.5469 4949.75,295.2813 Q4950.3438,295 4950.9688,294.4219 L4950.9688,297.1406 Z " fill="#000000"/><text fill="#000000" font-family="sans-serif" font-size="14" lengthAdjust="spacing" textLength="221.4297" x="4962" y="296.3467">comp_arc_sta__baselibs__result</text><line style="stroke:#181818;stroke-width:0.5;" x1="4934" x2="5185.4297" y1="307.5" y2="307.5"/></g><!--class logic_arc_int__baselibs__result--><g id="elem_logic_arc_int__baselibs__result"><rect fill="#F1F1F1" height="40" id="logic_arc_int__baselibs__result" rx="2.5" ry="2.5" style="stroke:#181818;stroke-width:0.5;" width="244.4609" x="4949.5" y="158.5"/><ellipse cx="4964.5" cy="174.5" fill="#ADD1B2" rx="11" ry="11" style="stroke:#181818;stroke-width:1;"/><path d="M4967.4688,180.1406 Q4966.8906,180.4375 4966.25,180.5781 Q4965.6094,180.7344 4964.9063,180.7344 Q4962.4063,180.7344 4961.0781,179.0938 Q4959.7656,177.4375 4959.7656,174.3125 Q4959.7656,171.1875 4961.0781,169.5313 Q4962.4063,167.875 4964.9063,167.875 Q4965.6094,167.875 4966.25,168.0313 Q4966.9063,168.1875 4967.4688,168.4844 L4967.4688,171.2031 Q4966.8438,170.625 4966.25,170.3594 Q4965.6563,170.0781 4965.0313,170.0781 Q4963.6875,170.0781 4963,171.1563 Q4962.3125,172.2188 4962.3125,174.3125 Q4962.3125,176.4063 4963,177.4844 Q4963.6875,178.5469 4965.0313,178.5469 Q4965.6563,178.5469 4966.25,178.2813 Q4966.8438,178 4967.4688,177.4219 L4967.4688,180.1406 Z " fill="#000000"/><text fill="#000000" font-family="sans-serif" font-size="14" lengthAdjust="spacing" textLength="212.4609" x="4978.5" y="179.3467">logic_arc_int__baselibs__result</text><line style="stroke:#181818;stroke-width:0.5;" x1="4950.5" x2="5192.9609" y1="190.5" y2="190.5"/></g><!--class logic_arc_int__baselibs__task_result--><g id="elem_logic_arc_int__baselibs__task_result"><rect fill="#F1F1F1" height="40" id="logic_arc_int__baselibs__task_result" rx="2.5" ry="2.5" style="stroke:#181818;stroke-width:0.5;" width="280.9307" x="2665" y="158.5"/><ellipse cx="2680" cy="174.5" fill="#ADD1B2" rx="11" ry="11" style="stroke:#181818;stroke-width:1;"/><path d="M2682.9688,180.1406 Q2682.3906,180.4375 2681.75,180.5781 Q2681.1094,180.7344 2680.4063,180.7344 Q2677.9063,180.7344 2676.5781,179.0938 Q2675.2656,177.4375 2675.2656,174.3125 Q2675.2656,171.1875 2676.5781,169.5313 Q2677.9063,167.875 2680.4063,167.875 Q2681.1094,167.875 2681.75,168.0313 Q2682.4063,168.1875 2682.9688,168.4844 L2682.9688,171.2031 Q2682.3438,170.625 2681.75,170.3594 Q2681.1563,170.0781 2680.5313,170.0781 Q2679.1875,170.0781 2678.5,171.1563 Q2677.8125,172.2188 2677.8125,174.3125 Q2677.8125,176.4063 2678.5,177.4844 Q2679.1875,178.5469 2680.5313,178.5469 Q2681.1563,178.5469 2681.75,178.2813 Q2682.3438,178 2682.9688,177.4219 L2682.9688,180.1406 Z " fill="#000000"/><text fill="#000000" font-family="sans-serif" font-size="14" lengthAdjust="spacing" textLength="248.9307" x="2694" y="179.3467">logic_arc_int__baselibs__task_result</text><line style="stroke:#181818;stroke-width:0.5;" x1="2666" x2="2944.9307" y1="190.5" y2="190.5"/></g><!--class logic_arc_int__baselibs__future--><g id="elem_logic_arc_int__baselibs__future"><rect fill="#F1F1F1" height="40" id="logic_arc_int__baselibs__future" rx="2.5" ry="2.5" style="stroke:#181818;stroke-width:0.5;" width="247.0791" x="2981" y="158.5"/><ellipse cx="2996" cy="174.5" fill="#ADD1B2" rx="11" ry="11" style="stroke:#181818;stroke-width:1;"/><path d="M2998.9688,180.1406 Q2998.3906,180.4375 2997.75,180.5781 Q2997.1094,180.7344 2996.4063,180.7344 Q2993.9063,180.7344 2992.5781,179.0938 Q2991.2656,177.4375 2991.2656,174.3125 Q2991.2656,171.1875 2992.5781,169.5313 Q2993.9063,167.875 2996.4063,167.875 Q2997.1094,167.875 2997.75,168.0313 Q2998.4063,168.1875 2998.9688,168.4844 L2998.9688,171.2031 Q2998.3438,170.625 2997.75,170.3594 Q2997.1563,170.0781 2996.5313,170.0781 Q2995.1875,170.0781 2994.5,171.1563 Q2993.8125,172.2188 2993.8125,174.3125 Q2993.8125,176.4063 2994.5,177.4844 Q2995.1875,178.5469 2996.5313,178.5469 Q2997.1563,178.5469 2997.75,178.2813 Q2998.3438,178 2998.9688,177.4219 L2998.9688,180.1406 Z " fill="#000000"/><text fill="#000000" font-family="sans-serif" font-size="14" lengthAdjust="spacing" textLength="215.0791" x="3010" y="179.3467">logic_arc_int__baselibs__future</text><line style="stroke:#181818;stroke-width:0.5;" x1="2982" x2="3227.0791" y1="190.5" y2="190.5"/></g><!--class logic_arc_int__baselibs__executor--><g id="elem_logic_arc_int__baselibs__executor"><rect fill="#F1F1F1" height="40" id="logic_arc_int__baselibs__executor" rx="2.5" ry="2.5" style="stroke:#181818;stroke-width:0.5;" width="266.4385" x="4279.5" y="158.5"/><ellipse cx="4294.5" cy="174.5" fill="#ADD1B2" rx="11" ry="11" style="stroke:#181818;stroke-width:1;"/><path d="M4297.4688,180.1406 Q4296.8906,180.4375 4296.25,180.5781 Q4295.6094,180.7344 4294.9063,180.7344 Q4292.4063,180.7344 4291.0781,179.0938 Q4289.7656,177.4375 4289.7656,174.3125 Q4289.7656,171.1875 4291.0781,169.5313 Q4292.4063,167.875 4294.9063,167.875 Q4295.6094,167.875 4296.25,168.0313 Q4296.9063,168.1875 4297.4688,168.4844 L4297.4688,171.2031 Q4296.8438,170.625 4296.25,170.3594 Q4295.6563,170.0781 4295.0313,170.0781 Q4293.6875,170.0781 4293,171.1563 Q4292.3125,172.2188 4292.3125,174.3125 Q4292.3125,176.4063 4293,177.4844 Q4293.6875,178.5469 4295.0313,178.5469 Q4295.6563,178.5469 4296.25,178.2813 Q4296.8438,178 4297.4688,177.4219 L4297.4688,180.1406 Z " fill="#000000"/><text fill="#000000" font-family="sans-serif" font-size="14" lengthAdjust="spacing" textLength="234.4385" x="4308.5" y="179.3467">logic_arc_int__baselibs__executor</text><line style="stroke:#181818;stroke-width:0.5;" x1="4280.5" x2="4544.9385" y1="190.5" y2="190.5"/></g><!--class comp_arc_sta__baselibs__utils--><g id="elem_comp_arc_sta__baselibs__utils"><rect fill="#F1F1F1" height="40" id="comp_arc_sta__baselibs__utils" rx="2.5" ry="2.5" style="stroke:#181818;stroke-width:0.5;" width="242.9502" x="1896" y="275.5"/><ellipse cx="1911" cy="291.5" fill="#ADD1B2" rx="11" ry="11" style="stroke:#181818;stroke-width:1;"/><path d="M1913.9688,297.1406 Q1913.3906,297.4375 1912.75,297.5781 Q1912.1094,297.7344 1911.4063,297.7344 Q1908.9063,297.7344 1907.5781,296.0938 Q1906.2656,294.4375 1906.2656,291.3125 Q1906.2656,288.1875 1907.5781,286.5313 Q1908.9063,284.875 1911.4063,284.875 Q1912.1094,284.875 1912.75,285.0313 Q1913.4063,285.1875 1913.9688,285.4844 L1913.9688,288.2031 Q1913.3438,287.625 1912.75,287.3594 Q1912.1563,287.0781 1911.5313,287.0781 Q1910.1875,287.0781 1909.5,288.1563 Q1908.8125,289.2188 1908.8125,291.3125 Q1908.8125,293.4063 1909.5,294.4844 Q1910.1875,295.5469 1911.5313,295.5469 Q1912.1563,295.5469 1912.75,295.2813 Q1913.3438,295 1913.9688,294.4219 L1913.9688,297.1406 Z " fill="#000000"/><text fill="#000000" font-family="sans-serif" font-size="14" lengthAdjust="spacing" textLength="210.9502" x="1925" y="296.3467">comp_arc_sta__baselibs__utils</text><line style="stroke:#181818;stroke-width:0.5;" x1="1897" x2="2137.9502" y1="307.5" y2="307.5"/></g><!--class logic_arc_int__baselibs__utils_base64--><g id="elem_logic_arc_int__baselibs__utils_base64"><rect fill="#F1F1F1" height="40" id="logic_arc_int__baselibs__utils_base64" rx="2.5" ry="2.5" style="stroke:#181818;stroke-width:0.5;" width="292.1689" x="2068.5" y="158.5"/><ellipse cx="2083.5" cy="174.5" fill="#ADD1B2" rx="11" ry="11" style="stroke:#181818;stroke-width:1;"/><path d="M2086.4688,180.1406 Q2085.8906,180.4375 2085.25,180.5781 Q2084.6094,180.7344 2083.9063,180.7344 Q2081.4063,180.7344 2080.0781,179.0938 Q2078.7656,177.4375 2078.7656,174.3125 Q2078.7656,171.1875 2080.0781,169.5313 Q2081.4063,167.875 2083.9063,167.875 Q2084.6094,167.875 2085.25,168.0313 Q2085.9063,168.1875 2086.4688,168.4844 L2086.4688,171.2031 Q2085.8438,170.625 2085.25,170.3594 Q2084.6563,170.0781 2084.0313,170.0781 Q2082.6875,170.0781 2082,171.1563 Q2081.3125,172.2188 2081.3125,174.3125 Q2081.3125,176.4063 2082,177.4844 Q2082.6875,178.5469 2084.0313,178.5469 Q2084.6563,178.5469 2085.25,178.2813 Q2085.8438,178 2086.4688,177.4219 L2086.4688,180.1406 Z " fill="#000000"/><text fill="#000000" font-family="sans-serif" font-size="14" lengthAdjust="spacing" textLength="260.1689" x="2097.5" y="179.3467">logic_arc_int__baselibs__utils_base64</text><line style="stroke:#181818;stroke-width:0.5;" x1="2069.5" x2="2359.6689" y1="190.5" y2="190.5"/></g><!--class logic_arc_int__baselibs__condition_variable--><g id="elem_logic_arc_int__baselibs__condition_variable"><rect fill="#F1F1F1" height="40" id="logic_arc_int__baselibs__condition_variable" rx="2.5" ry="2.5" style="stroke:#181818;stroke-width:0.5;" width="332.7539" x="4581" y="158.5"/><ellipse cx="4596" cy="174.5" fill="#ADD1B2" rx="11" ry="11" style="stroke:#181818;stroke-width:1;"/><path d="M4598.9688,180.1406 Q4598.3906,180.4375 4597.75,180.5781 Q4597.1094,180.7344 4596.4063,180.7344 Q4593.9063,180.7344 4592.5781,179.0938 Q4591.2656,177.4375 4591.2656,174.3125 Q4591.2656,171.1875 4592.5781,169.5313 Q4593.9063,167.875 4596.4063,167.875 Q4597.1094,167.875 4597.75,168.0313 Q4598.4063,168.1875 4598.9688,168.4844 L4598.9688,171.2031 Q4598.3438,170.625 4597.75,170.3594 Q4597.1563,170.0781 4596.5313,170.0781 Q4595.1875,170.0781 4594.5,171.1563 Q4593.8125,172.2188 4593.8125,174.3125 Q4593.8125,176.4063 4594.5,177.4844 Q4595.1875,178.5469 4596.5313,178.5469 Q4597.1563,178.5469 4597.75,178.2813 Q4598.3438,178 4598.9688,177.4219 L4598.9688,180.1406 Z " fill="#000000"/><text fill="#000000" font-family="sans-serif" font-size="14" lengthAdjust="spacing" textLength="300.7539" x="4610" y="179.3467">logic_arc_int__baselibs__condition_variable</text><line style="stroke:#181818;stroke-width:0.5;" x1="4582" x2="4912.7539" y1="190.5" y2="190.5"/></g><!--class comp_arc_sta__baselibs__bit_manipulation--><g id="elem_comp_arc_sta__baselibs__bit_manipulation"><rect fill="#F1F1F1" height="40" id="comp_arc_sta__baselibs__bit_manipulation" rx="2.5" ry="2.5" style="stroke:#181818;stroke-width:0.5;" width="330.8057" x="1114" y="275.5"/><ellipse cx="1129" cy="291.5" fill="#ADD1B2" rx="11" ry="11" style="stroke:#181818;stroke-width:1;"/><path d="M1131.9688,297.1406 Q1131.3906,297.4375 1130.75,297.5781 Q1130.1094,297.7344 1129.4063,297.7344 Q1126.9063,297.7344 1125.5781,296.0938 Q1124.2656,294.4375 1124.2656,291.3125 Q1124.2656,288.1875 1125.5781,286.5313 Q1126.9063,284.875 1129.4063,284.875 Q1130.1094,284.875 1130.75,285.0313 Q1131.4063,285.1875 1131.9688,285.4844 L1131.9688,288.2031 Q1131.3438,287.625 1130.75,287.3594 Q1130.1563,287.0781 1129.5313,287.0781 Q1128.1875,287.0781 1127.5,288.1563 Q1126.8125,289.2188 1126.8125,291.3125 Q1126.8125,293.4063 1127.5,294.4844 Q1128.1875,295.5469 1129.5313,295.5469 Q1130.1563,295.5469 1130.75,295.2813 Q1131.3438,295 1131.9688,294.4219 L1131.9688,297.1406 Z " fill="#000000"/><text fill="#000000" font-family="sans-serif" font-size="14" lengthAdjust="spacing" textLength="298.8057" x="1143" y="296.3467">comp_arc_sta__baselibs__bit_manipulation</text><line style="stroke:#181818;stroke-width:0.5;" x1="1115" x2="1443.8057" y1="307.5" y2="307.5"/></g><!--class logic_arc_int__baselibs__dynamic_array--><g id="elem_logic_arc_int__baselibs__dynamic_array"><rect fill="#F1F1F1" height="40" id="logic_arc_int__baselibs__dynamic_array" rx="2.5" ry="2.5" style="stroke:#181818;stroke-width:0.5;" width="308.3496" x="335.5" y="158.5"/><ellipse cx="350.5" cy="174.5" fill="#ADD1B2" rx="11" ry="11" style="stroke:#181818;stroke-width:1;"/><path d="M353.4688,180.1406 Q352.8906,180.4375 352.25,180.5781 Q351.6094,180.7344 350.9063,180.7344 Q348.4063,180.7344 347.0781,179.0938 Q345.7656,177.4375 345.7656,174.3125 Q345.7656,171.1875 347.0781,169.5313 Q348.4063,167.875 350.9063,167.875 Q351.6094,167.875 352.25,168.0313 Q352.9063,168.1875 353.4688,168.4844 L353.4688,171.2031 Q352.8438,170.625 352.25,170.3594 Q351.6563,170.0781 351.0313,170.0781 Q349.6875,170.0781 349,171.1563 Q348.3125,172.2188 348.3125,174.3125 Q348.3125,176.4063 349,177.4844 Q349.6875,178.5469 351.0313,178.5469 Q351.6563,178.5469 352.25,178.2813 Q352.8438,178 353.4688,177.4219 L353.4688,180.1406 Z " fill="#000000"/><text fill="#000000" font-family="sans-serif" font-size="14" lengthAdjust="spacing" textLength="276.3496" x="364.5" y="179.3467">logic_arc_int__baselibs__dynamic_array</text><line style="stroke:#181818;stroke-width:0.5;" x1="336.5" x2="642.8496" y1="190.5" y2="190.5"/></g><!--class logic_arc_int__baselibs__utils_scoped_op--><g id="elem_logic_arc_int__baselibs__utils_scoped_op"><rect fill="#F1F1F1" height="40" id="logic_arc_int__baselibs__utils_scoped_op" rx="2.5" ry="2.5" style="stroke:#181818;stroke-width:0.5;" width="315.377" x="1718" y="158.5"/><ellipse cx="1733" cy="174.5" fill="#ADD1B2" rx="11" ry="11" style="stroke:#181818;stroke-width:1;"/><path d="M1735.9688,180.1406 Q1735.3906,180.4375 1734.75,180.5781 Q1734.1094,180.7344 1733.4063,180.7344 Q1730.9063,180.7344 1729.5781,179.0938 Q1728.2656,177.4375 1728.2656,174.3125 Q1728.2656,171.1875 1729.5781,169.5313 Q1730.9063,167.875 1733.4063,167.875 Q1734.1094,167.875 1734.75,168.0313 Q1735.4063,168.1875 1735.9688,168.4844 L1735.9688,171.2031 Q1735.3438,170.625 1734.75,170.3594 Q1734.1563,170.0781 1733.5313,170.0781 Q1732.1875,170.0781 1731.5,171.1563 Q1730.8125,172.2188 1730.8125,174.3125 Q1730.8125,176.4063 1731.5,177.4844 Q1732.1875,178.5469 1733.5313,178.5469 Q1734.1563,178.5469 1734.75,178.2813 Q1735.3438,178 1735.9688,177.4219 L1735.9688,180.1406 Z " fill="#000000"/><text fill="#000000" font-family="sans-serif" font-size="14" lengthAdjust="spacing" textLength="283.377" x="1747" y="179.3467">logic_arc_int__baselibs__utils_scoped_op</text><line style="stroke:#181818;stroke-width:0.5;" x1="1719" x2="2032.377" y1="190.5" y2="190.5"/></g><!--class logic_arc_int__baselibs__shared_future--><g id="elem_logic_arc_int__baselibs__shared_future"><rect fill="#F1F1F1" height="40" id="logic_arc_int__baselibs__shared_future" rx="2.5" ry="2.5" style="stroke:#181818;stroke-width:0.5;" width="302.0811" x="3559.5" y="158.5"/><ellipse cx="3574.5" cy="174.5" fill="#ADD1B2" rx="11" ry="11" style="stroke:#181818;stroke-width:1;"/><path d="M3577.4688,180.1406 Q3576.8906,180.4375 3576.25,180.5781 Q3575.6094,180.7344 3574.9063,180.7344 Q3572.4063,180.7344 3571.0781,179.0938 Q3569.7656,177.4375 3569.7656,174.3125 Q3569.7656,171.1875 3571.0781,169.5313 Q3572.4063,167.875 3574.9063,167.875 Q3575.6094,167.875 3576.25,168.0313 Q3576.9063,168.1875 3577.4688,168.4844 L3577.4688,171.2031 Q3576.8438,170.625 3576.25,170.3594 Q3575.6563,170.0781 3575.0313,170.0781 Q3573.6875,170.0781 3573,171.1563 Q3572.3125,172.2188 3572.3125,174.3125 Q3572.3125,176.4063 3573,177.4844 Q3573.6875,178.5469 3575.0313,178.5469 Q3575.6563,178.5469 3576.25,178.2813 Q3576.8438,178 3577.4688,177.4219 L3577.4688,180.1406 Z " fill="#000000"/><text fill="#000000" font-family="sans-serif" font-size="14" lengthAdjust="spacing" textLength="270.0811" x="3588.5" y="179.3467">logic_arc_int__baselibs__shared_future</text><line style="stroke:#181818;stroke-width:0.5;" x1="3560.5" x2="3860.5811" y1="190.5" y2="190.5"/></g><!--class logic_arc_int__baselibs__bit_manipulation--><g id="elem_logic_arc_int__baselibs__bit_manipulation"><rect fill="#F1F1F1" height="40" id="logic_arc_int__baselibs__bit_manipulation" rx="2.5" ry="2.5" style="stroke:#181818;stroke-width:0.5;" width="321.8369" x="1360.5" y="158.5"/><ellipse cx="1375.5" cy="174.5" fill="#ADD1B2" rx="11" ry="11" style="stroke:#181818;stroke-width:1;"/><path d="M1378.4688,180.1406 Q1377.8906,180.4375 1377.25,180.5781 Q1376.6094,180.7344 1375.9063,180.7344 Q1373.4063,180.7344 1372.0781,179.0938 Q1370.7656,177.4375 1370.7656,174.3125 Q1370.7656,171.1875 1372.0781,169.5313 Q1373.4063,167.875 1375.9063,167.875 Q1376.6094,167.875 1377.25,168.0313 Q1377.9063,168.1875 1378.4688,168.4844 L1378.4688,171.2031 Q1377.8438,170.625 1377.25,170.3594 Q1376.6563,170.0781 1376.0313,170.0781 Q1374.6875,170.0781 1374,171.1563 Q1373.3125,172.2188 1373.3125,174.3125 Q1373.3125,176.4063 1374,177.4844 Q1374.6875,178.5469 1376.0313,178.5469 Q1376.6563,178.5469 1377.25,178.2813 Q1377.8438,178 1378.4688,177.4219 L1378.4688,180.1406 Z " fill="#000000"/><text fill="#000000" font-family="sans-serif" font-size="14" lengthAdjust="spacing" textLength="289.8369" x="1389.5" y="179.3467">logic_arc_int__baselibs__bit_manipulation</text><line style="stroke:#181818;stroke-width:0.5;" x1="1361.5" x2="1681.3369" y1="190.5" y2="190.5"/></g><!--class comp_arc_sta__baselibs__containers--><g id="elem_comp_arc_sta__baselibs__containers"><rect fill="#F1F1F1" height="40" id="comp_arc_sta__baselibs__containers" rx="2.5" ry="2.5" style="stroke:#181818;stroke-width:0.5;" width="287.1445" x="151" y="275.5"/><ellipse cx="166" cy="291.5" fill="#ADD1B2" rx="11" ry="11" style="stroke:#181818;stroke-width:1;"/><path d="M168.9688,297.1406 Q168.3906,297.4375 167.75,297.5781 Q167.1094,297.7344 166.4063,297.7344 Q163.9063,297.7344 162.5781,296.0938 Q161.2656,294.4375 161.2656,291.3125 Q161.2656,288.1875 162.5781,286.5313 Q163.9063,284.875 166.4063,284.875 Q167.1094,284.875 167.75,285.0313 Q168.4063,285.1875 168.9688,285.4844 L168.9688,288.2031 Q168.3438,287.625 167.75,287.3594 Q167.1563,287.0781 166.5313,287.0781 Q165.1875,287.0781 164.5,288.1563 Q163.8125,289.2188 163.8125,291.3125 Q163.8125,293.4063 164.5,294.4844 Q165.1875,295.5469 166.5313,295.5469 Q167.1563,295.5469 167.75,295.2813 Q168.3438,295 168.9688,294.4219 L168.9688,297.1406 Z " fill="#000000"/><text fill="#000000" font-family="sans-serif" font-size="14" lengthAdjust="spacing" textLength="255.1445" x="180" y="296.3467">comp_arc_sta__baselibs__containers</text><line style="stroke:#181818;stroke-width:0.5;" x1="152" x2="437.1445" y1="307.5" y2="307.5"/></g><!--class comp_arc_sta__baselibs__filesystem--><g id="elem_comp_arc_sta__baselibs__filesystem"><rect fill="#F1F1F1" height="40" id="comp_arc_sta__baselibs__filesystem" rx="2.5" ry="2.5" style="stroke:#181818;stroke-width:0.5;" width="285.4492" x="674" y="275.5"/><ellipse cx="689" cy="291.5" fill="#ADD1B2" rx="11" ry="11" style="stroke:#181818;stroke-width:1;"/><path d="M691.9688,297.1406 Q691.3906,297.4375 690.75,297.5781 Q690.1094,297.7344 689.4063,297.7344 Q686.9063,297.7344 685.5781,296.0938 Q684.2656,294.4375 684.2656,291.3125 Q684.2656,288.1875 685.5781,286.5313 Q686.9063,284.875 689.4063,284.875 Q690.1094,284.875 690.75,285.0313 Q691.4063,285.1875 691.9688,285.4844 L691.9688,288.2031 Q691.3438,287.625 690.75,287.3594 Q690.1563,287.0781 689.5313,287.0781 Q688.1875,287.0781 687.5,288.1563 Q686.8125,289.2188 686.8125,291.3125 Q686.8125,293.4063 687.5,294.4844 Q688.1875,295.5469 689.5313,295.5469 Q690.1563,295.5469 690.75,295.2813 Q691.3438,295 691.9688,294.4219 L691.9688,297.1406 Z " fill="#000000"/><text fill="#000000" font-family="sans-serif" font-size="14" lengthAdjust="spacing" textLength="253.4492" x="703" y="296.3467">comp_arc_sta__baselibs__filesystem</text><line style="stroke:#181818;stroke-width:0.5;" x1="675" x2="958.4492" y1="307.5" y2="307.5"/></g><!--link Feature_User to logic_arc_int__baselibs__json--><g id="link_Feature_User_logic_arc_int__baselibs__json"><path codeLine="15" d="M3149.52,45.36 C3373.31,49.73 4388.24,70.99 5218.5,111.5 C5535.7,126.98 5615.52,126.68 5931.5,158.5 C5939.07,159.26 5940.89,159.4282 5948.73,160.3382 " fill="transparent" id="Feature_User-to-logic_arc_int__baselibs__json" style="stroke:#181818;stroke-width:1;"/><polygon fill="#181818" points="5954.69,161.03,5946.2112,156.019,5949.7233,160.4535,5945.2888,163.9656,5954.69,161.03" style="stroke:#181818;stroke-width:1;"/><text fill="#000000" font-family="sans-serif" font-size="13" lengthAdjust="spacing" textLength="23.0103" x="5564.5" y="124.5669">use</text></g><!--reverse link logic_arc_int__baselibs__task to comp_arc_sta__baselibs__concurrency--><g id="link_logic_arc_int__baselibs__task_comp_arc_sta__baselibs__concurrency"><path codeLine="16" d="M2635.5145,196.8742 C2641.5745,197.7042 2641.64,197.71 2647.5,198.5 C2809.16,220.31 2849.44,226.95 3011.5,245.5 C3125.76,258.58 3255.21,271.41 3352.5,280.67 " fill="transparent" id="logic_arc_int__baselibs__task-backto-comp_arc_sta__baselibs__concurrency" style="stroke:#181818;stroke-width:1;"/><polygon fill="#181818" points="2629.57,196.06,2637.944,201.2443,2634.5238,196.7385,2639.0295,193.3183,2629.57,196.06" style="stroke:#181818;stroke-width:1;"/><text fill="#000000" font-family="sans-serif" font-size="13" lengthAdjust="spacing" textLength="76.9082" x="3012.5" y="241.5669">implements</text></g><!--reverse link logic_arc_int__baselibs__json to comp_arc_sta__baselibs__json--><g id="link_logic_arc_int__baselibs__json_comp_arc_sta__baselibs__json"><path codeLine="17" d="M6072.5998,204.7444 C6073.5198,225.9744 6074.74,253.94 6075.66,275.19 " fill="transparent" id="logic_arc_int__baselibs__json-backto-comp_arc_sta__baselibs__json" style="stroke:#181818;stroke-width:1;"/><polygon fill="#181818" points="6072.34,198.75,6068.7334,207.9147,6072.5565,203.7453,6076.7259,207.5684,6072.34,198.75" style="stroke:#181818;stroke-width:1;"/><text fill="#000000" font-family="sans-serif" font-size="13" lengthAdjust="spacing" textLength="76.9082" x="6074.5" y="241.5669">implements</text></g><!--link Feature_User to logic_arc_int__baselibs__promise--><g id="link_Feature_User_logic_arc_int__baselibs__promise"><path codeLine="18" d="M3149.66,65.28 C3205.06,90.78 3292.7792,131.1523 3346.4892,155.8623 " fill="transparent" id="Feature_User-to-logic_arc_int__baselibs__promise" style="stroke:#181818;stroke-width:1;"/><polygon fill="#181818" points="3351.94,158.37,3345.4356,150.9745,3347.3977,156.2802,3342.092,158.2423,3351.94,158.37" style="stroke:#181818;stroke-width:1;"/><text fill="#000000" font-family="sans-serif" font-size="13" lengthAdjust="spacing" textLength="23.0103" x="3283.5" y="124.5669">use</text></g><!--link Feature_User to logic_arc_int__baselibs__filesystem--><g id="link_Feature_User_logic_arc_int__baselibs__filesystem"><path codeLine="19" d="M3059.39,45.58 C2834.11,51.28 1808.43,80.49 972.5,158.5 C966.66,159.05 966.6684,159.0153 960.6484,159.6353 " fill="transparent" id="Feature_User-to-logic_arc_int__baselibs__filesystem" style="stroke:#181818;stroke-width:1;"/><polygon fill="#181818" points="954.68,160.25,964.0424,163.3069,959.6537,159.7378,963.2229,155.349,954.68,160.25" style="stroke:#181818;stroke-width:1;"/><text fill="#000000" font-family="sans-serif" font-size="13" lengthAdjust="spacing" textLength="23.0103" x="1558.5" y="124.5669">use</text></g><!--reverse link logic_arc_int__baselibs__message_passing to comp_arc_sta__baselibs__message_passing--><g id="link_logic_arc_int__baselibs__message_passing_comp_arc_sta__baselibs__message_passing"><path codeLine="20" d="M5749.9346,204.7491 C5750.3046,225.9791 5750.79,253.94 5751.16,275.19 " fill="transparent" id="logic_arc_int__baselibs__message_passing-backto-comp_arc_sta__baselibs__message_passing" style="stroke:#181818;stroke-width:1;"/><polygon fill="#181818" points="5749.83,198.75,5745.9874,207.8183,5749.9171,203.7492,5753.9862,207.6789,5749.83,198.75" style="stroke:#181818;stroke-width:1;"/><text fill="#000000" font-family="sans-serif" font-size="13" lengthAdjust="spacing" textLength="76.9082" x="5751.5" y="241.5669">implements</text></g><!--link Feature_User to logic_arc_int__baselibs__task--><g id="link_Feature_User_logic_arc_int__baselibs__task"><path codeLine="21" d="M3059.03,54.72 C2960.14,76.93 2730.0641,128.6248 2602.9441,157.1848 " fill="transparent" id="Feature_User-to-logic_arc_int__baselibs__task" style="stroke:#181818;stroke-width:1;"/><polygon fill="#181818" points="2597.09,158.5,2606.7479,160.4299,2601.9684,157.404,2604.9943,152.6244,2597.09,158.5" style="stroke:#181818;stroke-width:1;"/><text fill="#000000" font-family="sans-serif" font-size="13" lengthAdjust="spacing" textLength="23.0103" x="2791.5" y="124.5669">use</text></g><!--link Feature_User to logic_arc_int__baselibs__intrusive_list--><g id="link_Feature_User_logic_arc_int__baselibs__intrusive_list"><path codeLine="22" d="M3059.32,45.37 C2836.91,49.75 1836.23,70.88 1017.5,111.5 C706.07,126.95 628.02,130.11 317.5,158.5 C311.79,159.02 311.9409,158.99 306.0709,159.57 " fill="transparent" id="Feature_User-to-logic_arc_int__baselibs__intrusive_list" style="stroke:#181818;stroke-width:1;"/><polygon fill="#181818" points="300.1,160.16,309.4497,163.2557,305.0758,159.6684,308.6631,155.2944,300.1,160.16" style="stroke:#181818;stroke-width:1;"/><text fill="#000000" font-family="sans-serif" font-size="13" lengthAdjust="spacing" textLength="23.0103" x="1018.5" y="124.5669">use</text></g><!--link Feature_User to logic_arc_int__baselibs__bit_mask_operator--><g id="link_Feature_User_logic_arc_int__baselibs__bit_mask_operator"><path codeLine="23" d="M3059.18,46.71 C2857.9,56.7 2024.7,99.63 1342.5,158.5 C1336.87,158.99 1337.1249,158.9421 1331.3449,159.4721 " fill="transparent" id="Feature_User-to-logic_arc_int__baselibs__bit_mask_operator" style="stroke:#181818;stroke-width:1;"/><polygon fill="#181818" points="1325.37,160.02,1334.6977,163.1815,1330.3491,159.5634,1333.9672,155.2149,1325.37,160.02" style="stroke:#181818;stroke-width:1;"/><text fill="#000000" font-family="sans-serif" font-size="13" lengthAdjust="spacing" textLength="23.0103" x="1924.5" y="124.5669">use</text></g><!--reverse link logic_arc_int__baselibs__synchronized_queue to comp_arc_sta__baselibs__concurrency--><g id="link_logic_arc_int__baselibs__synchronized_queue_comp_arc_sta__baselibs__concurrency"><path codeLine="24" d="M3970.5093,199.7407 C3865.3593,221.0307 3702.01,254.11 3596.8,275.41 " fill="transparent" id="logic_arc_int__baselibs__synchronized_queue-backto-comp_arc_sta__baselibs__concurrency" style="stroke:#181818;stroke-width:1;"/><polygon fill="#181818" points="3976.39,198.55,3966.7752,196.4156,3971.4894,199.5422,3968.3628,204.2565,3976.39,198.55" style="stroke:#181818;stroke-width:1;"/><text fill="#000000" font-family="sans-serif" font-size="13" lengthAdjust="spacing" textLength="76.9082" x="3821.5" y="241.5669">implements</text></g><!--reverse link logic_arc_int__baselibs__memory_shared to comp_arc_sta__baselibs__memory_shared--><g id="link_logic_arc_int__baselibs__memory_shared_comp_arc_sta__baselibs__memory_shared"><path codeLine="25" d="M5386.8418,204.7479 C5386.2818,225.9779 5385.56,253.94 5385,275.19 " fill="transparent" id="logic_arc_int__baselibs__memory_shared-backto-comp_arc_sta__baselibs__memory_shared" style="stroke:#181818;stroke-width:1;"/><polygon fill="#181818" points="5387,198.75,5382.7641,207.6414,5386.8682,203.7483,5390.7613,207.8523,5387,198.75" style="stroke:#181818;stroke-width:1;"/><text fill="#000000" font-family="sans-serif" font-size="13" lengthAdjust="spacing" textLength="76.9082" x="5386.5" y="241.5669">implements</text></g><!--reverse link logic_arc_int__baselibs__result to comp_arc_sta__baselibs__result--><g id="link_logic_arc_int__baselibs__result_comp_arc_sta__baselibs__result"><path codeLine="26" d="M5068.8688,204.7178 C5066.6588,225.9478 5063.73,253.94 5061.52,275.19 " fill="transparent" id="logic_arc_int__baselibs__result-backto-comp_arc_sta__baselibs__result" style="stroke:#181818;stroke-width:1;"/><polygon fill="#181818" points="5069.49,198.75,5064.5797,207.2875,5068.9723,203.7231,5072.5367,208.1158,5069.49,198.75" style="stroke:#181818;stroke-width:1;"/><text fill="#000000" font-family="sans-serif" font-size="13" lengthAdjust="spacing" textLength="76.9082" x="5066.5" y="241.5669">implements</text></g><!--link Feature_User to logic_arc_int__baselibs__task_result--><g id="link_Feature_User_logic_arc_int__baselibs__task_result"><path codeLine="27" d="M3059.41,64.56 C3002.31,89.95 2910.1124,130.9722 2854.0024,155.9222 " fill="transparent" id="Feature_User-to-logic_arc_int__baselibs__task_result" style="stroke:#181818;stroke-width:1;"/><polygon fill="#181818" points="2848.52,158.36,2858.3689,158.3582,2853.0887,156.3285,2855.1184,151.0483,2848.52,158.36" style="stroke:#181818;stroke-width:1;"/><text fill="#000000" font-family="sans-serif" font-size="13" lengthAdjust="spacing" textLength="23.0103" x="2946.5" y="124.5669">use</text></g><!--reverse link logic_arc_int__baselibs__future to comp_arc_sta__baselibs__concurrency--><g id="link_logic_arc_int__baselibs__future_comp_arc_sta__baselibs__concurrency"><path codeLine="28" d="M3176.4342,200.2855 C3250.1542,221.5855 3362.86,254.15 3436.5,275.43 " fill="transparent" id="logic_arc_int__baselibs__future-backto-comp_arc_sta__baselibs__concurrency" style="stroke:#181818;stroke-width:1;"/><polygon fill="#181818" points="3170.67,198.62,3178.206,204.961,3175.4735,200.0079,3180.4266,197.2754,3170.67,198.62" style="stroke:#181818;stroke-width:1;"/><text fill="#000000" font-family="sans-serif" font-size="13" lengthAdjust="spacing" textLength="76.9082" x="3327.5" y="241.5669">implements</text></g><!--link Feature_User to logic_arc_int__baselibs__executor--><g id="link_Feature_User_logic_arc_int__baselibs__executor"><path codeLine="29" d="M3149.53,48.48 C3304.43,62.26 3829.64,109.79 4262.5,158.5 C4267.98,159.12 4267.6107,159.0626 4273.2507,159.7226 " fill="transparent" id="Feature_User-to-logic_arc_int__baselibs__executor" style="stroke:#181818;stroke-width:1;"/><polygon fill="#181818" points="4279.21,160.42,4270.7359,155.4011,4274.2439,159.8389,4269.8061,163.3468,4279.21,160.42" style="stroke:#181818;stroke-width:1;"/><text fill="#000000" font-family="sans-serif" font-size="13" lengthAdjust="spacing" textLength="23.0103" x="3977.5" y="124.5669">use</text></g><!--reverse link logic_arc_int__baselibs__utils_base64 to comp_arc_sta__baselibs__utils--><g id="link_logic_arc_int__baselibs__utils_base64_comp_arc_sta__baselibs__utils"><path codeLine="30" d="M2176.3479,201.7743 C2139.8679,223.0643 2086.64,254.14 2050.25,275.38 " fill="transparent" id="logic_arc_int__baselibs__utils_base64-backto-comp_arc_sta__baselibs__utils" style="stroke:#181818;stroke-width:1;"/><polygon fill="#181818" points="2181.53,198.75,2171.7407,199.8317,2177.2116,201.2702,2175.7731,206.7411,2181.53,198.75" style="stroke:#181818;stroke-width:1;"/><text fill="#000000" font-family="sans-serif" font-size="13" lengthAdjust="spacing" textLength="76.9082" x="2129.5" y="241.5669">implements</text></g><!--link Feature_User to logic_arc_int__baselibs__utils_base64--><g id="link_Feature_User_logic_arc_int__baselibs__utils_base64"><path codeLine="31" d="M3059.45,51.23 C2928.44,70.81 2550.0441,127.3532 2347.9641,157.5532 " fill="transparent" id="Feature_User-to-logic_arc_int__baselibs__utils_base64" style="stroke:#181818;stroke-width:1;"/><polygon fill="#181818" points="2342.03,158.44,2351.5224,161.0658,2346.9751,157.701,2350.3399,153.1537,2342.03,158.44" style="stroke:#181818;stroke-width:1;"/><text fill="#000000" font-family="sans-serif" font-size="13" lengthAdjust="spacing" textLength="23.0103" x="2634.5" y="124.5669">use</text></g><!--reverse link logic_arc_int__baselibs__task_result to comp_arc_sta__baselibs__concurrency--><g id="link_logic_arc_int__baselibs__task_result_comp_arc_sta__baselibs__concurrency"><path codeLine="32" d="M2921.323,199.5481 C2998.973,212.9181 3099.61,230.07 3193.5,245.5 C3255.14,255.63 3323.75,266.55 3380.64,275.5 " fill="transparent" id="logic_arc_int__baselibs__task_result-backto-comp_arc_sta__baselibs__concurrency" style="stroke:#181818;stroke-width:1;"/><polygon fill="#181818" points="2915.41,198.53,2923.6007,203.9992,2920.3375,199.3784,2924.9582,196.1152,2915.41,198.53" style="stroke:#181818;stroke-width:1;"/><text fill="#000000" font-family="sans-serif" font-size="13" lengthAdjust="spacing" textLength="76.9082" x="3194.5" y="241.5669">implements</text></g><!--link Feature_User to logic_arc_int__baselibs__condition_variable--><g id="link_Feature_User_logic_arc_int__baselibs__condition_variable"><path codeLine="33" d="M3149.62,47.5 C3328.71,59.54 4006.68,106.14 4563.5,158.5 C4569.1,159.03 4568.8174,158.9977 4574.5574,159.5477 " fill="transparent" id="Feature_User-to-logic_arc_int__baselibs__condition_variable" style="stroke:#181818;stroke-width:1;"/><polygon fill="#181818" points="4580.53,160.12,4571.9526,155.2798,4575.5528,159.6431,4571.1895,163.2433,4580.53,160.12" style="stroke:#181818;stroke-width:1;"/><text fill="#000000" font-family="sans-serif" font-size="13" lengthAdjust="spacing" textLength="23.0103" x="4204.5" y="124.5669">use</text></g><!--reverse link logic_arc_int__baselibs__condition_variable to comp_arc_sta__baselibs__concurrency--><g id="link_logic_arc_int__baselibs__condition_variable_comp_arc_sta__baselibs__concurrency"><path codeLine="34" d="M4574.9154,198.7111 C4447.7654,212.5911 4274.17,230.97 4116.5,245.5 C3958.37,260.08 3777.09,274.23 3652.73,283.55 " fill="transparent" id="logic_arc_int__baselibs__condition_variable-backto-comp_arc_sta__baselibs__concurrency" style="stroke:#181818;stroke-width:1;"/><polygon fill="#181818" points="4580.88,198.06,4571.4991,195.0603,4575.9095,198.6026,4572.3672,203.013,4580.88,198.06" style="stroke:#181818;stroke-width:1;"/><text fill="#000000" font-family="sans-serif" font-size="13" lengthAdjust="spacing" textLength="76.9082" x="4290.5" y="241.5669">implements</text></g><!--reverse link logic_arc_int__baselibs__bit_mask_operator to comp_arc_sta__baselibs__bit_manipulation--><g id="link_logic_arc_int__baselibs__bit_mask_operator_comp_arc_sta__baselibs__bit_manipulation"><path codeLine="35" d="M1182.2858,202.8658 C1204.8058,224.0958 1236.47,253.94 1259.01,275.19 " fill="transparent" id="logic_arc_int__baselibs__bit_mask_operator-backto-comp_arc_sta__baselibs__bit_manipulation" style="stroke:#181818;stroke-width:1;"/><polygon fill="#181818" points="1177.92,198.75,1181.7249,207.8342,1181.5582,202.1798,1187.2126,202.0131,1177.92,198.75" style="stroke:#181818;stroke-width:1;"/><text fill="#000000" font-family="sans-serif" font-size="13" lengthAdjust="spacing" textLength="76.9082" x="1227.5" y="241.5669">implements</text></g><!--link Feature_User to logic_arc_int__baselibs__dynamic_array--><g id="link_Feature_User_logic_arc_int__baselibs__dynamic_array"><path codeLine="36" d="M3059.34,45.72 C2858.76,51.25 2028.4,75.23 1347.5,111.5 C1041.89,127.78 965.32,131.15 660.5,158.5 C655,158.99 655.3628,158.9491 649.7128,159.4891 " fill="transparent" id="Feature_User-to-logic_arc_int__baselibs__dynamic_array" style="stroke:#181818;stroke-width:1;"/><polygon fill="#181818" points="643.74,160.06,653.0797,163.1856,648.7173,159.5843,652.3186,155.2219,643.74,160.06" style="stroke:#181818;stroke-width:1;"/><text fill="#000000" font-family="sans-serif" font-size="13" lengthAdjust="spacing" textLength="23.0103" x="1348.5" y="124.5669">use</text></g><!--reverse link logic_arc_int__baselibs__utils_scoped_op to comp_arc_sta__baselibs__utils--><g id="link_logic_arc_int__baselibs__utils_scoped_op_comp_arc_sta__baselibs__utils"><path codeLine="37" d="M1903.9324,202.5265 C1930.1424,223.7565 1967.41,253.94 1993.65,275.19 " fill="transparent" id="logic_arc_int__baselibs__utils_scoped_op-backto-comp_arc_sta__baselibs__utils" style="stroke:#181818;stroke-width:1;"/><polygon fill="#181818" points="1899.27,198.75,1903.7459,207.523,1903.1553,201.8971,1908.7813,201.3065,1899.27,198.75" style="stroke:#181818;stroke-width:1;"/><text fill="#000000" font-family="sans-serif" font-size="13" lengthAdjust="spacing" textLength="76.9082" x="1956.5" y="241.5669">implements</text></g><!--link Feature_User to logic_arc_int__baselibs__shared_future--><g id="link_Feature_User_logic_arc_int__baselibs__shared_future"><path codeLine="38" d="M3149.55,54.39 C3249.88,76.41 3487.2595,128.5039 3618.0395,157.2039 " fill="transparent" id="Feature_User-to-logic_arc_int__baselibs__shared_future" style="stroke:#181818;stroke-width:1;"/><polygon fill="#181818" points="3623.9,158.49,3615.9666,152.6538,3619.0162,157.4182,3614.2518,160.4679,3623.9,158.49" style="stroke:#181818;stroke-width:1;"/><text fill="#000000" font-family="sans-serif" font-size="13" lengthAdjust="spacing" textLength="23.0103" x="3480.5" y="124.5669">use</text></g><!--link Feature_User to logic_arc_int__baselibs__future--><g id="link_Feature_User_logic_arc_int__baselibs__future"><path codeLine="39" d="M3104.5,81.55 C3104.5,106.45 3104.5,132.26 3104.5,152.26 " fill="transparent" id="Feature_User-to-logic_arc_int__baselibs__future" style="stroke:#181818;stroke-width:1;"/><polygon fill="#181818" points="3104.5,158.26,3108.5,149.26,3104.5,153.26,3100.5,149.26,3104.5,158.26" style="stroke:#181818;stroke-width:1;"/><text fill="#000000" font-family="sans-serif" font-size="13" lengthAdjust="spacing" textLength="23.0103" x="3105.5" y="124.5669">use</text></g><!--link Feature_User to logic_arc_int__baselibs__message_passing--><g id="link_Feature_User_logic_arc_int__baselibs__message_passing"><path codeLine="40" d="M3149.54,45.64 C3352.3,50.88 4200.91,74.04 4896.5,111.5 C5193.69,127.51 5267.98,132.85 5564.5,158.5 C5571.26,159.08 5572.1752,159.1506 5579.1352,159.7906 " fill="transparent" id="Feature_User-to-logic_arc_int__baselibs__message_passing" style="stroke:#181818;stroke-width:1;"/><polygon fill="#181818" points="5585.11,160.34,5576.5141,155.5327,5580.131,159.8822,5575.7815,163.4991,5585.11,160.34" style="stroke:#181818;stroke-width:1;"/><text fill="#000000" font-family="sans-serif" font-size="13" lengthAdjust="spacing" textLength="23.0103" x="5186.5" y="124.5669">use</text></g><!--reverse link logic_arc_int__baselibs__executor to comp_arc_sta__baselibs__concurrency--><g id="link_logic_arc_int__baselibs__executor_comp_arc_sta__baselibs__concurrency"><path codeLine="41" d="M4273.4217,197.986 C4171.4017,211.466 4033.07,229.57 3906.5,245.5 C3822.56,256.07 3728.74,267.47 3652.67,276.61 " fill="transparent" id="logic_arc_int__baselibs__executor-backto-comp_arc_sta__baselibs__concurrency" style="stroke:#181818;stroke-width:1;"/><polygon fill="#181818" points="4279.37,197.2,4269.9236,194.4134,4274.4131,197.855,4270.9715,202.3445,4279.37,197.2" style="stroke:#181818;stroke-width:1;"/><text fill="#000000" font-family="sans-serif" font-size="13" lengthAdjust="spacing" textLength="76.9082" x="4031.5" y="241.5669">implements</text></g><!--reverse link logic_arc_int__baselibs__bit_manipulation to comp_arc_sta__baselibs__bit_manipulation--><g id="link_logic_arc_int__baselibs__bit_manipulation_comp_arc_sta__baselibs__bit_manipulation"><path codeLine="42" d="M1475.8508,201.1952 C1431.0908,222.4652 1364.62,254.05 1319.83,275.34 " fill="transparent" id="logic_arc_int__baselibs__bit_manipulation-backto-comp_arc_sta__baselibs__bit_manipulation" style="stroke:#181818;stroke-width:1;"/><polygon fill="#181818" points="1481.27,198.62,1471.4243,198.87,1476.754,200.766,1474.858,206.0957,1481.27,198.62" style="stroke:#181818;stroke-width:1;"/><text fill="#000000" font-family="sans-serif" font-size="13" lengthAdjust="spacing" textLength="76.9082" x="1416.5" y="241.5669">implements</text></g><!--link Feature_User to logic_arc_int__baselibs__memory_shared--><g id="link_Feature_User_logic_arc_int__baselibs__memory_shared"><path codeLine="43" d="M3149.65,45.93 C3332.64,51.87 4036.94,75.87 4615.5,111.5 C4880.71,127.83 4946.94,133.79 5211.5,158.5 C5217.01,159.01 5216.6381,158.9697 5222.2981,159.5197 " fill="transparent" id="Feature_User-to-logic_arc_int__baselibs__memory_shared" style="stroke:#181818;stroke-width:1;"/><polygon fill="#181818" points="5228.27,160.1,5219.6991,155.2483,5223.2934,159.6164,5218.9253,163.2108,5228.27,160.1" style="stroke:#181818;stroke-width:1;"/><text fill="#000000" font-family="sans-serif" font-size="13" lengthAdjust="spacing" textLength="23.0103" x="4864.5" y="124.5669">use</text></g><!--reverse link logic_arc_int__baselibs__dynamic_array to comp_arc_sta__baselibs__containers--><g id="link_logic_arc_int__baselibs__dynamic_array_comp_arc_sta__baselibs__containers"><path codeLine="44" d="M451.6918,201.7979 C415.5918,223.0879 362.94,254.14 326.92,275.38 " fill="transparent" id="logic_arc_int__baselibs__dynamic_array-backto-comp_arc_sta__baselibs__containers" style="stroke:#181818;stroke-width:1;"/><polygon fill="#181818" points="456.86,198.75,447.0758,199.8765,452.5532,201.2899,451.1397,206.7674,456.86,198.75" style="stroke:#181818;stroke-width:1;"/><text fill="#000000" font-family="sans-serif" font-size="13" lengthAdjust="spacing" textLength="76.9082" x="405.5" y="241.5669">implements</text></g><!--reverse link logic_arc_int__baselibs__filesystem to comp_arc_sta__baselibs__filesystem--><g id="link_logic_arc_int__baselibs__filesystem_comp_arc_sta__baselibs__filesystem"><path codeLine="45" d="M816.5,204.75 C816.5,225.98 816.5,253.94 816.5,275.19 " fill="transparent" id="logic_arc_int__baselibs__filesystem-backto-comp_arc_sta__baselibs__filesystem" style="stroke:#181818;stroke-width:1;"/><polygon fill="#181818" points="816.5,198.75,812.5,207.75,816.5,203.75,820.5,207.75,816.5,198.75" style="stroke:#181818;stroke-width:1;"/><text fill="#000000" font-family="sans-serif" font-size="13" lengthAdjust="spacing" textLength="76.9082" x="817.5" y="241.5669">implements</text></g><!--link Feature_User to logic_arc_int__baselibs__utils_scoped_op--><g id="link_Feature_User_logic_arc_int__baselibs__utils_scoped_op"><path codeLine="46" d="M3059.3,49.38 C2913.3,65.15 2441.17,116.17 2050.5,158.5 C2044.88,159.11 2045.1247,159.0799 2039.3447,159.7099 " fill="transparent" id="Feature_User-to-logic_arc_int__baselibs__utils_scoped_op" style="stroke:#181818;stroke-width:1;"/><polygon fill="#181818" points="2033.38,160.36,2042.7604,163.3613,2038.3506,159.8182,2041.8936,155.4084,2033.38,160.36" style="stroke:#181818;stroke-width:1;"/><text fill="#000000" font-family="sans-serif" font-size="13" lengthAdjust="spacing" textLength="23.0103" x="2457.5" y="124.5669">use</text></g><!--link Feature_User to logic_arc_int__baselibs__result--><g id="link_Feature_User_logic_arc_int__baselibs__result"><path codeLine="47" d="M3149.81,46.03 C3355.64,53.24 4223.26,86.58 4931.5,158.5 C4937.36,159.09 4937.3888,159.069 4943.4288,159.759 " fill="transparent" id="Feature_User-to-logic_arc_int__baselibs__result" style="stroke:#181818;stroke-width:1;"/><polygon fill="#181818" points="4949.39,160.44,4940.9022,155.4443,4944.4223,159.8725,4939.9942,163.3927,4949.39,160.44" style="stroke:#181818;stroke-width:1;"/><text fill="#000000" font-family="sans-serif" font-size="13" lengthAdjust="spacing" textLength="23.0103" x="4583.5" y="124.5669">use</text></g><!--reverse link logic_arc_int__baselibs__shared_future to comp_arc_sta__baselibs__concurrency--><g id="link_logic_arc_int__baselibs__shared_future_comp_arc_sta__baselibs__concurrency"><path codeLine="48" d="M3670.4387,201.6524 C3631.9187,222.9424 3575.5,254.14 3537.08,275.38 " fill="transparent" id="logic_arc_int__baselibs__shared_future-backto-comp_arc_sta__baselibs__concurrency" style="stroke:#181818;stroke-width:1;"/><polygon fill="#181818" points="3675.69,198.75,3665.8781,199.6027,3671.3139,201.1687,3669.748,206.6045,3675.69,198.75" style="stroke:#181818;stroke-width:1;"/><text fill="#000000" font-family="sans-serif" font-size="13" lengthAdjust="spacing" textLength="76.9082" x="3619.5" y="241.5669">implements</text></g><!--reverse link logic_arc_int__baselibs__intrusive_list to comp_arc_sta__baselibs__containers--><g id="link_logic_arc_int__baselibs__intrusive_list_comp_arc_sta__baselibs__containers"><path codeLine="49" d="M181.7496,202.5422 C207.7796,223.7722 244.76,253.94 270.82,275.19 " fill="transparent" id="logic_arc_int__baselibs__intrusive_list-backto-comp_arc_sta__baselibs__containers" style="stroke:#181818;stroke-width:1;"/><polygon fill="#181818" points="177.1,198.75,181.5463,207.5381,180.9747,201.9102,186.6026,201.3386,177.1,198.75" style="stroke:#181818;stroke-width:1;"/><text fill="#000000" font-family="sans-serif" font-size="13" lengthAdjust="spacing" textLength="76.9082" x="233.5" y="241.5669">implements</text></g><!--link Feature_User to logic_arc_int__baselibs__bit_manipulation--><g id="link_Feature_User_logic_arc_int__baselibs__bit_manipulation"><path codeLine="50" d="M3059.31,47.76 C2884.34,60.47 2234.65,108.47 1700.5,158.5 C1694.74,159.04 1694.8513,159.014 1688.9413,159.594 " fill="transparent" id="Feature_User-to-logic_arc_int__baselibs__bit_manipulation" style="stroke:#181818;stroke-width:1;"/><polygon fill="#181818" points="1682.97,160.18,1692.3176,163.2818,1687.9461,159.6917,1691.5363,155.3201,1682.97,160.18" style="stroke:#181818;stroke-width:1;"/><text fill="#000000" font-family="sans-serif" font-size="13" lengthAdjust="spacing" textLength="23.0103" x="2203.5" y="124.5669">use</text></g><!--reverse link logic_arc_int__baselibs__promise to comp_arc_sta__baselibs__concurrency--><g id="link_logic_arc_int__baselibs__promise_comp_arc_sta__baselibs__concurrency"><path codeLine="51" d="M3415.8673,203.105 C3435.9873,224.335 3464.05,253.94 3484.2,275.19 " fill="transparent" id="logic_arc_int__baselibs__promise-backto-comp_arc_sta__baselibs__concurrency" style="stroke:#181818;stroke-width:1;"/><polygon fill="#181818" points="3411.74,198.75,3415.0276,208.034,3415.1794,202.3791,3420.8342,202.5309,3411.74,198.75" style="stroke:#181818;stroke-width:1;"/><text fill="#000000" font-family="sans-serif" font-size="13" lengthAdjust="spacing" textLength="76.9082" x="3455.5" y="241.5669">implements</text></g><!--link Feature_User to logic_arc_int__baselibs__synchronized_queue--><g id="link_Feature_User_logic_arc_int__baselibs__synchronized_queue"><path codeLine="52" d="M3149.8,50.74 C3288.46,69.83 3705.2061,127.2016 3926.3661,157.6516 " fill="transparent" id="Feature_User-to-logic_arc_int__baselibs__synchronized_queue" style="stroke:#181818;stroke-width:1;"/><polygon fill="#181818" points="3932.31,158.47,3923.9397,153.2798,3927.3567,157.788,3922.8485,161.205,3932.31,158.47" style="stroke:#181818;stroke-width:1;"/><text fill="#000000" font-family="sans-serif" font-size="13" lengthAdjust="spacing" textLength="23.0103" x="3702.5" y="124.5669">use</text></g><!--SRC=[jLPBRzim3BxhLmYzfnk6OOUYw6N0JZkkPq6MsOIh7gv8TVM6_VV9Tf2uQJRPZdUapST7yYD5RMtueHo-eDyA3eta8Al079oiCO9X35xii0P93142jmqCChY6MwcP8rQ9WSGjSMlXJbnhGbl9N-8hUlWSR8WoGjrBttPe7ZqGoG_NxyLlSVjkRoEquQntzGKqfmZodY1UIKro_q5r7wGGhyHDlRcJDcpHA1sDGizALPh0OaLAVQVWRsGYaC84r_Ggn7giOe8tAKRmffMRz2zdhEdnHg9hB3ZmJ7_tsOKjE1kGZPtDIAk9mI71FhCPXWzeWThSHLUeYilzqLjGZIRAh2WaSwAzEA-XmdEJoc9CXC-WB1BFjw-GbSkHLMWWwap1rHX3hJUx63p-X5ez9KWmZJyEN8YjeftEGrEi_KXtcli8b2mN_0vA5xNou6EbSZwaBlfYIF029fNRcnWj5P3qEhtywUDYFA-ThBYaBkrTZbPZj_JLiuweAmkhmJldUWfbXndrs2IhE_D2c3CZlR0MTUkrwtz5tQx6738PM9tHBSOrpFjX96O_10ljtcpwbNXndCt_neQZ-kAYd-pQKkwiyxaJIumuOTYK_8_FU6bZZjxxYxRKYB1pARFo8t12_2dbcjoAqqjYOSdUycsbt0zttzAbSUOUwQ7z0G00]--></g></svg>