<svg xmlns="http://www.w3.org/2000/svg" xmlns:xlink="http://www.w3.org/1999/xlink" contentStyleType="text/css" data-diagram-type="CLASS" height="322px" preserveAspectRatio="none" style="width:966px;height:322px;background:#FFFFFF;" version="1.1" viewBox="0 0 966 322" width="966px" zoomAndPan="magnify"><defs/><g><!--entity Feature_User--><g id="elem_Feature_User"><ellipse cx="464.6685" cy="14" fill="#F1F1F1" rx="8" ry="8" style="stroke:#181818;stroke-width:0.5;"/><path d="M464.6685,22 L464.6685,49 M451.6685,30 L477.6685,30 M464.6685,49 L451.6685,64 M464.6685,49 L477.6685,64 " fill="transparent" style="stroke:#181818;stroke-width:0.5;"/><text fill="#000000" font-family="sans-serif" font-size="14" lengthAdjust="spacing" textLength="90.3369" x="419.5" y="78.4951">Feature User</text></g><!--class comp_arc_sta__orch__orchestrator--><g id="elem_comp_arc_sta__orch__orchestrator"><rect fill="#F1F1F1" height="40" id="comp_arc_sta__orch__orchestrator" rx="2.5" ry="2.5" style="stroke:#181818;stroke-width:0.5;" width="273.5068" x="327.5" y="275.5"/><ellipse cx="342.5" cy="291.5" fill="#ADD1B2" rx="11" ry="11" style="stroke:#181818;stroke-width:1;"/><path d="M345.4688,297.1406 Q344.8906,297.4375 344.25,297.5781 Q343.6094,297.7344 342.9063,297.7344 Q340.4063,297.7344 339.0781,296.0938 Q337.7656,294.4375 337.7656,291.3125 Q337.7656,288.1875 339.0781,286.5313 Q340.4063,284.875 342.9063,284.875 Q343.6094,284.875 344.25,285.0313 Q344.9063,285.1875 345.4688,285.4844 L345.4688,288.2031 Q344.8438,287.625 344.25,287.3594 Q343.6563,287.0781 343.0313,287.0781 Q341.6875,287.0781 341,288.1563 Q340.3125,289.2188 340.3125,291.3125 Q340.3125,293.4063 341,294.4844 Q341.6875,295.5469 343.0313,295.5469 Q343.6563,295.5469 344.25,295.2813 Q344.8438,295 345.4688,294.4219 L345.4688,297.1406 Z " fill="#000000"/><text fill="#000000" font-family="sans-serif" font-size="14" lengthAdjust="spacing" textLength="241.5068" x="356.5" y="296.3467">comp_arc_sta__orch__orchestrator</text><line style="stroke:#181818;stroke-width:0.5;" x1="328.5" x2="600.0068" y1="307.5" y2="307.5"/></g><!--class logic_arc_int__orchestration__deployment--><g id="elem_logic_arc_int__orchestration__deployment"><rect fill="#F1F1F1" height="40" id="logic_arc_int__orchestration__deployment" rx="2.5" ry="2.5" style="stroke:#181818;stroke-width:0.5;" width="324.3936" x="635.5" y="158.5"/><ellipse cx="650.5" cy="174.5" fill="#ADD1B2" rx="11" ry="11" style="stroke:#181818;stroke-width:1;"/><path d="M653.4688,180.1406 Q652.8906,180.4375 652.25,180.5781 Q651.6094,180.7344 650.9063,180.7344 Q648.4063,180.7344 647.0781,179.0938 Q645.7656,177.4375 645.7656,174.3125 Q645.7656,171.1875 647.0781,169.5313 Q648.4063,167.875 650.9063,167.875 Q651.6094,167.875 652.25,168.0313 Q652.9063,168.1875 653.4688,168.4844 L653.4688,171.2031 Q652.8438,170.625 652.25,170.3594 Q651.6563,170.0781 651.0313,170.0781 Q649.6875,170.0781 649,171.1563 Q648.3125,172.2188 648.3125,174.3125 Q648.3125,176.4063 649,177.4844 Q649.6875,178.5469 651.0313,178.5469 Q651.6563,178.5469 652.25,178.2813 Q652.8438,178 653.4688,177.4219 L653.4688,180.1406 Z " fill="#000000"/><text fill="#000000" font-family="sans-serif" font-size="14" lengthAdjust="spacing" textLength="292.3936" x="664.5" y="179.3467">logic_arc_int__orchestration__deployment</text><line style="stroke:#181818;stroke-width:0.5;" x1="636.5" x2="958.8936" y1="190.5" y2="190.5"/></g><!--class logic_arc_int__orchestration__design--><g id="elem_logic_arc_int__orchestration__design"><rect fill="#F1F1F1" height="40" id="logic_arc_int__orchestration__design" rx="2.5" ry="2.5" style="stroke:#181818;stroke-width:0.5;" width="287.0967" x="7" y="158.5"/><ellipse cx="22" cy="174.5" fill="#ADD1B2" rx="11" ry="11" style="stroke:#181818;stroke-width:1;"/><path d="M24.9688,180.1406 Q24.3906,180.4375 23.75,180.5781 Q23.1094,180.7344 22.4063,180.7344 Q19.9063,180.7344 18.5781,179.0938 Q17.2656,177.4375 17.2656,174.3125 Q17.2656,171.1875 18.5781,169.5313 Q19.9063,167.875 22.4063,167.875 Q23.1094,167.875 23.75,168.0313 Q24.4063,168.1875 24.9688,168.4844 L24.9688,171.2031 Q24.3438,170.625 23.75,170.3594 Q23.1563,170.0781 22.5313,170.0781 Q21.1875,170.0781 20.5,171.1563 Q19.8125,172.2188 19.8125,174.3125 Q19.8125,176.4063 20.5,177.4844 Q21.1875,178.5469 22.5313,178.5469 Q23.1563,178.5469 23.75,178.2813 Q24.3438,178 24.9688,177.4219 L24.9688,180.1406 Z " fill="#000000"/><text fill="#000000" font-family="sans-serif" font-size="14" lengthAdjust="spacing" textLength="255.0967" x="36" y="179.3467">logic_arc_int__orchestration__design</text><line style="stroke:#181818;stroke-width:0.5;" x1="8" x2="293.0967" y1="190.5" y2="190.5"/></g><!--class logic_arc_int__orchestration__user--><g id="elem_logic_arc_int__orchestration__user"><rect fill="#F1F1F1" height="40" id="logic_arc_int__orchestration__user" rx="2.5" ry="2.5" style="stroke:#181818;stroke-width:0.5;" width="271.1895" x="329" y="158.5"/><ellipse cx="344" cy="174.5" fill="#ADD1B2" rx="11" ry="11" style="stroke:#181818;stroke-width:1;"/><path d="M346.9688,180.1406 Q346.3906,180.4375 345.75,180.5781 Q345.1094,180.7344 344.4063,180.7344 Q341.9063,180.7344 340.5781,179.0938 Q339.2656,177.4375 339.2656,174.3125 Q339.2656,171.1875 340.5781,169.5313 Q341.9063,167.875 344.4063,167.875 Q345.1094,167.875 345.75,168.0313 Q346.4063,168.1875 346.9688,168.4844 L346.9688,171.2031 Q346.3438,170.625 345.75,170.3594 Q345.1563,170.0781 344.5313,170.0781 Q343.1875,170.0781 342.5,171.1563 Q341.8125,172.2188 341.8125,174.3125 Q341.8125,176.4063 342.5,177.4844 Q343.1875,178.5469 344.5313,178.5469 Q345.1563,178.5469 345.75,178.2813 Q346.3438,178 346.9688,177.4219 L346.9688,180.1406 Z " fill="#000000"/><text fill="#000000" font-family="sans-serif" font-size="14" lengthAdjust="spacing" textLength="239.1895" x="358" y="179.3467">logic_arc_int__orchestration__user</text><line style="stroke:#181818;stroke-width:0.5;" x1="330" x2="599.1895" y1="190.5" y2="190.5"/></g><!--reverse link logic_arc_int__orchestration__deployment to comp_arc_sta__orch__orchestrator--><g id="link_logic_arc_int__orchestration__deployment_comp_arc_sta__orch__orchestrator"><path codeLine="15" d="M736.4686,200.5785 C674.7886,221.8785 581.34,254.15 519.72,275.43 " fill="transparent" id="logic_arc_int__orchestration__deployment-backto-comp_arc_sta__orch__orchestrator" style="stroke:#181818;stroke-width:1;"/><polygon fill="#181818" points="742.14,198.62,732.3273,197.7768,737.4139,200.2521,734.9386,205.3386,742.14,198.62" style="stroke:#181818;stroke-width:1;"/><text fill="#000000" font-family="sans-serif" font-size="13" lengthAdjust="spacing" textLength="76.9082" x="652.5" y="241.5669">implements</text></g><!--link Feature_User to logic_arc_int__orchestration__design--><g id="link_Feature_User_logic_arc_int__orchestration__design"><path codeLine="16" d="M419.18,63.7 C359.48,88.98 260.6449,130.85 201.0749,156.08 " fill="transparent" id="Feature_User-to-logic_arc_int__orchestration__design" style="stroke:#181818;stroke-width:1;"/><polygon fill="#181818" points="195.55,158.42,205.3973,158.5933,200.1541,156.47,202.2773,151.2268,195.55,158.42" style="stroke:#181818;stroke-width:1;"/><text fill="#000000" font-family="sans-serif" font-size="13" lengthAdjust="spacing" textLength="23.0103" x="299.5" y="124.5669">use</text></g><!--reverse link logic_arc_int__orchestration__user to comp_arc_sta__orch__orchestrator--><g id="link_logic_arc_int__orchestration__user_comp_arc_sta__orch__orchestrator"><path codeLine="17" d="M464.5,204.75 C464.5,225.98 464.5,253.94 464.5,275.19 " fill="transparent" id="logic_arc_int__orchestration__user-backto-comp_arc_sta__orch__orchestrator" style="stroke:#181818;stroke-width:1;"/><polygon fill="#181818" points="464.5,198.75,460.5,207.75,464.5,203.75,468.5,207.75,464.5,198.75" style="stroke:#181818;stroke-width:1;"/><text fill="#000000" font-family="sans-serif" font-size="13" lengthAdjust="spacing" textLength="76.9082" x="465.5" y="241.5669">implements</text></g><!--link Feature_User to logic_arc_int__orchestration__deployment--><g id="link_Feature_User_logic_arc_int__orchestration__deployment"><path codeLine="18" d="M509.76,62.58 C572.62,87.68 680.2682,130.6741 744.3482,156.2741 " fill="transparent" id="Feature_User-to-logic_arc_int__orchestration__deployment" style="stroke:#181818;stroke-width:1;"/><polygon fill="#181818" points="749.92,158.5,743.0462,151.4465,745.2768,156.645,740.0783,158.8756,749.92,158.5" style="stroke:#181818;stroke-width:1;"/><text fill="#000000" font-family="sans-serif" font-size="13" lengthAdjust="spacing" textLength="23.0103" x="672.5" y="124.5669">use</text></g><!--link Feature_User to logic_arc_int__orchestration__user--><g id="link_Feature_User_logic_arc_int__orchestration__user"><path codeLine="19" d="M464.5,81.55 C464.5,106.45 464.5,132.26 464.5,152.26 " fill="transparent" id="Feature_User-to-logic_arc_int__orchestration__user" style="stroke:#181818;stroke-width:1;"/><polygon fill="#181818" points="464.5,158.26,468.5,149.26,464.5,153.26,460.5,149.26,464.5,158.26" style="stroke:#181818;stroke-width:1;"/><text fill="#000000" font-family="sans-serif" font-size="13" lengthAdjust="spacing" textLength="23.0103" x="465.5" y="124.5669">use</text></g><!--reverse link logic_arc_int__orchestration__design to comp_arc_sta__orch__orchestrator--><g id="link_logic_arc_int__orchestration__design_comp_arc_sta__orch__orchestrator"><path codeLine="20" d="M208.3341,200.6834 C266.4941,221.9834 354.33,254.15 412.43,275.43 " fill="transparent" id="logic_arc_int__orchestration__design-backto-comp_arc_sta__orch__orchestrator" style="stroke:#181818;stroke-width:1;"/><polygon fill="#181818" points="202.7,198.62,209.7755,205.4711,207.395,200.3395,212.5267,197.959,202.7,198.62" style="stroke:#181818;stroke-width:1;"/><text fill="#000000" font-family="sans-serif" font-size="13" lengthAdjust="spacing" textLength="76.9082" x="327.5" y="241.5669">implements</text></g><!--SRC=[hL0zImH13EtdLuJhznJBuxX6iBBKUfYT3Rl1cScGPD55_E_knubdftXDI1ulB-ybfCIlFjCRbTuPLp26biquGqU2qOYB6wX3K4D1jgdYDcEkDa4m4sf7GtL7jIdXoUs3KchXtJrImNjEB23OhTFJGF6be2hSxM_TXplUd7TSY3RpTWyOR1I4PqNPGL0u0tu1mBd8kVeWqQi5xrdYi5LKax0eD6DpWiGznPL6nIu9SnZlEwo9fup53a2v9bnQ1VVZLDFzGaUfBmSO5U4gncOX-Q-bxsYhhRyAR1QkbkZhHPUPFW40]--></g></svg>