<svg xmlns="http://www.w3.org/2000/svg" xmlns:xlink="http://www.w3.org/1999/xlink" contentStyleType="text/css" data-diagram-type="CLASS" height="322px" preserveAspectRatio="none" style="width:6198px;height:322px;background:#FFFFFF;" version="1.1" viewBox="0 0 6198 322" width="6198px" zoomAndPan="magnify"><defs/><g><!--entity Feature_User--><g id="elem_Feature_User"><ellipse cx="3083.6685" cy="14" fill="#F1F1F1" rx="8" ry="8" style="stroke:#181818;stroke-width:0.5;"/><path d="M3083.6685,22 L3083.6685,49 M3070.6685,30 L3096.6685,30 M3083.6685,49 L3070.6685,64 M3083.6685,49 L3096.6685,64 " fill="transparent" style="stroke:#181818;stroke-width:0.5;"/><text fill="#000000" font-family="sans-serif" font-size="14" lengthAdjust="spacing" textLength="90.3369" x="3038.5" y="78.4951">Feature User</text></g><!--class comp_arc_sta__baselibs__containers--><g id="elem_comp_arc_sta__baselibs__containers"><rect fill="#F1F1F1" height="40" id="comp_arc_sta__baselibs__containers" rx="2.5" ry="2.5" style="stroke:#181818;stroke-width:0.5;" width="287.1445" x="4042" y="275.5"/><ellipse cx="4057" cy="291.5" fill="#ADD1B2" rx="11" ry="11" style="stroke:#181818;stroke-width:1;"/><path d="M4059.9688,297.1406 Q4059.3906,297.4375 4058.75,297.5781 Q4058.1094,297.7344 4057.4063,297.7344 Q4054.9063,297.7344 4053.5781,296.0938 Q4052.2656,294.4375 4052.2656,291.3125 Q4052.2656,288.1875 4053.5781,286.5313 Q4054.9063,284.875 4057.4063,284.875 Q4058.1094,284.875 4058.75,285.0313 Q4059.4063,285.1875 4059.9688,285.4844 L4059.9688,288.2031 Q4059.3438,287.625 4058.75,287.3594 Q4058.1563,287.0781 4057.5313,287.0781 Q4056.1875,287.0781 4055.5,288.1563 Q4054.8125,289.2188 4054.8125,291.3125 Q4054.8125,293.4063 4055.5,294.4844 Q4056.1875,295.5469 4057.5313,295.5469 Q4058.1563,295.5469 4058.75,295.2813 Q4059.3438,295 4059.9688,294.4219 L4059.9688,297.1406 Z " fill="#000000"/><text fill="#000000" font-family="sans-serif" font-size="14" lengthAdjust="spacing" textLength="255.1445" x="4071" y="296.3467">comp_arc_sta__baselibs__containers</text><line style="stroke:#181818;stroke-width:0.5;" x1="4043" x2="4328.1445" y1="307.5" y2="307.5"/></g><!--class logic_arc_int__baselibs__dynamic_array--><g id="elem_logic_arc_int__baselibs__dynamic_array"><rect fill="#F1F1F1" height="40" id="logic_arc_int__baselibs__dynamic_array" rx="2.5" ry="2.5" style="stroke:#181818;stroke-width:0.5;" width="308.3496" x="4198.5" y="158.5"/><ellipse cx="4213.5" cy="174.5" fill="#ADD1B2" rx="11" ry="11" style="stroke:#181818;stroke-width:1;"/><path d="M4216.4688,180.1406 Q4215.8906,180.4375 4215.25,180.5781 Q4214.6094,180.7344 4213.9063,180.7344 Q4211.4063,180.7344 4210.0781,179.0938 Q4208.7656,177.4375 4208.7656,174.3125 Q4208.7656,171.1875 4210.0781,169.5313 Q4211.4063,167.875 4213.9063,167.875 Q4214.6094,167.875 4215.25,168.0313 Q4215.9063,168.1875 4216.4688,168.4844 L4216.4688,171.2031 Q4215.8438,170.625 4215.25,170.3594 Q4214.6563,170.0781 4214.0313,170.0781 Q4212.6875,170.0781 4212,171.1563 Q4211.3125,172.2188 4211.3125,174.3125 Q4211.3125,176.4063 4212,177.4844 Q4212.6875,178.5469 4214.0313,178.5469 Q4214.6563,178.5469 4215.25,178.2813 Q4215.8438,178 4216.4688,177.4219 L4216.4688,180.1406 Z " fill="#000000"/><text fill="#000000" font-family="sans-serif" font-size="14" lengthAdjust="spacing" textLength="276.3496" x="4227.5" y="179.3467">logic_arc_int__baselibs__dynamic_array</text><line style="stroke:#181818;stroke-width:0.5;" x1="4199.5" x2="4505.8496" y1="190.5" y2="190.5"/></g><!--class comp_arc_sta__baselibs__bit_manipulation--><g id="elem_comp_arc_sta__baselibs__bit_manipulation"><rect fill="#F1F1F1" height="40" id="comp_arc_sta__baselibs__bit_manipulation" rx="2.5" ry="2.5" style="stroke:#181818;stroke-width:0.5;" width="330.8057" x="5684" y="275.5"/><ellipse cx="5699" cy="291.5" fill="#ADD1B2" rx="11" ry="11" style="stroke:#181818;stroke-width:1;"/><path d="M5701.9688,297.1406 Q5701.3906,297.4375 5700.75,297.5781 Q5700.1094,297.7344 5699.4063,297.7344 Q5696.9063,297.7344 5695.5781,296.0938 Q5694.2656,294.4375 5694.2656,291.3125 Q5694.2656,288.1875 5695.5781,286.5313 Q5696.9063,284.875 5699.4063,284.875 Q5700.1094,284.875 5700.75,285.0313 Q5701.4063,285.1875 5701.9688,285.4844 L5701.9688,288.2031 Q5701.3438,287.625 5700.75,287.3594 Q5700.1563,287.0781 5699.5313,287.0781 Q5698.1875,287.0781 5697.5,288.1563 Q5696.8125,289.2188 5696.8125,291.3125 Q5696.8125,293.4063 5697.5,294.4844 Q5698.1875,295.5469 5699.5313,295.5469 Q5700.1563,295.5469 5700.75,295.2813 Q5701.3438,295 5701.9688,294.4219 L5701.9688,297.1406 Z " fill="#000000"/><text fill="#000000" font-family="sans-serif" font-size="14" lengthAdjust="spacing" textLength="298.8057" x="5713" y="296.3467">comp_arc_sta__baselibs__bit_manipulation</text><line style="stroke:#181818;stroke-width:0.5;" x1="5685" x2="6013.8057" y1="307.5" y2="307.5"/></g><!--class logic_arc_int__baselibs__bit_mask_operator--><g id="elem_logic_arc_int__baselibs__bit_mask_operator"><rect fill="#F1F1F1" height="40" id="logic_arc_int__baselibs__bit_mask_operator" rx="2.5" ry="2.5" style="stroke:#181818;stroke-width:0.5;" width="334.6406" x="5499" y="158.5"/><ellipse cx="5514" cy="174.5" fill="#ADD1B2" rx="11" ry="11" style="stroke:#181818;stroke-width:1;"/><path d="M5516.9688,180.1406 Q5516.3906,180.4375 5515.75,180.5781 Q5515.1094,180.7344 5514.4063,180.7344 Q5511.9063,180.7344 5510.5781,179.0938 Q5509.2656,177.4375 5509.2656,174.3125 Q5509.2656,171.1875 5510.5781,169.5313 Q5511.9063,167.875 5514.4063,167.875 Q5515.1094,167.875 5515.75,168.0313 Q5516.4063,168.1875 5516.9688,168.4844 L5516.9688,171.2031 Q5516.3438,170.625 5515.75,170.3594 Q5515.1563,170.0781 5514.5313,170.0781 Q5513.1875,170.0781 5512.5,171.1563 Q5511.8125,172.2188 5511.8125,174.3125 Q5511.8125,176.4063 5512.5,177.4844 Q5513.1875,178.5469 5514.5313,178.5469 Q5515.1563,178.5469 5515.75,178.2813 Q5516.3438,178 5516.9688,177.4219 L5516.9688,180.1406 Z " fill="#000000"/><text fill="#000000" font-family="sans-serif" font-size="14" lengthAdjust="spacing" textLength="302.6406" x="5528" y="179.3467">logic_arc_int__baselibs__bit_mask_operator</text><line style="stroke:#181818;stroke-width:0.5;" x1="5500" x2="5832.6406" y1="190.5" y2="190.5"/></g><!--class comp_arc_sta__baselibs__result--><g id="elem_comp_arc_sta__baselibs__result"><rect fill="#F1F1F1" height="40" id="comp_arc_sta__baselibs__result" rx="2.5" ry="2.5" style="stroke:#181818;stroke-width:0.5;" width="253.4297" x="5215" y="275.5"/><ellipse cx="5230" cy="291.5" fill="#ADD1B2" rx="11" ry="11" style="stroke:#181818;stroke-width:1;"/><path d="M5232.9688,297.1406 Q5232.3906,297.4375 5231.75,297.5781 Q5231.1094,297.7344 5230.4063,297.7344 Q5227.9063,297.7344 5226.5781,296.0938 Q5225.2656,294.4375 5225.2656,291.3125 Q5225.2656,288.1875 5226.5781,286.5313 Q5227.9063,284.875 5230.4063,284.875 Q5231.1094,284.875 5231.75,285.0313 Q5232.4063,285.1875 5232.9688,285.4844 L5232.9688,288.2031 Q5232.3438,287.625 5231.75,287.3594 Q5231.1563,287.0781 5230.5313,287.0781 Q5229.1875,287.0781 5228.5,288.1563 Q5227.8125,289.2188 5227.8125,291.3125 Q5227.8125,293.4063 5228.5,294.4844 Q5229.1875,295.5469 5230.5313,295.5469 Q5231.1563,295.5469 5231.75,295.2813 Q5232.3438,295 5232.9688,294.4219 L5232.9688,297.1406 Z " fill="#000000"/><text fill="#000000" font-family="sans-serif" font-size="14" lengthAdjust="spacing" textLength="221.4297" x="5244" y="296.3467">comp_arc_sta__baselibs__result</text><line style="stroke:#181818;stroke-width:0.5;" x1="5216" x2="5467.4297" y1="307.5" y2="307.5"/></g><!--class logic_arc_int__baselibs__result--><g id="elem_logic_arc_int__baselibs__result"><rect fill="#F1F1F1" height="40" id="logic_arc_int__baselibs__result" rx="2.5" ry="2.5" style="stroke:#181818;stroke-width:0.5;" width="244.4609" x="5219.5" y="158.5"/><ellipse cx="5234.5" cy="174.5" fill="#ADD1B2" rx="11" ry="11" style="stroke:#181818;stroke-width:1;"/><path d="M5237.4688,180.1406 Q5236.8906,180.4375 5236.25,180.5781 Q5235.6094,180.7344 5234.9063,180.7344 Q5232.4063,180.7344 5231.0781,179.0938 Q5229.7656,177.4375 5229.7656,174.3125 Q5229.7656,171.1875 5231.0781,169.5313 Q5232.4063,167.875 5234.9063,167.875 Q5235.6094,167.875 5236.25,168.0313 Q5236.9063,168.1875 5237.4688,168.4844 L5237.4688,171.2031 Q5236.8438,170.625 5236.25,170.3594 Q5235.6563,170.0781 5235.0313,170.0781 Q5233.6875,170.0781 5233,171.1563 Q5232.3125,172.2188 5232.3125,174.3125 Q5232.3125,176.4063 5233,177.4844 Q5233.6875,178.5469 5235.0313,178.5469 Q5235.6563,178.5469 5236.25,178.2813 Q5236.8438,178 5237.4688,177.4219 L5237.4688,180.1406 Z " fill="#000000"/><text fill="#000000" font-family="sans-serif" font-size="14" lengthAdjust="spacing" textLength="212.4609" x="5248.5" y="179.3467">logic_arc_int__baselibs__result</text><line style="stroke:#181818;stroke-width:0.5;" x1="5220.5" x2="5462.9609" y1="190.5" y2="190.5"/></g><!--class logic_arc_int__baselibs__intrusive_list--><g id="elem_logic_arc_int__baselibs__intrusive_list"><rect fill="#F1F1F1" height="40" id="logic_arc_int__baselibs__intrusive_list" rx="2.5" ry="2.5" style="stroke:#181818;stroke-width:0.5;" width="293.0713" x="3870" y="158.5"/><ellipse cx="3885" cy="174.5" fill="#ADD1B2" rx="11" ry="11" style="stroke:#181818;stroke-width:1;"/><path d="M3887.9688,180.1406 Q3887.3906,180.4375 3886.75,180.5781 Q3886.1094,180.7344 3885.4063,180.7344 Q3882.9063,180.7344 3881.5781,179.0938 Q3880.2656,177.4375 3880.2656,174.3125 Q3880.2656,171.1875 3881.5781,169.5313 Q3882.9063,167.875 3885.4063,167.875 Q3886.1094,167.875 3886.75,168.0313 Q3887.4063,168.1875 3887.9688,168.4844 L3887.9688,171.2031 Q3887.3438,170.625 3886.75,170.3594 Q3886.1563,170.0781 3885.5313,170.0781 Q3884.1875,170.0781 3883.5,171.1563 Q3882.8125,172.2188 3882.8125,174.3125 Q3882.8125,176.4063 3883.5,177.4844 Q3884.1875,178.5469 3885.5313,178.5469 Q3886.1563,178.5469 3886.75,178.2813 Q3887.3438,178 3887.9688,177.4219 L3887.9688,180.1406 Z " fill="#000000"/><text fill="#000000" font-family="sans-serif" font-size="14" lengthAdjust="spacing" textLength="261.0713" x="3899" y="179.3467">logic_arc_int__baselibs__intrusive_list</text><line style="stroke:#181818;stroke-width:0.5;" x1="3871" x2="4162.0713" y1="190.5" y2="190.5"/></g><!--class logic_arc_int__baselibs__future--><g id="elem_logic_arc_int__baselibs__future"><rect fill="#F1F1F1" height="40" id="logic_arc_int__baselibs__future" rx="2.5" ry="2.5" style="stroke:#181818;stroke-width:0.5;" width="247.0791" x="2960" y="158.5"/><ellipse cx="2975" cy="174.5" fill="#ADD1B2" rx="11" ry="11" style="stroke:#181818;stroke-width:1;"/><path d="M2977.9688,180.1406 Q2977.3906,180.4375 2976.75,180.5781 Q2976.1094,180.7344 2975.4063,180.7344 Q2972.9063,180.7344 2971.5781,179.0938 Q2970.2656,177.4375 2970.2656,174.3125 Q2970.2656,171.1875 2971.5781,169.5313 Q2972.9063,167.875 2975.4063,167.875 Q2976.1094,167.875 2976.75,168.0313 Q2977.4063,168.1875 2977.9688,168.4844 L2977.9688,171.2031 Q2977.3438,170.625 2976.75,170.3594 Q2976.1563,170.0781 2975.5313,170.0781 Q2974.1875,170.0781 2973.5,171.1563 Q2972.8125,172.2188 2972.8125,174.3125 Q2972.8125,176.4063 2973.5,177.4844 Q2974.1875,178.5469 2975.5313,178.5469 Q2976.1563,178.5469 2976.75,178.2813 Q2977.3438,178 2977.9688,177.4219 L2977.9688,180.1406 Z " fill="#000000"/><text fill="#000000" font-family="sans-serif" font-size="14" lengthAdjust="spacing" textLength="215.0791" x="2989" y="179.3467">logic_arc_int__baselibs__future</text><line style="stroke:#181818;stroke-width:0.5;" x1="2961" x2="3206.0791" y1="190.5" y2="190.5"/></g><!--class logic_arc_int__baselibs__bit_manipulation--><g id="elem_logic_arc_int__baselibs__bit_manipulation"><rect fill="#F1F1F1" height="40" id="logic_arc_int__baselibs__bit_manipulation" rx="2.5" ry="2.5" style="stroke:#181818;stroke-width:0.5;" width="321.8369" x="5869.5" y="158.5"/><ellipse cx="5884.5" cy="174.5" fill="#ADD1B2" rx="11" ry="11" style="stroke:#181818;stroke-width:1;"/><path d="M5887.4688,180.1406 Q5886.8906,180.4375 5886.25,180.5781 Q5885.6094,180.7344 5884.9063,180.7344 Q5882.4063,180.7344 5881.0781,179.0938 Q5879.7656,177.4375 5879.7656,174.3125 Q5879.7656,171.1875 5881.0781,169.5313 Q5882.4063,167.875 5884.9063,167.875 Q5885.6094,167.875 5886.25,168.0313 Q5886.9063,168.1875 5887.4688,168.4844 L5887.4688,171.2031 Q5886.8438,170.625 5886.25,170.3594 Q5885.6563,170.0781 5885.0313,170.0781 Q5883.6875,170.0781 5883,171.1563 Q5882.3125,172.2188 5882.3125,174.3125 Q5882.3125,176.4063 5883,177.4844 Q5883.6875,178.5469 5885.0313,178.5469 Q5885.6563,178.5469 5886.25,178.2813 Q5886.8438,178 5887.4688,177.4219 L5887.4688,180.1406 Z " fill="#000000"/><text fill="#000000" font-family="sans-serif" font-size="14" lengthAdjust="spacing" textLength="289.8369" x="5898.5" y="179.3467">logic_arc_int__baselibs__bit_manipulation</text><line style="stroke:#181818;stroke-width:0.5;" x1="5870.5" x2="6190.3369" y1="190.5" y2="190.5"/></g><!--class logic_arc_int__baselibs__promise--><g id="elem_logic_arc_int__baselibs__promise"><rect fill="#F1F1F1" height="40" id="logic_arc_int__baselibs__promise" rx="2.5" ry="2.5" style="stroke:#181818;stroke-width:0.5;" width="261.1885" x="2280" y="158.5"/><ellipse cx="2295" cy="174.5" fill="#ADD1B2" rx="11" ry="11" style="stroke:#181818;stroke-width:1;"/><path d="M2297.9688,180.1406 Q2297.3906,180.4375 2296.75,180.5781 Q2296.1094,180.7344 2295.4063,180.7344 Q2292.9063,180.7344 2291.5781,179.0938 Q2290.2656,177.4375 2290.2656,174.3125 Q2290.2656,171.1875 2291.5781,169.5313 Q2292.9063,167.875 2295.4063,167.875 Q2296.1094,167.875 2296.75,168.0313 Q2297.4063,168.1875 2297.9688,168.4844 L2297.9688,171.2031 Q2297.3438,170.625 2296.75,170.3594 Q2296.1563,170.0781 2295.5313,170.0781 Q2294.1875,170.0781 2293.5,171.1563 Q2292.8125,172.2188 2292.8125,174.3125 Q2292.8125,176.4063 2293.5,177.4844 Q2294.1875,178.5469 2295.5313,178.5469 Q2296.1563,178.5469 2296.75,178.2813 Q2297.3438,178 2297.9688,177.4219 L2297.9688,180.1406 Z " fill="#000000"/><text fill="#000000" font-family="sans-serif" font-size="14" lengthAdjust="spacing" textLength="229.1885" x="2309" y="179.3467">logic_arc_int__baselibs__promise</text><line style="stroke:#181818;stroke-width:0.5;" x1="2281" x2="2540.1885" y1="190.5" y2="190.5"/></g><!--class comp_arc_sta__baselibs__utils--><g id="elem_comp_arc_sta__baselibs__utils"><rect fill="#F1F1F1" height="40" id="comp_arc_sta__baselibs__utils" rx="2.5" ry="2.5" style="stroke:#181818;stroke-width:0.5;" width="242.9502" x="4693" y="275.5"/><ellipse cx="4708" cy="291.5" fill="#ADD1B2" rx="11" ry="11" style="stroke:#181818;stroke-width:1;"/><path d="M4710.9688,297.1406 Q4710.3906,297.4375 4709.75,297.5781 Q4709.1094,297.7344 4708.4063,297.7344 Q4705.9063,297.7344 4704.5781,296.0938 Q4703.2656,294.4375 4703.2656,291.3125 Q4703.2656,288.1875 4704.5781,286.5313 Q4705.9063,284.875 4708.4063,284.875 Q4709.1094,284.875 4709.75,285.0313 Q4710.4063,285.1875 4710.9688,285.4844 L4710.9688,288.2031 Q4710.3438,287.625 4709.75,287.3594 Q4709.1563,287.0781 4708.5313,287.0781 Q4707.1875,287.0781 4706.5,288.1563 Q4705.8125,289.2188 4705.8125,291.3125 Q4705.8125,293.4063 4706.5,294.4844 Q4707.1875,295.5469 4708.5313,295.5469 Q4709.1563,295.5469 4709.75,295.2813 Q4710.3438,295 4710.9688,294.4219 L4710.9688,297.1406 Z " fill="#000000"/><text fill="#000000" font-family="sans-serif" font-size="14" lengthAdjust="spacing" textLength="210.9502" x="4722" y="296.3467">comp_arc_sta__baselibs__utils</text><line style="stroke:#181818;stroke-width:0.5;" x1="4694" x2="4934.9502" y1="307.5" y2="307.5"/></g><!--class logic_arc_int__baselibs__utils_scoped_op--><g id="elem_logic_arc_int__baselibs__utils_scoped_op"><rect fill="#F1F1F1" height="40" id="logic_arc_int__baselibs__utils_scoped_op" rx="2.5" ry="2.5" style="stroke:#181818;stroke-width:0.5;" width="315.377" x="4542" y="158.5"/><ellipse cx="4557" cy="174.5" fill="#ADD1B2" rx="11" ry="11" style="stroke:#181818;stroke-width:1;"/><path d="M4559.9688,180.1406 Q4559.3906,180.4375 4558.75,180.5781 Q4558.1094,180.7344 4557.4063,180.7344 Q4554.9063,180.7344 4553.5781,179.0938 Q4552.2656,177.4375 4552.2656,174.3125 Q4552.2656,171.1875 4553.5781,169.5313 Q4554.9063,167.875 4557.4063,167.875 Q4558.1094,167.875 4558.75,168.0313 Q4559.4063,168.1875 4559.9688,168.4844 L4559.9688,171.2031 Q4559.3438,170.625 4558.75,170.3594 Q4558.1563,170.0781 4557.5313,170.0781 Q4556.1875,170.0781 4555.5,171.1563 Q4554.8125,172.2188 4554.8125,174.3125 Q4554.8125,176.4063 4555.5,177.4844 Q4556.1875,178.5469 4557.5313,178.5469 Q4558.1563,178.5469 4558.75,178.2813 Q4559.3438,178 4559.9688,177.4219 L4559.9688,180.1406 Z " fill="#000000"/><text fill="#000000" font-family="sans-serif" font-size="14" lengthAdjust="spacing" textLength="283.377" x="4571" y="179.3467">logic_arc_int__baselibs__utils_scoped_op</text><line style="stroke:#181818;stroke-width:0.5;" x1="4543" x2="4856.377" y1="190.5" y2="190.5"/></g><!--class logic_arc_int__baselibs__task--><g id="elem_logic_arc_int__baselibs__task"><rect fill="#F1F1F1" height="40" id="logic_arc_int__baselibs__task" rx="2.5" ry="2.5" style="stroke:#181818;stroke-width:0.5;" width="234.0156" x="1709.5" y="158.5"/><ellipse cx="1724.5" cy="174.5" fill="#ADD1B2" rx="11" ry="11" style="stroke:#181818;stroke-width:1;"/><path d="M1727.4688,180.1406 Q1726.8906,180.4375 1726.25,180.5781 Q1725.6094,180.7344 1724.9063,180.7344 Q1722.4063,180.7344 1721.0781,179.0938 Q1719.7656,177.4375 1719.7656,174.3125 Q1719.7656,171.1875 1721.0781,169.5313 Q1722.4063,167.875 1724.9063,167.875 Q1725.6094,167.875 1726.25,168.0313 Q1726.9063,168.1875 1727.4688,168.4844 L1727.4688,171.2031 Q1726.8438,170.625 1726.25,170.3594 Q1725.6563,170.0781 1725.0313,170.0781 Q1723.6875,170.0781 1723,171.1563 Q1722.3125,172.2188 1722.3125,174.3125 Q1722.3125,176.4063 1723,177.4844 Q1723.6875,178.5469 1725.0313,178.5469 Q1725.6563,178.5469 1726.25,178.2813 Q1726.8438,178 1727.4688,177.4219 L1727.4688,180.1406 Z " fill="#000000"/><text fill="#000000" font-family="sans-serif" font-size="14" lengthAdjust="spacing" textLength="202.0156" x="1738.5" y="179.3467">logic_arc_int__baselibs__task</text><line style="stroke:#181818;stroke-width:0.5;" x1="1710.5" x2="1942.5156" y1="190.5" y2="190.5"/></g><!--class logic_arc_int__baselibs__message_passing--><g id="elem_logic_arc_int__baselibs__message_passing"><rect fill="#F1F1F1" height="40" id="logic_arc_int__baselibs__message_passing" rx="2.5" ry="2.5" style="stroke:#181818;stroke-width:0.5;" width="328.167" x="16.5" y="158.5"/><ellipse cx="31.5" cy="174.5" fill="#ADD1B2" rx="11" ry="11" style="stroke:#181818;stroke-width:1;"/><path d="M34.4688,180.1406 Q33.8906,180.4375 33.25,180.5781 Q32.6094,180.7344 31.9063,180.7344 Q29.4063,180.7344 28.0781,179.0938 Q26.7656,177.4375 26.7656,174.3125 Q26.7656,171.1875 28.0781,169.5313 Q29.4063,167.875 31.9063,167.875 Q32.6094,167.875 33.25,168.0313 Q33.9063,168.1875 34.4688,168.4844 L34.4688,171.2031 Q33.8438,170.625 33.25,170.3594 Q32.6563,170.0781 32.0313,170.0781 Q30.6875,170.0781 30,171.1563 Q29.3125,172.2188 29.3125,174.3125 Q29.3125,176.4063 30,177.4844 Q30.6875,178.5469 32.0313,178.5469 Q32.6563,178.5469 33.25,178.2813 Q33.8438,178 34.4688,177.4219 L34.4688,180.1406 Z " fill="#000000"/><text fill="#000000" font-family="sans-serif" font-size="14" lengthAdjust="spacing" textLength="296.167" x="45.5" y="179.3467">logic_arc_int__baselibs__message_passing</text><line style="stroke:#181818;stroke-width:0.5;" x1="17.5" x2="343.667" y1="190.5" y2="190.5"/></g><!--class comp_arc_sta__baselibs__concurrency--><g id="elem_comp_arc_sta__baselibs__concurrency"><rect fill="#F1F1F1" height="40" id="comp_arc_sta__baselibs__concurrency" rx="2.5" ry="2.5" style="stroke:#181818;stroke-width:0.5;" width="300.2012" x="2066.5" y="275.5"/><ellipse cx="2081.5" cy="291.5" fill="#ADD1B2" rx="11" ry="11" style="stroke:#181818;stroke-width:1;"/><path d="M2084.4688,297.1406 Q2083.8906,297.4375 2083.25,297.5781 Q2082.6094,297.7344 2081.9063,297.7344 Q2079.4063,297.7344 2078.0781,296.0938 Q2076.7656,294.4375 2076.7656,291.3125 Q2076.7656,288.1875 2078.0781,286.5313 Q2079.4063,284.875 2081.9063,284.875 Q2082.6094,284.875 2083.25,285.0313 Q2083.9063,285.1875 2084.4688,285.4844 L2084.4688,288.2031 Q2083.8438,287.625 2083.25,287.3594 Q2082.6563,287.0781 2082.0313,287.0781 Q2080.6875,287.0781 2080,288.1563 Q2079.3125,289.2188 2079.3125,291.3125 Q2079.3125,293.4063 2080,294.4844 Q2080.6875,295.5469 2082.0313,295.5469 Q2082.6563,295.5469 2083.25,295.2813 Q2083.8438,295 2084.4688,294.4219 L2084.4688,297.1406 Z " fill="#000000"/><text fill="#000000" font-family="sans-serif" font-size="14" lengthAdjust="spacing" textLength="268.2012" x="2095.5" y="296.3467">comp_arc_sta__baselibs__concurrency</text><line style="stroke:#181818;stroke-width:0.5;" x1="2067.5" x2="2365.7012" y1="307.5" y2="307.5"/></g><!--class logic_arc_int__baselibs__task_result--><g id="elem_logic_arc_int__baselibs__task_result"><rect fill="#F1F1F1" height="40" id="logic_arc_int__baselibs__task_result" rx="2.5" ry="2.5" style="stroke:#181818;stroke-width:0.5;" width="280.9307" x="3242" y="158.5"/><ellipse cx="3257" cy="174.5" fill="#ADD1B2" rx="11" ry="11" style="stroke:#181818;stroke-width:1;"/><path d="M3259.9688,180.1406 Q3259.3906,180.4375 3258.75,180.5781 Q3258.1094,180.7344 3257.4063,180.7344 Q3254.9063,180.7344 3253.5781,179.0938 Q3252.2656,177.4375 3252.2656,174.3125 Q3252.2656,171.1875 3253.5781,169.5313 Q3254.9063,167.875 3257.4063,167.875 Q3258.1094,167.875 3258.75,168.0313 Q3259.4063,168.1875 3259.9688,168.4844 L3259.9688,171.2031 Q3259.3438,170.625 3258.75,170.3594 Q3258.1563,170.0781 3257.5313,170.0781 Q3256.1875,170.0781 3255.5,171.1563 Q3254.8125,172.2188 3254.8125,174.3125 Q3254.8125,176.4063 3255.5,177.4844 Q3256.1875,178.5469 3257.5313,178.5469 Q3258.1563,178.5469 3258.75,178.2813 Q3259.3438,178 3259.9688,177.4219 L3259.9688,180.1406 Z " fill="#000000"/><text fill="#000000" font-family="sans-serif" font-size="14" lengthAdjust="spacing" textLength="248.9307" x="3271" y="179.3467">logic_arc_int__baselibs__task_result</text><line style="stroke:#181818;stroke-width:0.5;" x1="3243" x2="3521.9307" y1="190.5" y2="190.5"/></g><!--class logic_arc_int__baselibs__utils_base64--><g id="elem_logic_arc_int__baselibs__utils_base64"><rect fill="#F1F1F1" height="40" id="logic_arc_int__baselibs__utils_base64" rx="2.5" ry="2.5" style="stroke:#181818;stroke-width:0.5;" width="292.1689" x="4892.5" y="158.5"/><ellipse cx="4907.5" cy="174.5" fill="#ADD1B2" rx="11" ry="11" style="stroke:#181818;stroke-width:1;"/><path d="M4910.4688,180.1406 Q4909.8906,180.4375 4909.25,180.5781 Q4908.6094,180.7344 4907.9063,180.7344 Q4905.4063,180.7344 4904.0781,179.0938 Q4902.7656,177.4375 4902.7656,174.3125 Q4902.7656,171.1875 4904.0781,169.5313 Q4905.4063,167.875 4907.9063,167.875 Q4908.6094,167.875 4909.25,168.0313 Q4909.9063,168.1875 4910.4688,168.4844 L4910.4688,171.2031 Q4909.8438,170.625 4909.25,170.3594 Q4908.6563,170.0781 4908.0313,170.0781 Q4906.6875,170.0781 4906,171.1563 Q4905.3125,172.2188 4905.3125,174.3125 Q4905.3125,176.4063 4906,177.4844 Q4906.6875,178.5469 4908.0313,178.5469 Q4908.6563,178.5469 4909.25,178.2813 Q4909.8438,178 4910.4688,177.4219 L4910.4688,180.1406 Z " fill="#000000"/><text fill="#000000" font-family="sans-serif" font-size="14" lengthAdjust="spacing" textLength="260.1689" x="4921.5" y="179.3467">logic_arc_int__baselibs__utils_base64</text><line style="stroke:#181818;stroke-width:0.5;" x1="4893.5" x2="5183.6689" y1="190.5" y2="190.5"/></g><!--class logic_arc_int__baselibs__synchronized_queue--><g id="elem_logic_arc_int__baselibs__synchronized_queue"><rect fill="#F1F1F1" height="40" id="logic_arc_int__baselibs__synchronized_queue" rx="2.5" ry="2.5" style="stroke:#181818;stroke-width:0.5;" width="348.3604" x="2576.5" y="158.5"/><ellipse cx="2591.5" cy="174.5" fill="#ADD1B2" rx="11" ry="11" style="stroke:#181818;stroke-width:1;"/><path d="M2594.4688,180.1406 Q2593.8906,180.4375 2593.25,180.5781 Q2592.6094,180.7344 2591.9063,180.7344 Q2589.4063,180.7344 2588.0781,179.0938 Q2586.7656,177.4375 2586.7656,174.3125 Q2586.7656,171.1875 2588.0781,169.5313 Q2589.4063,167.875 2591.9063,167.875 Q2592.6094,167.875 2593.25,168.0313 Q2593.9063,168.1875 2594.4688,168.4844 L2594.4688,171.2031 Q2593.8438,170.625 2593.25,170.3594 Q2592.6563,170.0781 2592.0313,170.0781 Q2590.6875,170.0781 2590,171.1563 Q2589.3125,172.2188 2589.3125,174.3125 Q2589.3125,176.4063 2590,177.4844 Q2590.6875,178.5469 2592.0313,178.5469 Q2592.6563,178.5469 2593.25,178.2813 Q2593.8438,178 2594.4688,177.4219 L2594.4688,180.1406 Z " fill="#000000"/><text fill="#000000" font-family="sans-serif" font-size="14" lengthAdjust="spacing" textLength="316.3604" x="2605.5" y="179.3467">logic_arc_int__baselibs__synchronized_queue</text><line style="stroke:#181818;stroke-width:0.5;" x1="2577.5" x2="2923.8604" y1="190.5" y2="190.5"/></g><!--class comp_arc_sta__baselibs__filesystem--><g id="elem_comp_arc_sta__baselibs__filesystem"><rect fill="#F1F1F1" height="40" id="comp_arc_sta__baselibs__filesystem" rx="2.5" ry="2.5" style="stroke:#181818;stroke-width:0.5;" width="285.4492" x="3554" y="275.5"/><ellipse cx="3569" cy="291.5" fill="#ADD1B2" rx="11" ry="11" style="stroke:#181818;stroke-width:1;"/><path d="M3571.9688,297.1406 Q3571.3906,297.4375 3570.75,297.5781 Q3570.1094,297.7344 3569.4063,297.7344 Q3566.9063,297.7344 3565.5781,296.0938 Q3564.2656,294.4375 3564.2656,291.3125 Q3564.2656,288.1875 3565.5781,286.5313 Q3566.9063,284.875 3569.4063,284.875 Q3570.1094,284.875 3570.75,285.0313 Q3571.4063,285.1875 3571.9688,285.4844 L3571.9688,288.2031 Q3571.3438,287.625 3570.75,287.3594 Q3570.1563,287.0781 3569.5313,287.0781 Q3568.1875,287.0781 3567.5,288.1563 Q3566.8125,289.2188 3566.8125,291.3125 Q3566.8125,293.4063 3567.5,294.4844 Q3568.1875,295.5469 3569.5313,295.5469 Q3570.1563,295.5469 3570.75,295.2813 Q3571.3438,295 3571.9688,294.4219 L3571.9688,297.1406 Z " fill="#000000"/><text fill="#000000" font-family="sans-serif" font-size="14" lengthAdjust="spacing" textLength="253.4492" x="3583" y="296.3467">comp_arc_sta__baselibs__filesystem</text><line style="stroke:#181818;stroke-width:0.5;" x1="3555" x2="3838.4492" y1="307.5" y2="307.5"/></g><!--class logic_arc_int__baselibs__filesystem--><g id="elem_logic_arc_int__baselibs__filesystem"><rect fill="#F1F1F1" height="40" id="logic_arc_int__baselibs__filesystem" rx="2.5" ry="2.5" style="stroke:#181818;stroke-width:0.5;" width="276.4805" x="3558.5" y="158.5"/><ellipse cx="3573.5" cy="174.5" fill="#ADD1B2" rx="11" ry="11" style="stroke:#181818;stroke-width:1;"/><path d="M3576.4688,180.1406 Q3575.8906,180.4375 3575.25,180.5781 Q3574.6094,180.7344 3573.9063,180.7344 Q3571.4063,180.7344 3570.0781,179.0938 Q3568.7656,177.4375 3568.7656,174.3125 Q3568.7656,171.1875 3570.0781,169.5313 Q3571.4063,167.875 3573.9063,167.875 Q3574.6094,167.875 3575.25,168.0313 Q3575.9063,168.1875 3576.4688,168.4844 L3576.4688,171.2031 Q3575.8438,170.625 3575.25,170.3594 Q3574.6563,170.0781 3574.0313,170.0781 Q3572.6875,170.0781 3572,171.1563 Q3571.3125,172.2188 3571.3125,174.3125 Q3571.3125,176.4063 3572,177.4844 Q3572.6875,178.5469 3574.0313,178.5469 Q3574.6563,178.5469 3575.25,178.2813 Q3575.8438,178 3576.4688,177.4219 L3576.4688,180.1406 Z " fill="#000000"/><text fill="#000000" font-family="sans-serif" font-size="14" lengthAdjust="spacing" textLength="244.4805" x="3587.5" y="179.3467">logic_arc_int__baselibs__filesystem</text><line style="stroke:#181818;stroke-width:0.5;" x1="3559.5" x2="3833.9805" y1="190.5" y2="190.5"/></g><!--class logic_arc_int__baselibs__shared_future--><g id="elem_logic_arc_int__baselibs__shared_future"><rect fill="#F1F1F1" height="40" id="logic_arc_int__baselibs__shared_future" rx="2.5" ry="2.5" style="stroke:#181818;stroke-width:0.5;" width="302.0811" x="1372.5" y="158.5"/><ellipse cx="1387.5" cy="174.5" fill="#ADD1B2" rx="11" ry="11" style="stroke:#181818;stroke-width:1;"/><path d="M1390.4688,180.1406 Q1389.8906,180.4375 1389.25,180.5781 Q1388.6094,180.7344 1387.9063,180.7344 Q1385.4063,180.7344 1384.0781,179.0938 Q1382.7656,177.4375 1382.7656,174.3125 Q1382.7656,171.1875 1384.0781,169.5313 Q1385.4063,167.875 1387.9063,167.875 Q1388.6094,167.875 1389.25,168.0313 Q1389.9063,168.1875 1390.4688,168.4844 L1390.4688,171.2031 Q1389.8438,170.625 1389.25,170.3594 Q1388.6563,170.0781 1388.0313,170.0781 Q1386.6875,170.0781 1386,171.1563 Q1385.3125,172.2188 1385.3125,174.3125 Q1385.3125,176.4063 1386,177.4844 Q1386.6875,178.5469 1388.0313,178.5469 Q1388.6563,178.5469 1389.25,178.2813 Q1389.8438,178 1390.4688,177.4219 L1390.4688,180.1406 Z " fill="#000000"/><text fill="#000000" font-family="sans-serif" font-size="14" lengthAdjust="spacing" textLength="270.0811" x="1401.5" y="179.3467">logic_arc_int__baselibs__shared_future</text><line style="stroke:#181818;stroke-width:0.5;" x1="1373.5" x2="1673.5811" y1="190.5" y2="190.5"/></g><!--class logic_arc_int__baselibs__condition_variable--><g id="elem_logic_arc_int__baselibs__condition_variable"><rect fill="#F1F1F1" height="40" id="logic_arc_int__baselibs__condition_variable" rx="2.5" ry="2.5" style="stroke:#181818;stroke-width:0.5;" width="332.7539" x="1004" y="158.5"/><ellipse cx="1019" cy="174.5" fill="#ADD1B2" rx="11" ry="11" style="stroke:#181818;stroke-width:1;"/><path d="M1021.9688,180.1406 Q1021.3906,180.4375 1020.75,180.5781 Q1020.1094,180.7344 1019.4063,180.7344 Q1016.9063,180.7344 1015.5781,179.0938 Q1014.2656,177.4375 1014.2656,174.3125 Q1014.2656,171.1875 1015.5781,169.5313 Q1016.9063,167.875 1019.4063,167.875 Q1020.1094,167.875 1020.75,168.0313 Q1021.4063,168.1875 1021.9688,168.4844 L1021.9688,171.2031 Q1021.3438,170.625 1020.75,170.3594 Q1020.1563,170.0781 1019.5313,170.0781 Q1018.1875,170.0781 1017.5,171.1563 Q1016.8125,172.2188 1016.8125,174.3125 Q1016.8125,176.4063 1017.5,177.4844 Q1018.1875,178.5469 1019.5313,178.5469 Q1020.1563,178.5469 1020.75,178.2813 Q1021.3438,178 1021.9688,177.4219 L1021.9688,180.1406 Z " fill="#000000"/><text fill="#000000" font-family="sans-serif" font-size="14" lengthAdjust="spacing" textLength="300.7539" x="1033" y="179.3467">logic_arc_int__baselibs__condition_variable</text><line style="stroke:#181818;stroke-width:0.5;" x1="1005" x2="1335.7539" y1="190.5" y2="190.5"/></g><!--class comp_arc_sta__baselibs__json--><g id="elem_comp_arc_sta__baselibs__json"><rect fill="#F1F1F1" height="40" id="comp_arc_sta__baselibs__json" rx="2.5" ry="2.5" style="stroke:#181818;stroke-width:0.5;" width="242.1367" x="740.5" y="275.5"/><ellipse cx="755.5" cy="291.5" fill="#ADD1B2" rx="11" ry="11" style="stroke:#181818;stroke-width:1;"/><path d="M758.4688,297.1406 Q757.8906,297.4375 757.25,297.5781 Q756.6094,297.7344 755.9063,297.7344 Q753.4063,297.7344 752.0781,296.0938 Q750.7656,294.4375 750.7656,291.3125 Q750.7656,288.1875 752.0781,286.5313 Q753.4063,284.875 755.9063,284.875 Q756.6094,284.875 757.25,285.0313 Q757.9063,285.1875 758.4688,285.4844 L758.4688,288.2031 Q757.8438,287.625 757.25,287.3594 Q756.6563,287.0781 756.0313,287.0781 Q754.6875,287.0781 754,288.1563 Q753.3125,289.2188 753.3125,291.3125 Q753.3125,293.4063 754,294.4844 Q754.6875,295.5469 756.0313,295.5469 Q756.6563,295.5469 757.25,295.2813 Q757.8438,295 758.4688,294.4219 L758.4688,297.1406 Z " fill="#000000"/><text fill="#000000" font-family="sans-serif" font-size="14" lengthAdjust="spacing" textLength="210.1367" x="769.5" y="296.3467">comp_arc_sta__baselibs__json</text><line style="stroke:#181818;stroke-width:0.5;" x1="741.5" x2="981.6367" y1="307.5" y2="307.5"/></g><!--class logic_arc_int__baselibs__json--><g id="elem_logic_arc_int__baselibs__json"><rect fill="#F1F1F1" height="40" id="logic_arc_int__baselibs__json" rx="2.5" ry="2.5" style="stroke:#181818;stroke-width:0.5;" width="233.168" x="736" y="158.5"/><ellipse cx="751" cy="174.5" fill="#ADD1B2" rx="11" ry="11" style="stroke:#181818;stroke-width:1;"/><path d="M753.9688,180.1406 Q753.3906,180.4375 752.75,180.5781 Q752.1094,180.7344 751.4063,180.7344 Q748.9063,180.7344 747.5781,179.0938 Q746.2656,177.4375 746.2656,174.3125 Q746.2656,171.1875 747.5781,169.5313 Q748.9063,167.875 751.4063,167.875 Q752.1094,167.875 752.75,168.0313 Q753.4063,168.1875 753.9688,168.4844 L753.9688,171.2031 Q753.3438,170.625 752.75,170.3594 Q752.1563,170.0781 751.5313,170.0781 Q750.1875,170.0781 749.5,171.1563 Q748.8125,172.2188 748.8125,174.3125 Q748.8125,176.4063 749.5,177.4844 Q750.1875,178.5469 751.5313,178.5469 Q752.1563,178.5469 752.75,178.2813 Q753.3438,178 753.9688,177.4219 L753.9688,180.1406 Z " fill="#000000"/><text fill="#000000" font-family="sans-serif" font-size="14" lengthAdjust="spacing" textLength="201.168" x="765" y="179.3467">logic_arc_int__baselibs__json</text><line style="stroke:#181818;stroke-width:0.5;" x1="737" x2="968.168" y1="190.5" y2="190.5"/></g><!--class comp_arc_sta__baselibs__memory_shared--><g id="elem_comp_arc_sta__baselibs__memory_shared"><rect fill="#F1F1F1" height="40" id="comp_arc_sta__baselibs__memory_shared" rx="2.5" ry="2.5" style="stroke:#181818;stroke-width:0.5;" width="327.0117" x="379" y="275.5"/><ellipse cx="394" cy="291.5" fill="#ADD1B2" rx="11" ry="11" style="stroke:#181818;stroke-width:1;"/><path d="M396.9688,297.1406 Q396.3906,297.4375 395.75,297.5781 Q395.1094,297.7344 394.4063,297.7344 Q391.9063,297.7344 390.5781,296.0938 Q389.2656,294.4375 389.2656,291.3125 Q389.2656,288.1875 390.5781,286.5313 Q391.9063,284.875 394.4063,284.875 Q395.1094,284.875 395.75,285.0313 Q396.4063,285.1875 396.9688,285.4844 L396.9688,288.2031 Q396.3438,287.625 395.75,287.3594 Q395.1563,287.0781 394.5313,287.0781 Q393.1875,287.0781 392.5,288.1563 Q391.8125,289.2188 391.8125,291.3125 Q391.8125,293.4063 392.5,294.4844 Q393.1875,295.5469 394.5313,295.5469 Q395.1563,295.5469 395.75,295.2813 Q396.3438,295 396.9688,294.4219 L396.9688,297.1406 Z " fill="#000000"/><text fill="#000000" font-family="sans-serif" font-size="14" lengthAdjust="spacing" textLength="295.0117" x="408" y="296.3467">comp_arc_sta__baselibs__memory_shared</text><line style="stroke:#181818;stroke-width:0.5;" x1="380" x2="705.0117" y1="307.5" y2="307.5"/></g><!--class logic_arc_int__baselibs__memory_shared--><g id="elem_logic_arc_int__baselibs__memory_shared"><rect fill="#F1F1F1" height="40" id="logic_arc_int__baselibs__memory_shared" rx="2.5" ry="2.5" style="stroke:#181818;stroke-width:0.5;" width="318.043" x="383.5" y="158.5"/><ellipse cx="398.5" cy="174.5" fill="#ADD1B2" rx="11" ry="11" style="stroke:#181818;stroke-width:1;"/><path d="M401.4688,180.1406 Q400.8906,180.4375 400.25,180.5781 Q399.6094,180.7344 398.9063,180.7344 Q396.4063,180.7344 395.0781,179.0938 Q393.7656,177.4375 393.7656,174.3125 Q393.7656,171.1875 395.0781,169.5313 Q396.4063,167.875 398.9063,167.875 Q399.6094,167.875 400.25,168.0313 Q400.9063,168.1875 401.4688,168.4844 L401.4688,171.2031 Q400.8438,170.625 400.25,170.3594 Q399.6563,170.0781 399.0313,170.0781 Q397.6875,170.0781 397,171.1563 Q396.3125,172.2188 396.3125,174.3125 Q396.3125,176.4063 397,177.4844 Q397.6875,178.5469 399.0313,178.5469 Q399.6563,178.5469 400.25,178.2813 Q400.8438,178 401.4688,177.4219 L401.4688,180.1406 Z " fill="#000000"/><text fill="#000000" font-family="sans-serif" font-size="14" lengthAdjust="spacing" textLength="286.043" x="412.5" y="179.3467">logic_arc_int__baselibs__memory_shared</text><line style="stroke:#181818;stroke-width:0.5;" x1="384.5" x2="700.543" y1="190.5" y2="190.5"/></g><!--class logic_arc_int__baselibs__executor--><g id="elem_logic_arc_int__baselibs__executor"><rect fill="#F1F1F1" height="40" id="logic_arc_int__baselibs__executor" rx="2.5" ry="2.5" style="stroke:#181818;stroke-width:0.5;" width="266.4385" x="1978.5" y="158.5"/><ellipse cx="1993.5" cy="174.5" fill="#ADD1B2" rx="11" ry="11" style="stroke:#181818;stroke-width:1;"/><path d="M1996.4688,180.1406 Q1995.8906,180.4375 1995.25,180.5781 Q1994.6094,180.7344 1993.9063,180.7344 Q1991.4063,180.7344 1990.0781,179.0938 Q1988.7656,177.4375 1988.7656,174.3125 Q1988.7656,171.1875 1990.0781,169.5313 Q1991.4063,167.875 1993.9063,167.875 Q1994.6094,167.875 1995.25,168.0313 Q1995.9063,168.1875 1996.4688,168.4844 L1996.4688,171.2031 Q1995.8438,170.625 1995.25,170.3594 Q1994.6563,170.0781 1994.0313,170.0781 Q1992.6875,170.0781 1992,171.1563 Q1991.3125,172.2188 1991.3125,174.3125 Q1991.3125,176.4063 1992,177.4844 Q1992.6875,178.5469 1994.0313,178.5469 Q1994.6563,178.5469 1995.25,178.2813 Q1995.8438,178 1996.4688,177.4219 L1996.4688,180.1406 Z " fill="#000000"/><text fill="#000000" font-family="sans-serif" font-size="14" lengthAdjust="spacing" textLength="234.4385" x="2007.5" y="179.3467">logic_arc_int__baselibs__executor</text><line style="stroke:#181818;stroke-width:0.5;" x1="1979.5" x2="2243.9385" y1="190.5" y2="190.5"/></g><!--class comp_arc_sta__baselibs__message_passing--><g id="elem_comp_arc_sta__baselibs__message_passing"><rect fill="#F1F1F1" height="40" id="comp_arc_sta__baselibs__message_passing" rx="2.5" ry="2.5" style="stroke:#181818;stroke-width:0.5;" width="337.1357" x="7" y="275.5"/><ellipse cx="22" cy="291.5" fill="#ADD1B2" rx="11" ry="11" style="stroke:#181818;stroke-width:1;"/><path d="M24.9688,297.1406 Q24.3906,297.4375 23.75,297.5781 Q23.1094,297.7344 22.4063,297.7344 Q19.9063,297.7344 18.5781,296.0938 Q17.2656,294.4375 17.2656,291.3125 Q17.2656,288.1875 18.5781,286.5313 Q19.9063,284.875 22.4063,284.875 Q23.1094,284.875 23.75,285.0313 Q24.4063,285.1875 24.9688,285.4844 L24.9688,288.2031 Q24.3438,287.625 23.75,287.3594 Q23.1563,287.0781 22.5313,287.0781 Q21.1875,287.0781 20.5,288.1563 Q19.8125,289.2188 19.8125,291.3125 Q19.8125,293.4063 20.5,294.4844 Q21.1875,295.5469 22.5313,295.5469 Q23.1563,295.5469 23.75,295.2813 Q24.3438,295 24.9688,294.4219 L24.9688,297.1406 Z " fill="#000000"/><text fill="#000000" font-family="sans-serif" font-size="14" lengthAdjust="spacing" textLength="305.1357" x="36" y="296.3467">comp_arc_sta__baselibs__message_passing</text><line style="stroke:#181818;stroke-width:0.5;" x1="8" x2="343.1357" y1="307.5" y2="307.5"/></g><!--reverse link logic_arc_int__baselibs__dynamic_array to comp_arc_sta__baselibs__containers--><g id="link_logic_arc_int__baselibs__dynamic_array_comp_arc_sta__baselibs__containers"><path codeLine="14" d="M4319.6082,202.1527 C4288.6882,223.4427 4244.11,254.14 4213.26,275.38 " fill="transparent" id="logic_arc_int__baselibs__dynamic_array-backto-comp_arc_sta__baselibs__containers" style="stroke:#181818;stroke-width:1;"/><polygon fill="#181818" points="4324.55,198.75,4314.8688,200.5595,4320.4318,201.5856,4319.4057,207.1486,4324.55,198.75" style="stroke:#181818;stroke-width:1;"/><text fill="#000000" font-family="sans-serif" font-size="13" lengthAdjust="spacing" textLength="76.9082" x="4280.5" y="241.5669">implements</text></g><!--reverse link logic_arc_int__baselibs__bit_mask_operator to comp_arc_sta__baselibs__bit_manipulation--><g id="link_logic_arc_int__baselibs__bit_mask_operator_comp_arc_sta__baselibs__bit_manipulation"><path codeLine="16" d="M5702.2102,201.9424 C5736.0902,223.2324 5785.28,254.14 5819.08,275.38 " fill="transparent" id="logic_arc_int__baselibs__bit_mask_operator-backto-comp_arc_sta__baselibs__bit_manipulation" style="stroke:#181818;stroke-width:1;"/><polygon fill="#181818" points="5697.13,198.75,5702.6221,206.9254,5701.3635,201.4103,5706.8786,200.1518,5697.13,198.75" style="stroke:#181818;stroke-width:1;"/><text fill="#000000" font-family="sans-serif" font-size="13" lengthAdjust="spacing" textLength="76.9082" x="5769.5" y="241.5669">implements</text></g><!--reverse link logic_arc_int__baselibs__result to comp_arc_sta__baselibs__result--><g id="link_logic_arc_int__baselibs__result_comp_arc_sta__baselibs__result"><path codeLine="17" d="M5341.5,204.75 C5341.5,225.98 5341.5,253.94 5341.5,275.19 " fill="transparent" id="logic_arc_int__baselibs__result-backto-comp_arc_sta__baselibs__result" style="stroke:#181818;stroke-width:1;"/><polygon fill="#181818" points="5341.5,198.75,5337.5,207.75,5341.5,203.75,5345.5,207.75,5341.5,198.75" style="stroke:#181818;stroke-width:1;"/><text fill="#000000" font-family="sans-serif" font-size="13" lengthAdjust="spacing" textLength="76.9082" x="5342.5" y="241.5669">implements</text></g><!--link Feature_User to logic_arc_int__baselibs__intrusive_list--><g id="link_Feature_User_logic_arc_int__baselibs__intrusive_list"><path codeLine="18" d="M3128.5,50.91 C3263.73,70.19 3664.29,127.2933 3877.2,157.6433 " fill="transparent" id="Feature_User-to-logic_arc_int__baselibs__intrusive_list" style="stroke:#181818;stroke-width:1;"/><polygon fill="#181818" points="3883.14,158.49,3874.7946,153.2599,3878.19,157.7844,3873.6656,161.1799,3883.14,158.49" style="stroke:#181818;stroke-width:1;"/><text fill="#000000" font-family="sans-serif" font-size="13" lengthAdjust="spacing" textLength="23.0103" x="3662.5" y="124.5669">use</text></g><!--link Feature_User to logic_arc_int__baselibs__future--><g id="link_Feature_User_logic_arc_int__baselibs__future"><path codeLine="19" d="M3083.5,81.55 C3083.5,106.45 3083.5,132.26 3083.5,152.26 " fill="transparent" id="Feature_User-to-logic_arc_int__baselibs__future" style="stroke:#181818;stroke-width:1;"/><polygon fill="#181818" points="3083.5,158.26,3087.5,149.26,3083.5,153.26,3079.5,149.26,3083.5,158.26" style="stroke:#181818;stroke-width:1;"/><text fill="#000000" font-family="sans-serif" font-size="13" lengthAdjust="spacing" textLength="23.0103" x="3084.5" y="124.5669">use</text></g><!--link Feature_User to logic_arc_int__baselibs__result--><g id="link_Feature_User_logic_arc_int__baselibs__result"><path codeLine="20" d="M3128.69,46.25 C3305.86,53.21 3970.11,79.99 4516.5,111.5 C4821.15,129.07 4897.92,127.52 5201.5,158.5 C5207.36,159.1 5207.3888,159.069 5213.4288,159.759 " fill="transparent" id="Feature_User-to-logic_arc_int__baselibs__result" style="stroke:#181818;stroke-width:1;"/><polygon fill="#181818" points="5219.39,160.44,5210.9022,155.4443,5214.4223,159.8725,5209.9942,163.3927,5219.39,160.44" style="stroke:#181818;stroke-width:1;"/><text fill="#000000" font-family="sans-serif" font-size="13" lengthAdjust="spacing" textLength="23.0103" x="4826.5" y="124.5669">use</text></g><!--reverse link logic_arc_int__baselibs__bit_manipulation to comp_arc_sta__baselibs__bit_manipulation--><g id="link_logic_arc_int__baselibs__bit_manipulation_comp_arc_sta__baselibs__bit_manipulation"><path codeLine="21" d="M5995.1357,201.9675 C5961.6257,223.2575 5913.02,254.14 5879.59,275.38 " fill="transparent" id="logic_arc_int__baselibs__bit_manipulation-backto-comp_arc_sta__baselibs__bit_manipulation" style="stroke:#181818;stroke-width:1;"/><polygon fill="#181818" points="6000.2,198.75,5990.4585,200.2001,5995.9797,201.4313,5994.7485,206.9525,6000.2,198.75" style="stroke:#181818;stroke-width:1;"/><text fill="#000000" font-family="sans-serif" font-size="13" lengthAdjust="spacing" textLength="76.9082" x="5951.5" y="241.5669">implements</text></g><!--link Feature_User to logic_arc_int__baselibs__promise--><g id="link_Feature_User_logic_arc_int__baselibs__promise"><path codeLine="22" d="M3038.3,53.43 C2930.06,74.82 2659.9861,128.1967 2512.5961,157.3267 " fill="transparent" id="Feature_User-to-logic_arc_int__baselibs__promise" style="stroke:#181818;stroke-width:1;"/><polygon fill="#181818" points="2506.71,158.49,2516.3148,160.6691,2511.6151,157.5206,2514.7637,152.8209,2506.71,158.49" style="stroke:#181818;stroke-width:1;"/><text fill="#000000" font-family="sans-serif" font-size="13" lengthAdjust="spacing" textLength="23.0103" x="2728.5" y="124.5669">use</text></g><!--reverse link logic_arc_int__baselibs__utils_scoped_op to comp_arc_sta__baselibs__utils--><g id="link_logic_arc_int__baselibs__utils_scoped_op_comp_arc_sta__baselibs__utils"><path codeLine="23" d="M4722.9926,202.9926 C4744.2226,224.2226 4773.94,253.94 4795.19,275.19 " fill="transparent" id="logic_arc_int__baselibs__utils_scoped_op-backto-comp_arc_sta__baselibs__utils" style="stroke:#181818;stroke-width:1;"/><polygon fill="#181818" points="4718.75,198.75,4722.2855,207.9424,4722.2855,202.2855,4727.9424,202.2855,4718.75,198.75" style="stroke:#181818;stroke-width:1;"/><text fill="#000000" font-family="sans-serif" font-size="13" lengthAdjust="spacing" textLength="76.9082" x="4765.5" y="241.5669">implements</text></g><!--link Feature_User to logic_arc_int__baselibs__task--><g id="link_Feature_User_logic_arc_int__baselibs__task"><path codeLine="24" d="M3038.5,48.42 C2886.56,61.8 2378.75,107.64 1960.5,158.5 C1955.02,159.17 1955.3605,159.1012 1949.7105,159.8312 " fill="transparent" id="Feature_User-to-logic_arc_int__baselibs__task" style="stroke:#181818;stroke-width:1;"/><polygon fill="#181818" points="1943.76,160.6,1953.1984,163.4138,1948.7188,159.9593,1952.1733,155.4797,1943.76,160.6" style="stroke:#181818;stroke-width:1;"/><text fill="#000000" font-family="sans-serif" font-size="13" lengthAdjust="spacing" textLength="23.0103" x="2362.5" y="124.5669">use</text></g><!--link Feature_User to logic_arc_int__baselibs__message_passing--><g id="link_Feature_User_logic_arc_int__baselibs__message_passing"><path codeLine="25" d="M3038.43,45.35 C2818.72,49.63 1837.98,70.24 1035.5,111.5 C737.38,126.83 662.9,132.8 365.5,158.5 C358.74,159.08 357.8248,159.1506 350.8648,159.7906 " fill="transparent" id="Feature_User-to-logic_arc_int__baselibs__message_passing" style="stroke:#181818;stroke-width:1;"/><polygon fill="#181818" points="344.89,160.34,354.2185,163.4991,349.869,159.8822,353.4859,155.5327,344.89,160.34" style="stroke:#181818;stroke-width:1;"/><text fill="#000000" font-family="sans-serif" font-size="13" lengthAdjust="spacing" textLength="23.0103" x="1036.5" y="124.5669">use</text></g><!--reverse link logic_arc_int__baselibs__task_result to comp_arc_sta__baselibs__concurrency--><g id="link_logic_arc_int__baselibs__task_result_comp_arc_sta__baselibs__concurrency"><path codeLine="26" d="M3235.7008,197.1887 C3229.9008,197.8687 3230.13,197.84 3224.5,198.5 C3039.25,220.08 2993.12,227.35 2807.5,245.5 C2657.64,260.15 2486.12,274.06 2366.6,283.28 " fill="transparent" id="logic_arc_int__baselibs__task_result-backto-comp_arc_sta__baselibs__concurrency" style="stroke:#181818;stroke-width:1;"/><polygon fill="#181818" points="3241.66,196.49,3232.2554,193.5652,3236.694,197.0722,3233.187,201.5108,3241.66,196.49" style="stroke:#181818;stroke-width:1;"/><text fill="#000000" font-family="sans-serif" font-size="13" lengthAdjust="spacing" textLength="76.9082" x="2968.5" y="241.5669">implements</text></g><!--reverse link logic_arc_int__baselibs__utils_base64 to comp_arc_sta__baselibs__utils--><g id="link_logic_arc_int__baselibs__utils_base64_comp_arc_sta__baselibs__utils"><path codeLine="27" d="M4995.9223,201.3603 C4954.4923,222.6303 4893.29,254.05 4851.83,275.34 " fill="transparent" id="logic_arc_int__baselibs__utils_base64-backto-comp_arc_sta__baselibs__utils" style="stroke:#181818;stroke-width:1;"/><polygon fill="#181818" points="5001.26,198.62,4991.4266,199.1721,4996.812,200.9036,4995.0804,206.2889,5001.26,198.62" style="stroke:#181818;stroke-width:1;"/><text fill="#000000" font-family="sans-serif" font-size="13" lengthAdjust="spacing" textLength="76.9082" x="4941.5" y="241.5669">implements</text></g><!--reverse link logic_arc_int__baselibs__synchronized_queue to comp_arc_sta__baselibs__concurrency--><g id="link_logic_arc_int__baselibs__synchronized_queue_comp_arc_sta__baselibs__concurrency"><path codeLine="28" d="M2656.1545,199.8133 C2557.3045,221.1033 2404.07,254.11 2305.15,275.41 " fill="transparent" id="logic_arc_int__baselibs__synchronized_queue-backto-comp_arc_sta__baselibs__concurrency" style="stroke:#181818;stroke-width:1;"/><polygon fill="#181818" points="2662.02,198.55,2652.3796,196.5346,2657.1321,199.6027,2654.0639,204.3553,2662.02,198.55" style="stroke:#181818;stroke-width:1;"/><text fill="#000000" font-family="sans-serif" font-size="13" lengthAdjust="spacing" textLength="76.9082" x="2516.5" y="241.5669">implements</text></g><!--reverse link logic_arc_int__baselibs__promise to comp_arc_sta__baselibs__concurrency--><g id="link_logic_arc_int__baselibs__promise_comp_arc_sta__baselibs__concurrency"><path codeLine="29" d="M2372.8685,201.8092 C2336.9485,223.0992 2284.59,254.14 2248.75,275.38 " fill="transparent" id="logic_arc_int__baselibs__promise-backto-comp_arc_sta__baselibs__concurrency" style="stroke:#181818;stroke-width:1;"/><polygon fill="#181818" points="2378.03,198.75,2368.2483,199.8979,2373.7288,201.2994,2372.3273,206.7799,2378.03,198.75" style="stroke:#181818;stroke-width:1;"/><text fill="#000000" font-family="sans-serif" font-size="13" lengthAdjust="spacing" textLength="76.9082" x="2326.5" y="241.5669">implements</text></g><!--link Feature_User to logic_arc_int__baselibs__bit_manipulation--><g id="link_Feature_User_logic_arc_int__baselibs__bit_manipulation"><path codeLine="30" d="M3128.86,45.36 C3351.04,49.7 4346.77,70.63 5161.5,111.5 C5468.49,126.9 5545.28,131.83 5851.5,158.5 C5857.26,159 5857.1457,158.975 5863.0657,159.525 " fill="transparent" id="Feature_User-to-logic_arc_int__baselibs__bit_manipulation" style="stroke:#181818;stroke-width:1;"/><polygon fill="#181818" points="5869.04,160.08,5860.4486,155.2646,5864.0614,159.6175,5859.7086,163.2303,5869.04,160.08" style="stroke:#181818;stroke-width:1;"/><text fill="#000000" font-family="sans-serif" font-size="13" lengthAdjust="spacing" textLength="23.0103" x="5472.5" y="124.5669">use</text></g><!--reverse link logic_arc_int__baselibs__filesystem to comp_arc_sta__baselibs__filesystem--><g id="link_logic_arc_int__baselibs__filesystem_comp_arc_sta__baselibs__filesystem"><path codeLine="31" d="M3696.5,204.75 C3696.5,225.98 3696.5,253.94 3696.5,275.19 " fill="transparent" id="logic_arc_int__baselibs__filesystem-backto-comp_arc_sta__baselibs__filesystem" style="stroke:#181818;stroke-width:1;"/><polygon fill="#181818" points="3696.5,198.75,3692.5,207.75,3696.5,203.75,3700.5,207.75,3696.5,198.75" style="stroke:#181818;stroke-width:1;"/><text fill="#000000" font-family="sans-serif" font-size="13" lengthAdjust="spacing" textLength="76.9082" x="3697.5" y="241.5669">implements</text></g><!--link Feature_User to logic_arc_int__baselibs__shared_future--><g id="link_Feature_User_logic_arc_int__baselibs__shared_future"><path codeLine="32" d="M3038.37,47.53 C2864.37,59.34 2220.37,104.37 1691.5,158.5 C1685.95,159.07 1686.267,159.0319 1680.567,159.6319 " fill="transparent" id="Feature_User-to-logic_arc_int__baselibs__shared_future" style="stroke:#181818;stroke-width:1;"/><polygon fill="#181818" points="1674.6,160.26,1683.9693,163.2959,1679.5725,159.7366,1683.1318,155.3398,1674.6,160.26" style="stroke:#181818;stroke-width:1;"/><text fill="#000000" font-family="sans-serif" font-size="13" lengthAdjust="spacing" textLength="23.0103" x="2190.5" y="124.5669">use</text></g><!--link Feature_User to logic_arc_int__baselibs__condition_variable--><g id="link_Feature_User_logic_arc_int__baselibs__condition_variable"><path codeLine="33" d="M3038.36,46.75 C2839.67,56.81 2023.14,99.74 1354.5,158.5 C1348.9,158.99 1349.1847,158.9593 1343.4347,159.4893 " fill="transparent" id="Feature_User-to-logic_arc_int__baselibs__condition_variable" style="stroke:#181818;stroke-width:1;"/><polygon fill="#181818" points="1337.46,160.04,1346.7891,163.1971,1342.4389,159.5811,1346.0549,155.2308,1337.46,160.04" style="stroke:#181818;stroke-width:1;"/><text fill="#000000" font-family="sans-serif" font-size="13" lengthAdjust="spacing" textLength="23.0103" x="1926.5" y="124.5669">use</text></g><!--reverse link logic_arc_int__baselibs__task to comp_arc_sta__baselibs__concurrency--><g id="link_logic_arc_int__baselibs__task_comp_arc_sta__baselibs__concurrency"><path codeLine="34" d="M1897.095,200.3171 C1969.325,221.6171 2079.66,254.15 2151.83,275.43 " fill="transparent" id="logic_arc_int__baselibs__task-backto-comp_arc_sta__baselibs__concurrency" style="stroke:#181818;stroke-width:1;"/><polygon fill="#181818" points="1891.34,198.62,1898.8411,205.0023,1896.1358,200.0342,1901.1039,197.329,1891.34,198.62" style="stroke:#181818;stroke-width:1;"/><text fill="#000000" font-family="sans-serif" font-size="13" lengthAdjust="spacing" textLength="76.9082" x="2046.5" y="241.5669">implements</text></g><!--reverse link logic_arc_int__baselibs__json to comp_arc_sta__baselibs__json--><g id="link_logic_arc_int__baselibs__json_comp_arc_sta__baselibs__json"><path codeLine="35" d="M854.4777,204.7317 C856.1377,225.9617 858.33,253.94 859.99,275.19 " fill="transparent" id="logic_arc_int__baselibs__json-backto-comp_arc_sta__baselibs__json" style="stroke:#181818;stroke-width:1;"/><polygon fill="#181818" points="854.01,198.75,850.7238,208.0344,854.3998,203.7348,858.6994,207.4108,854.01,198.75" style="stroke:#181818;stroke-width:1;"/><text fill="#000000" font-family="sans-serif" font-size="13" lengthAdjust="spacing" textLength="76.9082" x="859.5" y="241.5669">implements</text></g><!--reverse link logic_arc_int__baselibs__shared_future to comp_arc_sta__baselibs__concurrency--><g id="link_logic_arc_int__baselibs__shared_future_comp_arc_sta__baselibs__concurrency"><path codeLine="36" d="M1640.034,199.5321 C1717.864,212.8521 1818.56,229.96 1912.5,245.5 C1973.29,255.56 2040.95,266.49 2096.99,275.47 " fill="transparent" id="logic_arc_int__baselibs__shared_future-backto-comp_arc_sta__baselibs__concurrency" style="stroke:#181818;stroke-width:1;"/><polygon fill="#181818" points="1634.12,198.52,1642.3163,203.9809,1639.0483,199.3634,1643.6658,196.0955,1634.12,198.52" style="stroke:#181818;stroke-width:1;"/><text fill="#000000" font-family="sans-serif" font-size="13" lengthAdjust="spacing" textLength="76.9082" x="1913.5" y="241.5669">implements</text></g><!--reverse link logic_arc_int__baselibs__intrusive_list to comp_arc_sta__baselibs__containers--><g id="link_logic_arc_int__baselibs__intrusive_list_comp_arc_sta__baselibs__containers"><path codeLine="37" d="M4049.7506,202.1252 C4081.0406,223.4152 4126.19,254.14 4157.4,275.38 " fill="transparent" id="logic_arc_int__baselibs__intrusive_list-backto-comp_arc_sta__baselibs__containers" style="stroke:#181818;stroke-width:1;"/><polygon fill="#181818" points="4044.79,198.75,4049.9808,207.1199,4048.9238,201.5627,4054.4811,200.5058,4044.79,198.75" style="stroke:#181818;stroke-width:1;"/><text fill="#000000" font-family="sans-serif" font-size="13" lengthAdjust="spacing" textLength="76.9082" x="4112.5" y="241.5669">implements</text></g><!--link Feature_User to logic_arc_int__baselibs__utils_scoped_op--><g id="link_Feature_User_logic_arc_int__baselibs__utils_scoped_op"><path codeLine="38" d="M3128.63,47.6 C3306.29,59.91 3974.49,107.14 4523.5,158.5 C4529.47,159.06 4529.5784,159.0565 4535.7184,159.6565 " fill="transparent" id="Feature_User-to-logic_arc_int__baselibs__utils_scoped_op" style="stroke:#181818;stroke-width:1;"/><polygon fill="#181818" points="4541.69,160.24,4533.1217,155.3837,4536.7137,159.7537,4532.3436,163.3457,4541.69,160.24" style="stroke:#181818;stroke-width:1;"/><text fill="#000000" font-family="sans-serif" font-size="13" lengthAdjust="spacing" textLength="23.0103" x="4169.5" y="124.5669">use</text></g><!--reverse link logic_arc_int__baselibs__future to comp_arc_sta__baselibs__concurrency--><g id="link_logic_arc_int__baselibs__future_comp_arc_sta__baselibs__concurrency"><path codeLine="39" d="M2954.017,197.5648 C2856.677,211.0748 2723.44,229.39 2601.5,245.5 C2524.18,255.71 2438.07,266.71 2366.93,275.69 " fill="transparent" id="logic_arc_int__baselibs__future-backto-comp_arc_sta__baselibs__concurrency" style="stroke:#181818;stroke-width:1;"/><polygon fill="#181818" points="2959.96,196.74,2950.4956,194.0152,2955.0075,197.4274,2951.5953,201.9393,2959.96,196.74" style="stroke:#181818;stroke-width:1;"/><text fill="#000000" font-family="sans-serif" font-size="13" lengthAdjust="spacing" textLength="76.9082" x="2722.5" y="241.5669">implements</text></g><!--reverse link logic_arc_int__baselibs__memory_shared to comp_arc_sta__baselibs__memory_shared--><g id="link_logic_arc_int__baselibs__memory_shared_comp_arc_sta__baselibs__memory_shared"><path codeLine="40" d="M542.5,204.75 C542.5,225.98 542.5,253.94 542.5,275.19 " fill="transparent" id="logic_arc_int__baselibs__memory_shared-backto-comp_arc_sta__baselibs__memory_shared" style="stroke:#181818;stroke-width:1;"/><polygon fill="#181818" points="542.5,198.75,538.5,207.75,542.5,203.75,546.5,207.75,542.5,198.75" style="stroke:#181818;stroke-width:1;"/><text fill="#000000" font-family="sans-serif" font-size="13" lengthAdjust="spacing" textLength="76.9082" x="543.5" y="241.5669">implements</text></g><!--link Feature_User to logic_arc_int__baselibs__utils_base64--><g id="link_Feature_User_logic_arc_int__baselibs__utils_base64"><path codeLine="41" d="M3128.56,46.4 C3331.43,55.18 4180.35,94.09 4874.5,158.5 C4880.35,159.04 4880.3496,159.0249 4886.3696,159.6249 " fill="transparent" id="Feature_User-to-logic_arc_int__baselibs__utils_base64" style="stroke:#181818;stroke-width:1;"/><polygon fill="#181818" points="4892.34,160.22,4883.7811,155.3471,4887.3647,159.7241,4882.9877,163.3077,4892.34,160.22" style="stroke:#181818;stroke-width:1;"/><text fill="#000000" font-family="sans-serif" font-size="13" lengthAdjust="spacing" textLength="23.0103" x="4484.5" y="124.5669">use</text></g><!--link Feature_User to logic_arc_int__baselibs__task_result--><g id="link_Feature_User_logic_arc_int__baselibs__task_result"><path codeLine="42" d="M3128.59,64.56 C3185.69,89.95 3277.8876,130.9722 3333.9976,155.9222 " fill="transparent" id="Feature_User-to-logic_arc_int__baselibs__task_result" style="stroke:#181818;stroke-width:1;"/><polygon fill="#181818" points="3339.48,158.36,3332.8816,151.0483,3334.9113,156.3285,3329.6311,158.3582,3339.48,158.36" style="stroke:#181818;stroke-width:1;"/><text fill="#000000" font-family="sans-serif" font-size="13" lengthAdjust="spacing" textLength="23.0103" x="3270.5" y="124.5669">use</text></g><!--link Feature_User to logic_arc_int__baselibs__json--><g id="link_Feature_User_logic_arc_int__baselibs__json"><path codeLine="43" d="M3038.42,46.4 C2865.27,53.76 2226.39,81.46 1700.5,111.5 C1383,129.64 1302.83,125.71 986.5,158.5 C980.77,159.09 980.8795,159.0542 974.9695,159.7442 " fill="transparent" id="Feature_User-to-logic_arc_int__baselibs__json" style="stroke:#181818;stroke-width:1;"/><polygon fill="#181818" points="969.01,160.44,978.4131,163.3693,973.9763,159.8602,977.4854,155.4233,969.01,160.44" style="stroke:#181818;stroke-width:1;"/><text fill="#000000" font-family="sans-serif" font-size="13" lengthAdjust="spacing" textLength="23.0103" x="1701.5" y="124.5669">use</text></g><!--reverse link logic_arc_int__baselibs__executor to comp_arc_sta__baselibs__concurrency--><g id="link_logic_arc_int__baselibs__executor_comp_arc_sta__baselibs__concurrency"><path codeLine="44" d="M2133.1163,203.1803 C2152.5063,224.4103 2179.46,253.94 2198.87,275.19 " fill="transparent" id="logic_arc_int__baselibs__executor-backto-comp_arc_sta__baselibs__concurrency" style="stroke:#181818;stroke-width:1;"/><polygon fill="#181818" points="2129.07,198.75,2132.1859,208.093,2132.4419,202.4419,2138.093,202.6979,2129.07,198.75" style="stroke:#181818;stroke-width:1;"/><text fill="#000000" font-family="sans-serif" font-size="13" lengthAdjust="spacing" textLength="76.9082" x="2171.5" y="241.5669">implements</text></g><!--link Feature_User to logic_arc_int__baselibs__bit_mask_operator--><g id="link_Feature_User_logic_arc_int__baselibs__bit_mask_operator"><path codeLine="45" d="M3128.79,45.58 C3330.86,50.55 4170.37,72.57 4858.5,111.5 C5135.73,127.18 5204.92,133.87 5481.5,158.5 C5487.13,159 5486.876,158.9619 5492.656,159.5019 " fill="transparent" id="Feature_User-to-logic_arc_int__baselibs__bit_mask_operator" style="stroke:#181818;stroke-width:1;"/><polygon fill="#181818" points="5498.63,160.06,5490.0411,155.2402,5493.6517,159.5949,5489.2969,163.2055,5498.63,160.06" style="stroke:#181818;stroke-width:1;"/><text fill="#000000" font-family="sans-serif" font-size="13" lengthAdjust="spacing" textLength="23.0103" x="5129.5" y="124.5669">use</text></g><!--reverse link logic_arc_int__baselibs__message_passing to comp_arc_sta__baselibs__message_passing--><g id="link_logic_arc_int__baselibs__message_passing_comp_arc_sta__baselibs__message_passing"><path codeLine="46" d="M179.4002,204.7444 C178.4802,225.9744 177.26,253.94 176.34,275.19 " fill="transparent" id="logic_arc_int__baselibs__message_passing-backto-comp_arc_sta__baselibs__message_passing" style="stroke:#181818;stroke-width:1;"/><polygon fill="#181818" points="179.66,198.75,175.2741,207.5684,179.4435,203.7453,183.2666,207.9147,179.66,198.75" style="stroke:#181818;stroke-width:1;"/><text fill="#000000" font-family="sans-serif" font-size="13" lengthAdjust="spacing" textLength="76.9082" x="179.5" y="241.5669">implements</text></g><!--link Feature_User to logic_arc_int__baselibs__dynamic_array--><g id="link_Feature_User_logic_arc_int__baselibs__dynamic_array"><path codeLine="47" d="M3128.7,49.09 C3278.51,64.33 3772.36,114.75 4180.5,158.5 C4186.32,159.12 4186.2949,159.1138 4192.2949,159.7638 " fill="transparent" id="Feature_User-to-logic_arc_int__baselibs__dynamic_array" style="stroke:#181818;stroke-width:1;"/><polygon fill="#181818" points="4198.26,160.41,4189.7432,155.4639,4193.2891,159.8715,4188.8815,163.4174,4198.26,160.41" style="stroke:#181818;stroke-width:1;"/><text fill="#000000" font-family="sans-serif" font-size="13" lengthAdjust="spacing" textLength="23.0103" x="3880.5" y="124.5669">use</text></g><!--link Feature_User to logic_arc_int__baselibs__filesystem--><g id="link_Feature_User_logic_arc_int__baselibs__filesystem"><path codeLine="48" d="M3128.58,54.28 C3229.7,76.22 3470.2964,128.4178 3602.8464,157.1778 " fill="transparent" id="Feature_User-to-logic_arc_int__baselibs__filesystem" style="stroke:#181818;stroke-width:1;"/><polygon fill="#181818" points="3608.71,158.45,3600.7628,152.6326,3603.8237,157.3898,3599.0665,160.4507,3608.71,158.45" style="stroke:#181818;stroke-width:1;"/><text fill="#000000" font-family="sans-serif" font-size="13" lengthAdjust="spacing" textLength="23.0103" x="3464.5" y="124.5669">use</text></g><!--link Feature_User to logic_arc_int__baselibs__memory_shared--><g id="link_Feature_User_logic_arc_int__baselibs__memory_shared"><path codeLine="49" d="M3038.2,45.6 C2837.91,50.62 2011.78,72.7 1334.5,111.5 C1060.38,127.2 991.92,133.32 718.5,158.5 C712.99,159.01 713.3629,158.9701 707.7029,159.5101 " fill="transparent" id="Feature_User-to-logic_arc_int__baselibs__memory_shared" style="stroke:#181818;stroke-width:1;"/><polygon fill="#181818" points="701.73,160.08,711.0692,163.2071,706.7074,159.6051,710.3094,155.2433,701.73,160.08" style="stroke:#181818;stroke-width:1;"/><text fill="#000000" font-family="sans-serif" font-size="13" lengthAdjust="spacing" textLength="23.0103" x="1335.5" y="124.5669">use</text></g><!--link Feature_User to logic_arc_int__baselibs__synchronized_queue--><g id="link_Feature_User_logic_arc_int__baselibs__synchronized_queue"><path codeLine="50" d="M3038.24,62.58 C2975.38,87.68 2867.7318,130.6741 2803.6518,156.2741 " fill="transparent" id="Feature_User-to-logic_arc_int__baselibs__synchronized_queue" style="stroke:#181818;stroke-width:1;"/><polygon fill="#181818" points="2798.08,158.5,2807.9217,158.8756,2802.7232,156.645,2804.9538,151.4465,2798.08,158.5" style="stroke:#181818;stroke-width:1;"/><text fill="#000000" font-family="sans-serif" font-size="13" lengthAdjust="spacing" textLength="23.0103" x="2908.5" y="124.5669">use</text></g><!--reverse link logic_arc_int__baselibs__condition_variable to comp_arc_sta__baselibs__concurrency--><g id="link_logic_arc_int__baselibs__condition_variable_comp_arc_sta__baselibs__concurrency"><path codeLine="51" d="M1331.7766,199.24 C1444.1266,212.82 1593.65,230.54 1730.5,245.5 C1843.04,257.8 1970.37,270.6 2066.46,280.03 " fill="transparent" id="logic_arc_int__baselibs__condition_variable-backto-comp_arc_sta__baselibs__concurrency" style="stroke:#181818;stroke-width:1;"/><polygon fill="#181818" points="1325.82,198.52,1334.275,203.5711,1330.7839,199.12,1335.235,195.6289,1325.82,198.52" style="stroke:#181818;stroke-width:1;"/><text fill="#000000" font-family="sans-serif" font-size="13" lengthAdjust="spacing" textLength="76.9082" x="1731.5" y="241.5669">implements</text></g><!--link Feature_User to logic_arc_int__baselibs__executor--><g id="link_Feature_User_logic_arc_int__baselibs__executor"><path codeLine="52" d="M3038.25,50.69 C2897.86,69.9 2471.9146,128.1866 2250.8446,158.4366 " fill="transparent" id="Feature_User-to-logic_arc_int__baselibs__executor" style="stroke:#181818;stroke-width:1;"/><polygon fill="#181818" points="2244.9,159.25,2254.3592,161.9929,2249.8538,158.5721,2253.2746,154.0668,2244.9,159.25" style="stroke:#181818;stroke-width:1;"/><text fill="#000000" font-family="sans-serif" font-size="13" lengthAdjust="spacing" textLength="23.0103" x="2569.5" y="124.5669">use</text></g><!--SRC=[hLPDRzim3BthLmYzfnk6OOUXw6N0JZrkPq6MsOIhFZoHwkeD- - -JdNIfapIAN1zbFrAFZq-KjBNXbtBuX7ujE7IIWsm2St2onGY6CNYnmHOaCKG8t7UmNOFhk9UQEMAJ64ZS4FSMRiMr9hID_2FkqCENO4EK4TfnzMs3vi43aVnm_Lxy5JVlTZ526ywugw-WEKMGtmdYbTGaTn_Ky44A4rodT3IAM2lLQ0AB3IbbWcUTyqUIgxIwbJQiqOn0zFmIsFPUk_5NrFrdYQwpuC0pIV5gyWPPEUsnIrOFSXIssCBfGOKEeivLJRTvRPS8b2mNScz1quGJXLRjkV2yZ8dm4PH5ocaIGLNyVHgGzN7FjCUuHMNUmsUBqiNWaA30BZ7Qahb6Z2AJ6z_cxizcnDazzIAxVApq6bIdYV9XBjIJJun9CO8tVQ6gWSr9uxrTgc7zwUDbMIydJBqtcnWy_ivj-9aWmT8x_BVCp0OVU_Tih-xH0lLv_he2hprmDZNQw3oiPv_qh66BGqdgKKVKZOL5VNXP8tzGSNeCaCLzDvNkmkINtLk7atjcTuycr4AzgQdPWGkntwbLo3l1lh7gvs5JQ-d9_AiDtlfi8PNX2KmwUb1Kpvt9q-GijOChfTYiWmje9ik3Drhr8-N54Ao_GoT-gmq_TVCirFjJWtMcldiRZTp-0G00]--></g></svg>