<svg xmlns="http://www.w3.org/2000/svg" xmlns:xlink="http://www.w3.org/1999/xlink" contentStyleType="text/css" data-diagram-type="CLASS" height="322px" preserveAspectRatio="none" style="width:6203px;height:322px;background:#FFFFFF;" version="1.1" viewBox="0 0 6203 322" width="6203px" zoomAndPan="magnify"><defs/><g><!--entity Feature_User--><g id="elem_Feature_User"><ellipse cx="3157.1685" cy="14" fill="#F1F1F1" rx="8" ry="8" style="stroke:#181818;stroke-width:0.5;"/><path d="M3157.1685,22 L3157.1685,49 M3144.1685,30 L3170.1685,30 M3157.1685,49 L3144.1685,64 M3157.1685,49 L3170.1685,64 " fill="transparent" style="stroke:#181818;stroke-width:0.5;"/><text fill="#000000" font-family="sans-serif" font-size="14" lengthAdjust="spacing" textLength="90.3369" x="3112" y="78.4951">Feature User</text></g><!--class logic_arc_int__baselibs__dynamic_array--><g id="elem_logic_arc_int__baselibs__dynamic_array"><rect fill="#F1F1F1" height="40" id="logic_arc_int__baselibs__dynamic_array" rx="2.5" ry="2.5" style="stroke:#181818;stroke-width:0.5;" width="308.3496" x="5573" y="158.5"/><ellipse cx="5588" cy="174.5" fill="#ADD1B2" rx="11" ry="11" style="stroke:#181818;stroke-width:1;"/><path d="M5590.9688,180.1406 Q5590.3906,180.4375 5589.75,180.5781 Q5589.1094,180.7344 5588.4063,180.7344 Q5585.9063,180.7344 5584.5781,179.0938 Q5583.2656,177.4375 5583.2656,174.3125 Q5583.2656,171.1875 5584.5781,169.5313 Q5585.9063,167.875 5588.4063,167.875 Q5589.1094,167.875 5589.75,168.0313 Q5590.4063,168.1875 5590.9688,168.4844 L5590.9688,171.2031 Q5590.3438,170.625 5589.75,170.3594 Q5589.1563,170.0781 5588.5313,170.0781 Q5587.1875,170.0781 5586.5,171.1563 Q5585.8125,172.2188 5585.8125,174.3125 Q5585.8125,176.4063 5586.5,177.4844 Q5587.1875,178.5469 5588.5313,178.5469 Q5589.1563,178.5469 5589.75,178.2813 Q5590.3438,178 5590.9688,177.4219 L5590.9688,180.1406 Z " fill="#000000"/><text fill="#000000" font-family="sans-serif" font-size="14" lengthAdjust="spacing" textLength="276.3496" x="5602" y="179.3467">logic_arc_int__baselibs__dynamic_array</text><line style="stroke:#181818;stroke-width:0.5;" x1="5574" x2="5880.3496" y1="190.5" y2="190.5"/></g><!--class comp_arc_sta__baselibs__concurrency--><g id="elem_comp_arc_sta__baselibs__concurrency"><rect fill="#F1F1F1" height="40" id="comp_arc_sta__baselibs__concurrency" rx="2.5" ry="2.5" style="stroke:#181818;stroke-width:0.5;" width="300.2012" x="3777" y="275.5"/><ellipse cx="3792" cy="291.5" fill="#ADD1B2" rx="11" ry="11" style="stroke:#181818;stroke-width:1;"/><path d="M3794.9688,297.1406 Q3794.3906,297.4375 3793.75,297.5781 Q3793.1094,297.7344 3792.4063,297.7344 Q3789.9063,297.7344 3788.5781,296.0938 Q3787.2656,294.4375 3787.2656,291.3125 Q3787.2656,288.1875 3788.5781,286.5313 Q3789.9063,284.875 3792.4063,284.875 Q3793.1094,284.875 3793.75,285.0313 Q3794.4063,285.1875 3794.9688,285.4844 L3794.9688,288.2031 Q3794.3438,287.625 3793.75,287.3594 Q3793.1563,287.0781 3792.5313,287.0781 Q3791.1875,287.0781 3790.5,288.1563 Q3789.8125,289.2188 3789.8125,291.3125 Q3789.8125,293.4063 3790.5,294.4844 Q3791.1875,295.5469 3792.5313,295.5469 Q3793.1563,295.5469 3793.75,295.2813 Q3794.3438,295 3794.9688,294.4219 L3794.9688,297.1406 Z " fill="#000000"/><text fill="#000000" font-family="sans-serif" font-size="14" lengthAdjust="spacing" textLength="268.2012" x="3806" y="296.3467">comp_arc_sta__baselibs__concurrency</text><line style="stroke:#181818;stroke-width:0.5;" x1="3778" x2="4076.2012" y1="307.5" y2="307.5"/></g><!--class logic_arc_int__baselibs__synchronized_queue--><g id="elem_logic_arc_int__baselibs__synchronized_queue"><rect fill="#F1F1F1" height="40" id="logic_arc_int__baselibs__synchronized_queue" rx="2.5" ry="2.5" style="stroke:#181818;stroke-width:0.5;" width="348.3604" x="4861" y="158.5"/><ellipse cx="4876" cy="174.5" fill="#ADD1B2" rx="11" ry="11" style="stroke:#181818;stroke-width:1;"/><path d="M4878.9688,180.1406 Q4878.3906,180.4375 4877.75,180.5781 Q4877.1094,180.7344 4876.4063,180.7344 Q4873.9063,180.7344 4872.5781,179.0938 Q4871.2656,177.4375 4871.2656,174.3125 Q4871.2656,171.1875 4872.5781,169.5313 Q4873.9063,167.875 4876.4063,167.875 Q4877.1094,167.875 4877.75,168.0313 Q4878.4063,168.1875 4878.9688,168.4844 L4878.9688,171.2031 Q4878.3438,170.625 4877.75,170.3594 Q4877.1563,170.0781 4876.5313,170.0781 Q4875.1875,170.0781 4874.5,171.1563 Q4873.8125,172.2188 4873.8125,174.3125 Q4873.8125,176.4063 4874.5,177.4844 Q4875.1875,178.5469 4876.5313,178.5469 Q4877.1563,178.5469 4877.75,178.2813 Q4878.3438,178 4878.9688,177.4219 L4878.9688,180.1406 Z " fill="#000000"/><text fill="#000000" font-family="sans-serif" font-size="14" lengthAdjust="spacing" textLength="316.3604" x="4890" y="179.3467">logic_arc_int__baselibs__synchronized_queue</text><line style="stroke:#181818;stroke-width:0.5;" x1="4862" x2="5208.3604" y1="190.5" y2="190.5"/></g><!--class logic_arc_int__baselibs__utils_scoped_op--><g id="elem_logic_arc_int__baselibs__utils_scoped_op"><rect fill="#F1F1F1" height="40" id="logic_arc_int__baselibs__utils_scoped_op" rx="2.5" ry="2.5" style="stroke:#181818;stroke-width:0.5;" width="315.377" x="1732.5" y="158.5"/><ellipse cx="1747.5" cy="174.5" fill="#ADD1B2" rx="11" ry="11" style="stroke:#181818;stroke-width:1;"/><path d="M1750.4688,180.1406 Q1749.8906,180.4375 1749.25,180.5781 Q1748.6094,180.7344 1747.9063,180.7344 Q1745.4063,180.7344 1744.0781,179.0938 Q1742.7656,177.4375 1742.7656,174.3125 Q1742.7656,171.1875 1744.0781,169.5313 Q1745.4063,167.875 1747.9063,167.875 Q1748.6094,167.875 1749.25,168.0313 Q1749.9063,168.1875 1750.4688,168.4844 L1750.4688,171.2031 Q1749.8438,170.625 1749.25,170.3594 Q1748.6563,170.0781 1748.0313,170.0781 Q1746.6875,170.0781 1746,171.1563 Q1745.3125,172.2188 1745.3125,174.3125 Q1745.3125,176.4063 1746,177.4844 Q1746.6875,178.5469 1748.0313,178.5469 Q1748.6563,178.5469 1749.25,178.2813 Q1749.8438,178 1750.4688,177.4219 L1750.4688,180.1406 Z " fill="#000000"/><text fill="#000000" font-family="sans-serif" font-size="14" lengthAdjust="spacing" textLength="283.377" x="1761.5" y="179.3467">logic_arc_int__baselibs__utils_scoped_op</text><line style="stroke:#181818;stroke-width:0.5;" x1="1733.5" x2="2046.877" y1="190.5" y2="190.5"/></g><!--class logic_arc_int__baselibs__task_result--><g id="elem_logic_arc_int__baselibs__task_result"><rect fill="#F1F1F1" height="40" id="logic_arc_int__baselibs__task_result" rx="2.5" ry="2.5" style="stroke:#181818;stroke-width:0.5;" width="280.9307" x="4544.5" y="158.5"/><ellipse cx="4559.5" cy="174.5" fill="#ADD1B2" rx="11" ry="11" style="stroke:#181818;stroke-width:1;"/><path d="M4562.4688,180.1406 Q4561.8906,180.4375 4561.25,180.5781 Q4560.6094,180.7344 4559.9063,180.7344 Q4557.4063,180.7344 4556.0781,179.0938 Q4554.7656,177.4375 4554.7656,174.3125 Q4554.7656,171.1875 4556.0781,169.5313 Q4557.4063,167.875 4559.9063,167.875 Q4560.6094,167.875 4561.25,168.0313 Q4561.9063,168.1875 4562.4688,168.4844 L4562.4688,171.2031 Q4561.8438,170.625 4561.25,170.3594 Q4560.6563,170.0781 4560.0313,170.0781 Q4558.6875,170.0781 4558,171.1563 Q4557.3125,172.2188 4557.3125,174.3125 Q4557.3125,176.4063 4558,177.4844 Q4558.6875,178.5469 4560.0313,178.5469 Q4560.6563,178.5469 4561.25,178.2813 Q4561.8438,178 4562.4688,177.4219 L4562.4688,180.1406 Z " fill="#000000"/><text fill="#000000" font-family="sans-serif" font-size="14" lengthAdjust="spacing" textLength="248.9307" x="4573.5" y="179.3467">logic_arc_int__baselibs__task_result</text><line style="stroke:#181818;stroke-width:0.5;" x1="4545.5" x2="4824.4307" y1="190.5" y2="190.5"/></g><!--class comp_arc_sta__baselibs__containers--><g id="elem_comp_arc_sta__baselibs__containers"><rect fill="#F1F1F1" height="40" id="comp_arc_sta__baselibs__containers" rx="2.5" ry="2.5" style="stroke:#181818;stroke-width:0.5;" width="287.1445" x="5414.5" y="275.5"/><ellipse cx="5429.5" cy="291.5" fill="#ADD1B2" rx="11" ry="11" style="stroke:#181818;stroke-width:1;"/><path d="M5432.4688,297.1406 Q5431.8906,297.4375 5431.25,297.5781 Q5430.6094,297.7344 5429.9063,297.7344 Q5427.4063,297.7344 5426.0781,296.0938 Q5424.7656,294.4375 5424.7656,291.3125 Q5424.7656,288.1875 5426.0781,286.5313 Q5427.4063,284.875 5429.9063,284.875 Q5430.6094,284.875 5431.25,285.0313 Q5431.9063,285.1875 5432.4688,285.4844 L5432.4688,288.2031 Q5431.8438,287.625 5431.25,287.3594 Q5430.6563,287.0781 5430.0313,287.0781 Q5428.6875,287.0781 5428,288.1563 Q5427.3125,289.2188 5427.3125,291.3125 Q5427.3125,293.4063 5428,294.4844 Q5428.6875,295.5469 5430.0313,295.5469 Q5430.6563,295.5469 5431.25,295.2813 Q5431.8438,295 5432.4688,294.4219 L5432.4688,297.1406 Z " fill="#000000"/><text fill="#000000" font-family="sans-serif" font-size="14" lengthAdjust="spacing" textLength="255.1445" x="5443.5" y="296.3467">comp_arc_sta__baselibs__containers</text><line style="stroke:#181818;stroke-width:0.5;" x1="5415.5" x2="5700.6445" y1="307.5" y2="307.5"/></g><!--class logic_arc_int__baselibs__filesystem--><g id="elem_logic_arc_int__baselibs__filesystem"><rect fill="#F1F1F1" height="40" id="logic_arc_int__baselibs__filesystem" rx="2.5" ry="2.5" style="stroke:#181818;stroke-width:0.5;" width="276.4805" x="5916" y="158.5"/><ellipse cx="5931" cy="174.5" fill="#ADD1B2" rx="11" ry="11" style="stroke:#181818;stroke-width:1;"/><path d="M5933.9688,180.1406 Q5933.3906,180.4375 5932.75,180.5781 Q5932.1094,180.7344 5931.4063,180.7344 Q5928.9063,180.7344 5927.5781,179.0938 Q5926.2656,177.4375 5926.2656,174.3125 Q5926.2656,171.1875 5927.5781,169.5313 Q5928.9063,167.875 5931.4063,167.875 Q5932.1094,167.875 5932.75,168.0313 Q5933.4063,168.1875 5933.9688,168.4844 L5933.9688,171.2031 Q5933.3438,170.625 5932.75,170.3594 Q5932.1563,170.0781 5931.5313,170.0781 Q5930.1875,170.0781 5929.5,171.1563 Q5928.8125,172.2188 5928.8125,174.3125 Q5928.8125,176.4063 5929.5,177.4844 Q5930.1875,178.5469 5931.5313,178.5469 Q5932.1563,178.5469 5932.75,178.2813 Q5933.3438,178 5933.9688,177.4219 L5933.9688,180.1406 Z " fill="#000000"/><text fill="#000000" font-family="sans-serif" font-size="14" lengthAdjust="spacing" textLength="244.4805" x="5945" y="179.3467">logic_arc_int__baselibs__filesystem</text><line style="stroke:#181818;stroke-width:0.5;" x1="5917" x2="6191.4805" y1="190.5" y2="190.5"/></g><!--class logic_arc_int__baselibs__condition_variable--><g id="elem_logic_arc_int__baselibs__condition_variable"><rect fill="#F1F1F1" height="40" id="logic_arc_int__baselibs__condition_variable" rx="2.5" ry="2.5" style="stroke:#181818;stroke-width:0.5;" width="332.7539" x="3322.5" y="158.5"/><ellipse cx="3337.5" cy="174.5" fill="#ADD1B2" rx="11" ry="11" style="stroke:#181818;stroke-width:1;"/><path d="M3340.4688,180.1406 Q3339.8906,180.4375 3339.25,180.5781 Q3338.6094,180.7344 3337.9063,180.7344 Q3335.4063,180.7344 3334.0781,179.0938 Q3332.7656,177.4375 3332.7656,174.3125 Q3332.7656,171.1875 3334.0781,169.5313 Q3335.4063,167.875 3337.9063,167.875 Q3338.6094,167.875 3339.25,168.0313 Q3339.9063,168.1875 3340.4688,168.4844 L3340.4688,171.2031 Q3339.8438,170.625 3339.25,170.3594 Q3338.6563,170.0781 3338.0313,170.0781 Q3336.6875,170.0781 3336,171.1563 Q3335.3125,172.2188 3335.3125,174.3125 Q3335.3125,176.4063 3336,177.4844 Q3336.6875,178.5469 3338.0313,178.5469 Q3338.6563,178.5469 3339.25,178.2813 Q3339.8438,178 3340.4688,177.4219 L3340.4688,180.1406 Z " fill="#000000"/><text fill="#000000" font-family="sans-serif" font-size="14" lengthAdjust="spacing" textLength="300.7539" x="3351.5" y="179.3467">logic_arc_int__baselibs__condition_variable</text><line style="stroke:#181818;stroke-width:0.5;" x1="3323.5" x2="3654.2539" y1="190.5" y2="190.5"/></g><!--class comp_arc_sta__baselibs__filesystem--><g id="elem_comp_arc_sta__baselibs__filesystem"><rect fill="#F1F1F1" height="40" id="comp_arc_sta__baselibs__filesystem" rx="2.5" ry="2.5" style="stroke:#181818;stroke-width:0.5;" width="285.4492" x="5911.5" y="275.5"/><ellipse cx="5926.5" cy="291.5" fill="#ADD1B2" rx="11" ry="11" style="stroke:#181818;stroke-width:1;"/><path d="M5929.4688,297.1406 Q5928.8906,297.4375 5928.25,297.5781 Q5927.6094,297.7344 5926.9063,297.7344 Q5924.4063,297.7344 5923.0781,296.0938 Q5921.7656,294.4375 5921.7656,291.3125 Q5921.7656,288.1875 5923.0781,286.5313 Q5924.4063,284.875 5926.9063,284.875 Q5927.6094,284.875 5928.25,285.0313 Q5928.9063,285.1875 5929.4688,285.4844 L5929.4688,288.2031 Q5928.8438,287.625 5928.25,287.3594 Q5927.6563,287.0781 5927.0313,287.0781 Q5925.6875,287.0781 5925,288.1563 Q5924.3125,289.2188 5924.3125,291.3125 Q5924.3125,293.4063 5925,294.4844 Q5925.6875,295.5469 5927.0313,295.5469 Q5927.6563,295.5469 5928.25,295.2813 Q5928.8438,295 5929.4688,294.4219 L5929.4688,297.1406 Z " fill="#000000"/><text fill="#000000" font-family="sans-serif" font-size="14" lengthAdjust="spacing" textLength="253.4492" x="5940.5" y="296.3467">comp_arc_sta__baselibs__filesystem</text><line style="stroke:#181818;stroke-width:0.5;" x1="5912.5" x2="6195.9492" y1="307.5" y2="307.5"/></g><!--class logic_arc_int__baselibs__future--><g id="elem_logic_arc_int__baselibs__future"><rect fill="#F1F1F1" height="40" id="logic_arc_int__baselibs__future" rx="2.5" ry="2.5" style="stroke:#181818;stroke-width:0.5;" width="247.0791" x="3992.5" y="158.5"/><ellipse cx="4007.5" cy="174.5" fill="#ADD1B2" rx="11" ry="11" style="stroke:#181818;stroke-width:1;"/><path d="M4010.4688,180.1406 Q4009.8906,180.4375 4009.25,180.5781 Q4008.6094,180.7344 4007.9063,180.7344 Q4005.4063,180.7344 4004.0781,179.0938 Q4002.7656,177.4375 4002.7656,174.3125 Q4002.7656,171.1875 4004.0781,169.5313 Q4005.4063,167.875 4007.9063,167.875 Q4008.6094,167.875 4009.25,168.0313 Q4009.9063,168.1875 4010.4688,168.4844 L4010.4688,171.2031 Q4009.8438,170.625 4009.25,170.3594 Q4008.6563,170.0781 4008.0313,170.0781 Q4006.6875,170.0781 4006,171.1563 Q4005.3125,172.2188 4005.3125,174.3125 Q4005.3125,176.4063 4006,177.4844 Q4006.6875,178.5469 4008.0313,178.5469 Q4008.6563,178.5469 4009.25,178.2813 Q4009.8438,178 4010.4688,177.4219 L4010.4688,180.1406 Z " fill="#000000"/><text fill="#000000" font-family="sans-serif" font-size="14" lengthAdjust="spacing" textLength="215.0791" x="4021.5" y="179.3467">logic_arc_int__baselibs__future</text><line style="stroke:#181818;stroke-width:0.5;" x1="3993.5" x2="4238.5791" y1="190.5" y2="190.5"/></g><!--class logic_arc_int__baselibs__executor--><g id="elem_logic_arc_int__baselibs__executor"><rect fill="#F1F1F1" height="40" id="logic_arc_int__baselibs__executor" rx="2.5" ry="2.5" style="stroke:#181818;stroke-width:0.5;" width="266.4385" x="3691" y="158.5"/><ellipse cx="3706" cy="174.5" fill="#ADD1B2" rx="11" ry="11" style="stroke:#181818;stroke-width:1;"/><path d="M3708.9688,180.1406 Q3708.3906,180.4375 3707.75,180.5781 Q3707.1094,180.7344 3706.4063,180.7344 Q3703.9063,180.7344 3702.5781,179.0938 Q3701.2656,177.4375 3701.2656,174.3125 Q3701.2656,171.1875 3702.5781,169.5313 Q3703.9063,167.875 3706.4063,167.875 Q3707.1094,167.875 3707.75,168.0313 Q3708.4063,168.1875 3708.9688,168.4844 L3708.9688,171.2031 Q3708.3438,170.625 3707.75,170.3594 Q3707.1563,170.0781 3706.5313,170.0781 Q3705.1875,170.0781 3704.5,171.1563 Q3703.8125,172.2188 3703.8125,174.3125 Q3703.8125,176.4063 3704.5,177.4844 Q3705.1875,178.5469 3706.5313,178.5469 Q3707.1563,178.5469 3707.75,178.2813 Q3708.3438,178 3708.9688,177.4219 L3708.9688,180.1406 Z " fill="#000000"/><text fill="#000000" font-family="sans-serif" font-size="14" lengthAdjust="spacing" textLength="234.4385" x="3720" y="179.3467">logic_arc_int__baselibs__executor</text><line style="stroke:#181818;stroke-width:0.5;" x1="3692" x2="3956.4385" y1="190.5" y2="190.5"/></g><!--class logic_arc_int__baselibs__task--><g id="elem_logic_arc_int__baselibs__task"><rect fill="#F1F1F1" height="40" id="logic_arc_int__baselibs__task" rx="2.5" ry="2.5" style="stroke:#181818;stroke-width:0.5;" width="234.0156" x="4275" y="158.5"/><ellipse cx="4290" cy="174.5" fill="#ADD1B2" rx="11" ry="11" style="stroke:#181818;stroke-width:1;"/><path d="M4292.9688,180.1406 Q4292.3906,180.4375 4291.75,180.5781 Q4291.1094,180.7344 4290.4063,180.7344 Q4287.9063,180.7344 4286.5781,179.0938 Q4285.2656,177.4375 4285.2656,174.3125 Q4285.2656,171.1875 4286.5781,169.5313 Q4287.9063,167.875 4290.4063,167.875 Q4291.1094,167.875 4291.75,168.0313 Q4292.4063,168.1875 4292.9688,168.4844 L4292.9688,171.2031 Q4292.3438,170.625 4291.75,170.3594 Q4291.1563,170.0781 4290.5313,170.0781 Q4289.1875,170.0781 4288.5,171.1563 Q4287.8125,172.2188 4287.8125,174.3125 Q4287.8125,176.4063 4288.5,177.4844 Q4289.1875,178.5469 4290.5313,178.5469 Q4291.1563,178.5469 4291.75,178.2813 Q4292.3438,178 4292.9688,177.4219 L4292.9688,180.1406 Z " fill="#000000"/><text fill="#000000" font-family="sans-serif" font-size="14" lengthAdjust="spacing" textLength="202.0156" x="4304" y="179.3467">logic_arc_int__baselibs__task</text><line style="stroke:#181818;stroke-width:0.5;" x1="4276" x2="4508.0156" y1="190.5" y2="190.5"/></g><!--class logic_arc_int__baselibs__memory_shared--><g id="elem_logic_arc_int__baselibs__memory_shared"><rect fill="#F1F1F1" height="40" id="logic_arc_int__baselibs__memory_shared" rx="2.5" ry="2.5" style="stroke:#181818;stroke-width:0.5;" width="318.043" x="652" y="158.5"/><ellipse cx="667" cy="174.5" fill="#ADD1B2" rx="11" ry="11" style="stroke:#181818;stroke-width:1;"/><path d="M669.9688,180.1406 Q669.3906,180.4375 668.75,180.5781 Q668.1094,180.7344 667.4063,180.7344 Q664.9063,180.7344 663.5781,179.0938 Q662.2656,177.4375 662.2656,174.3125 Q662.2656,171.1875 663.5781,169.5313 Q664.9063,167.875 667.4063,167.875 Q668.1094,167.875 668.75,168.0313 Q669.4063,168.1875 669.9688,168.4844 L669.9688,171.2031 Q669.3438,170.625 668.75,170.3594 Q668.1563,170.0781 667.5313,170.0781 Q666.1875,170.0781 665.5,171.1563 Q664.8125,172.2188 664.8125,174.3125 Q664.8125,176.4063 665.5,177.4844 Q666.1875,178.5469 667.5313,178.5469 Q668.1563,178.5469 668.75,178.2813 Q669.3438,178 669.9688,177.4219 L669.9688,180.1406 Z " fill="#000000"/><text fill="#000000" font-family="sans-serif" font-size="14" lengthAdjust="spacing" textLength="286.043" x="681" y="179.3467">logic_arc_int__baselibs__memory_shared</text><line style="stroke:#181818;stroke-width:0.5;" x1="653" x2="969.043" y1="190.5" y2="190.5"/></g><!--class logic_arc_int__baselibs__bit_manipulation--><g id="elem_logic_arc_int__baselibs__bit_manipulation"><rect fill="#F1F1F1" height="40" id="logic_arc_int__baselibs__bit_manipulation" rx="2.5" ry="2.5" style="stroke:#181818;stroke-width:0.5;" width="321.8369" x="1005" y="158.5"/><ellipse cx="1020" cy="174.5" fill="#ADD1B2" rx="11" ry="11" style="stroke:#181818;stroke-width:1;"/><path d="M1022.9688,180.1406 Q1022.3906,180.4375 1021.75,180.5781 Q1021.1094,180.7344 1020.4063,180.7344 Q1017.9063,180.7344 1016.5781,179.0938 Q1015.2656,177.4375 1015.2656,174.3125 Q1015.2656,171.1875 1016.5781,169.5313 Q1017.9063,167.875 1020.4063,167.875 Q1021.1094,167.875 1021.75,168.0313 Q1022.4063,168.1875 1022.9688,168.4844 L1022.9688,171.2031 Q1022.3438,170.625 1021.75,170.3594 Q1021.1563,170.0781 1020.5313,170.0781 Q1019.1875,170.0781 1018.5,171.1563 Q1017.8125,172.2188 1017.8125,174.3125 Q1017.8125,176.4063 1018.5,177.4844 Q1019.1875,178.5469 1020.5313,178.5469 Q1021.1563,178.5469 1021.75,178.2813 Q1022.3438,178 1022.9688,177.4219 L1022.9688,180.1406 Z " fill="#000000"/><text fill="#000000" font-family="sans-serif" font-size="14" lengthAdjust="spacing" textLength="289.8369" x="1034" y="179.3467">logic_arc_int__baselibs__bit_manipulation</text><line style="stroke:#181818;stroke-width:0.5;" x1="1006" x2="1325.8369" y1="190.5" y2="190.5"/></g><!--class logic_arc_int__baselibs__bit_mask_operator--><g id="elem_logic_arc_int__baselibs__bit_mask_operator"><rect fill="#F1F1F1" height="40" id="logic_arc_int__baselibs__bit_mask_operator" rx="2.5" ry="2.5" style="stroke:#181818;stroke-width:0.5;" width="334.6406" x="1362.5" y="158.5"/><ellipse cx="1377.5" cy="174.5" fill="#ADD1B2" rx="11" ry="11" style="stroke:#181818;stroke-width:1;"/><path d="M1380.4688,180.1406 Q1379.8906,180.4375 1379.25,180.5781 Q1378.6094,180.7344 1377.9063,180.7344 Q1375.4063,180.7344 1374.0781,179.0938 Q1372.7656,177.4375 1372.7656,174.3125 Q1372.7656,171.1875 1374.0781,169.5313 Q1375.4063,167.875 1377.9063,167.875 Q1378.6094,167.875 1379.25,168.0313 Q1379.9063,168.1875 1380.4688,168.4844 L1380.4688,171.2031 Q1379.8438,170.625 1379.25,170.3594 Q1378.6563,170.0781 1378.0313,170.0781 Q1376.6875,170.0781 1376,171.1563 Q1375.3125,172.2188 1375.3125,174.3125 Q1375.3125,176.4063 1376,177.4844 Q1376.6875,178.5469 1378.0313,178.5469 Q1378.6563,178.5469 1379.25,178.2813 Q1379.8438,178 1380.4688,177.4219 L1380.4688,180.1406 Z " fill="#000000"/><text fill="#000000" font-family="sans-serif" font-size="14" lengthAdjust="spacing" textLength="302.6406" x="1391.5" y="179.3467">logic_arc_int__baselibs__bit_mask_operator</text><line style="stroke:#181818;stroke-width:0.5;" x1="1363.5" x2="1696.1406" y1="190.5" y2="190.5"/></g><!--class logic_arc_int__baselibs__utils_base64--><g id="elem_logic_arc_int__baselibs__utils_base64"><rect fill="#F1F1F1" height="40" id="logic_arc_int__baselibs__utils_base64" rx="2.5" ry="2.5" style="stroke:#181818;stroke-width:0.5;" width="292.1689" x="2083" y="158.5"/><ellipse cx="2098" cy="174.5" fill="#ADD1B2" rx="11" ry="11" style="stroke:#181818;stroke-width:1;"/><path d="M2100.9688,180.1406 Q2100.3906,180.4375 2099.75,180.5781 Q2099.1094,180.7344 2098.4063,180.7344 Q2095.9063,180.7344 2094.5781,179.0938 Q2093.2656,177.4375 2093.2656,174.3125 Q2093.2656,171.1875 2094.5781,169.5313 Q2095.9063,167.875 2098.4063,167.875 Q2099.1094,167.875 2099.75,168.0313 Q2100.4063,168.1875 2100.9688,168.4844 L2100.9688,171.2031 Q2100.3438,170.625 2099.75,170.3594 Q2099.1563,170.0781 2098.5313,170.0781 Q2097.1875,170.0781 2096.5,171.1563 Q2095.8125,172.2188 2095.8125,174.3125 Q2095.8125,176.4063 2096.5,177.4844 Q2097.1875,178.5469 2098.5313,178.5469 Q2099.1563,178.5469 2099.75,178.2813 Q2100.3438,178 2100.9688,177.4219 L2100.9688,180.1406 Z " fill="#000000"/><text fill="#000000" font-family="sans-serif" font-size="14" lengthAdjust="spacing" textLength="260.1689" x="2112" y="179.3467">logic_arc_int__baselibs__utils_base64</text><line style="stroke:#181818;stroke-width:0.5;" x1="2084" x2="2374.1689" y1="190.5" y2="190.5"/></g><!--class logic_arc_int__baselibs__promise--><g id="elem_logic_arc_int__baselibs__promise"><rect fill="#F1F1F1" height="40" id="logic_arc_int__baselibs__promise" rx="2.5" ry="2.5" style="stroke:#181818;stroke-width:0.5;" width="261.1885" x="3026.5" y="158.5"/><ellipse cx="3041.5" cy="174.5" fill="#ADD1B2" rx="11" ry="11" style="stroke:#181818;stroke-width:1;"/><path d="M3044.4688,180.1406 Q3043.8906,180.4375 3043.25,180.5781 Q3042.6094,180.7344 3041.9063,180.7344 Q3039.4063,180.7344 3038.0781,179.0938 Q3036.7656,177.4375 3036.7656,174.3125 Q3036.7656,171.1875 3038.0781,169.5313 Q3039.4063,167.875 3041.9063,167.875 Q3042.6094,167.875 3043.25,168.0313 Q3043.9063,168.1875 3044.4688,168.4844 L3044.4688,171.2031 Q3043.8438,170.625 3043.25,170.3594 Q3042.6563,170.0781 3042.0313,170.0781 Q3040.6875,170.0781 3040,171.1563 Q3039.3125,172.2188 3039.3125,174.3125 Q3039.3125,176.4063 3040,177.4844 Q3040.6875,178.5469 3042.0313,178.5469 Q3042.6563,178.5469 3043.25,178.2813 Q3043.8438,178 3044.4688,177.4219 L3044.4688,180.1406 Z " fill="#000000"/><text fill="#000000" font-family="sans-serif" font-size="14" lengthAdjust="spacing" textLength="229.1885" x="3055.5" y="179.3467">logic_arc_int__baselibs__promise</text><line style="stroke:#181818;stroke-width:0.5;" x1="3027.5" x2="3286.6885" y1="190.5" y2="190.5"/></g><!--class comp_arc_sta__baselibs__utils--><g id="elem_comp_arc_sta__baselibs__utils"><rect fill="#F1F1F1" height="40" id="comp_arc_sta__baselibs__utils" rx="2.5" ry="2.5" style="stroke:#181818;stroke-width:0.5;" width="242.9502" x="1937.5" y="275.5"/><ellipse cx="1952.5" cy="291.5" fill="#ADD1B2" rx="11" ry="11" style="stroke:#181818;stroke-width:1;"/><path d="M1955.4688,297.1406 Q1954.8906,297.4375 1954.25,297.5781 Q1953.6094,297.7344 1952.9063,297.7344 Q1950.4063,297.7344 1949.0781,296.0938 Q1947.7656,294.4375 1947.7656,291.3125 Q1947.7656,288.1875 1949.0781,286.5313 Q1950.4063,284.875 1952.9063,284.875 Q1953.6094,284.875 1954.25,285.0313 Q1954.9063,285.1875 1955.4688,285.4844 L1955.4688,288.2031 Q1954.8438,287.625 1954.25,287.3594 Q1953.6563,287.0781 1953.0313,287.0781 Q1951.6875,287.0781 1951,288.1563 Q1950.3125,289.2188 1950.3125,291.3125 Q1950.3125,293.4063 1951,294.4844 Q1951.6875,295.5469 1953.0313,295.5469 Q1953.6563,295.5469 1954.25,295.2813 Q1954.8438,295 1955.4688,294.4219 L1955.4688,297.1406 Z " fill="#000000"/><text fill="#000000" font-family="sans-serif" font-size="14" lengthAdjust="spacing" textLength="210.9502" x="1966.5" y="296.3467">comp_arc_sta__baselibs__utils</text><line style="stroke:#181818;stroke-width:0.5;" x1="1938.5" x2="2179.4502" y1="307.5" y2="307.5"/></g><!--class comp_arc_sta__baselibs__bit_manipulation--><g id="elem_comp_arc_sta__baselibs__bit_manipulation"><rect fill="#F1F1F1" height="40" id="comp_arc_sta__baselibs__bit_manipulation" rx="2.5" ry="2.5" style="stroke:#181818;stroke-width:0.5;" width="330.8057" x="1130.5" y="275.5"/><ellipse cx="1145.5" cy="291.5" fill="#ADD1B2" rx="11" ry="11" style="stroke:#181818;stroke-width:1;"/><path d="M1148.4688,297.1406 Q1147.8906,297.4375 1147.25,297.5781 Q1146.6094,297.7344 1145.9063,297.7344 Q1143.4063,297.7344 1142.0781,296.0938 Q1140.7656,294.4375 1140.7656,291.3125 Q1140.7656,288.1875 1142.0781,286.5313 Q1143.4063,284.875 1145.9063,284.875 Q1146.6094,284.875 1147.25,285.0313 Q1147.9063,285.1875 1148.4688,285.4844 L1148.4688,288.2031 Q1147.8438,287.625 1147.25,287.3594 Q1146.6563,287.0781 1146.0313,287.0781 Q1144.6875,287.0781 1144,288.1563 Q1143.3125,289.2188 1143.3125,291.3125 Q1143.3125,293.4063 1144,294.4844 Q1144.6875,295.5469 1146.0313,295.5469 Q1146.6563,295.5469 1147.25,295.2813 Q1147.8438,295 1148.4688,294.4219 L1148.4688,297.1406 Z " fill="#000000"/><text fill="#000000" font-family="sans-serif" font-size="14" lengthAdjust="spacing" textLength="298.8057" x="1159.5" y="296.3467">comp_arc_sta__baselibs__bit_manipulation</text><line style="stroke:#181818;stroke-width:0.5;" x1="1131.5" x2="1460.3057" y1="307.5" y2="307.5"/></g><!--class logic_arc_int__baselibs__shared_future--><g id="elem_logic_arc_int__baselibs__shared_future"><rect fill="#F1F1F1" height="40" id="logic_arc_int__baselibs__shared_future" rx="2.5" ry="2.5" style="stroke:#181818;stroke-width:0.5;" width="302.0811" x="2689" y="158.5"/><ellipse cx="2704" cy="174.5" fill="#ADD1B2" rx="11" ry="11" style="stroke:#181818;stroke-width:1;"/><path d="M2706.9688,180.1406 Q2706.3906,180.4375 2705.75,180.5781 Q2705.1094,180.7344 2704.4063,180.7344 Q2701.9063,180.7344 2700.5781,179.0938 Q2699.2656,177.4375 2699.2656,174.3125 Q2699.2656,171.1875 2700.5781,169.5313 Q2701.9063,167.875 2704.4063,167.875 Q2705.1094,167.875 2705.75,168.0313 Q2706.4063,168.1875 2706.9688,168.4844 L2706.9688,171.2031 Q2706.3438,170.625 2705.75,170.3594 Q2705.1563,170.0781 2704.5313,170.0781 Q2703.1875,170.0781 2702.5,171.1563 Q2701.8125,172.2188 2701.8125,174.3125 Q2701.8125,176.4063 2702.5,177.4844 Q2703.1875,178.5469 2704.5313,178.5469 Q2705.1563,178.5469 2705.75,178.2813 Q2706.3438,178 2706.9688,177.4219 L2706.9688,180.1406 Z " fill="#000000"/><text fill="#000000" font-family="sans-serif" font-size="14" lengthAdjust="spacing" textLength="270.0811" x="2718" y="179.3467">logic_arc_int__baselibs__shared_future</text><line style="stroke:#181818;stroke-width:0.5;" x1="2690" x2="2990.0811" y1="190.5" y2="190.5"/></g><!--class comp_arc_sta__baselibs__result--><g id="elem_comp_arc_sta__baselibs__result"><rect fill="#F1F1F1" height="40" id="comp_arc_sta__baselibs__result" rx="2.5" ry="2.5" style="stroke:#181818;stroke-width:0.5;" width="253.4297" x="2405.5" y="275.5"/><ellipse cx="2420.5" cy="291.5" fill="#ADD1B2" rx="11" ry="11" style="stroke:#181818;stroke-width:1;"/><path d="M2423.4688,297.1406 Q2422.8906,297.4375 2422.25,297.5781 Q2421.6094,297.7344 2420.9063,297.7344 Q2418.4063,297.7344 2417.0781,296.0938 Q2415.7656,294.4375 2415.7656,291.3125 Q2415.7656,288.1875 2417.0781,286.5313 Q2418.4063,284.875 2420.9063,284.875 Q2421.6094,284.875 2422.25,285.0313 Q2422.9063,285.1875 2423.4688,285.4844 L2423.4688,288.2031 Q2422.8438,287.625 2422.25,287.3594 Q2421.6563,287.0781 2421.0313,287.0781 Q2419.6875,287.0781 2419,288.1563 Q2418.3125,289.2188 2418.3125,291.3125 Q2418.3125,293.4063 2419,294.4844 Q2419.6875,295.5469 2421.0313,295.5469 Q2421.6563,295.5469 2422.25,295.2813 Q2422.8438,295 2423.4688,294.4219 L2423.4688,297.1406 Z " fill="#000000"/><text fill="#000000" font-family="sans-serif" font-size="14" lengthAdjust="spacing" textLength="221.4297" x="2434.5" y="296.3467">comp_arc_sta__baselibs__result</text><line style="stroke:#181818;stroke-width:0.5;" x1="2406.5" x2="2657.9297" y1="307.5" y2="307.5"/></g><!--class logic_arc_int__baselibs__result--><g id="elem_logic_arc_int__baselibs__result"><rect fill="#F1F1F1" height="40" id="logic_arc_int__baselibs__result" rx="2.5" ry="2.5" style="stroke:#181818;stroke-width:0.5;" width="244.4609" x="2410" y="158.5"/><ellipse cx="2425" cy="174.5" fill="#ADD1B2" rx="11" ry="11" style="stroke:#181818;stroke-width:1;"/><path d="M2427.9688,180.1406 Q2427.3906,180.4375 2426.75,180.5781 Q2426.1094,180.7344 2425.4063,180.7344 Q2422.9063,180.7344 2421.5781,179.0938 Q2420.2656,177.4375 2420.2656,174.3125 Q2420.2656,171.1875 2421.5781,169.5313 Q2422.9063,167.875 2425.4063,167.875 Q2426.1094,167.875 2426.75,168.0313 Q2427.4063,168.1875 2427.9688,168.4844 L2427.9688,171.2031 Q2427.3438,170.625 2426.75,170.3594 Q2426.1563,170.0781 2425.5313,170.0781 Q2424.1875,170.0781 2423.5,171.1563 Q2422.8125,172.2188 2422.8125,174.3125 Q2422.8125,176.4063 2423.5,177.4844 Q2424.1875,178.5469 2425.5313,178.5469 Q2426.1563,178.5469 2426.75,178.2813 Q2427.3438,178 2427.9688,177.4219 L2427.9688,180.1406 Z " fill="#000000"/><text fill="#000000" font-family="sans-serif" font-size="14" lengthAdjust="spacing" textLength="212.4609" x="2439" y="179.3467">logic_arc_int__baselibs__result</text><line style="stroke:#181818;stroke-width:0.5;" x1="2411" x2="2653.4609" y1="190.5" y2="190.5"/></g><!--class logic_arc_int__baselibs__message_passing--><g id="elem_logic_arc_int__baselibs__message_passing"><rect fill="#F1F1F1" height="40" id="logic_arc_int__baselibs__message_passing" rx="2.5" ry="2.5" style="stroke:#181818;stroke-width:0.5;" width="328.167" x="289" y="158.5"/><ellipse cx="304" cy="174.5" fill="#ADD1B2" rx="11" ry="11" style="stroke:#181818;stroke-width:1;"/><path d="M306.9688,180.1406 Q306.3906,180.4375 305.75,180.5781 Q305.1094,180.7344 304.4063,180.7344 Q301.9063,180.7344 300.5781,179.0938 Q299.2656,177.4375 299.2656,174.3125 Q299.2656,171.1875 300.5781,169.5313 Q301.9063,167.875 304.4063,167.875 Q305.1094,167.875 305.75,168.0313 Q306.4063,168.1875 306.9688,168.4844 L306.9688,171.2031 Q306.3438,170.625 305.75,170.3594 Q305.1563,170.0781 304.5313,170.0781 Q303.1875,170.0781 302.5,171.1563 Q301.8125,172.2188 301.8125,174.3125 Q301.8125,176.4063 302.5,177.4844 Q303.1875,178.5469 304.5313,178.5469 Q305.1563,178.5469 305.75,178.2813 Q306.3438,178 306.9688,177.4219 L306.9688,180.1406 Z " fill="#000000"/><text fill="#000000" font-family="sans-serif" font-size="14" lengthAdjust="spacing" textLength="296.167" x="318" y="179.3467">logic_arc_int__baselibs__message_passing</text><line style="stroke:#181818;stroke-width:0.5;" x1="290" x2="616.167" y1="190.5" y2="190.5"/></g><!--class logic_arc_int__baselibs__json--><g id="elem_logic_arc_int__baselibs__json"><rect fill="#F1F1F1" height="40" id="logic_arc_int__baselibs__json" rx="2.5" ry="2.5" style="stroke:#181818;stroke-width:0.5;" width="233.168" x="16.5" y="158.5"/><ellipse cx="31.5" cy="174.5" fill="#ADD1B2" rx="11" ry="11" style="stroke:#181818;stroke-width:1;"/><path d="M34.4688,180.1406 Q33.8906,180.4375 33.25,180.5781 Q32.6094,180.7344 31.9063,180.7344 Q29.4063,180.7344 28.0781,179.0938 Q26.7656,177.4375 26.7656,174.3125 Q26.7656,171.1875 28.0781,169.5313 Q29.4063,167.875 31.9063,167.875 Q32.6094,167.875 33.25,168.0313 Q33.9063,168.1875 34.4688,168.4844 L34.4688,171.2031 Q33.8438,170.625 33.25,170.3594 Q32.6563,170.0781 32.0313,170.0781 Q30.6875,170.0781 30,171.1563 Q29.3125,172.2188 29.3125,174.3125 Q29.3125,176.4063 30,177.4844 Q30.6875,178.5469 32.0313,178.5469 Q32.6563,178.5469 33.25,178.2813 Q33.8438,178 34.4688,177.4219 L34.4688,180.1406 Z " fill="#000000"/><text fill="#000000" font-family="sans-serif" font-size="14" lengthAdjust="spacing" textLength="201.168" x="45.5" y="179.3467">logic_arc_int__baselibs__json</text><line style="stroke:#181818;stroke-width:0.5;" x1="17.5" x2="248.668" y1="190.5" y2="190.5"/></g><!--class logic_arc_int__baselibs__intrusive_list--><g id="elem_logic_arc_int__baselibs__intrusive_list"><rect fill="#F1F1F1" height="40" id="logic_arc_int__baselibs__intrusive_list" rx="2.5" ry="2.5" style="stroke:#181818;stroke-width:0.5;" width="293.0713" x="5244.5" y="158.5"/><ellipse cx="5259.5" cy="174.5" fill="#ADD1B2" rx="11" ry="11" style="stroke:#181818;stroke-width:1;"/><path d="M5262.4688,180.1406 Q5261.8906,180.4375 5261.25,180.5781 Q5260.6094,180.7344 5259.9063,180.7344 Q5257.4063,180.7344 5256.0781,179.0938 Q5254.7656,177.4375 5254.7656,174.3125 Q5254.7656,171.1875 5256.0781,169.5313 Q5257.4063,167.875 5259.9063,167.875 Q5260.6094,167.875 5261.25,168.0313 Q5261.9063,168.1875 5262.4688,168.4844 L5262.4688,171.2031 Q5261.8438,170.625 5261.25,170.3594 Q5260.6563,170.0781 5260.0313,170.0781 Q5258.6875,170.0781 5258,171.1563 Q5257.3125,172.2188 5257.3125,174.3125 Q5257.3125,176.4063 5258,177.4844 Q5258.6875,178.5469 5260.0313,178.5469 Q5260.6563,178.5469 5261.25,178.2813 Q5261.8438,178 5262.4688,177.4219 L5262.4688,180.1406 Z " fill="#000000"/><text fill="#000000" font-family="sans-serif" font-size="14" lengthAdjust="spacing" textLength="261.0713" x="5273.5" y="179.3467">logic_arc_int__baselibs__intrusive_list</text><line style="stroke:#181818;stroke-width:0.5;" x1="5245.5" x2="5536.5713" y1="190.5" y2="190.5"/></g><!--class comp_arc_sta__baselibs__memory_shared--><g id="elem_comp_arc_sta__baselibs__memory_shared"><rect fill="#F1F1F1" height="40" id="comp_arc_sta__baselibs__memory_shared" rx="2.5" ry="2.5" style="stroke:#181818;stroke-width:0.5;" width="327.0117" x="656.5" y="275.5"/><ellipse cx="671.5" cy="291.5" fill="#ADD1B2" rx="11" ry="11" style="stroke:#181818;stroke-width:1;"/><path d="M674.4688,297.1406 Q673.8906,297.4375 673.25,297.5781 Q672.6094,297.7344 671.9063,297.7344 Q669.4063,297.7344 668.0781,296.0938 Q666.7656,294.4375 666.7656,291.3125 Q666.7656,288.1875 668.0781,286.5313 Q669.4063,284.875 671.9063,284.875 Q672.6094,284.875 673.25,285.0313 Q673.9063,285.1875 674.4688,285.4844 L674.4688,288.2031 Q673.8438,287.625 673.25,287.3594 Q672.6563,287.0781 672.0313,287.0781 Q670.6875,287.0781 670,288.1563 Q669.3125,289.2188 669.3125,291.3125 Q669.3125,293.4063 670,294.4844 Q670.6875,295.5469 672.0313,295.5469 Q672.6563,295.5469 673.25,295.2813 Q673.8438,295 674.4688,294.4219 L674.4688,297.1406 Z " fill="#000000"/><text fill="#000000" font-family="sans-serif" font-size="14" lengthAdjust="spacing" textLength="295.0117" x="685.5" y="296.3467">comp_arc_sta__baselibs__memory_shared</text><line style="stroke:#181818;stroke-width:0.5;" x1="657.5" x2="982.5117" y1="307.5" y2="307.5"/></g><!--class comp_arc_sta__baselibs__message_passing--><g id="elem_comp_arc_sta__baselibs__message_passing"><rect fill="#F1F1F1" height="40" id="comp_arc_sta__baselibs__message_passing" rx="2.5" ry="2.5" style="stroke:#181818;stroke-width:0.5;" width="337.1357" x="284.5" y="275.5"/><ellipse cx="299.5" cy="291.5" fill="#ADD1B2" rx="11" ry="11" style="stroke:#181818;stroke-width:1;"/><path d="M302.4688,297.1406 Q301.8906,297.4375 301.25,297.5781 Q300.6094,297.7344 299.9063,297.7344 Q297.4063,297.7344 296.0781,296.0938 Q294.7656,294.4375 294.7656,291.3125 Q294.7656,288.1875 296.0781,286.5313 Q297.4063,284.875 299.9063,284.875 Q300.6094,284.875 301.25,285.0313 Q301.9063,285.1875 302.4688,285.4844 L302.4688,288.2031 Q301.8438,287.625 301.25,287.3594 Q300.6563,287.0781 300.0313,287.0781 Q298.6875,287.0781 298,288.1563 Q297.3125,289.2188 297.3125,291.3125 Q297.3125,293.4063 298,294.4844 Q298.6875,295.5469 300.0313,295.5469 Q300.6563,295.5469 301.25,295.2813 Q301.8438,295 302.4688,294.4219 L302.4688,297.1406 Z " fill="#000000"/><text fill="#000000" font-family="sans-serif" font-size="14" lengthAdjust="spacing" textLength="305.1357" x="313.5" y="296.3467">comp_arc_sta__baselibs__message_passing</text><line style="stroke:#181818;stroke-width:0.5;" x1="285.5" x2="620.6357" y1="307.5" y2="307.5"/></g><!--class comp_arc_sta__baselibs__json--><g id="elem_comp_arc_sta__baselibs__json"><rect fill="#F1F1F1" height="40" id="comp_arc_sta__baselibs__json" rx="2.5" ry="2.5" style="stroke:#181818;stroke-width:0.5;" width="242.1367" x="7" y="275.5"/><ellipse cx="22" cy="291.5" fill="#ADD1B2" rx="11" ry="11" style="stroke:#181818;stroke-width:1;"/><path d="M24.9688,297.1406 Q24.3906,297.4375 23.75,297.5781 Q23.1094,297.7344 22.4063,297.7344 Q19.9063,297.7344 18.5781,296.0938 Q17.2656,294.4375 17.2656,291.3125 Q17.2656,288.1875 18.5781,286.5313 Q19.9063,284.875 22.4063,284.875 Q23.1094,284.875 23.75,285.0313 Q24.4063,285.1875 24.9688,285.4844 L24.9688,288.2031 Q24.3438,287.625 23.75,287.3594 Q23.1563,287.0781 22.5313,287.0781 Q21.1875,287.0781 20.5,288.1563 Q19.8125,289.2188 19.8125,291.3125 Q19.8125,293.4063 20.5,294.4844 Q21.1875,295.5469 22.5313,295.5469 Q23.1563,295.5469 23.75,295.2813 Q24.3438,295 24.9688,294.4219 L24.9688,297.1406 Z " fill="#000000"/><text fill="#000000" font-family="sans-serif" font-size="14" lengthAdjust="spacing" textLength="210.1367" x="36" y="296.3467">comp_arc_sta__baselibs__json</text><line style="stroke:#181818;stroke-width:0.5;" x1="8" x2="248.1367" y1="307.5" y2="307.5"/></g><!--link Feature_User to logic_arc_int__baselibs__dynamic_array--><g id="link_Feature_User_logic_arc_int__baselibs__dynamic_array"><path codeLine="15" d="M3202.19,45.8 C3399.36,51.56 4203.94,76.11 4864,111.5 C5171.38,127.98 5248.4,131.15 5555,158.5 C5560.84,159.02 5560.8078,158.9927 5566.8078,159.5727 " fill="transparent" id="Feature_User-to-logic_arc_int__baselibs__dynamic_array" style="stroke:#181818;stroke-width:1;"/><polygon fill="#181818" points="5572.78,160.15,5564.2066,155.3026,5567.8032,159.6689,5563.4369,163.2655,5572.78,160.15" style="stroke:#181818;stroke-width:1;"/><text fill="#000000" font-family="sans-serif" font-size="13" lengthAdjust="spacing" textLength="23.0103" x="5165" y="124.5669">use</text></g><!--reverse link logic_arc_int__baselibs__synchronized_queue to comp_arc_sta__baselibs__concurrency--><g id="link_logic_arc_int__baselibs__synchronized_queue_comp_arc_sta__baselibs__concurrency"><path codeLine="16" d="M4872.5923,199.2315 C4757.4623,212.9815 4603.07,230.92 4462,245.5 C4332.23,258.91 4184.55,272.3 4077.27,281.68 " fill="transparent" id="logic_arc_int__baselibs__synchronized_queue-backto-comp_arc_sta__baselibs__concurrency" style="stroke:#181818;stroke-width:1;"/><polygon fill="#181818" points="4878.55,198.52,4869.1392,195.6155,4873.5853,199.1129,4870.0879,203.5591,4878.55,198.52" style="stroke:#181818;stroke-width:1;"/><text fill="#000000" font-family="sans-serif" font-size="13" lengthAdjust="spacing" textLength="76.9082" x="4621" y="241.5669">implements</text></g><!--link Feature_User to logic_arc_int__baselibs__utils_scoped_op--><g id="link_Feature_User_logic_arc_int__baselibs__utils_scoped_op"><path codeLine="17" d="M3111.74,49.16 C2962.32,64.55 2471.09,115.26 2065,158.5 C2059.38,159.1 2059.6158,159.0701 2053.8358,159.6901 " fill="transparent" id="Feature_User-to-logic_arc_int__baselibs__utils_scoped_op" style="stroke:#181818;stroke-width:1;"/><polygon fill="#181818" points="2047.87,160.33,2057.2453,163.3473,2052.8415,159.7967,2056.392,155.3929,2047.87,160.33" style="stroke:#181818;stroke-width:1;"/><text fill="#000000" font-family="sans-serif" font-size="13" lengthAdjust="spacing" textLength="23.0103" x="2487" y="124.5669">use</text></g><!--reverse link logic_arc_int__baselibs__task_result to comp_arc_sta__baselibs__concurrency--><g id="link_logic_arc_int__baselibs__task_result_comp_arc_sta__baselibs__concurrency"><path codeLine="18" d="M4564.4592,199.4716 C4482.0692,212.9916 4374.22,230.38 4274,245.5 C4205.57,255.83 4129.44,266.65 4065.97,275.49 " fill="transparent" id="logic_arc_int__baselibs__task_result-backto-comp_arc_sta__baselibs__concurrency" style="stroke:#181818;stroke-width:1;"/><polygon fill="#181818" points="4570.38,198.5,4560.8511,196.0102,4565.446,199.3097,4562.1465,203.9046,4570.38,198.5" style="stroke:#181818;stroke-width:1;"/><text fill="#000000" font-family="sans-serif" font-size="13" lengthAdjust="spacing" textLength="76.9082" x="4377" y="241.5669">implements</text></g><!--reverse link logic_arc_int__baselibs__dynamic_array to comp_arc_sta__baselibs__containers--><g id="link_logic_arc_int__baselibs__dynamic_array_comp_arc_sta__baselibs__containers"><path codeLine="19" d="M5693.7494,202.1252 C5662.4594,223.4152 5617.31,254.14 5586.1,275.38 " fill="transparent" id="logic_arc_int__baselibs__dynamic_array-backto-comp_arc_sta__baselibs__containers" style="stroke:#181818;stroke-width:1;"/><polygon fill="#181818" points="5698.71,198.75,5689.0189,200.5058,5694.5762,201.5627,5693.5192,207.1199,5698.71,198.75" style="stroke:#181818;stroke-width:1;"/><text fill="#000000" font-family="sans-serif" font-size="13" lengthAdjust="spacing" textLength="76.9082" x="5654" y="241.5669">implements</text></g><!--link Feature_User to logic_arc_int__baselibs__filesystem--><g id="link_Feature_User_logic_arc_int__baselibs__filesystem"><path codeLine="20" d="M3202.25,45.41 C3421.81,49.97 4398.03,71.61 5197,111.5 C5508.87,127.07 5587.13,129.17 5898,158.5 C5903.84,159.05 5903.8326,159.0155 5909.8526,159.6455 " fill="transparent" id="Feature_User-to-logic_arc_int__baselibs__filesystem" style="stroke:#181818;stroke-width:1;"/><polygon fill="#181818" points="5915.82,160.27,5907.2852,155.355,5910.8472,159.7496,5906.4526,163.3115,5915.82,160.27" style="stroke:#181818;stroke-width:1;"/><text fill="#000000" font-family="sans-serif" font-size="13" lengthAdjust="spacing" textLength="23.0103" x="5526" y="124.5669">use</text></g><!--link Feature_User to logic_arc_int__baselibs__condition_variable--><g id="link_Feature_User_logic_arc_int__baselibs__condition_variable"><path codeLine="21" d="M3202.12,62.58 C3264.79,87.68 3372.1106,130.668 3435.9906,156.268 " fill="transparent" id="Feature_User-to-logic_arc_int__baselibs__condition_variable" style="stroke:#181818;stroke-width:1;"/><polygon fill="#181818" points="3441.56,158.5,3434.6938,151.4391,3436.9188,156.64,3431.7179,158.865,3441.56,158.5" style="stroke:#181818;stroke-width:1;"/><text fill="#000000" font-family="sans-serif" font-size="13" lengthAdjust="spacing" textLength="23.0103" x="3364" y="124.5669">use</text></g><!--reverse link logic_arc_int__baselibs__filesystem to comp_arc_sta__baselibs__filesystem--><g id="link_logic_arc_int__baselibs__filesystem_comp_arc_sta__baselibs__filesystem"><path codeLine="22" d="M6054,204.75 C6054,225.98 6054,253.94 6054,275.19 " fill="transparent" id="logic_arc_int__baselibs__filesystem-backto-comp_arc_sta__baselibs__filesystem" style="stroke:#181818;stroke-width:1;"/><polygon fill="#181818" points="6054,198.75,6050,207.75,6054,203.75,6058,207.75,6054,198.75" style="stroke:#181818;stroke-width:1;"/><text fill="#000000" font-family="sans-serif" font-size="13" lengthAdjust="spacing" textLength="76.9082" x="6055" y="241.5669">implements</text></g><!--link Feature_User to logic_arc_int__baselibs__future--><g id="link_Feature_User_logic_arc_int__baselibs__future"><path codeLine="23" d="M3202.29,50.78 C3343.19,70.32 3771.2569,129.6856 3986.4569,159.5356 " fill="transparent" id="Feature_User-to-logic_arc_int__baselibs__future" style="stroke:#181818;stroke-width:1;"/><polygon fill="#181818" points="3992.4,160.36,3984.0349,155.1614,3987.4474,159.673,3982.9358,163.0855,3992.4,160.36" style="stroke:#181818;stroke-width:1;"/><text fill="#000000" font-family="sans-serif" font-size="13" lengthAdjust="spacing" textLength="23.0103" x="3752" y="124.5669">use</text></g><!--link Feature_User to logic_arc_int__baselibs__executor--><g id="link_Feature_User_logic_arc_int__baselibs__executor"><path codeLine="24" d="M3202.06,53.48 C3309.46,74.9 3576.5659,128.1564 3722.5659,157.2764 " fill="transparent" id="Feature_User-to-logic_arc_int__baselibs__executor" style="stroke:#181818;stroke-width:1;"/><polygon fill="#181818" points="3728.45,158.45,3720.4062,152.7669,3723.5466,157.472,3718.8414,160.6123,3728.45,158.45" style="stroke:#181818;stroke-width:1;"/><text fill="#000000" font-family="sans-serif" font-size="13" lengthAdjust="spacing" textLength="23.0103" x="3571" y="124.5669">use</text></g><!--reverse link logic_arc_int__baselibs__executor to comp_arc_sta__baselibs__concurrency--><g id="link_logic_arc_int__baselibs__executor_comp_arc_sta__baselibs__concurrency"><path codeLine="25" d="M3845.2425,203.2199 C3864.2525,224.4499 3890.67,253.94 3909.7,275.19 " fill="transparent" id="logic_arc_int__baselibs__executor-backto-comp_arc_sta__baselibs__concurrency" style="stroke:#181818;stroke-width:1;"/><polygon fill="#181818" points="3841.24,198.75,3844.2638,208.1232,3844.5754,202.4749,3850.2237,202.7865,3841.24,198.75" style="stroke:#181818;stroke-width:1;"/><text fill="#000000" font-family="sans-serif" font-size="13" lengthAdjust="spacing" textLength="76.9082" x="3883" y="241.5669">implements</text></g><!--link Feature_User to logic_arc_int__baselibs__task--><g id="link_Feature_User_logic_arc_int__baselibs__task"><path codeLine="26" d="M3202.12,48.58 C3352.2,62.28 3848.21,108.57 4257,158.5 C4262.87,159.22 4262.9389,159.2153 4269.0089,159.9953 " fill="transparent" id="Feature_User-to-logic_arc_int__baselibs__task" style="stroke:#181818;stroke-width:1;"/><polygon fill="#181818" points="4274.96,160.76,4266.5432,155.6455,4270.0008,160.1227,4265.5236,163.5803,4274.96,160.76" style="stroke:#181818;stroke-width:1;"/><text fill="#000000" font-family="sans-serif" font-size="13" lengthAdjust="spacing" textLength="23.0103" x="3987" y="124.5669">use</text></g><!--link Feature_User to logic_arc_int__baselibs__memory_shared--><g id="link_Feature_User_logic_arc_int__baselibs__memory_shared"><path codeLine="27" d="M3111.86,45.74 C2884.2,52.22 1839.25,84.79 987,158.5 C981.49,158.98 981.8548,158.9311 976.1948,159.4511 " fill="transparent" id="Feature_User-to-logic_arc_int__baselibs__memory_shared" style="stroke:#181818;stroke-width:1;"/><polygon fill="#181818" points="970.22,160,979.5482,163.1598,975.199,159.5426,978.8163,155.1934,970.22,160" style="stroke:#181818;stroke-width:1;"/><text fill="#000000" font-family="sans-serif" font-size="13" lengthAdjust="spacing" textLength="23.0103" x="1584" y="124.5669">use</text></g><!--link Feature_User to logic_arc_int__baselibs__synchronized_queue--><g id="link_Feature_User_logic_arc_int__baselibs__synchronized_queue"><path codeLine="28" d="M3202.32,46.91 C3398.3,57.47 4192.35,101.69 4843,158.5 C4848.84,159.01 4848.8042,159.0013 4854.7942,159.5413 " fill="transparent" id="Feature_User-to-logic_arc_int__baselibs__synchronized_queue" style="stroke:#181818;stroke-width:1;"/><polygon fill="#181818" points="4860.77,160.08,4852.1655,155.2881,4855.7902,159.6311,4851.4472,163.2558,4860.77,160.08" style="stroke:#181818;stroke-width:1;"/><text fill="#000000" font-family="sans-serif" font-size="13" lengthAdjust="spacing" textLength="23.0103" x="4429" y="124.5669">use</text></g><!--link Feature_User to logic_arc_int__baselibs__bit_manipulation--><g id="link_Feature_User_logic_arc_int__baselibs__bit_manipulation"><path codeLine="29" d="M3111.77,46.55 C2907.2,55.97 2048.01,97.37 1345,158.5 C1339.24,159 1339.3543,158.975 1333.4343,159.525 " fill="transparent" id="Feature_User-to-logic_arc_int__baselibs__bit_manipulation" style="stroke:#181818;stroke-width:1;"/><polygon fill="#181818" points="1327.46,160.08,1336.7914,163.2303,1332.4386,159.6175,1336.0514,155.2646,1327.46,160.08" style="stroke:#181818;stroke-width:1;"/><text fill="#000000" font-family="sans-serif" font-size="13" lengthAdjust="spacing" textLength="23.0103" x="1944" y="124.5669">use</text></g><!--link Feature_User to logic_arc_int__baselibs__bit_mask_operator--><g id="link_Feature_User_logic_arc_int__baselibs__bit_mask_operator"><path codeLine="30" d="M3111.81,47.68 C2933.94,60.3 2264.9,108.53 1715,158.5 C1709.37,159.01 1709.623,158.9716 1703.843,159.5216 " fill="transparent" id="Feature_User-to-logic_arc_int__baselibs__bit_mask_operator" style="stroke:#181818;stroke-width:1;"/><polygon fill="#181818" points="1697.87,160.09,1707.2084,163.2195,1702.8475,159.6164,1706.4506,155.2554,1697.87,160.09" style="stroke:#181818;stroke-width:1;"/><text fill="#000000" font-family="sans-serif" font-size="13" lengthAdjust="spacing" textLength="23.0103" x="2232" y="124.5669">use</text></g><!--link Feature_User to logic_arc_int__baselibs__utils_base64--><g id="link_Feature_User_logic_arc_int__baselibs__utils_base64"><path codeLine="31" d="M3111.93,50.96 C2977.17,70.27 2579.5593,127.2587 2367.8793,157.5987 " fill="transparent" id="Feature_User-to-logic_arc_int__baselibs__utils_base64" style="stroke:#181818;stroke-width:1;"/><polygon fill="#181818" points="2361.94,158.45,2371.4165,161.1326,2366.8894,157.7406,2370.2814,153.2135,2361.94,158.45" style="stroke:#181818;stroke-width:1;"/><text fill="#000000" font-family="sans-serif" font-size="13" lengthAdjust="spacing" textLength="23.0103" x="2667" y="124.5669">use</text></g><!--link Feature_User to logic_arc_int__baselibs__promise--><g id="link_Feature_User_logic_arc_int__baselibs__promise"><path codeLine="32" d="M3157,81.55 C3157,106.45 3157,132.26 3157,152.26 " fill="transparent" id="Feature_User-to-logic_arc_int__baselibs__promise" style="stroke:#181818;stroke-width:1;"/><polygon fill="#181818" points="3157,158.26,3161,149.26,3157,153.26,3153,149.26,3157,158.26" style="stroke:#181818;stroke-width:1;"/><text fill="#000000" font-family="sans-serif" font-size="13" lengthAdjust="spacing" textLength="23.0103" x="3158" y="124.5669">use</text></g><!--reverse link logic_arc_int__baselibs__condition_variable to comp_arc_sta__baselibs__concurrency--><g id="link_logic_arc_int__baselibs__condition_variable_comp_arc_sta__baselibs__concurrency"><path codeLine="33" d="M3567.6233,200.1438 C3648.7433,221.4438 3773.32,254.15 3854.37,275.43 " fill="transparent" id="logic_arc_int__baselibs__condition_variable-backto-comp_arc_sta__baselibs__concurrency" style="stroke:#181818;stroke-width:1;"/><polygon fill="#181818" points="3561.82,198.62,3569.5091,204.7745,3566.6561,199.8898,3571.5408,197.0368,3561.82,198.62" style="stroke:#181818;stroke-width:1;"/><text fill="#000000" font-family="sans-serif" font-size="13" lengthAdjust="spacing" textLength="76.9082" x="3736" y="241.5669">implements</text></g><!--reverse link logic_arc_int__baselibs__utils_scoped_op to comp_arc_sta__baselibs__utils--><g id="link_logic_arc_int__baselibs__utils_scoped_op_comp_arc_sta__baselibs__utils"><path codeLine="34" d="M1923.2506,202.1252 C1954.5406,223.4152 1999.69,254.14 2030.9,275.38 " fill="transparent" id="logic_arc_int__baselibs__utils_scoped_op-backto-comp_arc_sta__baselibs__utils" style="stroke:#181818;stroke-width:1;"/><polygon fill="#181818" points="1918.29,198.75,1923.4808,207.1199,1922.4238,201.5627,1927.9811,200.5058,1918.29,198.75" style="stroke:#181818;stroke-width:1;"/><text fill="#000000" font-family="sans-serif" font-size="13" lengthAdjust="spacing" textLength="76.9082" x="1986" y="241.5669">implements</text></g><!--reverse link logic_arc_int__baselibs__bit_mask_operator to comp_arc_sta__baselibs__bit_manipulation--><g id="link_logic_arc_int__baselibs__bit_mask_operator_comp_arc_sta__baselibs__bit_manipulation"><path codeLine="35" d="M1485.7151,201.2664 C1442.4351,222.5364 1378.31,254.05 1335,275.34 " fill="transparent" id="logic_arc_int__baselibs__bit_mask_operator-backto-comp_arc_sta__baselibs__bit_manipulation" style="stroke:#181818;stroke-width:1;"/><polygon fill="#181818" points="1491.1,198.62,1481.2585,198.9997,1486.6126,200.8253,1484.787,206.1795,1491.1,198.62" style="stroke:#181818;stroke-width:1;"/><text fill="#000000" font-family="sans-serif" font-size="13" lengthAdjust="spacing" textLength="76.9082" x="1429" y="241.5669">implements</text></g><!--link Feature_User to logic_arc_int__baselibs__shared_future--><g id="link_Feature_User_logic_arc_int__baselibs__shared_future"><path codeLine="36" d="M3111.92,63.41 C3051.75,88.66 2951.3228,130.7987 2890.9728,156.1187 " fill="transparent" id="Feature_User-to-logic_arc_int__baselibs__shared_future" style="stroke:#181818;stroke-width:1;"/><polygon fill="#181818" points="2885.44,158.44,2895.2867,158.6466,2890.0506,156.5056,2892.1916,151.2695,2885.44,158.44" style="stroke:#181818;stroke-width:1;"/><text fill="#000000" font-family="sans-serif" font-size="13" lengthAdjust="spacing" textLength="23.0103" x="2990" y="124.5669">use</text></g><!--reverse link logic_arc_int__baselibs__result to comp_arc_sta__baselibs__result--><g id="link_logic_arc_int__baselibs__result_comp_arc_sta__baselibs__result"><path codeLine="37" d="M2532,204.75 C2532,225.98 2532,253.94 2532,275.19 " fill="transparent" id="logic_arc_int__baselibs__result-backto-comp_arc_sta__baselibs__result" style="stroke:#181818;stroke-width:1;"/><polygon fill="#181818" points="2532,198.75,2528,207.75,2532,203.75,2536,207.75,2532,198.75" style="stroke:#181818;stroke-width:1;"/><text fill="#000000" font-family="sans-serif" font-size="13" lengthAdjust="spacing" textLength="76.9082" x="2533" y="241.5669">implements</text></g><!--link Feature_User to logic_arc_int__baselibs__message_passing--><g id="link_Feature_User_logic_arc_int__baselibs__message_passing"><path codeLine="38" d="M3111.73,45.76 C2908.83,51.48 2062.77,76.33 1369,111.5 C1042.09,128.07 960.17,130.96 634,158.5 C628.49,158.97 628.8658,158.9215 623.2058,159.4315 " fill="transparent" id="Feature_User-to-logic_arc_int__baselibs__message_passing" style="stroke:#181818;stroke-width:1;"/><polygon fill="#181818" points="617.23,159.97,626.5527,163.1462,622.2098,159.5213,625.8347,155.1785,617.23,159.97" style="stroke:#181818;stroke-width:1;"/><text fill="#000000" font-family="sans-serif" font-size="13" lengthAdjust="spacing" textLength="23.0103" x="1370" y="124.5669">use</text></g><!--link Feature_User to logic_arc_int__baselibs__json--><g id="link_Feature_User_logic_arc_int__baselibs__json"><path codeLine="39" d="M3111.82,45.39 C2886.16,49.93 1858.6,71.9 1018,111.5 C685.71,127.15 602,125.35 271,158.5 C264.02,159.2 262.8098,159.2866 255.5898,160.1266 " fill="transparent" id="Feature_User-to-logic_arc_int__baselibs__json" style="stroke:#181818;stroke-width:1;"/><polygon fill="#181818" points="249.63,160.82,259.032,163.7531,254.5965,160.2422,258.1074,155.8067,249.63,160.82" style="stroke:#181818;stroke-width:1;"/><text fill="#000000" font-family="sans-serif" font-size="13" lengthAdjust="spacing" textLength="23.0103" x="1019" y="124.5669">use</text></g><!--link Feature_User to logic_arc_int__baselibs__task_result--><g id="link_Feature_User_logic_arc_int__baselibs__task_result"><path codeLine="40" d="M3202.27,47.52 C3374.71,59.2 4006.9,103.43 4526,158.5 C4531.94,159.13 4532.0466,159.1285 4538.1766,159.8085 " fill="transparent" id="Feature_User-to-logic_arc_int__baselibs__task_result" style="stroke:#181818;stroke-width:1;"/><polygon fill="#181818" points="4544.14,160.47,4535.6359,155.5021,4539.1705,159.9187,4534.7539,163.4533,4544.14,160.47" style="stroke:#181818;stroke-width:1;"/><text fill="#000000" font-family="sans-serif" font-size="13" lengthAdjust="spacing" textLength="23.0103" x="4190" y="124.5669">use</text></g><!--reverse link logic_arc_int__baselibs__promise to comp_arc_sta__baselibs__concurrency--><g id="link_logic_arc_int__baselibs__promise_comp_arc_sta__baselibs__concurrency"><path codeLine="41" d="M3289.233,199.4641 C3376.953,212.6841 3490.61,229.78 3596,245.5 C3662.65,255.44 3736.86,266.44 3798.09,275.49 " fill="transparent" id="logic_arc_int__baselibs__promise-backto-comp_arc_sta__baselibs__concurrency" style="stroke:#181818;stroke-width:1;"/><polygon fill="#181818" points="3283.3,198.57,3291.6034,203.8665,3288.2442,199.3151,3292.7956,195.9559,3283.3,198.57" style="stroke:#181818;stroke-width:1;"/><text fill="#000000" font-family="sans-serif" font-size="13" lengthAdjust="spacing" textLength="76.9082" x="3597" y="241.5669">implements</text></g><!--reverse link logic_arc_int__baselibs__intrusive_list to comp_arc_sta__baselibs__containers--><g id="link_logic_arc_int__baselibs__intrusive_list_comp_arc_sta__baselibs__containers"><path codeLine="42" d="M5423.8918,202.1527 C5454.8118,223.4427 5499.39,254.14 5530.24,275.38 " fill="transparent" id="logic_arc_int__baselibs__intrusive_list-backto-comp_arc_sta__baselibs__containers" style="stroke:#181818;stroke-width:1;"/><polygon fill="#181818" points="5418.95,198.75,5424.0943,207.1486,5423.0682,201.5856,5428.6312,200.5595,5418.95,198.75" style="stroke:#181818;stroke-width:1;"/><text fill="#000000" font-family="sans-serif" font-size="13" lengthAdjust="spacing" textLength="76.9082" x="5486" y="241.5669">implements</text></g><!--reverse link logic_arc_int__baselibs__bit_manipulation to comp_arc_sta__baselibs__bit_manipulation--><g id="link_logic_arc_int__baselibs__bit_manipulation_comp_arc_sta__baselibs__bit_manipulation"><path codeLine="43" d="M1192.2541,202.7254 C1216.2541,223.9554 1250.14,253.94 1274.17,275.19 " fill="transparent" id="logic_arc_int__baselibs__bit_manipulation-backto-comp_arc_sta__baselibs__bit_manipulation" style="stroke:#181818;stroke-width:1;"/><polygon fill="#181818" points="1187.76,198.75,1191.8508,207.7091,1191.505,202.0628,1197.1513,201.717,1187.76,198.75" style="stroke:#181818;stroke-width:1;"/><text fill="#000000" font-family="sans-serif" font-size="13" lengthAdjust="spacing" textLength="76.9082" x="1240" y="241.5669">implements</text></g><!--reverse link logic_arc_int__baselibs__utils_base64 to comp_arc_sta__baselibs__utils--><g id="link_logic_arc_int__baselibs__utils_base64_comp_arc_sta__baselibs__utils"><path codeLine="44" d="M2195.5799,202.1113 C2164.0999,223.4013 2118.66,254.14 2087.26,275.38 " fill="transparent" id="logic_arc_int__baselibs__utils_base64-backto-comp_arc_sta__baselibs__utils" style="stroke:#181818;stroke-width:1;"/><polygon fill="#181818" points="2200.55,198.75,2190.854,200.4785,2196.4083,201.5511,2195.3357,207.1053,2200.55,198.75" style="stroke:#181818;stroke-width:1;"/><text fill="#000000" font-family="sans-serif" font-size="13" lengthAdjust="spacing" textLength="76.9082" x="2156" y="241.5669">implements</text></g><!--reverse link logic_arc_int__baselibs__task to comp_arc_sta__baselibs__concurrency--><g id="link_logic_arc_int__baselibs__task_comp_arc_sta__baselibs__concurrency"><path codeLine="45" d="M4309.1255,199.9907 C4223.0555,221.2807 4090.33,254.11 4004.2,275.41 " fill="transparent" id="logic_arc_int__baselibs__task-backto-comp_arc_sta__baselibs__concurrency" style="stroke:#181818;stroke-width:1;"/><polygon fill="#181818" points="4314.95,198.55,4305.2528,196.8281,4310.0963,199.7506,4307.1738,204.5941,4314.95,198.55" style="stroke:#181818;stroke-width:1;"/><text fill="#000000" font-family="sans-serif" font-size="13" lengthAdjust="spacing" textLength="76.9082" x="4189" y="241.5669">implements</text></g><!--reverse link logic_arc_int__baselibs__future to comp_arc_sta__baselibs__concurrency--><g id="link_logic_arc_int__baselibs__future_comp_arc_sta__baselibs__concurrency"><path codeLine="46" d="M4079.2439,201.8681 C4044.2439,223.1581 3993.33,254.14 3958.42,275.38 " fill="transparent" id="logic_arc_int__baselibs__future-backto-comp_arc_sta__baselibs__concurrency" style="stroke:#181818;stroke-width:1;"/><polygon fill="#181818" points="4084.37,198.75,4074.602,200.0098,4080.0982,201.3485,4078.7596,206.8446,4084.37,198.75" style="stroke:#181818;stroke-width:1;"/><text fill="#000000" font-family="sans-serif" font-size="13" lengthAdjust="spacing" textLength="76.9082" x="4034" y="241.5669">implements</text></g><!--reverse link logic_arc_int__baselibs__memory_shared to comp_arc_sta__baselibs__memory_shared--><g id="link_logic_arc_int__baselibs__memory_shared_comp_arc_sta__baselibs__memory_shared"><path codeLine="47" d="M812.9777,204.7317 C814.6377,225.9617 816.83,253.94 818.49,275.19 " fill="transparent" id="logic_arc_int__baselibs__memory_shared-backto-comp_arc_sta__baselibs__memory_shared" style="stroke:#181818;stroke-width:1;"/><polygon fill="#181818" points="812.51,198.75,809.2238,208.0344,812.8998,203.7348,817.1994,207.4108,812.51,198.75" style="stroke:#181818;stroke-width:1;"/><text fill="#000000" font-family="sans-serif" font-size="13" lengthAdjust="spacing" textLength="76.9082" x="818" y="241.5669">implements</text></g><!--link Feature_User to logic_arc_int__baselibs__result--><g id="link_Feature_User_logic_arc_int__baselibs__result"><path codeLine="48" d="M3111.8,54.12 C3009.17,75.96 2762.8586,128.3712 2627.3786,157.2012 " fill="transparent" id="Feature_User-to-logic_arc_int__baselibs__result" style="stroke:#181818;stroke-width:1;"/><polygon fill="#181818" points="2621.51,158.45,2631.1454,160.4892,2626.4005,157.4093,2629.4803,152.6644,2621.51,158.45" style="stroke:#181818;stroke-width:1;"/><text fill="#000000" font-family="sans-serif" font-size="13" lengthAdjust="spacing" textLength="23.0103" x="2827" y="124.5669">use</text></g><!--reverse link logic_arc_int__baselibs__message_passing to comp_arc_sta__baselibs__message_passing--><g id="link_logic_arc_int__baselibs__message_passing_comp_arc_sta__baselibs__message_passing"><path codeLine="49" d="M453,204.75 C453,225.98 453,253.94 453,275.19 " fill="transparent" id="logic_arc_int__baselibs__message_passing-backto-comp_arc_sta__baselibs__message_passing" style="stroke:#181818;stroke-width:1;"/><polygon fill="#181818" points="453,198.75,449,207.75,453,203.75,457,207.75,453,198.75" style="stroke:#181818;stroke-width:1;"/><text fill="#000000" font-family="sans-serif" font-size="13" lengthAdjust="spacing" textLength="76.9082" x="454" y="241.5669">implements</text></g><!--reverse link logic_arc_int__baselibs__shared_future to comp_arc_sta__baselibs__concurrency--><g id="link_logic_arc_int__baselibs__shared_future_comp_arc_sta__baselibs__concurrency"><path codeLine="50" d="M2997.0159,198.9558 C3110.0959,212.7358 3262.66,230.82 3402,245.5 C3528.32,258.81 3671.93,272.09 3776.98,281.46 " fill="transparent" id="logic_arc_int__baselibs__shared_future-backto-comp_arc_sta__baselibs__concurrency" style="stroke:#181818;stroke-width:1;"/><polygon fill="#181818" points="2991.06,198.23,2999.51,203.2893,2996.0233,198.8348,3000.4778,195.3481,2991.06,198.23" style="stroke:#181818;stroke-width:1;"/><text fill="#000000" font-family="sans-serif" font-size="13" lengthAdjust="spacing" textLength="76.9082" x="3403" y="241.5669">implements</text></g><!--link Feature_User to logic_arc_int__baselibs__intrusive_list--><g id="link_Feature_User_logic_arc_int__baselibs__intrusive_list"><path codeLine="51" d="M3202.21,45.89 C3423.69,52.91 4416.12,87.04 5226,158.5 C5232.03,159.03 5232.2086,159.0144 5238.4286,159.6244 " fill="transparent" id="Feature_User-to-logic_arc_int__baselibs__intrusive_list" style="stroke:#181818;stroke-width:1;"/><polygon fill="#181818" points="5244.4,160.21,5235.8334,155.3507,5239.4239,159.722,5235.0526,163.3125,5244.4,160.21" style="stroke:#181818;stroke-width:1;"/><text fill="#000000" font-family="sans-serif" font-size="13" lengthAdjust="spacing" textLength="23.0103" x="4832" y="124.5669">use</text></g><!--reverse link logic_arc_int__baselibs__json to comp_arc_sta__baselibs__json--><g id="link_logic_arc_int__baselibs__json_comp_arc_sta__baselibs__json"><path codeLine="52" d="M131.9002,204.7444 C130.9802,225.9744 129.76,253.94 128.84,275.19 " fill="transparent" id="logic_arc_int__baselibs__json-backto-comp_arc_sta__baselibs__json" style="stroke:#181818;stroke-width:1;"/><polygon fill="#181818" points="132.16,198.75,127.7741,207.5684,131.9435,203.7453,135.7666,207.9147,132.16,198.75" style="stroke:#181818;stroke-width:1;"/><text fill="#000000" font-family="sans-serif" font-size="13" lengthAdjust="spacing" textLength="76.9082" x="132" y="241.5669">implements</text></g><!--SRC=[jLLDZzCm4BtxLrXxxu8Guh1QxGM94qSuMnDdQ8VrH_2Cbms8_uxJTcaRIbD7uJYE_VAU_TuCE1U_6q_F5DPAOgSbwYQAHAzRIcY5Ob0RQb6pOC8eVOUx6dqdlGQHH4qMP7NFqZjyKBV0v1hzKtsaWE-ZYqadRBVLfmtPnu3C-itjQ_LBtR_Qdr5WfUox-O0WEQ7-p9XkDB3UBvXXGIjrKgxQrODsSKtMGBA6WXZJ0AEZXerf-m1- -ob1VwSperOs-cwxbmMEzzeOR4u9W-trAbz2vJxOJOg1Vc1hlcNCUAV9Tmuz1c5TGp0BEJPiOrUWOhSOHG5-D0avEpdbTW5QeBnEuWdaqPNErFs5779VxEJtaYlE5gej3PuqJv086eSJrtRusOIsOrPpXULXPxqeV4QRY_qNSy01SAQImKBrEZpwc7h36oXvhpz-Bbgr60s9yH2eomu6cyn5A0agiKnmU9NgO0_rkxVrfxiKFJ4kPePpaRccAsnLJ63_rSAk0Hw_qSG_pZp8J5VlZ7aQqt-HtFNF2MhdccnLNfXXZQO3vZ9-wwtobUSu_6G-B6IoFwPTTDwKCcMc9pIEMFwZkuuRnhBPUEa2LzvBnOXV6lCb5jUWddJw2TpHL9YPbQlyEWhK9B5H_9Qzpr6tcQbx786B-eT-CC5grpAEoVm6]--></g></svg>